#N canvas 367 42 585 560 12;
#X obj 107 177 readsf~;
#X msg 102 139 start;
#X obj 101 112 trigger b b;
#X msg 155 138 open schej.wav;
#X obj 141 260 dac~;
#X obj 97 52 bng 15 250 50 0 empty empty empty 17 7 0 10 -262144 -1
-1;
#X connect 0 0 4 0;
#X connect 0 0 4 1;
#X connect 1 0 0 0;
#X connect 2 0 1 0;
#X connect 2 1 3 0;
#X connect 3 0 0 0;
#X connect 5 0 2 0;
