#N canvas 4 123 1280 755 10;
#X declare -path ../_common;
#X obj 908 899 dac~;
#X obj 976 208 hsl 128 15 0 1 0 0 empty empty empty -2 -8 0 10 -203904
-1 -1 8778 1;
#X obj 381 365 lop~ 20000;
#X obj 860 500 *~ 0;
#X obj 403 16 loadmess 0;
#X text 428 60 <= sample 1 volume;
#X text 455 84 <= sample 2 volume;
#X text 477 260 <= stores and plays all samples;
#N canvas 87 100 1038 623 sampleBank 0;
#N canvas 0 22 450 300 (subpatch) 0;
#X array array1 2.21376e+06 float 2;
#X coords 0 1 2.21376e+06 -1 200 140 1;
#X restore 63 152 graph;
#X obj 590 -9 loadbang;
#N canvas 0 22 450 300 (subpatch) 0;
#X array array2 2.21376e+06 float 2;
#X coords 0 1 2.21376e+06 -1 200 140 1;
#X restore 275 155 graph;
#X obj 713 559 outlet~;
#X obj 773 559 outlet~;
#X msg 768 63 read -resize sample_2.wav array2;
#X msg 549 63 read -resize sample_1.wav array1;
#X obj 768 92 soundfiler;
#X floatatom 768 115 15 0 0 0 - - -;
#X obj 768 207 phasor~;
#X msg 783 156 0;
#X obj 788 246 *~;
#X obj 765 136 expr 44100/$f1;
#X obj 788 275 tabread4~ array2;
#X obj 549 92 soundfiler;
#X floatatom 549 115 15 0 0 0 - - -;
#X obj 549 207 phasor~;
#X msg 564 156 0;
#X obj 573 246 *~;
#X obj 550 136 expr 44100/$f1;
#X obj 573 275 tabread4~ array1;
#X obj 1267 24 hsl 128 15 0 1 0 0 empty empty empty -2 -8 0 10 -262144
-1 -1 0 1;
#X obj 596 178 scale 0 1 0.005 0.05;
#X obj 815 178 scale 0 1 0.005 0.05;
#X obj 1260 -32 inlet;
#X obj 1262 2 scale 0 1 0 0.5;
#X connect 1 0 6 0;
#X connect 1 0 5 0;
#X connect 5 0 7 0;
#X connect 6 0 14 0;
#X connect 7 0 8 0;
#X connect 8 0 12 0;
#X connect 8 0 11 1;
#X connect 9 0 11 0;
#X connect 10 0 9 0;
#X connect 11 0 13 0;
#X connect 12 0 9 0;
#X connect 13 0 4 0;
#X connect 14 0 15 0;
#X connect 15 0 19 0;
#X connect 15 0 18 1;
#X connect 16 0 18 0;
#X connect 17 0 16 0;
#X connect 18 0 20 0;
#X connect 19 0 16 0;
#X connect 20 0 3 0;
#X connect 21 0 22 0;
#X connect 21 0 23 0;
#X connect 22 0 16 0;
#X connect 23 0 9 0;
#X connect 24 0 25 0;
#X connect 25 0 21 0;
#X restore 384 262 pd sampleBank;
#X obj 836 -330 inlet;
#X obj 836 -289 unpack 0 0 0 0 0 0 0 0;
#X obj 720 898 throw~ outL;
#X obj 796 898 throw~ outR;
#X obj 953 697 hsl 128 15 0 1 0 0 empty empty empty -2 -8 0 10 -203904
-1 -1 5080 1;
#X text 1103 700 <= low pass filter;
#X obj 810 768 vradio 15 1 0 3 empty empty empty 0 -8 0 10 -228856
-1 -1 2;
#X text 798 768 0;
#X text 798 783 1;
#X text 798 798 2;
#X text 831 768 <= route to correct output (0 closed \, 1 bela \, 2
laptop);
#X obj 300 -166 hsl 128 15 0 1 0 0 empty empty empty -2 -8 0 10 -203904
-1 -1 0 1;
#X text 439 -165 <= playback speed;
#N canvas 4 23 1280 755 formants 0;
#X obj 37 135 inlet~;
#X obj 277 33 inlet;
#X obj 59 777 outlet~;
#X obj 61 621 bp~ 0 0;
#X obj 122 621 bp~ 0 0;
#X obj 185 621 bp~ 0 0;
#X obj 207 551 line;
#X obj 252 551 line;
#X obj 296 551 line;
#X obj 360 551 line;
#X obj 408 551 line;
#X obj 471 551 line;
#X msg 450 523 \$1 500;
#X msg 401 523 \$1 500;
#X msg 352 523 \$1 500;
#X msg 303 523 \$1 500;
#X msg 258 523 \$1 500;
#X msg 207 523 \$1 500;
#X obj 328 32 inlet;
#X obj 378 32 inlet;
#X obj 263 164 vsl 15 128 200 900 0 0 empty empty empty 0 -9 0 10 -262144
-1 -1 0 1;
#X obj 330 166 vsl 15 128 800 2500 0 0 empty empty empty 0 -9 0 10
-262144 -1 -1 0 1;
#X obj 384 163 vsl 15 128 2600 3100 0 0 empty empty empty 0 -9 0 10
-262144 -1 -1 0 1;
#X msg 276 408 30;
#X msg 381 407 80;
#X msg 507 405 100;
#X msg 246 340 \$1;
#X msg 333 340 \$1;
#X msg 418 341 \$1;
#X obj 497 345 loadbang;
#X floatatom 223 292 5 0 0 0 - - -;
#X floatatom 291 309 5 0 0 0 - - -;
#X floatatom 368 321 5 0 0 0 - - -;
#X text 740 182 Formant 0: 590 920 2710;
#X text 740 202 Formant e: 430 2480 3000;
#X text 741 221 Formant u: 370 950 2670;
#X text 740 243 Formant i: 280 2400 3000;
#X text 741 163 Formant a: 850 1220 2810;
#X obj 264 137 scale 0 1 200 900;
#X obj 326 114 scale 0 1 800 2500;
#X obj 378 88 scale 0 1 2600 3100;
#X connect 0 0 3 0;
#X connect 0 0 4 0;
#X connect 0 0 5 0;
#X connect 1 0 38 0;
#X connect 3 0 2 0;
#X connect 4 0 2 0;
#X connect 5 0 2 0;
#X connect 6 0 3 1;
#X connect 7 0 3 2;
#X connect 8 0 4 1;
#X connect 9 0 4 2;
#X connect 10 0 5 1;
#X connect 11 0 5 2;
#X connect 12 0 11 0;
#X connect 13 0 10 0;
#X connect 14 0 9 0;
#X connect 15 0 8 0;
#X connect 16 0 7 0;
#X connect 17 0 6 0;
#X connect 18 0 39 0;
#X connect 19 0 40 0;
#X connect 20 0 26 0;
#X connect 20 0 30 0;
#X connect 21 0 27 0;
#X connect 21 0 31 0;
#X connect 22 0 28 0;
#X connect 22 0 32 0;
#X connect 23 0 16 0;
#X connect 24 0 14 0;
#X connect 25 0 12 0;
#X connect 26 0 17 0;
#X connect 27 0 15 0;
#X connect 28 0 13 0;
#X connect 29 0 25 0;
#X connect 29 0 24 0;
#X connect 29 0 23 0;
#X connect 38 0 20 0;
#X connect 39 0 21 0;
#X connect 40 0 22 0;
#X restore 815 419 pd formants;
#X obj 403 63 vsl 15 128 0 1 0 0 empty empty empty 0 -9 0 10 -203904
-1 -1 0 1;
#X obj 435 80 vsl 15 128 0 1 0 0 empty empty empty 0 -9 0 10 -203904
-1 -1 0 1;
#X obj 815 450 *~ 4;
#X obj 1625 -81 bng 15 250 50 0 empty empty empty 17 7 0 10 -262144
-1 -1;
#X obj 1654 -24 pack 0 0 0 0 0 0 0 0;
#X text 891 -330 <= inlet for gestiure values;
#X obj 977 418 + 1;
#X obj 967 460 hsl 128 15 0 1 0 0 empty empty empty -2 -8 0 10 -262144
-1 -1 8778 1;
#X text 1108 212 <= main voder volume;
#N canvas 291 23 705 424 variableLowPass 0;
#X obj 231 250 hsl 128 15 10000 0 0 0 empty empty empty -2 -8 0 10
-262144 -1 -1 11948 1;
#X obj 47 245 lop~;
#X floatatom 228 274 5 0 0 0 - - -;
#N canvas 248 126 626 481 expo 0;
#X obj 93 113 inlet;
#X obj 203 204 < 0;
#X obj 170 239 spigot;
#X obj 264 153 hsl 128 15 1 20 0 0 empty empty empty -2 -8 0 10 -262144
-1 -1 668 1;
#X obj 173 130 hsl 128 15 -1 1 0 0 empty empty empty -2 -8 0 10 -262144
-1 -1 7620 1;
#X text 396 152 Exponent;
#X text 303 129 Constant;
#X obj 170 285 pow;
#X obj 170 262 * -1;
#X obj 223 240 spigot;
#X obj 256 205 > 0;
#X obj 170 308 * -1;
#X obj 170 170 t f f;
#X obj 223 263 pow;
#X floatatom 170 331 5 0 0 0 - - -;
#X floatatom 432 168 5 0 0 0 - - -;
#X msg 170 108 0;
#X floatatom 135 145 5 0 0 0 - - -;
#X obj 261 180 s \$0-exp;
#X obj 272 246 r \$0-exp;
#X obj 170 86 loadbang;
#X msg 261 103 2;
#X obj 170 353 outlet;
#X connect 0 0 4 0;
#X connect 1 0 2 1;
#X connect 2 0 8 0;
#X connect 3 0 15 0;
#X connect 3 0 18 0;
#X connect 4 0 12 0;
#X connect 4 0 17 0;
#X connect 7 0 11 0;
#X connect 8 0 7 0;
#X connect 9 0 13 0;
#X connect 10 0 9 1;
#X connect 11 0 14 0;
#X connect 12 0 2 0;
#X connect 12 0 9 0;
#X connect 12 1 1 0;
#X connect 12 1 10 0;
#X connect 13 0 14 0;
#X connect 14 0 22 0;
#X connect 16 0 4 0;
#X connect 19 0 13 1;
#X connect 19 0 7 1;
#X connect 20 0 16 0;
#X connect 20 0 21 0;
#X connect 21 0 3 0;
#X restore 129 203 pd expo;
#X obj 213 109 bng 15 250 50 0 empty empty empty 17 7 0 10 -262144
-1 -1;
#X obj 245 178 hsl 128 15 0 1 0 0 empty empty empty -2 -8 0 10 -262144
-1 -1 2540 1;
#X obj 227 141 - 1;
#X text 255 140 <= voder low pass minus velocty val;
#X obj 48 356 outlet~;
#X obj 46 9 inlet~;
#X obj 144 51 inlet;
#X obj 403 20 inlet;
#X text 446 22 <= incoming main lowPass slider;
#X text 190 52 <= incoming velocity value;
#X obj 228 224 scale 1 0 10000 200;
#X obj 509 131 loadbang;
#X msg 510 151 0.4;
#X connect 0 0 1 1;
#X connect 0 0 2 0;
#X connect 1 0 8 0;
#X connect 3 0 14 0;
#X connect 4 0 6 0;
#X connect 5 0 3 0;
#X connect 9 0 1 0;
#X connect 10 0 4 0;
#X connect 10 0 6 1;
#X connect 10 0 5 0;
#X connect 11 0 6 0;
#X connect 14 0 0 0;
#X connect 15 0 16 0;
#X restore 900 731 pd variableLowPass;
#N canvas 33 23 622 472 variableHiPass 0;
#X obj 46 478 outlet~;
#X obj 46 9 inlet~;
#X obj 189 64 inlet;
#X obj 476 60 inlet;
#X text 519 62 <= incoming main lowPass slider;
#X text 235 65 <= incoming velocity value;
#X floatatom 210 368 5 0 0 0 - - -;
#X obj 213 344 hsl 128 15 0 10000 0 0 empty empty empty -2 -8 0 10
-262144 -1 -1 508 1;
#N canvas 248 126 626 481 expo 0;
#X obj 93 113 inlet;
#X obj 203 204 < 0;
#X obj 170 239 spigot;
#X obj 264 153 hsl 128 15 1 20 0 0 empty empty empty -2 -8 0 10 -262144
-1 -1 668 1;
#X obj 173 130 hsl 128 15 -1 1 0 0 empty empty empty -2 -8 0 10 -262144
-1 -1 7620 1;
#X text 396 152 Exponent;
#X text 303 129 Constant;
#X obj 170 285 pow;
#X obj 170 262 * -1;
#X obj 223 240 spigot;
#X obj 256 205 > 0;
#X obj 170 308 * -1;
#X obj 170 170 t f f;
#X obj 223 263 pow;
#X floatatom 170 331 5 0 0 0 - - -;
#X floatatom 432 168 5 0 0 0 - - -;
#X msg 170 108 0;
#X floatatom 135 145 5 0 0 0 - - -;
#X obj 261 180 s \$0-exp;
#X obj 272 246 r \$0-exp;
#X obj 170 86 loadbang;
#X msg 261 103 2;
#X obj 170 353 outlet;
#X connect 0 0 4 0;
#X connect 1 0 2 1;
#X connect 2 0 8 0;
#X connect 3 0 15 0;
#X connect 3 0 18 0;
#X connect 4 0 12 0;
#X connect 4 0 17 0;
#X connect 7 0 11 0;
#X connect 8 0 7 0;
#X connect 9 0 13 0;
#X connect 10 0 9 1;
#X connect 11 0 14 0;
#X connect 12 0 2 0;
#X connect 12 0 9 0;
#X connect 12 1 1 0;
#X connect 12 1 10 0;
#X connect 13 0 14 0;
#X connect 14 0 22 0;
#X connect 16 0 4 0;
#X connect 19 0 13 1;
#X connect 19 0 7 1;
#X connect 20 0 16 0;
#X connect 20 0 21 0;
#X connect 21 0 3 0;
#X restore 210 304 pd expo;
#X obj 210 325 scale 0 1 0 10000;
#X obj 213 274 hsl 128 15 0 1 0 0 empty empty empty -2 -8 0 10 -262144
-1 -1 0 1;
#X text 237 238 <= voder high pass minus velocty val;
#X obj 209 239 - 1;
#X obj 178 223 bng 15 250 50 0 empty empty empty 17 7 0 10 -262144
-1 -1;
#X obj 46 402 hip~;
#X connect 1 0 14 0;
#X connect 2 0 13 0;
#X connect 2 0 8 0;
#X connect 3 0 12 0;
#X connect 7 0 6 0;
#X connect 7 0 14 1;
#X connect 8 0 9 0;
#X connect 9 0 7 0;
#X connect 10 0 8 0;
#X connect 13 0 12 0;
#X connect 14 0 0 0;
#X restore 910 601 pd variableHiPass;
#X obj 948 575 hsl 128 15 0 1 0 0 empty empty empty -2 -8 0 10 -203904
-1 -1 127 1;
#X text 1092 573 <= high pass filter;
#X obj 947 548 loadmess 0.01;
#X obj 159 50 vsl 15 128 0 1 0 0 empty empty empty 0 -9 0 10 -203904
-1 -1 0 1;
#X obj 1654 -58 r f1;
#X obj 1685 -58 r f2;
#X obj 1717 -58 r f3;
#N canvas 555 23 693 755 presetList 0;
#X obj 14 40 inlet;
#X obj 14 487 outlet;
#X obj 14 116 sel 1;
#X obj 63 116 sel 2;
#X obj 113 117 sel 3;
#X obj 161 119 sel 4;
#X obj 211 118 sel 5;
#X obj 14 448 pack f f f f f f f f;
#X obj 257 119 sel 6;
#X msg 14 149 0.929134 0.244094 0.417323 0.700787 0.204724 0.779528
0.685039 1;
#X msg 33 190 0.559055 0.0708661 0.220472 0.0393701 0.897638 0.590551
0.330709 1;
#X msg 58 228 0.330709 0.944882 0.80315 0.23622 0.771654 0.76378 0.0551181
1;
#X msg 73 269 0.244094 0.0866142 0.141732 0.0393701 0 0.582677 0.330709
1;
#X msg 107 305 0.11811 0.944882 0.80315 0.716535 1 0 0.669291 1;
#X msg 146 346 0.929134 0.244094 0.417323 0.125984 0 0.952756 1 1;
#X connect 0 0 2 0;
#X connect 0 0 3 0;
#X connect 0 0 4 0;
#X connect 0 0 5 0;
#X connect 0 0 6 0;
#X connect 0 0 8 0;
#X connect 2 0 9 0;
#X connect 3 0 10 0;
#X connect 4 0 11 0;
#X connect 5 0 12 0;
#X connect 6 0 13 0;
#X connect 7 0 1 0;
#X connect 8 0 14 0;
#X connect 9 0 7 0;
#X connect 10 0 7 0;
#X connect 11 0 7 0;
#X connect 12 0 7 0;
#X connect 13 0 7 0;
#X connect 14 0 7 0;
#X restore 1568 -273 pd presetList;
#X obj 890 -312 r preset;
#X floatatom 1568 -302 7 0 7 0 - - -;
#X obj 1568 -332 inlet;
#X obj 1750 -58 r v1;
#X obj 1782 -58 r v2;
#X obj 1813 -58 r v3;
#X obj 1850 -58 r speed;
#X obj 1912 -58 r main v;
#N canvas 0 0 981 987 phasor 0;
#X obj 227 233 phasor~;
#X obj 228 33 vsl 15 128 0 1 0 0 empty empty empty 0 -9 0 10 -262144
-1 -1 0 1;
#X floatatom 227 205 5 0 0 0 - - -;
#X obj 227 175 scale 0 1 50 500;
#X obj 349 403 outlet~;
#X obj 228 11 inlet;
#X obj 348 337 *~;
#X obj 371 308 loadmess 0;
#X obj 363 9 inlet;
#X connect 0 0 6 0;
#X connect 1 0 3 0;
#X connect 2 0 0 0;
#X connect 3 0 2 0;
#X connect 5 0 1 0;
#X connect 6 0 4 0;
#X connect 7 0 6 1;
#X connect 8 0 6 1;
#X restore 159 227 pd phasor;
#X text 1617 -332 <= inlet for preset retrival;
#X obj 1652 -227 s preset;
#X text 1624 -114 preset preset storage;
#X text 1976 -60 <= receive values;
#X text 1654 -82 <= bang to print preset values;
#X text 991 425 <= voder volume plus added velocity val;
#X obj 309 -146 s speed;
#X obj 159 193 s v1;
#X obj 389 197 s v2;
#X obj 423 215 s v3;
#X obj 1570 898 outlet;
#X text 185 52 <= Sawtooth Volume;
#X obj 382 293 *~ 0;
#X obj 414 293 *~ 0;
#X obj 421 333 *~ 4;
#X obj 950 670 loadmess 0.4;
#X obj 832 185 vsl 15 128 0 1 0 0 empty empty empty 0 -9 0 10 -203904
-1 -1 0 1;
#X obj 856 185 vsl 15 128 0 1 0 0 empty empty empty 0 -9 0 10 -203904
-1 -1 0 1;
#X obj 878 185 vsl 15 128 0 1 0 0 empty empty empty 0 -9 0 10 -203904
-1 -1 0 1;
#X obj 792 326 s f1;
#X obj 847 337 s f2;
#X obj 908 332 s f3;
#X obj 1068 184 r \$0-setvalue;
#X obj 941 263 loadmess 0.8, f 14;
#X text 1050 266 <= send a level for fade in/out;
#X text 1148 186 <= receive fade in/out value;
#X obj 939 165 loadmess 0;
#X obj 941 238 delay 200;
#X obj 939 299 delay 500;
#N canvas 4 23 1436 855 fadeInOut 0;
#X obj 368 61 inlet;
#X obj 186 313 vsl 15 128 0 1 0 0 empty empty empty 0 -9 0 10 -262144
-1 -1 8778 1;
#X obj 238 332 f;
#X obj 238 290 bng 15 250 50 0 empty empty empty 17 7 0 10 -262144
-1 -1;
#X obj 368 332 f;
#X obj 368 290 bng 15 250 50 0 empty empty empty 17 7 0 10 -262144
-1 -1;
#X obj 152 473 s \$0-value;
#X msg 269 398 set \$1;
#X msg 415 397 set \$1;
#X obj 238 420 s \$0-setvalue;
#X obj 368 420 s \$0-setvalue;
#X obj 122 290 r \$0-setvalue;
#X text 226 263 2) fade out;
#X text 356 263 3) fade in to previous level;
#X obj 238 464 r \$0-setvalue;
#X obj 338 464 r \$0-value;
#X floatatom 238 508 5 0 0 0 - - -;
#X obj 238 486 route set;
#X obj 238 376 line;
#X obj 368 378 line;
#X obj 253 311 r main v;
#X obj 386 310 r main v;
#X floatatom 186 449 5 0 0 0 - - -;
#X msg 238 354 \$1 \, 0 10000;
#X msg 368 354 0 \, \$1 10000;
#X connect 0 0 5 0;
#X connect 1 0 6 0;
#X connect 1 0 22 0;
#X connect 2 0 23 0;
#X connect 3 0 2 0;
#X connect 4 0 24 0;
#X connect 5 0 4 0;
#X connect 11 0 1 0;
#X connect 14 0 17 0;
#X connect 15 0 16 0;
#X connect 17 0 16 0;
#X connect 18 0 7 0;
#X connect 18 0 9 0;
#X connect 19 0 8 0;
#X connect 19 0 10 0;
#X connect 20 0 2 1;
#X connect 21 0 4 1;
#X connect 23 0 18 0;
#X connect 24 0 19 0;
#X restore 1004 333 pd fadeInOut;
#X obj 1104 299 bng 15 250 50 0 empty empty empty 17 7 0 10 -262144
-1 -1;
#X obj 1273 -329 inlet;
#X obj 1277 37 hsl 128 15 0 1 0 0 empty empty empty -2 -8 0 10 -262144
-1 -1 0 1;
#X obj 1433 15 loadbang;
#X msg 1433 37 0.2;
#X text 1323 -330 <= inlet for raw sensor data;
#X obj 1270 -303 unpack 0 0 0 0 0 0 0 0;
#X obj 1270 -274 acc_line;
#X obj 1291 -255 acc_line;
#X obj 1312 -231 acc_line;
#X obj 1334 -208 acc_line;
#X obj 1357 -276 acc_line;
#X obj 1378 -257 acc_line;
#X obj 1399 -233 acc_line;
#X obj 1421 -210 acc_line;
#X obj 1431 -180 + 0;
#X obj 1413 -156 + 0;
#X obj 1396 -131 + 0;
#X obj 1378 -107 + 0;
#X obj 1318 -178 + 0;
#X obj 1300 -154 + 0;
#X obj 1283 -127 + 0;
#X obj 1323 -112 min 1;
#X obj 1324 -91 max 0;
#X obj 299 -299 declare -path ../_common;
#X obj 1274 65 s voder_velocity;
#X obj 909 523 r voder_velocity;
#X obj 980 387 r voder_velocity;
#X obj 913 645 r voder_velocity;
#X obj 934 99 bng 15 250 50 0 empty empty empty 17 7 0 10 -262144 -1
-1;
#X obj 1040 294 s main v;
#X obj 1742 -278 loadbang;
#X msg 1747 -226 0 0 0 0 0 0 0 0;
#X obj 810 840 gate~ 2 1;
#X connect 1 0 111 0;
#X connect 1 0 30 0;
#X connect 1 0 29 1;
#X connect 2 0 22 0;
#X connect 3 0 33 0;
#X connect 4 0 23 0;
#X connect 4 0 24 0;
#X connect 8 0 63 0;
#X connect 8 1 64 0;
#X connect 9 0 10 0;
#X connect 10 0 67 0;
#X connect 10 1 68 0;
#X connect 10 2 69 0;
#X connect 10 3 37 0;
#X connect 10 4 23 0;
#X connect 10 5 24 0;
#X connect 10 6 20 0;
#X connect 13 0 32 2;
#X connect 15 0 114 0;
#X connect 20 0 8 0;
#X connect 20 0 57 0;
#X connect 20 0 50 0;
#X connect 22 0 25 0;
#X connect 23 0 59 0;
#X connect 23 0 63 1;
#X connect 24 0 60 0;
#X connect 24 0 64 1;
#X connect 25 0 3 0;
#X connect 26 0 27 0;
#X connect 29 0 30 0;
#X connect 30 0 3 1;
#X connect 32 0 114 1;
#X connect 33 0 32 0;
#X connect 34 0 33 2;
#X connect 36 0 34 0;
#X connect 37 0 58 0;
#X connect 37 0 50 1;
#X connect 38 0 27 0;
#X connect 39 0 27 1;
#X connect 40 0 27 2;
#X connect 41 0 52 0;
#X connect 41 0 61 0;
#X connect 42 0 10 0;
#X connect 43 0 41 0;
#X connect 44 0 43 0;
#X connect 45 0 27 3;
#X connect 46 0 27 4;
#X connect 47 0 27 5;
#X connect 48 0 27 6;
#X connect 49 0 27 7;
#X connect 50 0 2 0;
#X connect 63 0 65 0;
#X connect 64 0 65 0;
#X connect 65 0 2 0;
#X connect 66 0 13 0;
#X connect 67 0 22 1;
#X connect 67 0 70 0;
#X connect 68 0 22 2;
#X connect 68 0 71 0;
#X connect 69 0 22 3;
#X connect 69 0 72 0;
#X connect 73 0 1 0;
#X connect 74 0 79 0;
#X connect 74 0 111 0;
#X connect 77 0 1 0;
#X connect 77 0 78 0;
#X connect 78 0 74 0;
#X connect 79 0 80 0;
#X connect 81 0 80 0;
#X connect 82 0 87 0;
#X connect 83 0 106 0;
#X connect 84 0 85 0;
#X connect 85 0 106 0;
#X connect 87 0 88 0;
#X connect 87 1 89 0;
#X connect 87 2 90 0;
#X connect 87 3 91 0;
#X connect 87 4 92 0;
#X connect 87 5 93 0;
#X connect 87 6 94 0;
#X connect 87 7 95 0;
#X connect 88 0 102 0;
#X connect 89 0 101 0;
#X connect 90 0 100 0;
#X connect 91 0 100 1;
#X connect 92 0 98 0;
#X connect 93 0 97 0;
#X connect 94 0 96 0;
#X connect 95 0 96 1;
#X connect 96 0 97 1;
#X connect 97 0 98 1;
#X connect 98 0 99 1;
#X connect 99 0 103 0;
#X connect 100 0 101 1;
#X connect 101 0 102 1;
#X connect 102 0 99 0;
#X connect 103 0 104 0;
#X connect 104 0 83 0;
#X connect 107 0 33 1;
#X connect 108 0 29 0;
#X connect 109 0 32 1;
#X connect 110 0 77 0;
#X connect 112 0 113 0;
#X connect 113 0 52 0;
#X connect 114 0 12 0;
#X connect 114 0 11 0;
#X connect 114 1 0 0;
#X connect 114 1 0 1;
