#N canvas 0 23 1303 837 12;
#X obj 508 253 pak 0 0 0 0 0 0 0 0;
#X obj 509 373 list trim;
#X obj 509 325 list prepend ctrl;
#X obj 509 299 list prepend t_ctrl;
#X obj 111 117 hradio 15 1 0 5 empty empty mode 0 -8 0 10 -262144 -1
-1 0;
#X obj 664 371 list trim;
#X obj 664 323 list prepend mode;
#X obj 163 219 bng 15 250 50 0 empty empty set_base 17 7 0 10 -262144
-1 -1;
#X obj 109 220 tgl 15 0 empty empty calib 17 7 0 10 -262144 -1 -1 0
1;
#X obj 283 616 list trim;
#X obj 436 615 list trim;
#X obj 283 543 list prepend base;
#X obj 283 567 list prepend sensor;
#X obj 436 542 list prepend calibration;
#X obj 436 567 list prepend sensor;
#X obj 197 116 tgl 15 0 empty empty train_mode 17 7 0 10 -258858 -1
-1 0 1;
#X obj 110 139 tgl 15 0 empty empty add_data 22 7 0 10 -4032 -1 -1
0 1;
#X obj 196 162 bng 15 250 50 0 empty empty ml_train 17 7 0 10 -4160
-1 -1;
#X obj 196 141 bng 15 250 50 0 empty empty ml_write 17 7 0 10 -142080
-1 -1;
#X obj 110 179 bng 15 250 50 0 empty empty ml_read 17 7 0 10 -262144
-1 -1;
#X obj 110 159 bng 15 250 50 0 empty empty ml_clear 17 7 0 10 -262144
-1 -1;
#X obj 679 269 list trim;
#X obj 679 221 list prepend ml;
#X obj 679 196 list prepend mode;
#X obj 820 270 list trim;
#X obj 820 222 list prepend ml;
#X obj 820 197 list prepend sensor;
#X obj 968 268 list trim;
#X obj 968 220 list prepend ml;
#X obj 968 195 list prepend write;
#X obj 968 373 list trim;
#X obj 968 326 list prepend ml;
#X obj 968 301 list prepend read;
#X obj 1105 373 list trim;
#X obj 1105 325 list prepend ml;
#X obj 1105 300 list prepend train;
#X obj 1112 268 list trim;
#X obj 1112 220 list prepend ml;
#X obj 1112 195 list prepend clear;
#X obj 70 546 * 10;
#X obj 71 572 int;
#X obj 70 598 / 10;
#X floatatom 8 600 5 0 0 0 - - -;
#X obj 70 624 change;
#X obj 127 623 list trim;
#X obj 127 575 list prepend audio;
#X obj 127 550 list prepend volume;
#X obj 357 263 tgl 15 0 empty empty sys_log 17 7 0 10 -262144 -1 -1
0 1;
#X obj 358 383 list trim;
#X obj 358 335 list prepend system;
#X obj 358 310 list prepend osc_log;
#X obj 157 398 bng 15 250 50 0 empty empty grab_num 17 7 0 10 -262144
-1 -1;
#X obj 562 157 r presets;
#X obj 561 193 gate;
#X obj 395 157 change;
#X obj 396 181 t b b;
#X obj 236 219 hsl 30 15 0 1 0 0 empty empty volume -2 -8 0 10 -257985
-1 -1 2900 1;
#X obj 302 335 loadbang;
#X msg 302 358 set 1;
#X msg 352 206 set 0;
#X obj 1112 243 list prepend all;
#X obj 968 242 list prepend all;
#X obj 820 244 list prepend all;
#X obj 679 243 list prepend all;
#X obj 664 348 list prepend all;
#X obj 358 357 list prepend all;
#X obj 127 597 list prepend all;
#X obj 283 590 list prepend all;
#X obj 436 589 list prepend all;
#X obj 968 348 list prepend all;
#X obj 1105 347 list prepend all;
#X obj 509 349 list prepend all;
#X msg 433 206 set 0;
#X obj 1014 789 s to_ctrl_netsend;
#X obj 68 335 s get_ip_all;
#X obj 110 200 bng 15 250 50 0 empty empty get_ip 17 7 0 10 -262144
-1 -1;
#X obj 856 789 s all_control_val;
#X obj 618 615 list trim;
#X obj 618 567 list prepend sensor;
#X obj 618 542 list prepend random;
#X obj 197 192 tgl 15 0 empty empty random 17 7 0 10 -262144 -1 -1
0 1;
#X obj 618 589 list prepend all;
#X obj 1165 405 delay 100;
#X obj 1117 407 t b b;
#X msg 1147 430 1;
#X obj 887 305 delay 100;
#X obj 841 305 t b b;
#X msg 872 330 1;
#X connect 0 0 3 0;
#X connect 1 0 73 0;
#X connect 1 0 76 0;
#X connect 2 0 71 0;
#X connect 3 0 2 0;
#X connect 4 0 6 0;
#X connect 4 0 54 0;
#X connect 5 0 73 0;
#X connect 5 0 76 0;
#X connect 6 0 64 0;
#X connect 7 0 11 0;
#X connect 8 0 13 0;
#X connect 9 0 73 0;
#X connect 9 0 76 0;
#X connect 10 0 73 0;
#X connect 10 0 76 0;
#X connect 11 0 12 0;
#X connect 12 0 67 0;
#X connect 13 0 14 0;
#X connect 14 0 68 0;
#X connect 15 0 23 0;
#X connect 15 0 53 0;
#X connect 16 0 26 0;
#X connect 17 0 83 0;
#X connect 18 0 29 0;
#X connect 19 0 86 0;
#X connect 20 0 38 0;
#X connect 21 0 73 0;
#X connect 21 0 76 0;
#X connect 22 0 63 0;
#X connect 23 0 22 0;
#X connect 24 0 73 0;
#X connect 24 0 76 0;
#X connect 25 0 62 0;
#X connect 26 0 25 0;
#X connect 27 0 73 0;
#X connect 27 0 76 0;
#X connect 28 0 61 0;
#X connect 29 0 28 0;
#X connect 30 0 73 0;
#X connect 30 0 76 0;
#X connect 31 0 69 0;
#X connect 32 0 31 0;
#X connect 33 0 73 0;
#X connect 33 0 76 0;
#X connect 34 0 70 0;
#X connect 35 0 34 0;
#X connect 36 0 73 0;
#X connect 36 0 76 0;
#X connect 37 0 60 0;
#X connect 38 0 37 0;
#X connect 39 0 40 0;
#X connect 40 0 41 0;
#X connect 41 0 42 0;
#X connect 41 0 43 0;
#X connect 43 0 46 0;
#X connect 44 0 73 0;
#X connect 44 0 76 0;
#X connect 45 0 66 0;
#X connect 46 0 45 0;
#X connect 47 0 50 0;
#X connect 48 0 73 0;
#X connect 48 0 76 0;
#X connect 49 0 65 0;
#X connect 50 0 49 0;
#X connect 52 0 53 1;
#X connect 53 0 3 0;
#X connect 54 0 55 0;
#X connect 55 0 59 0;
#X connect 55 1 72 0;
#X connect 56 0 39 0;
#X connect 57 0 58 0;
#X connect 58 0 56 0;
#X connect 59 0 8 0;
#X connect 59 0 80 0;
#X connect 60 0 36 0;
#X connect 61 0 27 0;
#X connect 62 0 24 0;
#X connect 63 0 21 0;
#X connect 64 0 5 0;
#X connect 65 0 48 0;
#X connect 66 0 44 0;
#X connect 67 0 9 0;
#X connect 68 0 10 0;
#X connect 69 0 30 0;
#X connect 70 0 33 0;
#X connect 71 0 1 0;
#X connect 72 0 16 0;
#X connect 72 0 15 0;
#X connect 75 0 74 0;
#X connect 77 0 73 0;
#X connect 77 0 76 0;
#X connect 78 0 81 0;
#X connect 79 0 78 0;
#X connect 80 0 79 0;
#X connect 81 0 77 0;
#X connect 82 0 35 0;
#X connect 83 0 82 0;
#X connect 83 1 84 0;
#X connect 84 0 56 0;
#X connect 85 0 32 0;
#X connect 86 0 85 0;
#X connect 86 1 87 0;
#X connect 87 0 56 0;
#X coords 0 -1 1 1 180 140 2 100 100;
