#N canvas 210 58 1210 742 12;
#X msg 653 204 help;
#X msg 620 140 mode 1;
#X msg 652 227 train;
#X obj 448 215 list trim;
#X obj 125 234 list prepend add;
#X obj 125 256 list trim;
#X obj 448 193 list prepend map;
#X obj 442 299 ml.ann;
#X obj 125 205 list prepend;
#X msg 689 140 num_outputs 1;
#X msg 173 57 1;
#X msg 215 56 3;
#X obj 296 127 gate 2 1;
#X obj 291 97 tgl 15 0 empty empty empty 17 7 0 10 -262144 -1 -1 1
1;
#X obj 311 96 + 1;
#X msg 716 224 clear;
#X floatatom 444 378 5 0 0 0 - - -;
#X msg 412 39 3 2 1;
#X msg 473 35 3 3 3;
#X msg 595 35 1 1 1;
#X msg 528 35 1 5 2;
#X msg 565 280 read /Users/mikst/Documents/_PROJECT/ShapeOfThing/edge_of_the_world-performance/test1.data
, f 84;
#X msg 659 342 write /Users/mikst/Documents/_PROJECT/ShapeOfThing/edge_of_the_world-performance/test1.data
;
#X obj 530 400 print ann:;
#X msg 126 56 2;
#X connect 0 0 7 0;
#X connect 1 0 7 0;
#X connect 2 0 7 0;
#X connect 3 0 7 0;
#X connect 4 0 5 0;
#X connect 5 0 7 0;
#X connect 6 0 3 0;
#X connect 7 0 16 0;
#X connect 7 1 23 0;
#X connect 8 0 4 0;
#X connect 9 0 7 0;
#X connect 10 0 8 1;
#X connect 11 0 8 1;
#X connect 12 0 8 0;
#X connect 12 1 6 0;
#X connect 13 0 14 0;
#X connect 14 0 12 0;
#X connect 15 0 7 0;
#X connect 17 0 12 1;
#X connect 18 0 12 1;
#X connect 19 0 12 1;
#X connect 20 0 12 1;
#X connect 21 0 7 0;
#X connect 22 0 7 0;
#X connect 24 0 8 1;
