#N canvas 4 23 729 570 12;
#X obj 191 233 coll;
#C restore;
#X obj 378 90 list trim;
#X obj 378 64 list prepend insert 0;
#X msg 315 179 clear;
#X msg 49 89 end \, bang;
#X obj 323 232 list prepend delete;
#X obj 323 258 list trim;
#X obj 220 300 i;
#X obj 163 265 t b l;
#X obj 378 38 inlet;
#X obj 49 53 inlet;
#X obj 216 428 outlet;
#X obj 607 93 inlet;
#X connect 0 0 8 0;
#X connect 0 1 7 1;
#X connect 1 0 0 0;
#X connect 2 0 1 0;
#X connect 3 0 0 0;
#X connect 4 0 0 0;
#X connect 5 0 6 0;
#X connect 6 0 0 0;
#X connect 7 0 5 0;
#X connect 8 0 7 0;
#X connect 8 1 11 0;
#X connect 9 0 2 0;
#X connect 10 0 4 0;
#X connect 12 0 0 0;
