#N canvas 55 600 483 300 12;
#X obj 104 197 netsend -b -u;
#X msg 194 66 connect 239.200.200.200 51555;
#X obj 101 242 tgl 15 0 empty empty empty 17 7 0 10 -262144 -1 -1 1
1;
#X msg 60 40 1 2 3;
#X msg 121 37 4 5 6;
#X obj 194 38 loadbang;
#X obj 299 168 oscformat test;
#X msg 220 122 disconnect;
#X msg 299 142 1 2 3 4 5 6 7 8;
#X msg 191 99 connect localhost 51666;
#X connect 0 0 2 0;
#X connect 1 0 0 0;
#X connect 3 0 0 0;
#X connect 4 0 0 0;
#X connect 5 0 1 0;
#X connect 6 0 0 0;
#X connect 7 0 0 0;
#X connect 8 0 6 0;
#X connect 9 0 0 0;
