#N canvas 402 71 1421 735 12;
#X obj 68 628 tgl 15 0 empty empty empty 17 7 0 10 -262144 -1 -1 1
1;
#X obj 489 513 loadbang;
#X obj 64 40 tgl 15 0 empty empty train 17 7 0 10 -262144 -1 -1 0 1
;
#X obj 207 41 tgl 15 0 empty empty ml_sensor 17 7 0 10 -262144 -1 -1
0 1;
#X obj 641 28 bng 15 250 50 0 empty empty empty 17 7 0 10 -262144 -1
-1;
#X obj 369 136 nbx 5 14 0 1 0 0 empty empty empty 0 -8 0 10 -262144
-1 -1 0 256;
#X obj 37 159 tgl 15 0 empty empty sensor_on 17 7 0 10 -262144 -1 -1
0 1;
#X obj 670 119 vsl 15 128 0 1 0 0 empty empty empty 0 -9 0 10 -262144
-1 -1 0 1;
#X obj 702 119 vsl 15 128 0 1 0 0 empty empty empty 0 -9 0 10 -262144
-1 -1 0 1;
#X obj 735 119 vsl 15 128 0 1 0 0 empty empty empty 0 -9 0 10 -262144
-1 -1 0 1;
#X obj 764 119 vsl 15 128 0 1 0 0 empty empty empty 0 -9 0 10 -262144
-1 -1 0 1;
#X obj 1055 333 vsl 15 128 0 1 0 0 empty empty empty 0 -9 0 10 -262144
-1 -1 0 1;
#X obj 1086 333 vsl 15 128 0 1 0 0 empty empty empty 0 -9 0 10 -262144
-1 -1 2 1;
#X obj 1118 333 vsl 15 128 0 1 0 0 empty empty empty 0 -9 0 10 -262144
-1 -1 0 1;
#X obj 1150 333 vsl 15 128 0 1 0 0 empty empty empty 0 -9 0 10 -262144
-1 -1 0 1;
#X obj 373 29 bng 15 250 50 0 empty empty empty 17 7 0 10 -262144 -1
-1;
#X obj 516 28 bng 15 250 50 0 empty empty empty 17 7 0 10 -262144 -1
-1;
#X msg 462 585 disconnect;
#X obj 1055 304 unpack 0 0 0 0 0 0 0 0, f 32;
#X obj 1181 333 vsl 15 128 0 1 0 0 empty empty empty 0 -9 0 10 -262144
-1 -1 2 1;
#X obj 1212 333 vsl 15 128 0 1 0 0 empty empty empty 0 -9 0 10 -262144
-1 -1 1 1;
#X obj 1244 333 vsl 15 128 0 1 0 0 empty empty empty 0 -9 0 10 -262144
-1 -1 0 1;
#X obj 1276 333 vsl 15 128 0 1 0 0 empty empty empty 0 -9 0 10 -262144
-1 -1 3 1;
#X obj 40 228 tgl 15 0 empty empty sensor_send 17 7 0 10 -262144 -1
-1 1 1;
#X obj 1055 542 vsl 15 128 0 1 0 0 empty empty empty 0 -9 0 10 -262144
-1 -1 0 1;
#X obj 1086 542 vsl 15 128 0 1 0 0 empty empty empty 0 -9 0 10 -262144
-1 -1 0 1;
#X obj 1118 542 vsl 15 128 0 1 0 0 empty empty empty 0 -9 0 10 -262144
-1 -1 0 1;
#X obj 1150 542 vsl 15 128 0 1 0 0 empty empty empty 0 -9 0 10 -262144
-1 -1 0 1;
#X obj 1055 513 unpack 0 0 0 0 0 0 0 0, f 32;
#X obj 1181 542 vsl 15 128 0 1 0 0 empty empty empty 0 -9 0 10 -262144
-1 -1 0 1;
#X obj 1212 542 vsl 15 128 0 1 0 0 empty empty empty 0 -9 0 10 -262144
-1 -1 0 1;
#X obj 1244 542 vsl 15 128 0 1 0 0 empty empty empty 0 -9 0 10 -262144
-1 -1 0 1;
#X obj 1276 542 vsl 15 128 0 1 0 0 empty empty empty 0 -9 0 10 -262144
-1 -1 0 1;
#X text 1021 514 CTRL;
#X text 1006 305 SENSOR;
#X obj 1341 344 s sensors;
#X obj 1318 305 spigot;
#X obj 1364 271 tgl 15 0 empty empty empty 17 7 0 10 -262144 -1 -1
0 1;
#X msg 601 357 24;
#X msg 642 355 30;
#X msg 692 356 49;
#X obj 794 119 vsl 15 128 0 1 0 0 empty empty empty 0 -9 0 10 -262144
-1 -1 0 1;
#X obj 826 119 vsl 15 128 0 1 0 0 empty empty empty 0 -9 0 10 -262144
-1 -1 0 1;
#X obj 859 119 vsl 15 128 0 1 0 0 empty empty empty 0 -9 0 10 -262144
-1 -1 0 1;
#X obj 888 119 vsl 15 128 0 1 0 0 empty empty empty 0 -9 0 10 -262144
-1 -1 0 1;
#X msg 226 548 connect 239.100.100.100 50555;
#X obj 816 37 hradio 15 1 0 8 empty empty mode 0 -8 0 10 -262144 -1
-1 1;
#X obj 778 538 hradio 15 1 0 8 empty empty id 0 -8 0 10 -262144 -1
-1 2;
#X obj 778 558 sel 0 1 2 3 4 5;
#X msg 733 590 p1;
#X obj 798 636 s p_id;
#X msg 768 590 p2;
#X msg 801 590 p3;
#X msg 836 590 p4;
#X msg 869 590 p5;
#X msg 906 590 p6;
#X obj 373 67 oscfmt ml write;
#X obj 516 67 oscfmt ml read;
#X obj 641 67 oscfmt ml train;
#X obj 816 61 oscfmt mode;
#X obj 37 186 oscfmt sensor on;
#X obj 40 255 oscfmt sensor send;
#X obj 369 158 oscfmt audio volume;
#X obj 421 253 oscfmt system osc_log;
#X obj 670 255 oscfmt ctrl ctrl1;
#X obj 702 276 oscfmt ctrl ctrl2;
#X obj 735 297 oscfmt ctrl ctrl3;
#X obj 764 320 oscfmt ctrl ctrl4;
#X obj 794 255 oscfmt ctrl ctrl5;
#X obj 826 276 oscfmt ctrl ctrl6;
#X obj 859 297 oscfmt ctrl ctrl7;
#X obj 888 320 oscfmt ctrl ctrl8;
#X obj 482 400 oscfmt ctrl send;
#X obj 636 396 oscfmt ctrl note;
#X obj 68 601 netsend -u -b;
#X obj 64 67 oscfmt ml mode;
#X obj 1055 246 route sensor ctrl ip;
#X obj 1055 215 route p1;
#X obj 1129 158 r p_id;
#X obj 1129 181 symbol;
#X symbolatom 700 679 10 0 0 0 - - -;
#X obj 700 627 r p_id;
#X obj 700 653 symbol;
#X obj 68 579 r to_ctrl_netsend;
#X obj 335 619 s to_ctrl_netsend;
#X obj 143 332 bng 15 250 50 0 empty empty get_ip 17 7 0 10 -262144
-1 -1;
#X obj 1002 127 route ip;
#X obj 982 162 print IP;
#X msg 489 537 connect 192.168.0.255 50555;
#X obj 1002 100 mc_listener 51555 239.200.200.200;
#X obj 143 355 oscformat all system ip;
#X obj 143 382 s to_ctrl_netsend;
#X msg 943 590 all;
#X msg 421 229 1;
#X msg 459 229 0;
#X obj 207 67 oscfmt ml sensor;
#X obj 482 378 tgl 15 0 empty empty ctrl_send 17 7 0 10 -262144 -1
-1 0 1;
#X connect 1 0 88 0;
#X connect 2 0 75 0;
#X connect 3 0 95 0;
#X connect 4 0 58 0;
#X connect 5 0 62 0;
#X connect 6 0 60 0;
#X connect 7 0 64 0;
#X connect 8 0 65 0;
#X connect 9 0 66 0;
#X connect 10 0 67 0;
#X connect 15 0 56 0;
#X connect 16 0 57 0;
#X connect 17 0 84 0;
#X connect 18 0 11 0;
#X connect 18 1 12 0;
#X connect 18 2 13 0;
#X connect 18 3 14 0;
#X connect 18 4 19 0;
#X connect 18 5 20 0;
#X connect 18 6 21 0;
#X connect 18 7 22 0;
#X connect 23 0 61 0;
#X connect 28 0 24 0;
#X connect 28 1 25 0;
#X connect 28 2 26 0;
#X connect 28 3 27 0;
#X connect 28 4 29 0;
#X connect 28 5 30 0;
#X connect 28 6 31 0;
#X connect 28 7 32 0;
#X connect 36 0 35 0;
#X connect 37 0 36 1;
#X connect 38 0 73 0;
#X connect 39 0 73 0;
#X connect 40 0 73 0;
#X connect 41 0 68 0;
#X connect 42 0 69 0;
#X connect 43 0 70 0;
#X connect 44 0 71 0;
#X connect 45 0 84 0;
#X connect 46 0 59 0;
#X connect 47 0 48 0;
#X connect 48 0 49 0;
#X connect 48 1 51 0;
#X connect 48 2 52 0;
#X connect 48 3 53 0;
#X connect 48 4 54 0;
#X connect 48 5 55 0;
#X connect 49 0 50 0;
#X connect 51 0 50 0;
#X connect 52 0 50 0;
#X connect 53 0 50 0;
#X connect 54 0 50 0;
#X connect 55 0 50 0;
#X connect 74 0 0 0;
#X connect 76 0 18 0;
#X connect 76 0 36 0;
#X connect 76 1 28 0;
#X connect 77 0 76 0;
#X connect 78 0 79 0;
#X connect 79 0 77 1;
#X connect 81 0 82 0;
#X connect 82 0 80 0;
#X connect 83 0 74 0;
#X connect 85 0 90 0;
#X connect 86 0 87 0;
#X connect 86 1 77 0;
#X connect 88 0 84 0;
#X connect 89 0 86 0;
#X connect 90 0 91 0;
#X connect 92 0 50 0;
#X connect 93 0 63 0;
#X connect 94 0 63 0;
#X connect 96 0 72 0;
