#N canvas 30 23 1436 835 12;
#X declare -path bela/_common;
#X text 676 808 granular;
#X text 298 771 voder;
#X msg 1350 646 0.83 0.44 0.46 0.76 0.05;
#X msg 1349 722 0.83 0.65 0.05 0.17 0.05;
#X msg 1349 748 0.83 0.17 0.05 0.17 0.051;
#X msg 1205 645 1 0.17 0.19;
#X msg 1205 671 1 0.36 0.4;
#X msg 1205 697 1 0.52 0.48;
#X msg 1205 723 1 0.74 0.8;
#X msg 1205 749 1 0.85 0.31;
#X msg 1205 775 0 0 0 0 0 0 0 0.1;
#X msg 1349 774 0 0 0 0 0 0 0 0.1;
#X msg 1350 672 0.83 0.18 0.4 0.92 0.8;
#X msg 1349 696 0.83 0.97 0.81 0.9 0.47;
#X obj 17 14 p_panels p1;
#X obj 288 14 p_panels p2;
#X obj 1205 801 s presets;
#N canvas 181 23 1220 688 network_related 0;
#X obj 19 61 route sensors;
#X obj 19 36 zmq_sub 192.168.0.10:5555 sensors;
#X obj 274 36 zmq_sub 192.168.0.10:5555 mapped;
#X obj 274 60 route mapped;
#X obj 19 86 s allsensors;
#X obj 274 85 s allmapped;
#X obj 528 36 zmq_sub 192.168.0.10:5555 info;
#X obj 528 60 route info;
#X obj 528 85 print IP;
#X obj 184 128 loadbang;
#X obj 24 160 netsend -u -b;
#X obj 24 130 r to_ctrl_netsend_bc;
#X obj 24 190 tgl 15 0 empty empty empty 17 7 0 10 -262144 -1 -1 1
1;
#X msg 185 152 connect 192.168.0.255 50444;
#X msg 180 204 connect 192.168.178.255 50444;
#X msg 184 178 disconnect;
#X obj 457 130 r to_ctrl_netsend;
#X obj 457 263 zmq;
#X msg 679 211 socket publish;
#X obj 646 186 t b b;
#X obj 456 189 list trim;
#X msg 646 241 connect tcp://192.168.0.10:5556;
#X obj 457 161 list prepend send control;
#X obj 644 163 loadbang;
#X msg 593 135 all system ip;
#X obj 593 113 bng 15 250 50 0 empty empty get_ip 17 7 0 10 -262144
-1 -1;
#X obj 314 395 print to_control_netsend;
#X obj 820 25 inlet;
#X obj 18 11 loadbang;
#X connect 0 0 4 0;
#X connect 1 0 0 0;
#X connect 2 0 3 0;
#X connect 3 0 5 0;
#X connect 6 0 7 0;
#X connect 7 0 8 0;
#X connect 9 0 13 0;
#X connect 10 0 12 0;
#X connect 11 0 10 0;
#X connect 13 0 10 0;
#X connect 14 0 10 0;
#X connect 15 0 10 0;
#X connect 16 0 22 0;
#X connect 16 0 26 0;
#X connect 18 0 17 0;
#X connect 19 0 21 0;
#X connect 19 1 18 0;
#X connect 20 0 17 0;
#X connect 21 0 17 0;
#X connect 22 0 20 0;
#X connect 23 0 19 0;
#X connect 24 0 22 0;
#X connect 25 0 24 0;
#X connect 27 0 24 0;
#X connect 28 0 1 0;
#X connect 28 0 2 0;
#X connect 28 0 6 0;
#X restore 19 822 pd network_related;
#X obj 21 642 r preset_out;
#X msg 21 712 0 0.2 0.4;
#X obj 21 665 list prepend set;
#X obj 21 688 list trim;
#X obj 1350 802 s presets;
#X text 21 620 grab presets;
#X obj 162 823 declare -path bela/_common;
#X obj 20 797 bng 15 250 50 0 empty empty get_ip 17 7 0 10 -262144
-1 -1;
#X msg 154 771 0 0 0 0 0 0 0 0.1;
#X obj 154 795 s presets;
#X msg 597 649 0.964706 0.0393701 0.15748 0.976378 1 0 0 0;
#X msg 597 675 0.576471 0 0.15748 0.976378 1 0 0 0;
#X msg 597 701 0.231373 0.0393701 0.00787402 0.496063 1 0 0 0;
#X msg 597 623 0.027451 0.23622 0.228346 0.677165 1 0 0 0;
#X msg 597 727 0.992157 0 0.0314961 0.653543 1 0 0 0;
#X msg 597 753 0.823529 0 0.834646 0.976378 1 0 0 0;
#X msg 597 779 0 0 0 0 0 0 0 0.1;
#X obj 595 810 s presets;
#X msg 958 621 0.133858 1 1 0 0 0 0 0;
#X msg 958 646 0.133858 0 1 0 0 0 0 0 0 0 0 0;
#X msg 958 671 0.0629921 0.519685 1 0 0 0 0 0;
#X msg 958 696 0.228346 1 1 0 0 0 0 0;
#X msg 958 721 0.228346 0 1 0 0 0 0 0;
#X msg 958 746 0.952756 0.622047 1 0 0 0 0 0;
#X msg 958 772 0 0 0 0 0 0 0 0.1;
#X obj 958 799 s presets;
#X msg 152 698 0.244094 0.0866142 0.141732 0.0393701 0 0.582677 0.330709
1;
#X msg 153 722 0.11811 0.944882 0.80315 0.716535 1 0 0.669291 1;
#X msg 153 745 0.929134 0.244094 0.417323 0.125984 0 0.952756 1 1;
#X msg 150 624 0.92913 0.24409 0.41732 0.700787 0.20472 0.779528 0.685039
1;
#X msg 151 649 0.55905 0.070866 0.22047 0.03937 0.897638 0.59055 0.330709
1;
#X msg 152 673 0.330709 0.94488 0.80315 0.2362 0.771654 0.76378 0.0551181
1;
#X text 1043 801 phoneme;
#X obj 558 15 p_panels p3;
#X obj 825 14 p_panels p4;
#X obj 1093 14 p_panels p5;
#X obj 1359 14 p_panels p6;
#X connect 2 0 22 0;
#X connect 3 0 22 0;
#X connect 4 0 22 0;
#X connect 5 0 16 0;
#X connect 6 0 16 0;
#X connect 7 0 16 0;
#X connect 8 0 16 0;
#X connect 9 0 16 0;
#X connect 10 0 16 0;
#X connect 11 0 22 0;
#X connect 12 0 22 0;
#X connect 13 0 22 0;
#X connect 18 0 20 0;
#X connect 20 0 21 0;
#X connect 21 0 19 0;
#X connect 25 0 17 0;
#X connect 26 0 27 0;
#X connect 28 0 35 0;
#X connect 29 0 35 0;
#X connect 30 0 35 0;
#X connect 31 0 35 0;
#X connect 32 0 35 0;
#X connect 33 0 35 0;
#X connect 34 0 35 0;
#X connect 36 0 43 0;
#X connect 37 0 43 0;
#X connect 38 0 43 0;
#X connect 39 0 43 0;
#X connect 40 0 43 0;
#X connect 41 0 43 0;
#X connect 42 0 43 0;
#X connect 44 0 27 0;
#X connect 45 0 27 0;
#X connect 46 0 27 0;
#X connect 47 0 27 0;
#X connect 48 0 27 0;
#X connect 49 0 27 0;
