#N canvas 35 23 1279 855 12;
#X declare -path bela/_common;
#X obj 210 714 loadbang;
#X obj 49 16 tgl 15 0 empty empty train 17 7 0 10 -262144 -1 -1 0 1
;
#X obj 207 41 tgl 15 0 empty empty ml_sensor 17 7 0 10 -262144 -1 -1
0 1;
#X obj 641 28 bng 15 250 50 0 empty empty empty 17 7 0 10 -262144 -1
-1;
#X obj 52 110 tgl 15 0 empty empty sensor_on 17 7 0 10 -262144 -1 -1
0 1;
#X obj 724 123 vsl 15 128 0 1 0 0 empty empty empty 0 -9 0 10 -262144
-1 -1 0 1;
#X obj 756 123 vsl 15 128 0 1 0 0 empty empty empty 0 -9 0 10 -262144
-1 -1 0 1;
#X obj 789 123 vsl 15 128 0 1 0 0 empty empty empty 0 -9 0 10 -262144
-1 -1 0 1;
#X obj 818 123 vsl 15 128 0 1 0 0 empty empty empty 0 -9 0 10 -262144
-1 -1 0 1;
#X obj 1095 180 vsl 15 128 0 1 0 0 empty empty empty 0 -9 0 10 -262144
-1 -1 914 1;
#X obj 1126 180 vsl 15 128 0 1 0 0 empty empty empty 0 -9 0 10 -262144
-1 -1 1080 1;
#X obj 1158 180 vsl 15 128 0 1 0 0 empty empty empty 0 -9 0 10 -262144
-1 -1 3670 1;
#X obj 1190 180 vsl 15 128 0 1 0 0 empty empty empty 0 -9 0 10 -262144
-1 -1 8369 1;
#X obj 373 29 bng 15 250 50 0 empty empty empty 17 7 0 10 -262144 -1
-1;
#X obj 516 28 bng 15 250 50 0 empty empty empty 17 7 0 10 -262144 -1
-1;
#X obj 1221 180 vsl 15 128 0 1 0 0 empty empty empty 0 -9 0 10 -262144
-1 -1 8839 1;
#X obj 1252 180 vsl 15 128 0 1 0 0 empty empty empty 0 -9 0 10 -262144
-1 -1 3835 1;
#X obj 1284 180 vsl 15 128 0 1 0 0 empty empty empty 0 -9 0 10 -262144
-1 -1 2235 1;
#X obj 1316 180 vsl 15 128 0 1 0 0 empty empty empty 0 -9 0 10 -262144
-1 -1 7531 1;
#X obj 55 179 tgl 15 0 empty empty sensor_send 17 7 0 10 -262144 -1
-1 0 1;
#X obj 1095 389 vsl 15 128 0 1 0 0 empty empty empty 0 -9 0 10 -262144
-1 -1 0 1;
#X obj 1126 389 vsl 15 128 0 1 0 0 empty empty empty 0 -9 0 10 -262144
-1 -1 0 1;
#X obj 1158 389 vsl 15 128 0 1 0 0 empty empty empty 0 -9 0 10 -262144
-1 -1 0 1;
#X obj 1190 389 vsl 15 128 0 1 0 0 empty empty empty 0 -9 0 10 -262144
-1 -1 0 1;
#X obj 1221 389 vsl 15 128 0 1 0 0 empty empty empty 0 -9 0 10 -262144
-1 -1 0 1;
#X obj 1252 389 vsl 15 128 0 1 0 0 empty empty empty 0 -9 0 10 -262144
-1 -1 0 1;
#X obj 1284 389 vsl 15 128 0 1 0 0 empty empty empty 0 -9 0 10 -262144
-1 -1 0 1;
#X obj 1316 389 vsl 15 128 0 1 0 0 empty empty empty 0 -9 0 10 -262144
-1 -1 0 1;
#X text 1046 152 SENSOR;
#X obj 848 123 vsl 15 128 0 1 0 0 empty empty empty 0 -9 0 10 -262144
-1 -1 0 1;
#X obj 880 123 vsl 15 128 0 1 0 0 empty empty empty 0 -9 0 10 -262144
-1 -1 0 1;
#X obj 913 123 vsl 15 128 0 1 0 0 empty empty empty 0 -9 0 10 -262144
-1 -1 0 1;
#X obj 942 123 vsl 15 128 0 1 0 0 empty empty empty 0 -9 0 10 -262144
-1 -1 0 1;
#X obj 816 37 hradio 15 1 0 8 empty empty mode 0 -8 0 10 -262144 -1
-1 0;
#X obj 705 567 hradio 15 1 0 8 empty empty id 0 -8 0 10 -262144 -1
-1 0;
#X obj 705 587 sel 0 1 2 3 4 5;
#X msg 660 619 p1;
#X obj 725 665 s p_id;
#X msg 695 619 p2;
#X msg 728 619 p3;
#X msg 763 619 p4;
#X msg 796 619 p5;
#X msg 833 619 p6;
#X obj 373 67 oscfmt ml write;
#X obj 516 67 oscfmt ml read;
#X obj 641 67 oscfmt ml train;
#X obj 816 61 oscfmt mode;
#X obj 52 137 oscfmt sensor on;
#X obj 55 206 oscfmt sensor send;
#X obj 368 167 oscfmt audio volume;
#X obj 56 447 oscfmt system osc_log;
#X obj 724 259 oscfmt ctrl ctrl1;
#X obj 756 280 oscfmt ctrl ctrl2;
#X obj 789 301 oscfmt ctrl ctrl3;
#X obj 818 324 oscfmt ctrl ctrl4;
#X obj 848 259 oscfmt ctrl ctrl5;
#X obj 880 280 oscfmt ctrl ctrl6;
#X obj 913 301 oscfmt ctrl ctrl7;
#X obj 942 324 oscfmt ctrl ctrl8;
#X obj 54 378 oscfmt ctrl send;
#X obj 64 67 oscfmt ml mode;
#X obj 1844 297 r p_id;
#X obj 1844 320 symbol;
#X obj 449 589 bng 15 250 50 0 empty empty get_ip 17 7 0 10 -262144
-1 -1;
#X obj 449 612 oscformat all system ip;
#X msg 870 619 all;
#X msg 56 423 1;
#X msg 94 423 0;
#X obj 207 67 oscfmt ml sensor;
#X obj 54 356 tgl 15 0 empty empty ctrl_send 17 7 0 10 -262144 -1 -1
0 1;
#X obj 1790 258 netsend -u -b;
#X obj 1790 230 spigot;
#X obj 1829 151 tgl 15 0 empty empty resend_to_localhost 17 7 0 10
-262144 -1 -1 0 1;
#X msg 1852 230 connect localhost 51000;
#X obj 1799 295 tgl 15 0 empty empty empty 17 7 0 10 -262144 -1 -1
0 1;
#X obj 1852 204 loadbang;
#X obj 518 97 bng 15 250 50 0 empty empty empty 17 7 0 10 -262144 -1
-1;
#X obj 518 115 oscfmt ml clear;
#X msg 673 742 clear;
#X obj 1011 806 declare -path bela/_common;
#N canvas 20 327 555 551 ip_storage 0;
#X obj 151 301 coll;
#C restore;
#X obj 154 112 route p1 p2 p3;
#X obj 146 144 list prepend 0;
#X obj 124 190 list trim;
#X obj 219 169 list prepend 1;
#X obj 255 195 list prepend 2;
#X obj 126 44 inlet;
#X obj 55 43 inlet;
#X obj 161 227 route clear;
#X obj 286 284 t b;
#X msg 157 262 clear;
#X obj 221 267 i;
#X connect 1 0 2 0;
#X connect 1 1 4 0;
#X connect 1 2 5 0;
#X connect 2 0 3 0;
#X connect 3 0 0 0;
#X connect 4 0 3 0;
#X connect 5 0 3 0;
#X connect 6 0 1 0;
#X connect 7 0 8 0;
#X connect 8 0 10 0;
#X connect 8 1 9 0;
#X connect 8 1 11 0;
#X connect 10 0 0 0;
#X connect 11 0 0 0;
#X restore 680 768 pd ip_storage;
#X obj 46 741 netsend -u -b;
#X obj 449 639 s to_ctrl_netsend_bc;
#X obj 46 711 r to_ctrl_netsend_bc;
#X obj 46 771 tgl 15 0 empty empty empty 17 7 0 10 -262144 -1 -1 1
1;
#X msg 211 738 connect 192.168.0.255 50444;
#X obj 368 141 change;
#X floatatom 367 116 5 0 1 0 - - -;
#X obj 232 180 change;
#X floatatom 232 148 5 10 2000 0 - - -;
#X obj 232 213 oscfmt sensor speed;
#X msg 221 120 40;
#X msg 257 120 100;
#X obj 521 139 tgl 15 0 empty empty empty 17 7 0 10 -262144 -1 -1 0
1;
#X obj 521 169 oscfmt ml voicefade;
#X obj 52 295 bng 15 250 50 0 empty empty empty 17 7 0 10 -262144 -1
-1;
#X obj 52 323 oscfmt sensor base;
#X obj 524 228 oscfmt ml voicetype;
#X msg 519 200 1;
#X msg 554 200 2;
#X msg 588 201 3;
#X msg 206 790 connect 192.168.178.255 50444;
#X msg 210 764 disconnect;
#X msg 258 248 1;
#X msg 293 248 2;
#X msg 327 249 3;
#X obj 263 276 oscfmt ml filenum;
#X msg 360 250 4;
#X msg 395 250 5;
#X msg 432 249 10;
#X msg 291 122 150;
#X obj 257 334 oscfmt ml coeff;
#X msg 252 306 0.9;
#X msg 287 306 0.5;
#X msg 321 307 0.1;
#X msg 453 120 0.5;
#X msg 482 142 0;
#X floatatom 766 41 5 0 0 0 - - -;
#X obj 54 266 oscfmt sensor calibration;
#X obj 53 238 tgl 15 0 empty empty empty 17 7 0 10 -262144 -1 -1 0
1;
#X msg 189 121 20;
#X obj 1095 151 unpack 0 0 0 0 0 0 0 0 0, f 37;
#X symbolatom 1846 348 10 0 0 0 - - -;
#X text 561 333 granular;
#X obj 726 98 unpack 0 0 0 0 0 0 0 0, f 32;
#X text 401 327 voder;
#X msg 544 352 0.83 0.44 0.46 0.76 0.05;
#X msg 542 426 0.83 0.65 0.05 0.17 0.05;
#X msg 542 453 0.83 0.17 0.05 0.17 0.051;
#X msg 154 27 1;
#X msg 108 21 0;
#X msg 299 18 1;
#X msg 253 12 0;
#X msg 465 227 0.3;
#X obj 29 39 t i i;
#X obj 227 93 sel 0 1;
#X msg 121 240 0;
#X msg 156 241 1;
#X msg 400 352 1 0.17 0.19;
#X msg 400 378 1 0.36 0.4;
#X msg 400 405 1 0.52 0.48;
#X msg 400 432 1 0.74 0.8;
#X msg 400 458 1 0.85 0.31;
#X msg 399 484 0 0 0 0 0 0 0 0.1;
#X msg 542 479 0 0 0 0 0 0 0 0.1;
#X msg 542 401 0.83 0.18 0.4 0.92 0.8;
#X msg 544 378 0.83 0.97 0.81 0.9 0.47;
#X obj 1098 49 route sensors;
#X obj 1097 73 route id;
#X obj 1097 24 zmq_sub 192.168.0.10:5555 sensors;
#X obj 831 677 zmq_sub 192.168.0.10:5555 info;
#X obj 1101 613 vsl 15 128 0 1 0 0 empty empty empty 0 -9 0 10 -262144
-1 -1 0 1;
#X obj 1132 613 vsl 15 128 0 1 0 0 empty empty empty 0 -9 0 10 -262144
-1 -1 0 1;
#X obj 1164 613 vsl 15 128 0 1 0 0 empty empty empty 0 -9 0 10 -262144
-1 -1 0 1;
#X obj 1196 613 vsl 15 128 0 1 0 0 empty empty empty 0 -9 0 10 -262144
-1 -1 0 1;
#X obj 1227 613 vsl 15 128 0 1 0 0 empty empty empty 0 -9 0 10 -262144
-1 -1 0 1;
#X obj 1258 613 vsl 15 128 0 1 0 0 empty empty empty 0 -9 0 10 -262144
-1 -1 0 1;
#X obj 1290 613 vsl 15 128 0 1 0 0 empty empty empty 0 -9 0 10 -262144
-1 -1 0 1;
#X obj 1322 613 vsl 15 128 0 1 0 0 empty empty empty 0 -9 0 10 -262144
-1 -1 0 1;
#X obj 1094 553 route p3;
#X obj 1095 359 unpack 0 0 0 0 0 0 0 0 0, f 32;
#X obj 1101 584 unpack 0 0 0 0 0 0 0 0 0, f 32;
#X obj 1482 28 zmq_sub 192.168.0.10:5555 mapped;
#X obj 1484 55 route mapped;
#X obj 1456 179 vsl 15 128 0 1 0 0 empty empty empty 0 -9 0 10 -262144
-1 -1 337 1;
#X obj 1487 179 vsl 15 128 0 1 0 0 empty empty empty 0 -9 0 10 -262144
-1 -1 120 1;
#X obj 1519 179 vsl 15 128 0 1 0 0 empty empty empty 0 -9 0 10 -262144
-1 -1 2880 1;
#X obj 1551 179 vsl 15 128 0 1 0 0 empty empty empty 0 -9 0 10 -262144
-1 -1 8200 1;
#X obj 1582 179 vsl 15 128 0 1 0 0 empty empty empty 0 -9 0 10 -262144
-1 -1 9032 1;
#X obj 1613 179 vsl 15 128 0 1 0 0 empty empty empty 0 -9 0 10 -262144
-1 -1 3358 1;
#X obj 1645 179 vsl 15 128 0 1 0 0 empty empty empty 0 -9 0 10 -262144
-1 -1 1438 1;
#X obj 1677 179 vsl 15 128 0 1 0 0 empty empty empty 0 -9 0 10 -262144
-1 -1 7403 1;
#X obj 1456 388 vsl 15 128 0 1 0 0 empty empty empty 0 -9 0 10 -262144
-1 -1 0 1;
#X obj 1487 388 vsl 15 128 0 1 0 0 empty empty empty 0 -9 0 10 -262144
-1 -1 0 1;
#X obj 1519 388 vsl 15 128 0 1 0 0 empty empty empty 0 -9 0 10 -262144
-1 -1 0 1;
#X obj 1551 388 vsl 15 128 0 1 0 0 empty empty empty 0 -9 0 10 -262144
-1 -1 0 1;
#X obj 1582 388 vsl 15 128 0 1 0 0 empty empty empty 0 -9 0 10 -262144
-1 -1 0 1;
#X obj 1613 388 vsl 15 128 0 1 0 0 empty empty empty 0 -9 0 10 -262144
-1 -1 0 1;
#X obj 1645 388 vsl 15 128 0 1 0 0 empty empty empty 0 -9 0 10 -262144
-1 -1 0 1;
#X obj 1677 388 vsl 15 128 0 1 0 0 empty empty empty 0 -9 0 10 -262144
-1 -1 0 1;
#X obj 1482 80 route p1;
#X obj 1456 150 unpack 0 0 0 0 0 0 0 0 0, f 37;
#X obj 1462 601 vsl 15 128 0 1 0 0 empty empty empty 0 -9 0 10 -262144
-1 -1 0 1;
#X obj 1493 601 vsl 15 128 0 1 0 0 empty empty empty 0 -9 0 10 -262144
-1 -1 0 1;
#X obj 1525 601 vsl 15 128 0 1 0 0 empty empty empty 0 -9 0 10 -262144
-1 -1 0 1;
#X obj 1557 601 vsl 15 128 0 1 0 0 empty empty empty 0 -9 0 10 -262144
-1 -1 0 1;
#X obj 1588 601 vsl 15 128 0 1 0 0 empty empty empty 0 -9 0 10 -262144
-1 -1 0 1;
#X obj 1619 601 vsl 15 128 0 1 0 0 empty empty empty 0 -9 0 10 -262144
-1 -1 0 1;
#X obj 1651 601 vsl 15 128 0 1 0 0 empty empty empty 0 -9 0 10 -262144
-1 -1 0 1;
#X obj 1683 601 vsl 15 128 0 1 0 0 empty empty empty 0 -9 0 10 -262144
-1 -1 0 1;
#X obj 1455 541 route p3;
#X obj 1456 358 unpack 0 0 0 0 0 0 0 0 0, f 32;
#X obj 1462 572 unpack 0 0 0 0 0 0 0 0 0, f 32;
#X obj 1449 328 route p2;
#X obj 1095 102 route p1;
#X obj 1088 329 route p2;
#X obj 49 500 r to_ctrl_netsend;
#X obj 831 701 route info;
#X obj 831 726 print IP;
#X text 1407 151 MAPPED;
#X text 1409 360 MAPPED;
#X text 1415 573 MAPPED;
#X text 1045 361 SENSOR;
#X text 1051 585 SENSOR;
#X msg 422 116 1;
#X obj 125 630 zmq;
#X msg 203 604 socket publish;
#X obj 171 579 t b b;
#X obj 50 563 list trim;
#X msg 171 632 connect tcp://192.168.0.10:5556;
#X obj 49 531 list prepend send control;
#X obj 169 556 loadbang;
#X msg 220 498 all system ip;
#X obj 220 449 bng 15 250 50 0 empty empty get_ip 17 7 0 10 -262144
-1 -1;
#X connect 0 0 85 0;
#X connect 1 0 134 0;
#X connect 2 0 68 0;
#X connect 3 0 45 0;
#X connect 4 0 47 0;
#X connect 5 0 51 0;
#X connect 6 0 52 0;
#X connect 7 0 53 0;
#X connect 8 0 54 0;
#X connect 13 0 43 0;
#X connect 14 0 44 0;
#X connect 19 0 48 0;
#X connect 29 0 55 0;
#X connect 30 0 56 0;
#X connect 31 0 57 0;
#X connect 32 0 58 0;
#X connect 33 0 117 0;
#X connect 33 0 46 0;
#X connect 34 0 35 0;
#X connect 35 0 36 0;
#X connect 35 1 38 0;
#X connect 35 2 39 0;
#X connect 35 3 40 0;
#X connect 35 4 41 0;
#X connect 35 5 42 0;
#X connect 36 0 37 0;
#X connect 38 0 37 0;
#X connect 39 0 37 0;
#X connect 40 0 37 0;
#X connect 41 0 37 0;
#X connect 42 0 37 0;
#X connect 61 0 62 0;
#X connect 62 0 122 0;
#X connect 63 0 64 0;
#X connect 64 0 82 0;
#X connect 65 0 37 0;
#X connect 66 0 50 0;
#X connect 67 0 50 0;
#X connect 69 0 59 0;
#X connect 70 0 74 0;
#X connect 71 0 70 0;
#X connect 72 0 71 1;
#X connect 73 0 70 0;
#X connect 75 0 73 0;
#X connect 76 0 77 0;
#X connect 78 0 80 0;
#X connect 81 0 84 0;
#X connect 83 0 81 0;
#X connect 85 0 81 0;
#X connect 86 0 49 0;
#X connect 87 0 86 0;
#X connect 88 0 90 0;
#X connect 89 0 88 0;
#X connect 91 0 89 0;
#X connect 92 0 89 0;
#X connect 93 0 94 0;
#X connect 95 0 96 0;
#X connect 98 0 97 0;
#X connect 99 0 97 0;
#X connect 100 0 97 0;
#X connect 101 0 81 0;
#X connect 102 0 81 0;
#X connect 103 0 106 0;
#X connect 104 0 106 0;
#X connect 105 0 106 0;
#X connect 107 0 106 0;
#X connect 108 0 106 0;
#X connect 109 0 106 0;
#X connect 110 0 89 0;
#X connect 112 0 111 0;
#X connect 113 0 111 0;
#X connect 114 0 111 0;
#X connect 115 0 49 0;
#X connect 116 0 49 0;
#X connect 119 0 118 0;
#X connect 120 0 89 0;
#X connect 121 0 9 0;
#X connect 121 1 10 0;
#X connect 121 2 11 0;
#X connect 121 3 12 0;
#X connect 121 4 15 0;
#X connect 121 5 16 0;
#X connect 121 6 17 0;
#X connect 121 7 18 0;
#X connect 124 0 5 0;
#X connect 124 1 6 0;
#X connect 124 2 7 0;
#X connect 124 3 8 0;
#X connect 124 4 29 0;
#X connect 124 5 30 0;
#X connect 124 6 31 0;
#X connect 124 7 32 0;
#X connect 126 0 124 0;
#X connect 128 0 124 0;
#X connect 129 0 134 0;
#X connect 130 0 134 0;
#X connect 131 0 68 0;
#X connect 132 0 68 0;
#X connect 133 0 49 0;
#X connect 134 1 60 0;
#X connect 135 0 91 0;
#X connect 135 1 110 0;
#X connect 136 0 118 0;
#X connect 137 0 118 0;
#X connect 138 0 124 0;
#X connect 139 0 124 0;
#X connect 140 0 124 0;
#X connect 141 0 124 0;
#X connect 142 0 124 0;
#X connect 143 0 124 0;
#X connect 144 0 124 0;
#X connect 145 0 124 0;
#X connect 146 0 124 0;
#X connect 147 0 148 0;
#X connect 148 1 194 0;
#X connect 149 0 147 0;
#X connect 150 0 197 0;
#X connect 159 0 161 0;
#X connect 160 0 20 0;
#X connect 160 1 21 0;
#X connect 160 2 22 0;
#X connect 160 3 23 0;
#X connect 160 4 24 0;
#X connect 160 5 25 0;
#X connect 160 6 26 0;
#X connect 160 7 27 0;
#X connect 161 0 151 0;
#X connect 161 1 152 0;
#X connect 161 2 153 0;
#X connect 161 3 154 0;
#X connect 161 4 155 0;
#X connect 161 5 156 0;
#X connect 161 6 157 0;
#X connect 161 7 158 0;
#X connect 162 0 163 0;
#X connect 163 0 180 0;
#X connect 180 0 181 0;
#X connect 180 1 193 0;
#X connect 181 0 164 0;
#X connect 181 1 165 0;
#X connect 181 2 166 0;
#X connect 181 3 167 0;
#X connect 181 4 168 0;
#X connect 181 5 169 0;
#X connect 181 6 170 0;
#X connect 181 7 171 0;
#X connect 190 0 192 0;
#X connect 191 0 172 0;
#X connect 191 1 173 0;
#X connect 191 2 174 0;
#X connect 191 3 175 0;
#X connect 191 4 176 0;
#X connect 191 5 177 0;
#X connect 191 6 178 0;
#X connect 191 7 179 0;
#X connect 192 0 182 0;
#X connect 192 1 183 0;
#X connect 192 2 184 0;
#X connect 192 3 185 0;
#X connect 192 4 186 0;
#X connect 192 5 187 0;
#X connect 192 6 188 0;
#X connect 192 7 189 0;
#X connect 193 0 191 0;
#X connect 193 1 190 0;
#X connect 194 0 121 0;
#X connect 194 1 195 0;
#X connect 195 0 160 0;
#X connect 195 1 159 0;
#X connect 196 0 210 0;
#X connect 197 0 198 0;
#X connect 204 0 49 0;
#X connect 206 0 205 0;
#X connect 207 0 209 0;
#X connect 207 1 206 0;
#X connect 208 0 205 0;
#X connect 209 0 205 0;
#X connect 210 0 208 0;
#X connect 211 0 207 0;
#X connect 212 0 210 0;
#X connect 213 0 212 0;
