#N canvas 174 23 1222 847 12;
#X declare -path bela/_common;
#X obj 17 14 p_panels p1;
#X obj 215 15 p_panels p2;
#N canvas 220 190 1220 688 network_related 0;
#X obj 19 61 route sensors;
#X obj 19 37 zmq_sub 192.168.0.10:5555 sensors;
#X obj 274 36 zmq_sub 192.168.0.10:5555 mapped;
#X obj 274 60 route mapped;
#X obj 19 86 s allsensors;
#X obj 274 85 s allmapped;
#X obj 528 36 zmq_sub 192.168.0.10:5555 info;
#X obj 528 60 route info;
#X obj 528 85 print IP;
#X obj 184 128 loadbang;
#X obj 24 160 netsend -u -b;
#X obj 24 130 r to_ctrl_netsend_bc;
#X obj 24 190 tgl 15 0 empty empty empty 17 7 0 10 -262144 -1 -1 1
1;
#X msg 185 152 connect 192.168.0.255 50444;
#X msg 180 204 connect 192.168.178.255 50444;
#X msg 184 178 disconnect;
#X obj 457 130 r to_ctrl_netsend;
#X obj 457 263 zmq;
#X msg 679 211 socket publish;
#X obj 646 186 t b b;
#X obj 456 189 list trim;
#X msg 646 241 connect tcp://192.168.0.10:5556;
#X obj 457 161 list prepend send control;
#X obj 644 163 loadbang;
#X msg 593 135 all system ip;
#X obj 593 113 bng 15 250 50 0 empty empty get_ip 17 7 0 10 -262144
-1 -1;
#X obj 314 395 print to_control_netsend;
#X obj 820 25 inlet;
#X obj 719 106 r get_ip_all;
#X connect 0 0 4 0;
#X connect 1 0 0 0;
#X connect 2 0 3 0;
#X connect 3 0 5 0;
#X connect 6 0 7 0;
#X connect 7 0 8 0;
#X connect 9 0 13 0;
#X connect 10 0 12 0;
#X connect 11 0 10 0;
#X connect 13 0 10 0;
#X connect 14 0 10 0;
#X connect 15 0 10 0;
#X connect 16 0 22 0;
#X connect 18 0 17 0;
#X connect 19 0 21 0;
#X connect 19 1 18 0;
#X connect 20 0 17 0;
#X connect 21 0 17 0;
#X connect 22 0 20 0;
#X connect 23 0 19 0;
#X connect 24 0 22 0;
#X connect 25 0 24 0;
#X connect 27 0 24 0;
#X connect 28 0 24 0;
#X restore 882 789 pd network_related;
#X msg 742 760 1 0.924159 0.98339 1 1 0.265474 0.525548 0.097471;
#X obj 1024 789 declare -path bela/_common;
#X obj 409 16 p_panels p3;
#X obj 606 17 p_panels p4;
#X obj 1001 18 p_panels p6;
#N canvas 4 23 450 300 grabPresets 0;
#X obj 29 8 r preset_out;
#X obj 29 31 list prepend set;
#X obj 29 54 list trim;
#X obj 32 82 outlet;
#X connect 0 0 1 0;
#X connect 1 0 2 0;
#X connect 2 0 3 0;
#X restore 740 786 pd grabPresets;
#X obj 21 663 all-panels;
#X text 21 644 CONTROL ALL;
#X text 208 661 mode;
#X text 207 680 0: sensor-synth;
#X text 206 697 1: acc-synth;
#X text 206 715 2: voder;
#X text 206 733 3: phoneme;
#X text 205 752 4: granular;
#N canvas 0 23 880 295 voder_presets 0;
#X text 450 240 voder;
#X obj 299 235 s presets;
#X msg 337 135 0.244094 0.0866142 0.141732 0.0393701 0 0.582677 0.330709
1;
#X msg 338 159 0.11811 0.944882 0.80315 0.716535 1 0 0.669291 1;
#X msg 338 182 0.929134 0.244094 0.417323 0.125984 0 0.952756 1 1;
#X msg 335 61 0.92913 0.24409 0.41732 0.700787 0.20472 0.779528 0.685039
1;
#X msg 336 86 0.55905 0.070866 0.22047 0.03937 0.897638 0.59055 0.330709
1;
#X msg 337 110 0.330709 0.94488 0.80315 0.2362 0.771654 0.76378 0.0551181
1;
#X msg 299 211 0 0 0 0 0 0 0 0.01;
#X obj 107 121 hradio 15 1 0 7 empty empty empty 0 -8 0 10 -262144
-1 -1 6;
#X obj 302 21 sel 0 1 2 3 4 5 6;
#X text 107 100 Voder Preset;
#X connect 2 0 1 0;
#X connect 3 0 1 0;
#X connect 4 0 1 0;
#X connect 5 0 1 0;
#X connect 6 0 1 0;
#X connect 7 0 1 0;
#X connect 8 0 1 0;
#X connect 9 0 10 0;
#X connect 10 0 8 0;
#X connect 10 1 5 0;
#X connect 10 2 6 0;
#X connect 10 3 7 0;
#X connect 10 4 2 0;
#X connect 10 5 3 0;
#X connect 10 6 4 0;
#X coords 0 -1 1 1 120 40 2 100 100;
#X restore 508 662 pd voder_presets;
#N canvas 0 23 450 300 phoneme_presets 0;
#X obj 205 197 s presets;
#X text 290 199 phoneme;
#X msg 293 82 1 0 0 0 0 0 0 0;
#X msg 293 105 0 1 0 0 0 0 0 0;
#X msg 293 128 0 0 1 0 0 0 0 0;
#X msg 277 151 0 0 0 0 0 0 0 0.1;
#X obj 106 121 hradio 15 1 0 4 empty empty empty 0 -8 0 10 -262144
-1 -1 0;
#X obj 277 59 sel 0 1 2 3;
#X text 105 101 Phoneme Preset;
#X connect 2 0 0 0;
#X connect 3 0 0 0;
#X connect 4 0 0 0;
#X connect 5 0 0 0;
#X connect 6 0 7 0;
#X connect 7 0 5 0;
#X connect 7 1 2 0;
#X connect 7 2 3 0;
#X connect 7 3 4 0;
#X coords 0 -1 1 1 120 40 2 100 100;
#X restore 508 713 pd phoneme_presets;
#N canvas 0 23 1371 545 granular_presets 0;
#X text 412 223 granular;
#X obj 329 236 s presets;
#X obj 107 121 hradio 15 1 0 7 empty empty empty 0 -8 0 10 -262144
-1 -1 5;
#X obj 149 172 sel 0 1 2 3 4 5 6;
#X text 105 100 Granular Preset;
#X msg 765 368 0.964706 0.0393701 0.15748 0.976378 1 0 0 0;
#X msg 765 394 0.576471 0 0.15748 0.976378 1 0 0 0;
#X msg 765 420 0.231373 0.0393701 0.00787402 0.496063 1 0 0 0;
#X msg 765 342 0.027451 0.23622 0.228346 0.677165 1 0 0 0;
#X msg 765 446 0.992157 0 0.0314961 0.653543 1 0 0 0;
#X msg 765 472 0.823529 0 0.834646 0.976378 1 0 0 0;
#X msg 149 199 0.001 0.0001 0.001 0.001 0.001 0.0001 0.0001 0.01;
#X msg 335 91 0.576471 0 0.15748 0.976378 1 0 0 0;
#X msg 335 165 0.823529 0 0.834646 0.976378 1 0 0 0;
#X msg 336 140 0.492157 0 0.0314961 0.653543 1 0 0 0;
#X msg 335 64 0.964706 0 0.15748 0.976378 1 0 0 0;
#X msg 334 115 0.231373 0 0.00787402 0.496063 1 0 0 0;
#X msg 332 40 0.20451 0 0 1 1 0 0 0;
#X msg 318 338 0.027451 0.001 0.228346 0.677165 1 0.0001 0.001 0.001
;
#X msg 318 363 0.964706 0.0001 0.15748 0.976378 1 0.001 0.0001 1e-05
;
#X msg 319 390 0.576471 0.001 0.15748 0.976378 1 0.001 0.0001 0.0001
;
#X msg 321 439 0.492157 0.001 0.0314961 0.653543 1 0.001 0.001 0.001
;
#X msg 322 416 0.231373 0.0001 0.00787402 0.496063 1 0.0001 0.0001
0.0001;
#X msg 320 464 0.823529 0.0001 0.834646 0.976378 1 0.001 0.0001 0.001
;
#X connect 2 0 3 0;
#X connect 3 0 11 0;
#X connect 3 1 17 0;
#X connect 3 2 15 0;
#X connect 3 3 12 0;
#X connect 3 4 16 0;
#X connect 3 5 14 0;
#X connect 3 6 13 0;
#X connect 11 0 1 0;
#X connect 12 0 1 0;
#X connect 13 0 1 0;
#X connect 14 0 1 0;
#X connect 15 0 1 0;
#X connect 16 0 1 0;
#X connect 17 0 1 0;
#X coords 0 -1 1 1 120 40 2 100 100;
#X restore 508 764 pd granular_presets;
#X text 491 612 KATE;
#X text 1079 615 SARAI;
#X text 775 653 IP address: in CONTROL ALL panel \, bang "get_ip and
you will see the connected device id and ip in PD window (command R)
you can paste this ip address in browser to to view individual bela
status.;
#X text 677 614 ANGELA;
#X text 82 611 DIMITRI;
#X text 643 651 sensor;
#X text 643 672 1:shoulder R;
#X text 643 689 2:knee R;
#X text 643 707 3:foot R;
#X text 643 724 4:elbow R;
#X text 644 740 5:elbow L;
#X text 643 759 6:foot L;
#X text 643 777 7:knee L;
#X text 644 795 8:sholder L;
#X text 739 736 grab presets: bang "grab preset" to get value here
;
#X text 446 810 value is stored inside;
#X obj 1180 736 zmq;
#X obj 1173 761 gate;
#N canvas 0 23 1075 718 presetView 0;
#X obj 106 108 vsl 15 128 0 1 0 0 empty empty empty 0 -9 0 10 -262144
-1 -1 0 1;
#X obj 128 108 vsl 15 128 0 1 0 0 empty empty empty 0 -9 0 10 -262144
-1 -1 0 1;
#X obj 149 108 vsl 15 128 0 1 0 0 empty empty empty 0 -9 0 10 -262144
-1 -1 0 1;
#X obj 172 108 vsl 15 128 0 1 0 0 empty empty empty 0 -9 0 10 -262144
-1 -1 0 1;
#X obj 194 108 vsl 15 128 0 1 0 0 empty empty empty 0 -9 0 10 -262144
-1 -1 0 1;
#X obj 215 108 vsl 15 128 0 1 0 0 empty empty empty 0 -9 0 10 -262144
-1 -1 0 1;
#X obj 236 108 vsl 15 128 0 1 0 0 empty empty empty 0 -9 0 10 -262144
-1 -1 0 1;
#X obj 258 108 vsl 15 128 0 1 0 0 empty empty empty 0 -9 0 10 -262144
-1 -1 0 1;
#X obj 120 61 unpack 0 0 0 0 0 0 0 0;
#X obj 115 31 r presets;
#X connect 8 0 0 0;
#X connect 8 1 1 0;
#X connect 8 2 2 0;
#X connect 8 3 3 0;
#X connect 8 4 4 0;
#X connect 8 5 5 0;
#X connect 8 6 6 0;
#X connect 8 7 7 0;
#X connect 9 0 8 0;
#X coords 0 -1 1 1 180 140 2 100 100;
#X restore 322 662 pd presetView;
#X text 1141 634 100;
#X text 157 636 208;
#X text 730 626 191;
#X text 535 626 219;
#X text 938 631 125;
#X text 327 636 235;
#X obj 801 18 p_panels p5;
#X text 298 612 DIANA;
#X text 877 617 KIRSTY;
#X connect 8 0 3 0;
