#N canvas 774 112 1036 539 12;
#X obj 115 311 vsl 15 128 0 1 0 0 empty empty empty 0 -9 0 10 -262144
-1 -1 1430 1;
#X obj 146 311 vsl 15 128 0 1 0 0 empty empty empty 0 -9 0 10 -262144
-1 -1 12052 1;
#X obj 178 311 vsl 15 128 0 1 0 0 empty empty empty 0 -9 0 10 -262144
-1 -1 3360 1;
#X obj 210 311 vsl 15 128 0 1 0 0 empty empty empty 0 -9 0 10 -262144
-1 -1 8407 1;
#X obj 115 282 unpack 0 0 0 0 0 0 0 0, f 32;
#X obj 241 311 vsl 15 128 0 1 0 0 empty empty empty 0 -9 0 10 -262144
-1 -1 11359 1;
#X obj 272 311 vsl 15 128 0 1 0 0 empty empty empty 0 -9 0 10 -262144
-1 -1 10317 1;
#X obj 304 311 vsl 15 128 0 1 0 0 empty empty empty 0 -9 0 10 -262144
-1 -1 7409 1;
#X obj 336 311 vsl 15 128 0 1 0 0 empty empty empty 0 -9 0 10 -262144
-1 -1 9924 1;
#X obj 115 251 route sensor ctrl;
#X text 66 283 SENSOR;
#X obj 409 316 vsl 15 128 0 1 0 0 empty empty empty 0 -9 0 10 -262144
-1 -1 6330 1;
#X obj 440 316 vsl 15 128 0 1 0 0 empty empty empty 0 -9 0 10 -262144
-1 -1 8057 1;
#X obj 472 316 vsl 15 128 0 1 0 0 empty empty empty 0 -9 0 10 -262144
-1 -1 4735 1;
#X obj 504 316 vsl 15 128 0 1 0 0 empty empty empty 0 -9 0 10 -262144
-1 -1 8824 1;
#X obj 409 287 unpack 0 0 0 0 0 0 0 0, f 32;
#X obj 535 316 vsl 15 128 0 1 0 0 empty empty empty 0 -9 0 10 -262144
-1 -1 10114 1;
#X obj 566 316 vsl 15 128 0 1 0 0 empty empty empty 0 -9 0 10 -262144
-1 -1 8931 1;
#X obj 598 316 vsl 15 128 0 1 0 0 empty empty empty 0 -9 0 10 -262144
-1 -1 2784 1;
#X obj 630 316 vsl 15 128 0 1 0 0 empty empty empty 0 -9 0 10 -262144
-1 -1 5832 1;
#X obj 409 256 route sensor ctrl;
#X text 360 288 SENSOR;
#X obj 711 313 vsl 15 128 0 1 0 0 empty empty empty 0 -9 0 10 -262144
-1 -1 9083 1;
#X obj 742 313 vsl 15 128 0 1 0 0 empty empty empty 0 -9 0 10 -262144
-1 -1 12512 1;
#X obj 774 313 vsl 15 128 0 1 0 0 empty empty empty 0 -9 0 10 -262144
-1 -1 935 1;
#X obj 806 313 vsl 15 128 0 1 0 0 empty empty empty 0 -9 0 10 -262144
-1 -1 6965 1;
#X obj 711 284 unpack 0 0 0 0 0 0 0 0, f 32;
#X obj 837 313 vsl 15 128 0 1 0 0 empty empty empty 0 -9 0 10 -262144
-1 -1 3180 1;
#X obj 868 313 vsl 15 128 0 1 0 0 empty empty empty 0 -9 0 10 -262144
-1 -1 8590 1;
#X obj 900 313 vsl 15 128 0 1 0 0 empty empty empty 0 -9 0 10 -262144
-1 -1 9682 1;
#X obj 932 313 vsl 15 128 0 1 0 0 empty empty empty 0 -9 0 10 -262144
-1 -1 2398 1;
#X obj 711 253 route sensor ctrl;
#X text 662 285 SENSOR;
#X obj 46 437 t b b;
#X floatatom 50 501 5 0 0 0 - - -;
#X obj 125 510 print;
#X obj 59 382 change;
#X obj 50 477 realtime;
#X obj 115 128 route p1 p2 p3 p4 p5 p6, f 30;
#X msg 463 57 edge1 p2;
#X msg 463 83 ingo p1;
#X msg 462 114 mika p3;
#X text 562 21 werkstatt;
#X text 545 56 192.168.0.75;
#X text 542 82 192.168.0.181;
#X text 539 113 192.168.0.46;
#X obj 115 99 mc_listener 51555 239.200.200.200;
#X connect 4 0 0 0;
#X connect 4 1 1 0;
#X connect 4 2 2 0;
#X connect 4 3 3 0;
#X connect 4 4 5 0;
#X connect 4 5 6 0;
#X connect 4 6 7 0;
#X connect 4 7 8 0;
#X connect 9 0 4 0;
#X connect 15 0 11 0;
#X connect 15 1 12 0;
#X connect 15 2 13 0;
#X connect 15 3 14 0;
#X connect 15 4 16 0;
#X connect 15 5 17 0;
#X connect 15 6 18 0;
#X connect 15 7 19 0;
#X connect 20 0 15 0;
#X connect 26 0 22 0;
#X connect 26 1 23 0;
#X connect 26 2 24 0;
#X connect 26 3 25 0;
#X connect 26 4 27 0;
#X connect 26 5 28 0;
#X connect 26 6 29 0;
#X connect 26 7 30 0;
#X connect 31 0 26 0;
#X connect 33 0 37 0;
#X connect 33 1 37 1;
#X connect 36 0 33 0;
#X connect 37 0 34 0;
#X connect 37 0 35 0;
#X connect 38 0 9 0;
#X connect 38 1 20 0;
#X connect 38 2 31 0;
#X connect 46 0 38 0;
