#N canvas 200 23 1436 855 12;
#X declare -path bela/_common;
#X obj 110 698 tgl 15 0 empty empty empty 17 7 0 10 -262144 -1 -1 0
1;
#X obj 225 428 loadbang;
#X obj 64 40 tgl 15 0 empty empty train 17 7 0 10 -262144 -1 -1 0 1
;
#X obj 207 41 tgl 15 0 empty empty ml_sensor 17 7 0 10 -262144 -1 -1
0 1;
#X obj 641 28 bng 15 250 50 0 empty empty empty 17 7 0 10 -262144 -1
-1;
#X obj 37 159 tgl 15 0 empty empty sensor_on 17 7 0 10 -262144 -1 -1
0 1;
#X obj 670 119 vsl 15 128 0 1 0 0 empty empty empty 0 -9 0 10 -262144
-1 -1 0 1;
#X obj 702 119 vsl 15 128 0 1 0 0 empty empty empty 0 -9 0 10 -262144
-1 -1 0 1;
#X obj 735 119 vsl 15 128 0 1 0 0 empty empty empty 0 -9 0 10 -262144
-1 -1 0 1;
#X obj 764 119 vsl 15 128 0 1 0 0 empty empty empty 0 -9 0 10 -262144
-1 -1 0 1;
#X obj 1055 333 vsl 15 128 0 1 0 0 empty empty empty 0 -9 0 10 -262144
-1 -1 0 1;
#X obj 1086 333 vsl 15 128 0 1 0 0 empty empty empty 0 -9 0 10 -262144
-1 -1 0 1;
#X obj 1118 333 vsl 15 128 0 1 0 0 empty empty empty 0 -9 0 10 -262144
-1 -1 0 1;
#X obj 1150 333 vsl 15 128 0 1 0 0 empty empty empty 0 -9 0 10 -262144
-1 -1 0 1;
#X obj 373 29 bng 15 250 50 0 empty empty empty 17 7 0 10 -262144 -1
-1;
#X obj 516 28 bng 15 250 50 0 empty empty empty 17 7 0 10 -262144 -1
-1;
#X obj 1055 304 unpack 0 0 0 0 0 0 0 0, f 32;
#X obj 1181 333 vsl 15 128 0 1 0 0 empty empty empty 0 -9 0 10 -262144
-1 -1 0 1;
#X obj 1212 333 vsl 15 128 0 1 0 0 empty empty empty 0 -9 0 10 -262144
-1 -1 0 1;
#X obj 1244 333 vsl 15 128 0 1 0 0 empty empty empty 0 -9 0 10 -262144
-1 -1 0 1;
#X obj 1276 333 vsl 15 128 0 1 0 0 empty empty empty 0 -9 0 10 -262144
-1 -1 0 1;
#X obj 40 228 tgl 15 0 empty empty sensor_send 17 7 0 10 -262144 -1
-1 0 1;
#X obj 1055 542 vsl 15 128 0 1 0 0 empty empty empty 0 -9 0 10 -262144
-1 -1 0 1;
#X obj 1086 542 vsl 15 128 0 1 0 0 empty empty empty 0 -9 0 10 -262144
-1 -1 0 1;
#X obj 1118 542 vsl 15 128 0 1 0 0 empty empty empty 0 -9 0 10 -262144
-1 -1 0 1;
#X obj 1150 542 vsl 15 128 0 1 0 0 empty empty empty 0 -9 0 10 -262144
-1 -1 0 1;
#X obj 1055 513 unpack 0 0 0 0 0 0 0 0, f 32;
#X obj 1181 542 vsl 15 128 0 1 0 0 empty empty empty 0 -9 0 10 -262144
-1 -1 0 1;
#X obj 1212 542 vsl 15 128 0 1 0 0 empty empty empty 0 -9 0 10 -262144
-1 -1 0 1;
#X obj 1244 542 vsl 15 128 0 1 0 0 empty empty empty 0 -9 0 10 -262144
-1 -1 0 1;
#X obj 1276 542 vsl 15 128 0 1 0 0 empty empty empty 0 -9 0 10 -262144
-1 -1 0 1;
#X text 1021 514 CTRL;
#X text 1006 305 SENSOR;
#X obj 1341 344 s sensors;
#X obj 1318 305 spigot;
#X obj 1364 271 tgl 15 0 empty empty empty 17 7 0 10 -262144 -1 -1
0 1;
#X msg 601 357 24;
#X msg 642 355 30;
#X msg 692 356 49;
#X obj 794 119 vsl 15 128 0 1 0 0 empty empty empty 0 -9 0 10 -262144
-1 -1 0 1;
#X obj 826 119 vsl 15 128 0 1 0 0 empty empty empty 0 -9 0 10 -262144
-1 -1 0 1;
#X obj 859 119 vsl 15 128 0 1 0 0 empty empty empty 0 -9 0 10 -262144
-1 -1 0 1;
#X obj 888 119 vsl 15 128 0 1 0 0 empty empty empty 0 -9 0 10 -262144
-1 -1 0 1;
#X obj 816 37 hradio 15 1 0 8 empty empty mode 0 -8 0 10 -262144 -1
-1 2;
#X obj 778 538 hradio 15 1 0 8 empty empty id 0 -8 0 10 -262144 -1
-1 0;
#X obj 778 558 sel 0 1 2 3 4 5;
#X msg 733 590 p1;
#X obj 798 636 s p_id;
#X msg 768 590 p2;
#X msg 801 590 p3;
#X msg 836 590 p4;
#X msg 869 590 p5;
#X msg 906 590 p6;
#X obj 373 67 oscfmt ml write;
#X obj 516 67 oscfmt ml read;
#X obj 641 67 oscfmt ml train;
#X obj 816 61 oscfmt mode;
#X obj 37 186 oscfmt sensor on;
#X obj 40 255 oscfmt sensor send;
#X obj 367 181 oscfmt audio volume;
#X obj 527 314 oscfmt system osc_log;
#X obj 670 255 oscfmt ctrl ctrl1;
#X obj 702 276 oscfmt ctrl ctrl2;
#X obj 735 297 oscfmt ctrl ctrl3;
#X obj 764 320 oscfmt ctrl ctrl4;
#X obj 794 255 oscfmt ctrl ctrl5;
#X obj 826 276 oscfmt ctrl ctrl6;
#X obj 859 297 oscfmt ctrl ctrl7;
#X obj 888 320 oscfmt ctrl ctrl8;
#X obj 482 400 oscfmt ctrl send;
#X obj 636 396 oscfmt ctrl note;
#X obj 64 67 oscfmt ml mode;
#X obj 1055 246 route sensor ctrl ip;
#X obj 1055 215 route p1;
#X obj 1129 158 r p_id;
#X obj 1129 181 symbol;
#X symbolatom 700 679 10 0 0 0 - - -;
#X obj 700 627 r p_id;
#X obj 700 653 symbol;
#X obj 109 589 r to_ctrl_netsend;
#X obj 79 335 bng 15 250 50 0 empty empty get_ip 17 7 0 10 -262144
-1 -1;
#X obj 1002 127 route ip;
#X obj 982 162 print IP;
#X obj 1002 100 mc_listener 51555 239.200.200.200;
#X obj 79 358 oscformat all system ip;
#X msg 943 590 all;
#X msg 527 290 1;
#X msg 565 290 0;
#X obj 207 67 oscfmt ml sensor;
#X obj 482 378 tgl 15 0 empty empty ctrl_send 17 7 0 10 -262144 -1
-1 0 1;
#X msg 412 748 edge1 p2;
#X msg 412 774 ingo p1;
#X msg 411 805 mika p3;
#X text 511 712 werkstatt;
#X text 494 747 192.168.0.75;
#X text 491 773 192.168.0.181;
#X text 488 804 192.168.0.46;
#X obj 1230 157 netsend -u -b;
#X obj 1230 129 spigot;
#X obj 1269 50 tgl 15 0 empty empty resend_to_localhost 17 7 0 10 -262144
-1 -1 0 1;
#X msg 1292 129 connect localhost 51000;
#X obj 1230 185 tgl 15 0 empty empty empty 17 7 0 10 -262144 -1 -1
1 1;
#X obj 1292 103 loadbang;
#X obj 518 97 bng 15 250 50 0 empty empty empty 17 7 0 10 -262144 -1
-1;
#X obj 518 115 oscfmt ml clear;
#X msg 769 732 clear;
#X obj 110 671 netsend -b;
#X obj 89 812 declare -path bela/_common;
#X obj 193 643 r to_ctrl_netsend_direct;
#N canvas 436 260 555 551 ip_storage 0;
#X obj 151 301 coll;
#C restore;
#X obj 154 112 route p1 p2 p3;
#X obj 146 144 list prepend 0;
#X obj 124 190 list trim;
#X obj 219 169 list prepend 1;
#X obj 255 195 list prepend 2;
#X obj 151 325 list append 50555;
#X obj 151 349 list prepend connect;
#X msg 296 431 disconnect;
#X obj 138 477 s to_ctrl_netsend_direct;
#X obj 126 44 inlet;
#X obj 55 43 inlet;
#X obj 152 377 list trim;
#X obj 161 227 route clear;
#X obj 286 284 t b;
#X msg 157 262 clear;
#X obj 221 267 i;
#X connect 0 0 6 0;
#X connect 1 0 2 0;
#X connect 1 1 4 0;
#X connect 1 2 5 0;
#X connect 2 0 3 0;
#X connect 3 0 0 0;
#X connect 4 0 3 0;
#X connect 5 0 3 0;
#X connect 6 0 7 0;
#X connect 7 0 12 0;
#X connect 8 0 9 0;
#X connect 10 0 1 0;
#X connect 11 0 13 0;
#X connect 12 0 9 0;
#X connect 13 0 15 0;
#X connect 13 1 14 0;
#X connect 13 1 16 0;
#X connect 14 0 8 0;
#X connect 15 0 0 0;
#X connect 16 0 0 0;
#X restore 896 793 pd ip_storage;
#X obj 61 455 netsend -u -b;
#X obj 79 385 s to_ctrl_netsend_bc;
#X obj 61 425 r to_ctrl_netsend_bc;
#X obj 61 485 tgl 15 0 empty empty empty 17 7 0 10 -262144 -1 -1 1
1;
#X msg 226 452 connect 192.168.0.255 50444;
#X obj 367 148 change;
#X floatatom 367 116 5 0 1 0 - - -;
#X obj 242 210 change;
#X floatatom 242 178 5 10 2000 0 - - -;
#X obj 242 243 oscfmt sensor speed;
#X msg 231 150 40;
#X msg 267 150 100;
#X obj 521 139 tgl 15 0 empty empty empty 17 7 0 10 -262144 -1 -1 0
1;
#X obj 521 169 oscfmt ml voicefade;
#X obj 291 284 bng 15 250 50 0 empty empty empty 17 7 0 10 -262144
-1 -1;
#X obj 291 323 oscfmt sensor base;
#X obj 524 228 oscfmt ml voicetype;
#X msg 519 200 1;
#X msg 554 200 2;
#X msg 588 201 3;
#X msg 236 511 connect 192.168.178.255 50444;
#X msg 252 477 disconnect;
#X obj 109 616 slipenc;
#X connect 1 0 114 0;
#X connect 2 0 71 0;
#X connect 3 0 88 0;
#X connect 4 0 55 0;
#X connect 5 0 57 0;
#X connect 6 0 61 0;
#X connect 7 0 62 0;
#X connect 8 0 63 0;
#X connect 9 0 64 0;
#X connect 14 0 53 0;
#X connect 15 0 54 0;
#X connect 16 0 10 0;
#X connect 16 1 11 0;
#X connect 16 2 12 0;
#X connect 16 3 13 0;
#X connect 16 4 17 0;
#X connect 16 5 18 0;
#X connect 16 6 19 0;
#X connect 16 7 20 0;
#X connect 21 0 58 0;
#X connect 26 0 22 0;
#X connect 26 1 23 0;
#X connect 26 2 24 0;
#X connect 26 3 25 0;
#X connect 26 4 27 0;
#X connect 26 5 28 0;
#X connect 26 6 29 0;
#X connect 26 7 30 0;
#X connect 34 0 33 0;
#X connect 35 0 34 1;
#X connect 36 0 70 0;
#X connect 37 0 70 0;
#X connect 38 0 70 0;
#X connect 39 0 65 0;
#X connect 40 0 66 0;
#X connect 41 0 67 0;
#X connect 42 0 68 0;
#X connect 43 0 56 0;
#X connect 44 0 45 0;
#X connect 44 0 109 0;
#X connect 45 0 46 0;
#X connect 45 1 48 0;
#X connect 45 2 49 0;
#X connect 45 3 50 0;
#X connect 45 4 51 0;
#X connect 45 5 52 0;
#X connect 46 0 47 0;
#X connect 48 0 47 0;
#X connect 49 0 47 0;
#X connect 50 0 47 0;
#X connect 51 0 47 0;
#X connect 52 0 47 0;
#X connect 72 0 16 0;
#X connect 72 0 34 0;
#X connect 72 1 26 0;
#X connect 73 0 72 0;
#X connect 74 0 75 0;
#X connect 75 0 73 1;
#X connect 77 0 78 0;
#X connect 78 0 76 0;
#X connect 79 0 132 0;
#X connect 80 0 84 0;
#X connect 81 0 82 0;
#X connect 81 0 109 1;
#X connect 81 1 73 0;
#X connect 83 0 81 0;
#X connect 83 1 98 0;
#X connect 84 0 111 0;
#X connect 85 0 47 0;
#X connect 86 0 60 0;
#X connect 87 0 60 0;
#X connect 89 0 69 0;
#X connect 97 0 101 0;
#X connect 98 0 97 0;
#X connect 99 0 98 1;
#X connect 100 0 97 0;
#X connect 102 0 100 0;
#X connect 103 0 104 0;
#X connect 105 0 109 0;
#X connect 106 0 0 0;
#X connect 108 0 106 0;
#X connect 110 0 113 0;
#X connect 112 0 110 0;
#X connect 114 0 110 0;
#X connect 115 0 59 0;
#X connect 116 0 115 0;
#X connect 117 0 119 0;
#X connect 118 0 117 0;
#X connect 120 0 118 0;
#X connect 121 0 118 0;
#X connect 122 0 123 0;
#X connect 124 0 125 0;
#X connect 127 0 126 0;
#X connect 128 0 126 0;
#X connect 129 0 126 0;
#X connect 130 0 110 0;
#X connect 131 0 110 0;
#X connect 132 0 106 0;
