#N canvas 10 23 1436 835 12;
#X declare -path bela/_common;
#X text 1094 820 granular;
#X text 575 818 voder;
#X obj 17 14 p_panels p1;
#X obj 215 15 p_panels p2;
#N canvas 181 23 1220 688 network_related 0;
#X obj 19 61 route sensors;
#X obj 19 37 zmq_sub 192.168.0.10:5555 sensors;
#X obj 274 36 zmq_sub 192.168.0.10:5555 mapped;
#X obj 274 60 route mapped;
#X obj 19 86 s allsensors;
#X obj 274 85 s allmapped;
#X obj 528 36 zmq_sub 192.168.0.10:5555 info;
#X obj 528 60 route info;
#X obj 528 85 print IP;
#X obj 184 128 loadbang;
#X obj 24 160 netsend -u -b;
#X obj 24 130 r to_ctrl_netsend_bc;
#X obj 24 190 tgl 15 0 empty empty empty 17 7 0 10 -262144 -1 -1 1
1;
#X msg 185 152 connect 192.168.0.255 50444;
#X msg 180 204 connect 192.168.178.255 50444;
#X msg 184 178 disconnect;
#X obj 457 130 r to_ctrl_netsend;
#X obj 457 263 zmq;
#X msg 679 211 socket publish;
#X obj 646 186 t b b;
#X obj 456 189 list trim;
#X msg 646 241 connect tcp://192.168.0.10:5556;
#X obj 457 161 list prepend send control;
#X obj 644 163 loadbang;
#X msg 593 135 all system ip;
#X obj 593 113 bng 15 250 50 0 empty empty get_ip 17 7 0 10 -262144
-1 -1;
#X obj 314 395 print to_control_netsend;
#X obj 820 25 inlet;
#X connect 0 0 4 0;
#X connect 1 0 0 0;
#X connect 2 0 3 0;
#X connect 3 0 5 0;
#X connect 6 0 7 0;
#X connect 7 0 8 0;
#X connect 9 0 13 0;
#X connect 10 0 12 0;
#X connect 11 0 10 0;
#X connect 13 0 10 0;
#X connect 14 0 10 0;
#X connect 15 0 10 0;
#X connect 16 0 22 0;
#X connect 18 0 17 0;
#X connect 19 0 21 0;
#X connect 19 1 18 0;
#X connect 20 0 17 0;
#X connect 21 0 17 0;
#X connect 22 0 20 0;
#X connect 23 0 19 0;
#X connect 24 0 22 0;
#X connect 25 0 24 0;
#X connect 27 0 24 0;
#X restore 19 811 pd network_related;
#X msg 21 645 0.939587 0 0 0.526529 0.864296 0 0.000924342 0.0144726
;
#X text 18 621 grab presets;
#X obj 162 812 declare -path bela/_common;
#X obj 20 786 bng 15 250 50 0 empty empty get_ip 17 7 0 10 -262144
-1 -1;
#X obj 424 813 s presets;
#X msg 1015 660 0.964706 0.0393701 0.15748 0.976378 1 0 0 0;
#X msg 1015 686 0.576471 0 0.15748 0.976378 1 0 0 0;
#X msg 1015 712 0.231373 0.0393701 0.00787402 0.496063 1 0 0 0;
#X msg 1015 634 0.027451 0.23622 0.228346 0.677165 1 0 0 0;
#X msg 1015 738 0.992157 0 0.0314961 0.653543 1 0 0 0;
#X msg 1015 764 0.823529 0 0.834646 0.976378 1 0 0 0;
#X msg 1015 790 0 0 0 0 0 0 0 0.1;
#X obj 1015 816 s presets;
#X obj 865 815 s presets;
#X msg 422 716 0.244094 0.0866142 0.141732 0.0393701 0 0.582677 0.330709
1;
#X msg 423 740 0.11811 0.944882 0.80315 0.716535 1 0 0.669291 1;
#X msg 423 763 0.929134 0.244094 0.417323 0.125984 0 0.952756 1 1;
#X msg 420 642 0.92913 0.24409 0.41732 0.700787 0.20472 0.779528 0.685039
1;
#X msg 421 667 0.55905 0.070866 0.22047 0.03937 0.897638 0.59055 0.330709
1;
#X msg 422 691 0.330709 0.94488 0.80315 0.2362 0.771654 0.76378 0.0551181
1;
#X text 950 817 phoneme;
#X obj 410 16 p_panels p3;
#X obj 606 17 p_panels p4;
#X obj 801 18 p_panels p5;
#X obj 1001 18 p_panels p6;
#X msg 862 640 1 0 0 0 0 0 0 0;
#X msg 862 663 0 1 0 0 0 0 0 0;
#X msg 862 686 0 0 1 0 0 0 0 0;
#X msg 862 709 0 0 0 0 0 0 0 0.1;
#X msg 424 789 0 0 0 0 0 0 0 0.01;
#N canvas 4 23 450 300 grabPresets 0;
#X obj 29 8 r preset_out;
#X obj 29 31 list prepend set;
#X obj 29 54 list trim;
#X obj 32 82 outlet;
#X connect 0 0 1 0;
#X connect 1 0 2 0;
#X connect 2 0 3 0;
#X restore 19 671 pd grabPresets;
#X connect 8 0 4 0;
#X connect 10 0 17 0;
#X connect 11 0 17 0;
#X connect 12 0 17 0;
#X connect 13 0 17 0;
#X connect 14 0 17 0;
#X connect 15 0 17 0;
#X connect 16 0 17 0;
#X connect 19 0 9 0;
#X connect 20 0 9 0;
#X connect 21 0 9 0;
#X connect 22 0 9 0;
#X connect 23 0 9 0;
#X connect 24 0 9 0;
#X connect 30 0 18 0;
#X connect 31 0 18 0;
#X connect 32 0 18 0;
#X connect 33 0 18 0;
#X connect 34 0 9 0;
#X connect 35 0 5 0;
