#N canvas 349 24 1421 735 12;
#X obj 179 629 tgl 15 0 empty empty empty 17 7 0 10 -262144 -1 -1 1
1;
#X obj 327 506 loadbang;
#X obj 64 40 tgl 15 0 empty empty train 17 7 0 10 -262144 -1 -1 0 1
;
#X obj 207 41 tgl 15 0 empty empty ml_sensor 17 7 0 10 -262144 -1 -1
0 1;
#X obj 641 28 bng 15 250 50 0 empty empty empty 17 7 0 10 -262144 -1
-1;
#X obj 369 136 nbx 5 14 0 1 0 0 empty empty empty 0 -8 0 10 -262144
-1 -1 0 256;
#X obj 37 159 tgl 15 0 empty empty sensor_on 17 7 0 10 -262144 -1 -1
0 1;
#X obj 670 119 vsl 15 128 0 1 0 0 empty empty empty 0 -9 0 10 -262144
-1 -1 0 1;
#X obj 702 119 vsl 15 128 0 1 0 0 empty empty empty 0 -9 0 10 -262144
-1 -1 0 1;
#X obj 735 119 vsl 15 128 0 1 0 0 empty empty empty 0 -9 0 10 -262144
-1 -1 0 1;
#X obj 764 119 vsl 15 128 0 1 0 0 empty empty empty 0 -9 0 10 -262144
-1 -1 0 1;
#X obj 1055 122 netreceive -u -b;
#X msg 1076 93 listen 0;
#X obj 1055 153 oscparse;
#X obj 1076 31 loadbang;
#X obj 1055 184 list trim;
#X msg 1076 62 listen 51555;
#X obj 1055 306 vsl 15 128 0 1 0 0 empty empty empty 0 -9 0 10 -262144
-1 -1 0 1;
#X obj 1086 306 vsl 15 128 0 1 0 0 empty empty empty 0 -9 0 10 -262144
-1 -1 0 1;
#X obj 1118 306 vsl 15 128 0 1 0 0 empty empty empty 0 -9 0 10 -262144
-1 -1 0 1;
#X obj 1150 306 vsl 15 128 0 1 0 0 empty empty empty 0 -9 0 10 -262144
-1 -1 0 1;
#X obj 373 29 bng 15 250 50 0 empty empty empty 17 7 0 10 -262144 -1
-1;
#X obj 516 28 bng 15 250 50 0 empty empty empty 17 7 0 10 -262144 -1
-1;
#X msg 543 537 disconnect;
#X obj 586 412 tgl 15 0 empty empty empty 17 7 0 10 -262144 -1 -1 0
1;
#X obj 1055 277 unpack 0 0 0 0 0 0 0 0, f 32;
#X obj 1181 306 vsl 15 128 0 1 0 0 empty empty empty 0 -9 0 10 -262144
-1 -1 0 1;
#X obj 1212 306 vsl 15 128 0 1 0 0 empty empty empty 0 -9 0 10 -262144
-1 -1 0 1;
#X obj 1244 306 vsl 15 128 0 1 0 0 empty empty empty 0 -9 0 10 -262144
-1 -1 0 1;
#X obj 1276 306 vsl 15 128 0 1 0 0 empty empty empty 0 -9 0 10 -262144
-1 -1 0 1;
#X obj 1055 215 route 192.168.0.45;
#X msg 1222 157 symbol 192.168.0.45;
#X msg 1222 128 symbol 192.168.0.181;
#X obj 1055 246 route sensor ctrl;
#X obj 40 228 tgl 15 0 empty empty sensor_send 17 7 0 10 -262144 -1
-1 0 1;
#X obj 1055 542 vsl 15 128 0 1 0 0 empty empty empty 0 -9 0 10 -262144
-1 -1 0 1;
#X obj 1086 542 vsl 15 128 0 1 0 0 empty empty empty 0 -9 0 10 -262144
-1 -1 0 1;
#X obj 1118 542 vsl 15 128 0 1 0 0 empty empty empty 0 -9 0 10 -262144
-1 -1 0 1;
#X obj 1150 542 vsl 15 128 0 1 0 0 empty empty empty 0 -9 0 10 -262144
-1 -1 0 1;
#X obj 1055 513 unpack 0 0 0 0 0 0 0 0, f 32;
#X obj 1181 542 vsl 15 128 0 1 0 0 empty empty empty 0 -9 0 10 -262144
-1 -1 0 1;
#X obj 1212 542 vsl 15 128 0 1 0 0 empty empty empty 0 -9 0 10 -262144
-1 -1 0 1;
#X obj 1244 542 vsl 15 128 0 1 0 0 empty empty empty 0 -9 0 10 -262144
-1 -1 0 1;
#X obj 1276 542 vsl 15 128 0 1 0 0 empty empty empty 0 -9 0 10 -262144
-1 -1 0 1;
#X msg 1220 101 symbol 192.168.0.161;
#X text 1021 514 CTRL;
#X text 1006 278 SENSOR;
#X obj 1341 317 s sensors;
#X obj 1318 278 spigot;
#X obj 1364 244 tgl 15 0 empty empty empty 17 7 0 10 -262144 -1 -1
0 1;
#X msg 601 357 24;
#X msg 642 355 30;
#X msg 692 356 49;
#X obj 794 119 vsl 15 128 0 1 0 0 empty empty empty 0 -9 0 10 -262144
-1 -1 0 1;
#X obj 826 119 vsl 15 128 0 1 0 0 empty empty empty 0 -9 0 10 -262144
-1 -1 0 1;
#X obj 859 119 vsl 15 128 0 1 0 0 empty empty empty 0 -9 0 10 -262144
-1 -1 0 1;
#X obj 888 119 vsl 15 128 0 1 0 0 empty empty empty 0 -9 0 10 -262144
-1 -1 0 1;
#X msg 427 493 connect 192.168.10.116 50555;
#X msg 1220 71 symbol 192.168.10.116;
#X msg 327 537 connect 239.100.100.100 50555;
#X obj 421 226 tgl 15 0 empty empty osc_log 17 7 0 10 -262144 -1 -1
0 1;
#X obj 816 37 hradio 15 1 0 8 empty empty mode 0 -8 0 10 -262144 -1
-1 1;
#X obj 778 538 hradio 15 1 0 8 empty empty id 0 -8 0 10 -262144 -1
-1 1;
#X obj 778 558 sel 0 1 2 3 4 5;
#X msg 733 590 p1;
#X obj 798 636 s p_id;
#X msg 768 590 p2;
#X msg 801 590 p3;
#X msg 836 590 p4;
#X msg 869 590 p5;
#X msg 906 590 p6;
#X obj 373 67 oscfmt ml write;
#X obj 516 67 oscfmt ml read;
#X obj 641 67 oscfmt ml train;
#X obj 816 61 oscfmt mode;
#X obj 37 186 oscfmt sensor on;
#X obj 40 255 oscfmt sensor send;
#X obj 369 158 oscfmt audio volume;
#X obj 421 253 oscfmt system osc_log;
#X obj 650 253 oscfmt ctrl ctrl1;
#X obj 674 275 oscfmt ctrl ctrl2;
#X obj 708 297 oscfmt ctrl ctrl3;
#X obj 726 320 oscfmt ctrl ctrl4;
#X obj 760 344 oscfmt ctrl ctrl5;
#X obj 784 366 oscfmt ctrl ctrl6;
#X obj 818 388 oscfmt ctrl ctrl7;
#X obj 836 410 oscfmt ctrl ctrl8;
#X obj 588 437 oscfmt ctrl send;
#X obj 636 396 oscfmt ctrl note;
#X obj 179 578 netsend -u -b;
#X obj 179 496 thru;
#X obj 207 67 oscfmt ml sensor1;
#X obj 64 67 oscfmt ml mode;
#X connect 1 0 59 0;
#X connect 2 0 92 0;
#X connect 3 0 91 0;
#X connect 4 0 73 0;
#X connect 5 0 77 0;
#X connect 6 0 75 0;
#X connect 7 0 79 0;
#X connect 8 0 80 0;
#X connect 9 0 81 0;
#X connect 10 0 82 0;
#X connect 11 0 13 0;
#X connect 12 0 11 0;
#X connect 13 0 15 0;
#X connect 14 0 16 0;
#X connect 15 0 30 0;
#X connect 16 0 11 0;
#X connect 21 0 71 0;
#X connect 22 0 72 0;
#X connect 23 0 90 0;
#X connect 24 0 87 0;
#X connect 25 0 17 0;
#X connect 25 1 18 0;
#X connect 25 2 19 0;
#X connect 25 3 20 0;
#X connect 25 4 26 0;
#X connect 25 5 27 0;
#X connect 25 6 28 0;
#X connect 25 7 29 0;
#X connect 30 0 33 0;
#X connect 31 0 30 1;
#X connect 32 0 30 1;
#X connect 33 0 25 0;
#X connect 33 0 48 0;
#X connect 33 1 39 0;
#X connect 34 0 76 0;
#X connect 39 0 35 0;
#X connect 39 1 36 0;
#X connect 39 2 37 0;
#X connect 39 3 38 0;
#X connect 39 4 40 0;
#X connect 39 5 41 0;
#X connect 39 6 42 0;
#X connect 39 7 43 0;
#X connect 44 0 30 1;
#X connect 48 0 47 0;
#X connect 49 0 48 1;
#X connect 50 0 88 0;
#X connect 51 0 88 0;
#X connect 52 0 88 0;
#X connect 53 0 83 0;
#X connect 54 0 84 0;
#X connect 55 0 85 0;
#X connect 56 0 86 0;
#X connect 58 0 30 1;
#X connect 59 0 90 0;
#X connect 60 0 78 0;
#X connect 61 0 74 0;
#X connect 62 0 63 0;
#X connect 63 0 64 0;
#X connect 63 1 66 0;
#X connect 63 2 67 0;
#X connect 63 3 68 0;
#X connect 63 4 69 0;
#X connect 63 5 70 0;
#X connect 64 0 65 0;
#X connect 66 0 65 0;
#X connect 67 0 65 0;
#X connect 68 0 65 0;
#X connect 69 0 65 0;
#X connect 70 0 65 0;
#X connect 71 0 90 0;
#X connect 72 0 90 0;
#X connect 73 0 90 0;
#X connect 74 0 90 0;
#X connect 75 0 90 0;
#X connect 76 0 90 0;
#X connect 77 0 90 0;
#X connect 78 0 90 0;
#X connect 79 0 90 0;
#X connect 80 0 90 0;
#X connect 81 0 90 0;
#X connect 82 0 90 0;
#X connect 83 0 90 0;
#X connect 84 0 90 0;
#X connect 85 0 90 0;
#X connect 86 0 90 0;
#X connect 87 0 90 0;
#X connect 88 0 90 0;
#X connect 89 0 0 0;
#X connect 90 0 89 0;
#X connect 91 0 90 0;
#X connect 92 0 90 0;
