#N canvas 348 76 1417 686 12;
#X obj 179 607 tgl 15 0 empty empty empty 17 7 0 10 -262144 -1 -1 1
1;
#X obj 327 506 loadbang;
#X obj 64 40 tgl 15 0 empty empty train 17 7 0 10 -262144 -1 -1 0 1
;
#X obj 207 41 tgl 15 0 empty empty ml_sensor 17 7 0 10 -262144 -1 -1
0 1;
#X obj 207 67 oscformat ml sensor;
#X obj 373 67 oscformat ml write;
#X obj 516 67 oscformat ml read;
#X obj 641 28 bng 15 250 50 0 empty empty empty 17 7 0 10 -262144 -1
-1;
#X obj 369 158 oscformat audio volume;
#X obj 369 136 nbx 5 14 0 1 0 0 empty empty empty 0 -8 0 10 -262144
-1 -1 0 256;
#X obj 37 159 tgl 15 0 empty empty sensor_on 17 7 0 10 -262144 -1 -1
1 1;
#X obj 670 119 vsl 15 128 0 1 0 0 empty empty empty 0 -9 0 10 -262144
-1 -1 0 1;
#X obj 702 119 vsl 15 128 0 1 0 0 empty empty empty 0 -9 0 10 -262144
-1 -1 0 1;
#X obj 735 119 vsl 15 128 0 1 0 0 empty empty empty 0 -9 0 10 -262144
-1 -1 0 1;
#X obj 764 119 vsl 15 128 0 1 0 0 empty empty empty 0 -9 0 10 -262144
-1 -1 0 1;
#X obj 1055 122 netreceive -u -b;
#X msg 1076 93 listen 0;
#X obj 1055 153 oscparse;
#X obj 1076 31 loadbang;
#X obj 1055 184 list trim;
#X msg 1076 62 listen 51555;
#X obj 1055 306 vsl 15 128 0 1 0 0 empty empty empty 0 -9 0 10 -262144
-1 -1 0 1;
#X obj 1086 306 vsl 15 128 0 1 0 0 empty empty empty 0 -9 0 10 -262144
-1 -1 0 1;
#X obj 1118 306 vsl 15 128 0 1 0 0 empty empty empty 0 -9 0 10 -262144
-1 -1 0 1;
#X obj 1150 306 vsl 15 128 0 1 0 0 empty empty empty 0 -9 0 10 -262144
-1 -1 0 1;
#X obj 373 29 bng 15 250 50 0 empty empty empty 17 7 0 10 -262144 -1
-1;
#X obj 516 28 bng 15 250 50 0 empty empty empty 17 7 0 10 -262144 -1
-1;
#X msg 543 537 disconnect;
#X obj 586 412 tgl 15 0 empty empty empty 17 7 0 10 -262144 -1 -1 0
1;
#X obj 1055 277 unpack 0 0 0 0 0 0 0 0, f 32;
#X obj 1181 306 vsl 15 128 0 1 0 0 empty empty empty 0 -9 0 10 -262144
-1 -1 0 1;
#X obj 1212 306 vsl 15 128 0 1 0 0 empty empty empty 0 -9 0 10 -262144
-1 -1 0 1;
#X obj 1244 306 vsl 15 128 0 1 0 0 empty empty empty 0 -9 0 10 -262144
-1 -1 0 1;
#X obj 1276 306 vsl 15 128 0 1 0 0 empty empty empty 0 -9 0 10 -262144
-1 -1 0 1;
#X obj 1055 215 route 192.168.0.45;
#X msg 1222 157 symbol 192.168.0.45;
#X msg 1222 128 symbol 192.168.0.181;
#X obj 1055 246 route sensor ctrl;
#X obj 650 253 oscformat ctrl ctrl1;
#X obj 674 275 oscformat ctrl ctrl2;
#X obj 708 297 oscformat ctrl ctrl3;
#X obj 726 320 oscformat ctrl ctrl4;
#X obj 37 186 oscformat sensor on;
#X obj 588 437 oscformat ctrl send;
#X obj 40 228 tgl 15 0 empty empty sensor_send 17 7 0 10 -262144 -1
-1 0 1;
#X obj 40 255 oscformat sensor send;
#X obj 1055 542 vsl 15 128 0 1 0 0 empty empty empty 0 -9 0 10 -262144
-1 -1 0 1;
#X obj 1086 542 vsl 15 128 0 1 0 0 empty empty empty 0 -9 0 10 -262144
-1 -1 0 1;
#X obj 1118 542 vsl 15 128 0 1 0 0 empty empty empty 0 -9 0 10 -262144
-1 -1 0 1;
#X obj 1150 542 vsl 15 128 0 1 0 0 empty empty empty 0 -9 0 10 -262144
-1 -1 0 1;
#X obj 1055 513 unpack 0 0 0 0 0 0 0 0, f 32;
#X obj 1181 542 vsl 15 128 0 1 0 0 empty empty empty 0 -9 0 10 -262144
-1 -1 0 1;
#X obj 1212 542 vsl 15 128 0 1 0 0 empty empty empty 0 -9 0 10 -262144
-1 -1 0 1;
#X obj 1244 542 vsl 15 128 0 1 0 0 empty empty empty 0 -9 0 10 -262144
-1 -1 0 1;
#X obj 1276 542 vsl 15 128 0 1 0 0 empty empty empty 0 -9 0 10 -262144
-1 -1 0 1;
#X msg 1220 101 symbol 192.168.0.161;
#X text 1021 514 CTRL;
#X text 1006 278 SENSOR;
#X obj 1341 317 s sensors;
#X obj 1318 278 spigot;
#X obj 1364 244 tgl 15 0 empty empty empty 17 7 0 10 -262144 -1 -1
0 1;
#X msg 601 357 24;
#X msg 642 355 30;
#X msg 692 356 49;
#X obj 636 396 oscformat ctrl note;
#X obj 794 119 vsl 15 128 0 1 0 0 empty empty empty 0 -9 0 10 -262144
-1 -1 0 1;
#X obj 826 119 vsl 15 128 0 1 0 0 empty empty empty 0 -9 0 10 -262144
-1 -1 0 1;
#X obj 859 119 vsl 15 128 0 1 0 0 empty empty empty 0 -9 0 10 -262144
-1 -1 0 1;
#X obj 888 119 vsl 15 128 0 1 0 0 empty empty empty 0 -9 0 10 -262144
-1 -1 0 1;
#X obj 760 344 oscformat ctrl ctrl5;
#X obj 784 366 oscformat ctrl ctrl6;
#X obj 818 388 oscformat ctrl ctrl7;
#X obj 836 410 oscformat ctrl ctrl8;
#X msg 427 493 connect 192.168.10.116 50555;
#X msg 1220 71 symbol 192.168.10.116;
#X msg 327 537 connect 239.100.100.100 50555;
#X obj 179 496 netsend -u -b;
#X obj 421 226 tgl 15 0 empty empty osc_log 17 7 0 10 -262144 -1 -1
1 1;
#X obj 421 253 oscformat system osc_log;
#X obj 64 67 oscformat ml mode;
#X obj 641 67 oscformat ml train;
#X obj 817 61 oscformat mode;
#X obj 816 37 hradio 15 1 0 8 empty empty mode 0 -8 0 10 -262144 -1
-1 1;
#X connect 1 0 75 0;
#X connect 2 0 79 0;
#X connect 3 0 4 0;
#X connect 4 0 76 0;
#X connect 5 0 76 0;
#X connect 6 0 76 0;
#X connect 7 0 80 0;
#X connect 8 0 76 0;
#X connect 9 0 8 0;
#X connect 10 0 42 0;
#X connect 11 0 38 0;
#X connect 12 0 39 0;
#X connect 13 0 40 0;
#X connect 14 0 41 0;
#X connect 15 0 17 0;
#X connect 16 0 15 0;
#X connect 17 0 19 0;
#X connect 18 0 20 0;
#X connect 19 0 34 0;
#X connect 20 0 15 0;
#X connect 25 0 5 0;
#X connect 26 0 6 0;
#X connect 27 0 76 0;
#X connect 28 0 43 0;
#X connect 29 0 21 0;
#X connect 29 1 22 0;
#X connect 29 2 23 0;
#X connect 29 3 24 0;
#X connect 29 4 30 0;
#X connect 29 5 31 0;
#X connect 29 6 32 0;
#X connect 29 7 33 0;
#X connect 34 0 37 0;
#X connect 35 0 34 1;
#X connect 36 0 34 1;
#X connect 37 0 29 0;
#X connect 37 0 59 0;
#X connect 37 1 50 0;
#X connect 38 0 76 0;
#X connect 39 0 76 0;
#X connect 40 0 76 0;
#X connect 41 0 76 0;
#X connect 42 0 76 0;
#X connect 43 0 76 0;
#X connect 44 0 45 0;
#X connect 45 0 76 0;
#X connect 50 0 46 0;
#X connect 50 1 47 0;
#X connect 50 2 48 0;
#X connect 50 3 49 0;
#X connect 50 4 51 0;
#X connect 50 5 52 0;
#X connect 50 6 53 0;
#X connect 50 7 54 0;
#X connect 55 0 34 1;
#X connect 59 0 58 0;
#X connect 60 0 59 1;
#X connect 61 0 64 0;
#X connect 62 0 64 0;
#X connect 63 0 64 0;
#X connect 64 0 76 0;
#X connect 65 0 69 0;
#X connect 66 0 70 0;
#X connect 67 0 71 0;
#X connect 68 0 72 0;
#X connect 69 0 76 0;
#X connect 70 0 76 0;
#X connect 71 0 76 0;
#X connect 72 0 76 0;
#X connect 74 0 34 1;
#X connect 75 0 76 0;
#X connect 76 0 0 0;
#X connect 77 0 78 0;
#X connect 78 0 76 0;
#X connect 79 0 76 0;
#X connect 80 0 76 0;
#X connect 81 0 76 0;
#X connect 82 0 81 0;
