#N canvas 348 76 1417 686 12;
#X obj 179 607 tgl 15 0 empty empty empty 17 7 0 10 -262144 -1 -1 1
1;
#X obj 327 506 loadbang;
#X obj 64 67 oscformat ml train;
#X obj 64 40 tgl 15 0 empty empty train 17 7 0 10 -262144 -1 -1 0 1
;
#X obj 207 41 tgl 15 0 empty empty ml_sensor 17 7 0 10 -262144 -1 -1
0 1;
#X obj 207 67 oscformat ml sensor;
#X obj 373 67 oscformat ml write;
#X obj 516 67 oscformat ml read;
#X obj 641 67 oscformat ml dotrain;
#X obj 641 28 bng 15 250 50 0 empty empty empty 17 7 0 10 -262144 -1
-1;
#X obj 369 158 oscformat audio volume;
#X obj 369 136 nbx 5 14 0 1 0 0 empty empty empty 0 -8 0 10 -262144
-1 -1 1 256;
#X obj 37 159 tgl 15 0 empty empty sensor_on 17 7 0 10 -262144 -1 -1
0 1;
#X obj 670 119 vsl 15 128 0 1 0 0 empty empty empty 0 -9 0 10 -262144
-1 -1 11100 1;
#X obj 702 119 vsl 15 128 0 1 0 0 empty empty empty 0 -9 0 10 -262144
-1 -1 2800 1;
#X obj 735 119 vsl 15 128 0 1 0 0 empty empty empty 0 -9 0 10 -262144
-1 -1 7900 1;
#X obj 764 119 vsl 15 128 0 1 0 0 empty empty empty 0 -9 0 10 -262144
-1 -1 1000 1;
#X obj 1055 122 netreceive -u -b;
#X msg 1076 93 listen 0;
#X obj 1055 153 oscparse;
#X obj 1076 31 loadbang;
#X obj 1055 184 list trim;
#X msg 1076 62 listen 51555;
#X obj 1055 306 vsl 15 128 0 1 0 0 empty empty empty 0 -9 0 10 -262144
-1 -1 3212 1;
#X obj 1086 306 vsl 15 128 0 1 0 0 empty empty empty 0 -9 0 10 -262144
-1 -1 4122 1;
#X obj 1118 306 vsl 15 128 0 1 0 0 empty empty empty 0 -9 0 10 -262144
-1 -1 2033 1;
#X obj 1150 306 vsl 15 128 0 1 0 0 empty empty empty 0 -9 0 10 -262144
-1 -1 3786 1;
#X obj 373 29 bng 15 250 50 0 empty empty empty 17 7 0 10 -262144 -1
-1;
#X obj 516 28 bng 15 250 50 0 empty empty empty 17 7 0 10 -262144 -1
-1;
#X obj 179 574 netsend -b;
#X obj 179 496 slipenc;
#X obj 246 600 slipdec;
#X obj 246 625 oscparse;
#X obj 349 640 print controller_recv;
#X msg 543 537 disconnect;
#X obj 586 412 tgl 15 0 empty empty empty 17 7 0 10 -262144 -1 -1 0
1;
#X obj 1055 277 unpack 0 0 0 0 0 0 0 0, f 32;
#X obj 1181 306 vsl 15 128 0 1 0 0 empty empty empty 0 -9 0 10 -262144
-1 -1 6630 1;
#X obj 1212 306 vsl 15 128 0 1 0 0 empty empty empty 0 -9 0 10 -262144
-1 -1 7268 1;
#X obj 1244 306 vsl 15 128 0 1 0 0 empty empty empty 0 -9 0 10 -262144
-1 -1 5656 1;
#X obj 1276 306 vsl 15 128 0 1 0 0 empty empty empty 0 -9 0 10 -262144
-1 -1 6281 1;
#X obj 1055 215 route 192.168.0.45;
#X msg 1222 157 symbol 192.168.0.45;
#X msg 1222 128 symbol 192.168.0.181;
#X obj 1055 246 route sensor ctrl;
#X obj 650 253 oscformat ctrl ctrl1;
#X obj 674 275 oscformat ctrl ctrl2;
#X obj 708 297 oscformat ctrl ctrl3;
#X obj 726 320 oscformat ctrl ctrl4;
#X obj 177 158 tgl 15 0 empty empty sensor_or_ctrl 17 7 0 10 -262144
-1 -1 0 1;
#X obj 37 186 oscformat sensor on;
#X obj 177 185 oscformat sensor switch;
#X obj 588 437 oscformat ctrl send;
#X obj 40 228 tgl 15 0 empty empty sensor_send 17 7 0 10 -262144 -1
-1 0 1;
#X obj 40 255 oscformat sensor send;
#X obj 1055 542 vsl 15 128 0 1 0 0 empty empty empty 0 -9 0 10 -262144
-1 -1 0 1;
#X obj 1086 542 vsl 15 128 0 1 0 0 empty empty empty 0 -9 0 10 -262144
-1 -1 0 1;
#X obj 1118 542 vsl 15 128 0 1 0 0 empty empty empty 0 -9 0 10 -262144
-1 -1 0 1;
#X obj 1150 542 vsl 15 128 0 1 0 0 empty empty empty 0 -9 0 10 -262144
-1 -1 0 1;
#X obj 1055 513 unpack 0 0 0 0 0 0 0 0, f 32;
#X obj 1181 542 vsl 15 128 0 1 0 0 empty empty empty 0 -9 0 10 -262144
-1 -1 0 1;
#X obj 1212 542 vsl 15 128 0 1 0 0 empty empty empty 0 -9 0 10 -262144
-1 -1 0 1;
#X obj 1244 542 vsl 15 128 0 1 0 0 empty empty empty 0 -9 0 10 -262144
-1 -1 0 1;
#X obj 1276 542 vsl 15 128 0 1 0 0 empty empty empty 0 -9 0 10 -262144
-1 -1 0 1;
#X msg 1220 101 symbol 192.168.0.161;
#X text 1021 514 CTRL;
#X text 1006 278 SENSOR;
#X obj 1341 317 s sensors;
#X obj 1318 278 spigot;
#X obj 1364 244 tgl 15 0 empty empty empty 17 7 0 10 -262144 -1 -1
0 1;
#X msg 601 357 24;
#X msg 642 355 30;
#X msg 692 356 49;
#X obj 636 396 oscformat ctrl note;
#X obj 794 119 vsl 15 128 0 1 0 0 empty empty empty 0 -9 0 10 -262144
-1 -1 0 1;
#X obj 826 119 vsl 15 128 0 1 0 0 empty empty empty 0 -9 0 10 -262144
-1 -1 0 1;
#X obj 859 119 vsl 15 128 0 1 0 0 empty empty empty 0 -9 0 10 -262144
-1 -1 0 1;
#X obj 888 119 vsl 15 128 0 1 0 0 empty empty empty 0 -9 0 10 -262144
-1 -1 0 1;
#X obj 760 344 oscformat ctrl ctrl5;
#X obj 784 366 oscformat ctrl ctrl6;
#X obj 818 388 oscformat ctrl ctrl7;
#X obj 836 410 oscformat ctrl ctrl8;
#X msg 327 537 connect bela.local 50555;
#X msg 427 493 connect 192.168.10.116 50555;
#X msg 1220 71 symbol 192.168.10.116;
#X connect 1 0 82 0;
#X connect 2 0 30 0;
#X connect 3 0 2 0;
#X connect 4 0 5 0;
#X connect 5 0 30 0;
#X connect 6 0 30 0;
#X connect 7 0 30 0;
#X connect 8 0 30 0;
#X connect 9 0 8 0;
#X connect 10 0 30 0;
#X connect 11 0 10 0;
#X connect 12 0 50 0;
#X connect 13 0 45 0;
#X connect 14 0 46 0;
#X connect 15 0 47 0;
#X connect 16 0 48 0;
#X connect 17 0 19 0;
#X connect 18 0 17 0;
#X connect 19 0 21 0;
#X connect 20 0 22 0;
#X connect 21 0 41 0;
#X connect 22 0 17 0;
#X connect 27 0 6 0;
#X connect 28 0 7 0;
#X connect 29 0 0 0;
#X connect 29 1 31 0;
#X connect 30 0 29 0;
#X connect 31 0 32 0;
#X connect 32 0 33 0;
#X connect 34 0 29 0;
#X connect 35 0 52 0;
#X connect 36 0 23 0;
#X connect 36 1 24 0;
#X connect 36 2 25 0;
#X connect 36 3 26 0;
#X connect 36 4 37 0;
#X connect 36 5 38 0;
#X connect 36 6 39 0;
#X connect 36 7 40 0;
#X connect 41 0 44 0;
#X connect 42 0 41 1;
#X connect 43 0 41 1;
#X connect 44 0 36 0;
#X connect 44 0 68 0;
#X connect 44 1 59 0;
#X connect 45 0 30 0;
#X connect 46 0 30 0;
#X connect 47 0 30 0;
#X connect 48 0 30 0;
#X connect 49 0 51 0;
#X connect 50 0 30 0;
#X connect 51 0 30 0;
#X connect 52 0 30 0;
#X connect 53 0 54 0;
#X connect 54 0 30 0;
#X connect 59 0 55 0;
#X connect 59 1 56 0;
#X connect 59 2 57 0;
#X connect 59 3 58 0;
#X connect 59 4 60 0;
#X connect 59 5 61 0;
#X connect 59 6 62 0;
#X connect 59 7 63 0;
#X connect 64 0 41 1;
#X connect 68 0 67 0;
#X connect 69 0 68 1;
#X connect 70 0 73 0;
#X connect 71 0 73 0;
#X connect 72 0 73 0;
#X connect 73 0 30 0;
#X connect 74 0 78 0;
#X connect 75 0 79 0;
#X connect 76 0 80 0;
#X connect 77 0 81 0;
#X connect 78 0 30 0;
#X connect 79 0 30 0;
#X connect 80 0 30 0;
#X connect 81 0 30 0;
#X connect 82 0 29 0;
#X connect 83 0 29 0;
#X connect 84 0 41 1;
