#N canvas 401 23 913 844 12;
#X declare -path bela/_common;
#X text 171 625 granular;
#X text 28 623 voder;
#X msg 175 650 0.83 0.44 0.46 0.76 0.05;
#X msg 174 726 0.83 0.65 0.05 0.17 0.05;
#X msg 174 752 0.83 0.17 0.05 0.17 0.051;
#X msg 30 649 1 0.17 0.19;
#X msg 30 675 1 0.36 0.4;
#X msg 30 701 1 0.52 0.48;
#X msg 30 727 1 0.74 0.8;
#X msg 30 753 1 0.85 0.31;
#X msg 30 779 0 0 0 0 0 0 0 0.1;
#X msg 174 778 0 0 0 0 0 0 0 0.1;
#X msg 175 676 0.83 0.18 0.4 0.92 0.8;
#X msg 174 700 0.83 0.97 0.81 0.9 0.47;
#X obj 17 14 p_panels p1;
#X obj 288 14 p_panels p2;
#X obj 30 805 s presets;
#X obj 558 15 p_panels p3;
#N canvas 181 23 1220 688 network_related 0;
#X obj 19 61 route sensors;
#X obj 19 36 zmq_sub 192.168.0.10:5555 sensors;
#X obj 274 36 zmq_sub 192.168.0.10:5555 mapped;
#X obj 274 60 route mapped;
#X obj 19 86 s allsensors;
#X obj 274 85 s allmapped;
#X obj 528 36 zmq_sub 192.168.0.10:5555 info;
#X obj 528 60 route info;
#X obj 528 85 print IP;
#X obj 184 128 loadbang;
#X obj 24 160 netsend -u -b;
#X obj 24 130 r to_ctrl_netsend_bc;
#X obj 24 190 tgl 15 0 empty empty empty 17 7 0 10 -262144 -1 -1 1
1;
#X msg 185 152 connect 192.168.0.255 50444;
#X msg 180 204 connect 192.168.178.255 50444;
#X msg 184 178 disconnect;
#X obj 457 130 r to_ctrl_netsend;
#X obj 457 263 zmq;
#X msg 679 211 socket publish;
#X obj 646 186 t b b;
#X obj 456 189 list trim;
#X msg 646 241 connect tcp://192.168.0.10:5556;
#X obj 457 161 list prepend send control;
#X obj 644 163 loadbang;
#X msg 593 135 all system ip;
#X obj 593 113 bng 15 250 50 0 empty empty get_ip 17 7 0 10 -262144
-1 -1;
#X obj 314 395 print to_control_netsend;
#X obj 820 25 inlet;
#X obj 18 11 loadbang;
#X connect 0 0 4 0;
#X connect 1 0 0 0;
#X connect 2 0 3 0;
#X connect 3 0 5 0;
#X connect 6 0 7 0;
#X connect 7 0 8 0;
#X connect 9 0 13 0;
#X connect 10 0 12 0;
#X connect 11 0 10 0;
#X connect 13 0 10 0;
#X connect 14 0 10 0;
#X connect 15 0 10 0;
#X connect 16 0 22 0;
#X connect 16 0 26 0;
#X connect 18 0 17 0;
#X connect 19 0 21 0;
#X connect 19 1 18 0;
#X connect 20 0 17 0;
#X connect 21 0 17 0;
#X connect 22 0 20 0;
#X connect 23 0 19 0;
#X connect 24 0 22 0;
#X connect 25 0 24 0;
#X connect 27 0 24 0;
#X connect 28 0 1 0;
#X connect 28 0 2 0;
#X connect 28 0 6 0;
#X restore 387 808 pd network_related;
#X obj 379 650 r preset_out;
#X msg 379 720 0 0.2 0.4;
#X obj 379 673 list prepend set;
#X obj 379 696 list trim;
#X obj 175 806 s presets;
#X text 379 628 grab presets;
#X obj 531 812 declare -path bela/_common;
#X obj 387 783 bng 15 250 50 0 empty empty get_ip 17 7 0 10 -262144
-1 -1;
#X connect 2 0 23 0;
#X connect 3 0 23 0;
#X connect 4 0 23 0;
#X connect 5 0 16 0;
#X connect 6 0 16 0;
#X connect 7 0 16 0;
#X connect 8 0 16 0;
#X connect 9 0 16 0;
#X connect 10 0 16 0;
#X connect 11 0 23 0;
#X connect 12 0 23 0;
#X connect 13 0 23 0;
#X connect 19 0 21 0;
#X connect 21 0 22 0;
#X connect 22 0 20 0;
#X connect 26 0 18 0;
