#N canvas 740 97 608 607 12;
#X obj 30 62 mc_listener 51555 239.200.200.200;
#X obj 84 526 netsend -u -b;
#X obj 258 90 spigot;
#X obj 297 19 tgl 15 0 empty empty resend_to_localhost 17 7 0 10 -262144
-1 -1 0 1;
#X msg 152 502 connect localhost 51000;
#X obj 84 554 tgl 15 0 empty empty empty 17 7 0 10 -262144 -1 -1 1
1;
#X obj 152 467 loadbang;
#X obj 66 183 spigot;
#X obj 386 139 tgl 15 0 empty empty empty 17 7 0 10 -262144 -1 -1 0
1;
#X msg 91 213 p1 sensor 0 0 0 0 0 0 0 0 11;
#X obj 103 436 oscformat;
#X obj 62 241 list split 2;
#X obj 56 395 list;
#X obj 61 270 list prepend set;
#X obj 76 329 list trim;
#X obj 57 299 t b a;
#X obj 101 366 list split 8;
#X connect 0 0 7 0;
#X connect 0 1 2 0;
#X connect 1 0 5 0;
#X connect 1 0 8 0;
#X connect 3 0 2 1;
#X connect 4 0 1 0;
#X connect 6 0 4 0;
#X connect 7 0 11 0;
#X connect 8 0 7 1;
#X connect 9 0 11 0;
#X connect 10 0 1 0;
#X connect 11 0 13 0;
#X connect 11 1 16 0;
#X connect 12 0 10 0;
#X connect 13 0 15 0;
#X connect 14 0 10 0;
#X connect 15 0 12 0;
#X connect 15 1 14 0;
#X connect 16 0 12 1;
