#N canvas 162 392 583 491 12;
#X obj 43 28 inlet;
#X obj 190 9 loadbang;
#X obj 47 412 oscformat;
#X obj 205 104 symbol \$1;
#X obj 282 104 symbol \$2;
#X obj 359 104 symbol \$3;
#X obj 272 219 list append;
#X obj 272 242 t l;
#X obj 190 283 list;
#X obj 190 345 list prepend set;
#X obj 190 376 list trim;
#X obj 432 104 symbol \$4;
#X obj 220 128 symbol \$5;
#X obj 297 128 symbol \$6;
#X obj 374 128 symbol \$7;
#X obj 447 128 symbol \$8;
#X obj 383 241 r p_id;
#X obj 320 269 t b a b;
#X obj 190 314 list prepend p1;
#X msg 331 187 symbol;
#X obj 190 36 t b b;
#X obj 190 62 t b b b b b b b b b, f 43;
#X obj 205 194 sel symbol;
#X obj 48 442 s to_ctrl_netsend;
#X connect 0 0 2 0;
#X connect 1 0 20 0;
#X connect 2 0 23 0;
#X connect 3 0 22 0;
#X connect 4 0 22 0;
#X connect 5 0 22 0;
#X connect 6 0 7 0;
#X connect 7 0 6 1;
#X connect 7 0 8 1;
#X connect 8 0 18 0;
#X connect 9 0 10 0;
#X connect 10 0 2 0;
#X connect 11 0 22 0;
#X connect 12 0 22 0;
#X connect 13 0 22 0;
#X connect 14 0 22 0;
#X connect 15 0 22 0;
#X connect 16 0 17 0;
#X connect 17 0 21 0;
#X connect 17 1 18 1;
#X connect 17 2 6 1;
#X connect 18 0 9 0;
#X connect 19 0 22 1;
#X connect 20 0 21 0;
#X connect 20 1 19 0;
#X connect 21 0 8 0;
#X connect 21 1 3 0;
#X connect 21 2 4 0;
#X connect 21 3 5 0;
#X connect 21 4 11 0;
#X connect 21 5 12 0;
#X connect 21 6 13 0;
#X connect 21 7 14 0;
#X connect 21 8 15 0;
#X connect 22 1 6 0;
