#N canvas 69 48 1323 830 12;
#X obj 111 122 vsl 15 128 0 1 0 0 empty empty empty 0 -9 0 10 -262144
-1 -1 0 1;
#X obj 133 122 vsl 15 128 0 1 0 0 empty empty empty 0 -9 0 10 -262144
-1 -1 0 1;
#X obj 154 122 vsl 15 128 0 1 0 0 empty empty empty 0 -9 0 10 -262144
-1 -1 0 1;
#X obj 176 122 vsl 15 128 0 1 0 0 empty empty empty 0 -9 0 10 -262144
-1 -1 0 1;
#X obj 198 122 vsl 15 128 0 1 0 0 empty empty empty 0 -9 0 10 -262144
-1 -1 0 1;
#X obj 220 122 vsl 15 128 0 1 0 0 empty empty empty 0 -9 0 10 -262144
-1 -1 0 1;
#X obj 242 122 vsl 15 128 0 1 0 0 empty empty empty 0 -9 0 10 -262144
-1 -1 0 1;
#X obj 263 122 vsl 15 128 0 1 0 0 empty empty empty 0 -9 0 10 -262144
-1 -1 0 1;
#X text 234 102 SENSOR;
#X obj 110 272 vsl 15 128 0 1 0 0 empty empty empty 0 -9 0 10 -262144
-1 -1 0 1;
#X obj 131 272 vsl 15 128 0 1 0 0 empty empty empty 0 -9 0 10 -262144
-1 -1 0 1;
#X obj 152 272 vsl 15 128 0 1 0 0 empty empty empty 0 -9 0 10 -262144
-1 -1 0 1;
#X obj 176 272 vsl 15 128 0 1 0 0 empty empty empty 0 -9 0 10 -262144
-1 -1 0 1;
#X obj 198 272 vsl 15 128 0 1 0 0 empty empty empty 0 -9 0 10 -262144
-1 -1 0 1;
#X obj 221 272 vsl 15 128 0 1 0 0 empty empty empty 0 -9 0 10 -262144
-1 -1 0 1;
#X obj 242 272 vsl 15 128 0 1 0 0 empty empty empty 0 -9 0 10 -262144
-1 -1 0 1;
#X obj 264 272 vsl 15 128 0 1 0 0 empty empty empty 0 -9 0 10 -262144
-1 -1 0 1;
#X obj 532 248 unpack 0 0 0 0 0 0 0 0 0, f 32;
#X obj 111 421 vsl 15 128 0 1 0 0 empty empty empty 0 -9 0 10 -262144
-1 -1 0 1;
#X obj 133 421 vsl 15 128 0 1 0 0 empty empty empty 0 -9 0 10 -262144
-1 -1 0 1;
#X obj 154 421 vsl 15 128 0 1 0 0 empty empty empty 0 -9 0 10 -262144
-1 -1 0 1;
#X obj 177 421 vsl 15 128 0 1 0 0 empty empty empty 0 -9 0 10 -262144
-1 -1 0 1;
#X obj 199 421 vsl 15 128 0 1 0 0 empty empty empty 0 -9 0 10 -262144
-1 -1 0 1;
#X obj 220 421 vsl 15 128 0 1 0 0 empty empty empty 0 -9 0 10 -262144
-1 -1 0 1;
#X obj 241 421 vsl 15 128 0 1 0 0 empty empty empty 0 -9 0 10 -262144
-1 -1 0 1;
#X obj 263 421 vsl 15 128 0 1 0 0 empty empty empty 0 -9 0 10 -262144
-1 -1 0 1;
#X obj 645 395 unpack 0 0 0 0 0 0 0 0, f 32;
#X obj 525 556 pak 0 0 0 0 0 0 0 0;
#X obj 526 676 list trim;
#X obj 526 628 list prepend ctrl;
#X obj 532 603 list prepend t_ctrl;
#X obj 526 652 list prepend \$1;
#X text 233 252 MAPPED;
#X text 225 404 CONTROL;
#X obj 113 33 route \$1;
#X obj 525 41 route \$1;
#X obj 110 566 hradio 15 1 0 5 empty empty mode 0 -8 0 10 -262144 -1
-1 3;
#X obj 681 674 list trim;
#X obj 681 650 list prepend \$1;
#X obj 681 626 list prepend mode;
#X obj 161 665 bng 15 250 50 0 empty empty set_base 17 7 0 10 -262144
-1 -1;
#X obj 110 666 tgl 15 0 empty empty calib 17 7 0 10 -262144 -1 -1 0
1;
#X obj 611 799 list trim;
#X obj 611 773 list prepend \$1;
#X obj 764 798 list trim;
#X obj 764 772 list prepend \$1;
#X obj 611 726 list prepend base;
#X obj 611 750 list prepend sensor;
#X obj 764 725 list prepend calibration;
#X obj 764 750 list prepend sensor;
#X obj 194 567 tgl 15 0 empty empty train_mode 17 7 0 10 -258858 -1
-1 0 1;
#X obj 109 588 tgl 15 0 empty empty add_data 22 7 0 10 -4032 -1 -1
0 1;
#X obj 194 609 bng 15 250 50 0 empty empty ml_train 17 7 0 10 -4160
-262144 -1;
#X obj 195 590 bng 15 250 50 0 empty empty ml_write 17 7 0 10 -163136
-1 -1;
#X obj 109 628 bng 15 250 50 0 empty empty ml_read 17 7 0 10 -262144
-262144 -1;
#X obj 109 608 bng 15 250 50 0 empty empty ml_clear 17 7 0 10 -262144
-1 -1;
#X obj 696 572 list trim;
#X obj 696 546 list prepend \$1;
#X obj 696 524 list prepend ml;
#X obj 696 499 list prepend mode;
#X obj 837 573 list trim;
#X obj 837 547 list prepend \$1;
#X obj 837 525 list prepend ml;
#X obj 837 500 list prepend sensor;
#X obj 985 571 list trim;
#X obj 985 545 list prepend \$1;
#X obj 985 523 list prepend ml;
#X obj 985 498 list prepend write;
#X obj 985 676 list trim;
#X obj 985 651 list prepend \$1;
#X obj 985 629 list prepend ml;
#X obj 985 604 list prepend read;
#X obj 1122 676 list trim;
#X obj 1122 650 list prepend \$1;
#X obj 1122 628 list prepend ml;
#X obj 1122 603 list prepend train;
#X obj 1129 571 list trim;
#X obj 1129 545 list prepend \$1;
#X obj 1129 523 list prepend ml;
#X obj 1129 498 list prepend clear;
#X obj 19 630 vsl 15 30 0 1 0 0 empty empty volume 0 -9 0 10 -262144
-1 -1 0 1;
#X obj 398 729 * 10;
#X obj 399 755 int;
#X obj 398 781 / 10;
#X floatatom 336 783 5 0 0 0 - - -;
#X obj 398 807 change;
#X obj 455 806 list trim;
#X obj 455 780 list prepend \$1;
#X obj 455 758 list prepend audio;
#X obj 455 733 list prepend volume;
#X msg -73 832 1;
#X msg -38 832 2;
#X msg -4 833 3;
#X msg 29 834 4;
#X msg 64 834 5;
#X msg 115 833 10;
#X obj 181 810 list trim;
#X obj 181 784 list prepend \$1;
#X obj 181 762 list prepend ml;
#X obj 181 737 list prepend filenum;
#X obj -44 799 bng 15 250 50 0 empty empty v1 17 7 0 10 -262144 -1
-1;
#X obj -13 799 bng 15 250 50 0 empty empty v2 17 7 0 10 -262144 -1
-1;
#X obj 18 799 bng 15 250 50 0 empty empty v3 17 7 0 10 -262144 -1 -1
;
#X obj 49 800 bng 15 250 50 0 empty empty v4 17 7 0 10 -262144 -1 -1
;
#X obj 81 800 bng 15 250 50 0 empty empty v5 17 7 0 10 -262144 -1 -1
;
#X obj 111 799 bng 15 250 50 0 empty empty v0 17 7 0 10 -262144 -1
-1;
#X obj 292 714 hradio 15 1 0 8 empty empty voice_trigger_num 0 -8 0
10 -262144 -1 -1 0;
#X obj 53 732 sel 0;
#X floatatom 89 754 5 0 0 0 - - -;
#X msg 49 756 10;
#X obj 53 711 gate;
#X obj 374 566 tgl 15 0 empty empty sys_log 17 7 0 10 -262144 -1 -1
0 1;
#X obj 375 686 list trim;
#X obj 375 660 list prepend \$1;
#X obj 375 638 list prepend system;
#X obj 375 613 list prepend osc_log;
#X obj 113 10 r allsensors;
#X obj 526 12 r allmapped;
#X obj 599 51 r presets;
#X obj 598 173 gate;
#X obj 521 310 bng 15 250 50 0 empty empty grab_preset 17 7 0 10 -262144
-1 -1;
#X obj 509 387 s preset_out;
#X obj 620 700 s to_ctrl_netsend;
#X obj 579 460 r presets;
#X msg 547 432 set \$1;
#X msg 608 432 set \$1;
#X msg 664 432 set \$1;
#X msg 725 432 set \$1;
#X msg 782 432 set \$1;
#X msg 843 432 set \$1;
#X msg 902 432 set \$1;
#X msg 963 432 set \$1;
#X obj 578 496 gate;
#X obj 412 460 change;
#X obj 413 484 t b b;
#X msg 450 520 0;
#X obj 112 66 unpack 0 0 0 0 0 0 0 0 0, f 32;
#X obj 434 99 sel 0;
#X obj 429 143 t b;
#X msg 441 296 set 1;
#X msg 376 190 set 0;
#X msg 405 238 set 0;
#X obj 231 665 hsl 30 15 0 1 0 0 empty empty volume -2 -8 0 10 -262130
-1 -1 0 1;
#X obj 319 638 loadbang;
#X msg 319 661 set 1;
#X msg 369 509 set 0;
#X obj 885 37 r all_control_val;
#X obj 885 65 route all;
#X msg 891 182 set \$1;
#X msg 929 124 set \$1;
#X obj 890 152 route mode sensor;
#X obj 996 230 route volume;
#X msg 996 260 set \$1;
#X msg 950 199 set \$1;
#X msg 1046 183 set \$1;
#X obj 885 91 route ml mode audio sensor;
#X obj 1035 138 route calibration;
#X obj 333 109 t b;
#X obj 269 664 bng 15 250 50 0 empty empty empty 17 7 0 10 -128992
-257985 -1;
#X obj 510 353 list;
#X obj 981 798 list trim;
#X obj 981 772 list prepend \$1;
#X obj 981 750 list prepend sensor;
#X obj 981 725 list prepend random;
#X obj 109 647 tgl 15 0 empty empty random 17 7 0 10 -262144 -1 -1
0 1;
#X msg 1142 226 set \$1;
#X obj 1131 181 route random;
#X obj 888 602 delay 100;
#X obj 844 602 t b b;
#X msg 866 634 0;
#X obj 897 664 delay 100;
#X obj 848 662 t b b;
#X msg 867 688 0;
#X obj 1134 432 list trim;
#X obj 1134 406 list prepend \$1;
#X obj 1134 384 list prepend ml;
#X obj 1134 359 list prepend linetime;
#X msg 1029 379 40;
#X msg 1063 391 100;
#X msg 1083 359 200;
#X obj 195 633 hradio 15 1 0 3 empty empty empty 0 -8 0 10 -262144
-1 -1 0;
#X obj 1042 334 sel 0 1 2;
#X obj 1150 720 sel 0;
#X msg 1150 743 1;
#X connect 17 0 9 0;
#X connect 17 1 10 0;
#X connect 17 2 11 0;
#X connect 17 3 12 0;
#X connect 17 4 13 0;
#X connect 17 5 14 0;
#X connect 17 6 15 0;
#X connect 17 7 16 0;
#X connect 18 0 27 0;
#X connect 19 0 27 1;
#X connect 20 0 27 2;
#X connect 21 0 27 3;
#X connect 22 0 27 4;
#X connect 23 0 27 5;
#X connect 24 0 27 6;
#X connect 25 0 27 7;
#X connect 26 0 124 0;
#X connect 26 1 125 0;
#X connect 26 2 126 0;
#X connect 26 3 127 0;
#X connect 26 4 128 0;
#X connect 26 5 129 0;
#X connect 26 6 130 0;
#X connect 26 7 131 0;
#X connect 27 0 30 0;
#X connect 27 0 159 1;
#X connect 28 0 122 0;
#X connect 29 0 31 0;
#X connect 30 0 29 0;
#X connect 31 0 28 0;
#X connect 34 0 136 0;
#X connect 35 0 17 0;
#X connect 35 0 159 1;
#X connect 36 0 39 0;
#X connect 36 0 133 0;
#X connect 37 0 122 0;
#X connect 38 0 37 0;
#X connect 39 0 38 0;
#X connect 40 0 46 0;
#X connect 41 0 48 0;
#X connect 42 0 122 0;
#X connect 43 0 42 0;
#X connect 44 0 122 0;
#X connect 45 0 44 0;
#X connect 46 0 47 0;
#X connect 47 0 43 0;
#X connect 48 0 49 0;
#X connect 49 0 45 0;
#X connect 50 0 59 0;
#X connect 50 0 110 0;
#X connect 50 0 119 0;
#X connect 50 0 132 0;
#X connect 50 0 182 0;
#X connect 51 0 63 0;
#X connect 52 0 168 0;
#X connect 53 0 67 0;
#X connect 54 0 171 0;
#X connect 55 0 79 0;
#X connect 56 0 122 0;
#X connect 57 0 56 0;
#X connect 58 0 57 0;
#X connect 59 0 58 0;
#X connect 60 0 122 0;
#X connect 61 0 60 0;
#X connect 62 0 61 0;
#X connect 63 0 62 0;
#X connect 64 0 122 0;
#X connect 65 0 64 0;
#X connect 66 0 65 0;
#X connect 67 0 66 0;
#X connect 68 0 122 0;
#X connect 69 0 68 0;
#X connect 70 0 69 0;
#X connect 71 0 70 0;
#X connect 72 0 122 0;
#X connect 73 0 72 0;
#X connect 74 0 73 0;
#X connect 75 0 74 0;
#X connect 76 0 122 0;
#X connect 77 0 76 0;
#X connect 78 0 77 0;
#X connect 79 0 78 0;
#X connect 80 0 81 0;
#X connect 81 0 82 0;
#X connect 82 0 83 0;
#X connect 83 0 84 0;
#X connect 83 0 85 0;
#X connect 85 0 89 0;
#X connect 86 0 122 0;
#X connect 87 0 86 0;
#X connect 88 0 87 0;
#X connect 89 0 88 0;
#X connect 90 0 99 0;
#X connect 91 0 99 0;
#X connect 92 0 99 0;
#X connect 93 0 99 0;
#X connect 94 0 99 0;
#X connect 95 0 99 0;
#X connect 96 0 122 0;
#X connect 97 0 96 0;
#X connect 98 0 97 0;
#X connect 99 0 98 0;
#X connect 100 0 90 0;
#X connect 101 0 91 0;
#X connect 102 0 92 0;
#X connect 103 0 93 0;
#X connect 104 0 94 0;
#X connect 105 0 95 0;
#X connect 106 0 110 1;
#X connect 107 0 109 0;
#X connect 107 1 108 0;
#X connect 108 0 99 0;
#X connect 109 0 99 0;
#X connect 110 0 107 0;
#X connect 111 0 115 0;
#X connect 112 0 122 0;
#X connect 113 0 112 0;
#X connect 114 0 113 0;
#X connect 115 0 114 0;
#X connect 116 0 34 0;
#X connect 117 0 35 0;
#X connect 118 0 119 1;
#X connect 119 0 26 0;
#X connect 120 0 159 0;
#X connect 123 0 132 1;
#X connect 124 0 18 0;
#X connect 124 0 27 0;
#X connect 125 0 19 0;
#X connect 125 0 27 1;
#X connect 126 0 20 0;
#X connect 126 0 27 2;
#X connect 127 0 21 0;
#X connect 127 0 27 3;
#X connect 128 0 22 0;
#X connect 128 0 27 4;
#X connect 129 0 23 0;
#X connect 129 0 27 5;
#X connect 130 0 24 0;
#X connect 130 0 27 6;
#X connect 131 0 25 0;
#X connect 131 0 27 7;
#X connect 132 0 30 0;
#X connect 133 0 134 0;
#X connect 134 0 145 0;
#X connect 134 1 135 0;
#X connect 135 0 51 0;
#X connect 135 0 50 0;
#X connect 136 0 0 0;
#X connect 136 1 1 0;
#X connect 136 2 2 0;
#X connect 136 3 3 0;
#X connect 136 4 4 0;
#X connect 136 5 5 0;
#X connect 136 6 6 0;
#X connect 136 7 7 0;
#X connect 136 8 137 0;
#X connect 136 8 157 0;
#X connect 137 0 138 0;
#X connect 138 0 141 0;
#X connect 138 0 139 0;
#X connect 138 0 140 0;
#X connect 139 0 80 0;
#X connect 139 0 142 0;
#X connect 140 0 36 0;
#X connect 141 0 51 0;
#X connect 141 0 50 0;
#X connect 141 0 41 0;
#X connect 141 0 111 0;
#X connect 141 0 106 0;
#X connect 141 0 164 0;
#X connect 142 0 81 0;
#X connect 143 0 144 0;
#X connect 144 0 142 0;
#X connect 145 0 41 0;
#X connect 145 0 164 0;
#X connect 146 0 147 0;
#X connect 147 0 155 0;
#X connect 148 0 50 0;
#X connect 149 0 36 0;
#X connect 150 0 148 0;
#X connect 150 1 153 0;
#X connect 151 0 152 0;
#X connect 152 0 142 0;
#X connect 153 0 51 0;
#X connect 154 0 41 0;
#X connect 155 0 150 0;
#X connect 155 1 149 0;
#X connect 155 2 151 0;
#X connect 155 3 156 0;
#X connect 155 3 166 0;
#X connect 156 0 154 0;
#X connect 159 0 121 0;
#X connect 160 0 122 0;
#X connect 161 0 160 0;
#X connect 162 0 161 0;
#X connect 163 0 162 0;
#X connect 164 0 163 0;
#X connect 165 0 164 0;
#X connect 166 0 165 0;
#X connect 167 0 75 0;
#X connect 168 0 167 0;
#X connect 168 1 169 0;
#X connect 169 0 142 0;
#X connect 170 0 71 0;
#X connect 171 0 170 0;
#X connect 171 1 172 0;
#X connect 172 0 142 0;
#X connect 173 0 122 0;
#X connect 174 0 173 0;
#X connect 175 0 174 0;
#X connect 176 0 175 0;
#X connect 177 0 176 0;
#X connect 178 0 176 0;
#X connect 179 0 176 0;
#X connect 180 0 181 0;
#X connect 181 0 177 0;
#X connect 181 1 178 0;
#X connect 181 2 179 0;
#X connect 182 0 183 0;
#X connect 183 0 142 0;
#X coords 0 -1 1 1 190 590 1 100 100;
