#N canvas 117 23 1323 830 12;
#X obj 111 122 vsl 15 128 0 1 0 0 empty empty empty 0 -9 0 10 -262144
-1 -1 7109 1;
#X obj 142 122 vsl 15 128 0 1 0 0 empty empty empty 0 -9 0 10 -262144
-1 -1 6894 1;
#X obj 174 122 vsl 15 128 0 1 0 0 empty empty empty 0 -9 0 10 -262144
-1 -1 9162 1;
#X obj 206 122 vsl 15 128 0 1 0 0 empty empty empty 0 -9 0 10 -262144
-1 -1 9672 1;
#X obj 237 122 vsl 15 128 0 1 0 0 empty empty empty 0 -9 0 10 -262144
-1 -1 2390 1;
#X obj 268 122 vsl 15 128 0 1 0 0 empty empty empty 0 -9 0 10 -262144
-1 -1 12258 1;
#X obj 300 122 vsl 15 128 0 1 0 0 empty empty empty 0 -9 0 10 -262144
-1 -1 7341 1;
#X obj 332 122 vsl 15 128 0 1 0 0 empty empty empty 0 -9 0 10 -262144
-1 -1 937 1;
#X text 302 101 SENSOR;
#X obj 112 66 unpack 0 0 0 0 0 0 0 0, f 32;
#X obj 110 272 vsl 15 128 0 1 0 0 empty empty empty 0 -9 0 10 -262144
-1 -1 0 1;
#X obj 141 272 vsl 15 128 0 1 0 0 empty empty empty 0 -9 0 10 -262144
-1 -1 8970 1;
#X obj 173 272 vsl 15 128 0 1 0 0 empty empty empty 0 -9 0 10 -262144
-1 -1 12700 1;
#X obj 205 272 vsl 15 128 0 1 0 0 empty empty empty 0 -9 0 10 -262144
-1 -1 8451 1;
#X obj 236 272 vsl 15 128 0 1 0 0 empty empty empty 0 -9 0 10 -262144
-1 -1 9332 1;
#X obj 267 272 vsl 15 128 0 1 0 0 empty empty empty 0 -9 0 10 -262144
-1 -1 12060 1;
#X obj 299 272 vsl 15 128 0 1 0 0 empty empty empty 0 -9 0 10 -262144
-1 -1 4309 1;
#X obj 331 272 vsl 15 128 0 1 0 0 empty empty empty 0 -9 0 10 -262144
-1 -1 11131 1;
#X obj 525 252 unpack 0 0 0 0 0 0 0 0 0, f 32;
#X obj 111 424 vsl 15 128 0 1 0 0 empty empty empty 0 -9 0 10 -262144
-1 -1 0 1;
#X obj 143 424 vsl 15 128 0 1 0 0 empty empty empty 0 -9 0 10 -262144
-1 -1 0 1;
#X obj 176 424 vsl 15 128 0 1 0 0 empty empty empty 0 -9 0 10 -262144
-1 -1 0 1;
#X obj 205 424 vsl 15 128 0 1 0 0 empty empty empty 0 -9 0 10 -262144
-1 -1 0 1;
#X obj 235 424 vsl 15 128 0 1 0 0 empty empty empty 0 -9 0 10 -262144
-1 -1 0 1;
#X obj 267 424 vsl 15 128 0 1 0 0 empty empty empty 0 -9 0 10 -262144
-1 -1 0 1;
#X obj 300 424 vsl 15 128 0 1 0 0 empty empty empty 0 -9 0 10 -262144
-1 -1 0 1;
#X obj 329 424 vsl 15 128 0 1 0 0 empty empty empty 0 -9 0 10 -262144
-1 -1 0 1;
#X obj 597 404 unpack 0 0 0 0 0 0 0 0, f 32;
#X obj 525 556 pak 0 0 0 0 0 0 0 0;
#X obj 526 676 list trim;
#X obj 526 628 list prepend ctrl;
#X obj 526 602 list prepend t_ctrl;
#X obj 526 652 list prepend \$1;
#X text 301 254 MAPPED;
#X text 293 405 CONTROL;
#X obj 113 42 route \$1;
#X obj 525 41 route \$1;
#X obj 110 573 hradio 15 1 0 8 empty empty mode 0 -8 0 10 -262144 -1
-1 2;
#X obj 681 674 list trim;
#X obj 681 650 list prepend \$1;
#X obj 681 626 list prepend mode;
#X obj 111 625 bng 15 250 50 0 empty empty set_base 17 7 0 10 -262144
-1 -1;
#X obj 111 601 tgl 15 0 empty empty calib 17 7 0 10 -262144 -1 -1 0
1;
#X obj 611 799 list trim;
#X obj 611 773 list prepend \$1;
#X obj 764 798 list trim;
#X obj 764 772 list prepend \$1;
#X obj 611 726 list prepend base;
#X obj 611 750 list prepend sensor;
#X obj 764 725 list prepend calibration;
#X obj 764 750 list prepend sensor;
#X obj 184 600 tgl 15 0 empty empty train_mode 17 7 0 10 -262144 -1
-1 0 1;
#X obj 239 572 tgl 18 0 empty empty add_training_data 17 7 0 10 -262144
-1 -1 0 1;
#X obj 272 600 bng 15 250 50 0 empty empty ml_train 17 7 0 10 -262144
-1 -1;
#X obj 272 623 bng 15 250 50 0 empty empty ml_write 17 7 0 10 -262144
-1 -1;
#X obj 272 647 bng 15 250 50 0 empty empty ml_read 17 7 0 10 -262144
-1 -1;
#X obj 185 622 bng 15 250 50 0 empty empty ml_clear 17 7 0 10 -262144
-1 -1;
#X obj 696 572 list trim;
#X obj 696 546 list prepend \$1;
#X obj 696 524 list prepend ml;
#X obj 696 499 list prepend mode;
#X obj 837 573 list trim;
#X obj 837 547 list prepend \$1;
#X obj 837 525 list prepend ml;
#X obj 837 500 list prepend sensor;
#X obj 985 571 list trim;
#X obj 985 545 list prepend \$1;
#X obj 985 523 list prepend ml;
#X obj 985 498 list prepend write;
#X obj 985 676 list trim;
#X obj 985 651 list prepend \$1;
#X obj 985 629 list prepend ml;
#X obj 985 604 list prepend read;
#X obj 1122 676 list trim;
#X obj 1122 650 list prepend \$1;
#X obj 1122 628 list prepend ml;
#X obj 1122 603 list prepend train;
#X obj 1129 571 list trim;
#X obj 1129 545 list prepend \$1;
#X obj 1129 523 list prepend ml;
#X obj 1129 498 list prepend clear;
#X obj 185 656 vsl 15 30 0 1 0 0 empty empty volume 0 -9 0 10 -262144
-1 -1 0 1;
#X obj 398 729 * 10;
#X obj 399 755 int;
#X obj 398 781 / 10;
#X floatatom 336 783 5 0 0 0 - - -;
#X obj 398 807 change;
#X obj 455 806 list trim;
#X obj 455 780 list prepend \$1;
#X obj 455 758 list prepend audio;
#X obj 455 733 list prepend volume;
#X msg -73 832 1;
#X msg -38 832 2;
#X msg -4 833 3;
#X msg 29 834 4;
#X msg 64 834 5;
#X msg 115 833 10;
#X obj 181 810 list trim;
#X obj 181 784 list prepend \$1;
#X obj 181 762 list prepend ml;
#X obj 181 737 list prepend filenum;
#X obj -44 799 bng 15 250 50 0 empty empty v1 17 7 0 10 -262144 -1
-1;
#X obj -13 799 bng 15 250 50 0 empty empty v2 17 7 0 10 -262144 -1
-1;
#X obj 18 799 bng 15 250 50 0 empty empty v3 17 7 0 10 -262144 -1 -1
;
#X obj 49 800 bng 15 250 50 0 empty empty v4 17 7 0 10 -262144 -1 -1
;
#X obj 81 800 bng 15 250 50 0 empty empty v5 17 7 0 10 -262144 -1 -1
;
#X obj 111 799 bng 15 250 50 0 empty empty v0 17 7 0 10 -262144 -1
-1;
#X obj 224 678 hradio 15 1 0 8 empty empty voice_trigger_num 0 -8 0
10 -262144 -1 -1 1;
#X obj 53 732 sel 0;
#X floatatom 89 754 5 0 0 0 - - -;
#X msg 49 756 10;
#X obj 53 711 gate;
#X obj 111 648 tgl 15 0 empty empty sys_log 17 7 0 10 -262144 -1 -1
0 1;
#X obj 375 686 list trim;
#X obj 375 660 list prepend \$1;
#X obj 375 638 list prepend system;
#X obj 375 613 list prepend osc_log;
#X obj 113 19 r allsensors;
#X obj 526 12 r allmapped;
#X obj 599 51 r presets;
#X obj 598 173 gate;
#X obj 513 296 list prepend set;
#X obj 513 320 list trim;
#X msg 511 346 0.145548 0.56687 1 0.0728281 0.484147 0.649815 0.892996
0.22064;
#X obj 112 674 bng 15 250 50 0 empty empty grab_num 17 7 0 10 -262144
-1 -1;
#X obj 509 387 s preset_out;
#X obj 526 702 s to_ctrl_netsend;
#X connect 9 0 0 0;
#X connect 9 1 1 0;
#X connect 9 2 2 0;
#X connect 9 3 3 0;
#X connect 9 4 4 0;
#X connect 9 5 5 0;
#X connect 9 6 6 0;
#X connect 9 7 7 0;
#X connect 18 0 10 0;
#X connect 18 1 11 0;
#X connect 18 2 12 0;
#X connect 18 3 13 0;
#X connect 18 4 14 0;
#X connect 18 5 15 0;
#X connect 18 6 16 0;
#X connect 18 7 17 0;
#X connect 19 0 28 0;
#X connect 20 0 28 1;
#X connect 21 0 28 2;
#X connect 22 0 28 3;
#X connect 23 0 28 4;
#X connect 24 0 28 5;
#X connect 25 0 28 6;
#X connect 26 0 28 7;
#X connect 27 0 19 0;
#X connect 27 1 20 0;
#X connect 27 2 21 0;
#X connect 27 3 22 0;
#X connect 27 4 23 0;
#X connect 27 5 24 0;
#X connect 27 6 25 0;
#X connect 27 7 26 0;
#X connect 28 0 31 0;
#X connect 29 0 126 0;
#X connect 30 0 32 0;
#X connect 31 0 30 0;
#X connect 32 0 29 0;
#X connect 35 0 9 0;
#X connect 36 0 18 0;
#X connect 37 0 40 0;
#X connect 38 0 126 0;
#X connect 39 0 38 0;
#X connect 40 0 39 0;
#X connect 41 0 47 0;
#X connect 42 0 49 0;
#X connect 43 0 126 0;
#X connect 44 0 43 0;
#X connect 45 0 126 0;
#X connect 46 0 45 0;
#X connect 47 0 48 0;
#X connect 48 0 44 0;
#X connect 49 0 50 0;
#X connect 50 0 46 0;
#X connect 51 0 60 0;
#X connect 51 0 111 0;
#X connect 51 0 120 0;
#X connect 52 0 64 0;
#X connect 53 0 76 0;
#X connect 54 0 68 0;
#X connect 55 0 72 0;
#X connect 56 0 80 0;
#X connect 57 0 126 0;
#X connect 58 0 57 0;
#X connect 59 0 58 0;
#X connect 60 0 59 0;
#X connect 61 0 126 0;
#X connect 62 0 61 0;
#X connect 63 0 62 0;
#X connect 64 0 63 0;
#X connect 65 0 126 0;
#X connect 66 0 65 0;
#X connect 67 0 66 0;
#X connect 68 0 67 0;
#X connect 69 0 126 0;
#X connect 70 0 69 0;
#X connect 71 0 70 0;
#X connect 72 0 71 0;
#X connect 73 0 126 0;
#X connect 74 0 73 0;
#X connect 75 0 74 0;
#X connect 76 0 75 0;
#X connect 77 0 126 0;
#X connect 78 0 77 0;
#X connect 79 0 78 0;
#X connect 80 0 79 0;
#X connect 81 0 82 0;
#X connect 82 0 83 0;
#X connect 83 0 84 0;
#X connect 84 0 85 0;
#X connect 84 0 86 0;
#X connect 86 0 90 0;
#X connect 87 0 126 0;
#X connect 88 0 87 0;
#X connect 89 0 88 0;
#X connect 90 0 89 0;
#X connect 91 0 100 0;
#X connect 92 0 100 0;
#X connect 93 0 100 0;
#X connect 94 0 100 0;
#X connect 95 0 100 0;
#X connect 96 0 100 0;
#X connect 97 0 126 0;
#X connect 98 0 97 0;
#X connect 99 0 98 0;
#X connect 100 0 99 0;
#X connect 101 0 91 0;
#X connect 102 0 92 0;
#X connect 103 0 93 0;
#X connect 104 0 94 0;
#X connect 105 0 95 0;
#X connect 106 0 96 0;
#X connect 107 0 111 1;
#X connect 108 0 110 0;
#X connect 108 1 109 0;
#X connect 109 0 100 0;
#X connect 110 0 100 0;
#X connect 111 0 108 0;
#X connect 112 0 116 0;
#X connect 113 0 126 0;
#X connect 114 0 113 0;
#X connect 115 0 114 0;
#X connect 116 0 115 0;
#X connect 117 0 35 0;
#X connect 118 0 36 0;
#X connect 119 0 120 1;
#X connect 120 0 27 0;
#X connect 121 0 122 0;
#X connect 122 0 123 0;
#X connect 123 0 125 0;
#X connect 124 0 123 0;
#X coords 0 -1 1 1 260 600 1 100 100;
