#N canvas 396 104 821 743 12;
#X obj 52 29 loadbang;
#X obj 53 80 metro 1000;
#X msg 52 53 1;
#X msg 201 42 0;
#X obj 55 377 ether;
#X msg 55 350 wlan0;
#X obj 55 461 t b;
#X msg 513 324 symbol C8:3A:35:C2:AE:42;
#X obj 55 408 list trim;
#X obj 191 460 t b;
#X obj 497 472 print unknown mac-address, f 14;
#X msg 55 486 p1;
#X msg 191 485 p2;
#X obj 55 434 route C8:3A:35:C2:AE:42 1C:BF:CE:0D:61:80 1C:BF:CE:0D:61:62
;
#X msg 512 374 1C:BF:CE:0D:61:62;
#X text 698 323 ingo;
#X text 655 373 mika;
#X msg 512 349 1C:BF:CE:0D:61:80;
#X text 652 348 edge1;
#X obj 328 460 t b;
#X msg 328 485 p3;
#X obj 54 148 ipinfo;
#X msg 54 120 wlan0;
#X msg 113 118 en0;
#X obj 55 275 delay 500;
#X obj 223 587 s my_id;
#X obj 191 539 t b a;
#X obj 191 621 s wifi_ready;
#X obj 286 588 print ID;
#X obj 168 233 s my_ip;
#X obj 101 205 unpack s s;
#X obj 55 179 t b b l;
#X connect 0 0 2 0;
#X connect 1 0 22 0;
#X connect 2 0 1 0;
#X connect 3 0 1 0;
#X connect 4 0 8 0;
#X connect 5 0 4 0;
#X connect 6 0 11 0;
#X connect 7 0 8 0;
#X connect 8 0 13 0;
#X connect 9 0 12 0;
#X connect 11 0 26 0;
#X connect 12 0 26 0;
#X connect 13 0 6 0;
#X connect 13 1 9 0;
#X connect 13 2 19 0;
#X connect 13 3 10 0;
#X connect 14 0 8 0;
#X connect 17 0 8 0;
#X connect 19 0 20 0;
#X connect 20 0 26 0;
#X connect 21 0 31 0;
#X connect 22 0 21 0;
#X connect 23 0 21 0;
#X connect 24 0 5 0;
#X connect 26 0 27 0;
#X connect 26 1 25 0;
#X connect 26 1 28 0;
#X connect 30 1 29 0;
#X connect 31 0 24 0;
#X connect 31 1 3 0;
#X connect 31 2 30 0;
