#N canvas 91 23 1272 794 12;
#X obj 65 259 get_thre, f 11;
#X obj 352 66 unpack 0 0 0 0 0 0 0 0, f 77;
#X floatatom 61 336 5 0 0 0 - - -;
#X floatatom 140 290 5 0 0 0 - - -;
#X floatatom 101 306 5 0 0 0 - - -;
#X obj 97 546 s sensor1min;
#X obj 192 547 s sensor1max;
#X obj 114 204 r sensor1min;
#X obj 138 226 r sensor1max;
#X obj 287 498 preset_file, f 94;
#X obj 213 260 get_thre, f 11;
#X floatatom 209 337 5 0 0 0 - - -;
#X floatatom 288 291 5 0 0 0 - - -;
#X floatatom 249 307 5 0 0 0 - - -;
#X obj 262 205 r sensor2min;
#X obj 286 227 r sensor2max;
#X obj 215 574 s sensor2min;
#X obj 308 575 s sensor2max;
#X obj 82 180 r calibration;
#X obj 163 462 r calibration;
#X msg 1062 478 read;
#X msg 1061 505 write;
#X obj 237 182 r calibration;
#X obj 378 261 get_thre, f 11;
#X floatatom 374 338 5 0 0 0 - - -;
#X floatatom 453 292 5 0 0 0 - - -;
#X floatatom 414 308 5 0 0 0 - - -;
#X obj 526 262 get_thre, f 11;
#X floatatom 522 339 5 0 0 0 - - -;
#X floatatom 601 293 5 0 0 0 - - -;
#X floatatom 562 309 5 0 0 0 - - -;
#X obj 395 182 r calibration;
#X obj 550 184 r calibration;
#X obj 427 206 r sensor3min;
#X obj 451 228 r sensor3max;
#X obj 575 207 r sensor4min;
#X obj 599 229 r sensor4max;
#X obj 679 264 get_thre, f 11;
#X floatatom 675 341 5 0 0 0 - - -;
#X floatatom 754 295 5 0 0 0 - - -;
#X floatatom 715 311 5 0 0 0 - - -;
#X obj 827 265 get_thre, f 11;
#X floatatom 823 342 5 0 0 0 - - -;
#X floatatom 902 296 5 0 0 0 - - -;
#X floatatom 863 312 5 0 0 0 - - -;
#X obj 696 185 r calibration;
#X obj 851 187 r calibration;
#X obj 981 264 get_thre, f 11;
#X floatatom 977 341 5 0 0 0 - - -;
#X floatatom 1056 295 5 0 0 0 - - -;
#X floatatom 1017 311 5 0 0 0 - - -;
#X obj 1129 265 get_thre, f 11;
#X floatatom 1125 342 5 0 0 0 - - -;
#X floatatom 1204 296 5 0 0 0 - - -;
#X floatatom 1165 312 5 0 0 0 - - -;
#X obj 998 185 r calibration;
#X obj 1153 187 r calibration;
#X obj 728 209 r sensor5min;
#X obj 752 231 r sensor5max;
#X obj 876 210 r sensor6min;
#X obj 900 232 r sensor6max;
#X obj 1030 209 r sensor7min;
#X obj 1054 231 r sensor7max;
#X obj 1179 210 r sensor8min;
#X obj 1202 232 r sensor8max;
#X obj 304 545 s sensor3min;
#X obj 399 546 s sensor3max;
#X obj 425 572 s sensor4min;
#X obj 518 573 s sensor4max;
#X obj 505 545 s sensor5min;
#X obj 600 546 s sensor5max;
#X obj 626 571 s sensor6min;
#X obj 719 573 s sensor6max;
#X obj 723 542 s sensor7min;
#X obj 818 543 s sensor7max;
#X obj 844 569 s sensor8min;
#X obj 937 570 s sensor8max;
#X obj 353 25 inlet;
#X obj 275 710 outlet;
#X obj 275 670 pack 0 0 0 0 0 0 0 0, f 109;
#X connect 0 0 2 0;
#X connect 0 0 79 0;
#X connect 0 1 4 0;
#X connect 0 1 9 1;
#X connect 0 2 3 0;
#X connect 0 2 9 2;
#X connect 1 0 0 0;
#X connect 1 1 10 0;
#X connect 1 2 23 0;
#X connect 1 3 27 0;
#X connect 1 4 37 0;
#X connect 1 5 41 0;
#X connect 1 6 47 0;
#X connect 1 7 51 0;
#X connect 7 0 0 2;
#X connect 8 0 0 3;
#X connect 9 0 5 0;
#X connect 9 1 6 0;
#X connect 9 2 16 0;
#X connect 9 3 17 0;
#X connect 9 4 65 0;
#X connect 9 5 66 0;
#X connect 9 6 67 0;
#X connect 9 7 68 0;
#X connect 9 8 69 0;
#X connect 9 9 70 0;
#X connect 9 10 71 0;
#X connect 9 11 72 0;
#X connect 9 12 73 0;
#X connect 9 13 74 0;
#X connect 9 14 75 0;
#X connect 9 15 76 0;
#X connect 10 0 11 0;
#X connect 10 0 79 1;
#X connect 10 1 13 0;
#X connect 10 1 9 3;
#X connect 10 2 12 0;
#X connect 10 2 9 4;
#X connect 14 0 10 2;
#X connect 15 0 10 3;
#X connect 18 0 0 1;
#X connect 19 0 9 0;
#X connect 20 0 9 17;
#X connect 21 0 9 17;
#X connect 22 0 10 1;
#X connect 23 0 24 0;
#X connect 23 0 79 2;
#X connect 23 1 26 0;
#X connect 23 1 9 5;
#X connect 23 2 25 0;
#X connect 23 2 9 6;
#X connect 27 0 28 0;
#X connect 27 0 79 3;
#X connect 27 1 30 0;
#X connect 27 1 9 7;
#X connect 27 2 29 0;
#X connect 27 2 9 8;
#X connect 31 0 23 1;
#X connect 32 0 27 1;
#X connect 33 0 23 2;
#X connect 34 0 23 3;
#X connect 35 0 27 2;
#X connect 36 0 27 3;
#X connect 37 0 38 0;
#X connect 37 0 79 4;
#X connect 37 1 40 0;
#X connect 37 1 9 9;
#X connect 37 2 39 0;
#X connect 37 2 9 10;
#X connect 41 0 42 0;
#X connect 41 0 79 5;
#X connect 41 1 44 0;
#X connect 41 1 9 11;
#X connect 41 2 43 0;
#X connect 41 2 9 12;
#X connect 45 0 37 1;
#X connect 46 0 41 1;
#X connect 47 0 48 0;
#X connect 47 0 79 6;
#X connect 47 1 50 0;
#X connect 47 1 9 13;
#X connect 47 2 49 0;
#X connect 47 2 9 14;
#X connect 51 0 52 0;
#X connect 51 0 79 7;
#X connect 51 1 54 0;
#X connect 51 1 9 15;
#X connect 51 2 53 0;
#X connect 51 2 9 16;
#X connect 55 0 47 1;
#X connect 56 0 51 1;
#X connect 57 0 37 2;
#X connect 58 0 37 3;
#X connect 59 0 41 2;
#X connect 60 0 41 3;
#X connect 61 0 47 2;
#X connect 62 0 47 3;
#X connect 63 0 51 2;
#X connect 64 0 51 3;
#X connect 77 0 1 0;
#X connect 79 0 78 0;
