#N canvas 759 30 1143 592 12;
#X obj 73 186 netreceive -u -b;
#X msg 257 90 listen 0;
#X text 346 89 stop listening;
#X text 212 186 UDP packets \, binary output, f 13;
#X obj 70 217 oscparse;
#X obj 258 32 loadbang;
#X msg 800 333 disconnect;
#X obj 564 364 netsend -u -b;
#X obj 564 226 list prepend send;
#X obj 564 257 list trim;
#X obj 564 150 cputime;
#X obj 610 123 metro 1000;
#X obj 659 12 loadbang;
#X msg 608 100 1;
#X obj 564 188 oscformat time;
#X text 1003 281 IPv4 multicast;
#X msg 798 281 connect 239.200.200.200 5555;
#X msg 32 50 listen 5555 239.200.200.200;
#X obj 562 428 print netsend;
#X obj 647 397 print netsend1;
#X obj 523 398 tgl 15 0 empty empty empty 17 7 0 10 -262144 -1 -1 1
1;
#X obj 111 360 print netreceive;
#X msg 258 60 listen 50555;
#X msg 798 309 connect 192.168.0.181 50555;
#X msg 799 249 connect localhost 50555;
#X obj 525 129 bng 15 250 50 0 empty empty empty 17 7 0 10 -262144
-1 -1;
#X floatatom 500 186 5 0 0 0 - - -;
#X msg 647 101 0;
#X msg 743 220 connect 192.168.0.255 51555;
#X msg 355 61 listen 51555;
#X obj 801 49 ipinfo;
#X msg 801 21 wlan0;
#X msg 860 19 en0;
#X obj 801 77 unpack s s;
#X obj 868 129 list prepend set;
#X obj 868 104 list append time;
#X obj 868 154 list trim;
#X obj 693 48 t b b;
#X obj 72 280 route 192.168.0.181;
#X obj 71 250 list trim;
#X connect 0 0 4 0;
#X connect 1 0 0 0;
#X connect 4 0 39 0;
#X connect 5 0 22 0;
#X connect 6 0 7 0;
#X connect 7 0 18 0;
#X connect 7 0 20 0;
#X connect 7 1 19 0;
#X connect 8 0 9 0;
#X connect 9 0 7 0;
#X connect 10 0 14 0;
#X connect 10 0 26 0;
#X connect 11 0 10 1;
#X connect 12 0 37 0;
#X connect 13 0 11 0;
#X connect 14 0 8 0;
#X connect 16 0 7 0;
#X connect 17 0 0 0;
#X connect 22 0 0 0;
#X connect 23 0 7 0;
#X connect 24 0 7 0;
#X connect 25 0 10 1;
#X connect 27 0 11 0;
#X connect 28 0 7 0;
#X connect 29 0 0 0;
#X connect 30 0 33 0;
#X connect 31 0 30 0;
#X connect 32 0 30 0;
#X connect 33 1 35 0;
#X connect 34 0 36 0;
#X connect 35 0 34 0;
#X connect 36 0 14 0;
#X connect 37 0 13 0;
#X connect 37 1 31 0;
#X connect 37 1 28 0;
#X connect 38 0 21 0;
#X connect 39 0 38 0;
