#N canvas 243 23 450 300 12;
#X obj 120 116 unpack 0 0 0 0 0 0 0 0;
#X obj 120 148 pack 0 0 0;
#X obj 120 83 inlet;
#X obj 119 181 outlet;
#X connect 0 0 1 0;
#X connect 0 1 1 1;
#X connect 0 2 1 2;
#X connect 1 0 3 0;
#X connect 2 0 0 0;
