#N canvas 359 364 1123 674 12;
#X declare -path ../_common;
#X obj 136 414 catch~ outL;
#X obj 197 438 catch~ outR;
#X obj 150 592 dac~;
#X obj 136 477 *~ 1;
#X obj 191 475 *~ 1;
#X msg 308 447 1;
#X obj 101 87 vsl 15 128 0 1 0 0 empty empty empty 0 -9 0 10 -262144
-1 -1 0 1;
#X obj 133 87 vsl 15 128 0 1 0 0 empty empty empty 0 -9 0 10 -262144
-1 -1 0 1;
#X obj 166 87 vsl 15 128 0 1 0 0 empty empty empty 0 -9 0 10 -262144
-1 -1 0 1;
#X obj 195 87 vsl 15 128 0 1 0 0 empty empty empty 0 -9 0 10 -262144
-1 -1 0 1;
#X obj 268 395 r volume;
#X obj 227 87 vsl 15 128 0 1 0 0 empty empty empty 0 -9 0 10 -262144
-1 -1 0 1;
#X obj 259 87 vsl 15 128 0 1 0 0 empty empty empty 0 -9 0 10 -262144
-1 -1 0 1;
#X obj 292 87 vsl 15 128 0 1 0 0 empty empty empty 0 -9 0 10 -262144
-1 -1 0 1;
#X obj 321 87 vsl 15 128 0 1 0 0 empty empty empty 0 -9 0 10 -262144
-1 -1 0 1;
#X obj 646 194 r sensors;
#X obj 515 238 gate 6 1, f 14;
#X obj 459 121 r mapping_mode;
#X obj 482 186 + 1;
#X obj 667 54 init;
#X obj 841 74 r wifi_ready;
#X msg 841 99 listen 50555;
#X obj 10 10 declare -path ../_common;
#X obj 667 76 oscsender;
#X obj 667 98 sensorread;
#X msg 459 28 \; pd dsp 1;
#N canvas 621 409 1128 769 testSynth 0;
#X obj 452 584 throw~ outL;
#X obj 562 582 throw~ outR;
#X obj 96 446 *~ 0;
#X obj 231 442 *~ 0;
#X obj 354 426 *~ 0;
#X obj 495 434 *~ 0;
#X obj 410 367 * 0.25;
#X obj 538 353 * 0.25;
#X obj 516 17 inlet;
#X obj 515 60 unpack 0 0 0 0 0 0 0 0;
#X obj 69 355 osc~ 232;
#X obj 204 351 osc~ 356;
#X obj 339 347 osc~ 473;
#X obj 468 343 osc~ 621;
#X obj 274 361 * 0.25;
#X obj 140 375 * 0.25;
#X obj 638 438 *~ 0;
#X obj 773 434 *~ 0;
#X obj 896 418 *~ 0;
#X obj 1037 426 *~ 0;
#X obj 952 359 * 0.25;
#X obj 1080 345 * 0.25;
#X obj 816 353 * 0.25;
#X obj 682 367 * 0.25;
#X obj 611 347 osc~ 732;
#X obj 746 343 osc~ 556;
#X obj 881 339 osc~ 373;
#X obj 1010 335 osc~ 211;
#X obj 218 170 r reset;
#X obj 629 16 inlet;
#X obj 91 47 r sensor_base;
#X obj 308 115 thre;
#X obj 400 121 thre;
#X obj 482 123 thre;
#X obj 561 125 thre;
#X obj 621 127 thre;
#X obj 689 128 thre;
#X obj 755 127 thre;
#X obj 820 126 thre;
#X connect 2 0 0 0;
#X connect 2 0 1 0;
#X connect 3 0 0 0;
#X connect 3 0 1 0;
#X connect 4 0 0 0;
#X connect 4 0 1 0;
#X connect 5 0 0 0;
#X connect 5 0 1 0;
#X connect 6 0 4 1;
#X connect 7 0 5 1;
#X connect 8 0 9 0;
#X connect 9 0 31 1;
#X connect 9 1 32 1;
#X connect 9 2 33 1;
#X connect 9 3 34 1;
#X connect 9 4 35 1;
#X connect 9 5 36 1;
#X connect 9 6 37 1;
#X connect 9 7 38 1;
#X connect 10 0 2 0;
#X connect 11 0 3 0;
#X connect 12 0 4 0;
#X connect 13 0 5 0;
#X connect 14 0 3 1;
#X connect 15 0 2 1;
#X connect 16 0 1 0;
#X connect 16 0 0 0;
#X connect 17 0 1 0;
#X connect 17 0 0 0;
#X connect 18 0 1 0;
#X connect 18 0 0 0;
#X connect 19 0 1 0;
#X connect 19 0 0 0;
#X connect 20 0 18 1;
#X connect 21 0 19 1;
#X connect 22 0 17 1;
#X connect 23 0 16 1;
#X connect 24 0 16 0;
#X connect 25 0 17 0;
#X connect 26 0 18 0;
#X connect 27 0 19 0;
#X connect 28 0 15 0;
#X connect 28 0 14 0;
#X connect 28 0 6 0;
#X connect 28 0 7 0;
#X connect 28 0 23 0;
#X connect 28 0 22 0;
#X connect 28 0 20 0;
#X connect 28 0 21 0;
#X connect 29 0 9 0;
#X connect 30 0 31 0;
#X connect 30 0 32 0;
#X connect 30 0 33 0;
#X connect 30 0 34 0;
#X connect 30 0 35 0;
#X connect 30 0 36 0;
#X connect 30 0 37 0;
#X connect 30 0 38 0;
#X connect 31 0 15 0;
#X connect 32 0 14 0;
#X connect 33 0 6 0;
#X connect 34 0 7 0;
#X connect 35 0 23 0;
#X connect 36 0 22 0;
#X connect 37 0 20 0;
#X connect 38 0 21 0;
#X restore 428 399 pd testSynth;
#X obj 376 243 change;
#X floatatom 400 130 5 0 0 0 - - -;
#X obj 376 269 t b;
#X msg 376 295 0;
#X obj 376 321 s reset;
#X obj 153 273 pak 0 0 0 0 0 0 0 0;
#X obj 153 303 s t_ctrl;
#X obj 667 120 osccontroller;
#X obj 466 369 ml_ann_testSynth;
#N canvas 16 91 1295 726 ml_voice 0;
#X msg 574 223 help;
#X msg 432 148 mode 1;
#X msg 573 246 train;
#X msg 580 44 num_hidden 7;
#X msg 581 68 min_epochs 300;
#X msg 580 93 max_epochs 400;
#X obj 273 235 list trim;
#X obj 34 236 list prepend add;
#X obj 34 258 list trim;
#X obj 273 213 list prepend map;
#X obj 417 58 loadbang;
#X obj 310 18 inlet;
#X obj 428 302 ml.ann;
#X obj 555 388 route read train;
#X obj 609 429 sel 0 1;
#X obj 417 82 t b b;
#X obj 555 413 sel 1;
#X msg 501 148 num_outputs 8;
#X obj 209 46 + 1;
#X obj 34 207 list prepend;
#X obj 33 77 loadbang;
#X obj 32 112 pak 0 0 0 0 0 0 0 0;
#X msg 633 460 1;
#X obj 253 107 gate 2 1;
#X obj 213 172 tgl 15 0 empty empty empty 17 7 0 10 -262144 -1 -1 0
1;
#X obj 213 196 gate;
#X obj 272 189 gate;
#X msg 959 290 read /root/training_voice.data;
#X msg 913 359 write /root/training_voice.data;
#X obj 822 184 int;
#X obj 868 184 int;
#X msg 686 457 train;
#X obj 741 58 r ml_control;
#X obj 822 267 s \$0-ml_mode;
#X obj 868 221 s \$0-ml_sensor;
#X obj 209 20 r \$0-ml_mode;
#X obj 213 146 r \$0-ml_sensor;
#X obj 570 364 print ann_voice;
#X obj 741 88 route 2;
#X msg 1038 208 clear;
#X obj 282 322 s ctrl_data;
#X msg 732 458 0;
#X obj 686 434 t b b;
#X obj 741 118 route t_ctrl;
#X obj 702 149 s \$0-t_ctrl;
#X obj 414 383 r \$0-t_ctrl;
#X obj 115 147 r \$0-t_ctrl;
#X obj 1038 185 t b b;
#X msg 1090 208 0;
#X obj 396 422 voice;
#X obj 822 153 route mode sensor write read train clear voicefade voicetype
;
#X obj 1186 180 i;
#X connect 0 0 12 0;
#X connect 1 0 12 0;
#X connect 2 0 12 0;
#X connect 6 0 12 0;
#X connect 7 0 8 0;
#X connect 8 0 12 0;
#X connect 9 0 6 0;
#X connect 10 0 15 0;
#X connect 11 0 23 1;
#X connect 12 0 40 0;
#X connect 12 0 49 0;
#X connect 12 1 13 0;
#X connect 12 1 37 0;
#X connect 13 0 16 0;
#X connect 13 1 14 0;
#X connect 14 1 22 0;
#X connect 15 0 27 0;
#X connect 15 1 1 0;
#X connect 15 1 17 0;
#X connect 16 0 42 0;
#X connect 17 0 12 0;
#X connect 18 0 23 0;
#X connect 19 0 7 0;
#X connect 20 0 21 0;
#X connect 21 0 19 1;
#X connect 22 0 26 0;
#X connect 23 0 26 1;
#X connect 23 1 25 1;
#X connect 24 0 25 0;
#X connect 25 0 19 0;
#X connect 26 0 9 0;
#X connect 27 0 12 0;
#X connect 28 0 12 0;
#X connect 29 0 33 0;
#X connect 30 0 34 0;
#X connect 31 0 12 0;
#X connect 32 0 38 0;
#X connect 35 0 18 0;
#X connect 36 0 24 0;
#X connect 38 0 43 0;
#X connect 39 0 12 0;
#X connect 41 0 26 0;
#X connect 42 0 31 0;
#X connect 42 1 41 0;
#X connect 43 0 44 0;
#X connect 43 1 50 0;
#X connect 45 0 49 1;
#X connect 46 0 19 1;
#X connect 47 0 39 0;
#X connect 47 1 48 0;
#X connect 48 0 26 0;
#X connect 50 0 29 0;
#X connect 50 1 30 0;
#X connect 50 2 28 0;
#X connect 50 3 27 0;
#X connect 50 4 42 0;
#X connect 50 5 47 0;
#X connect 50 6 49 2;
#X connect 50 7 51 0;
#X connect 51 0 49 3;
#X restore 509 338 pd ml_voice;
#N canvas 16 91 1295 726 ml_voice2 0;
#X msg 574 223 help;
#X msg 432 148 mode 1;
#X msg 573 246 train;
#X msg 580 44 num_hidden 7;
#X msg 581 68 min_epochs 300;
#X msg 580 93 max_epochs 400;
#X obj 273 235 list trim;
#X obj 34 236 list prepend add;
#X obj 34 258 list trim;
#X obj 273 213 list prepend map;
#X obj 417 58 loadbang;
#X obj 310 18 inlet;
#X obj 428 302 ml.ann;
#X obj 555 388 route read train;
#X obj 609 429 sel 0 1;
#X obj 417 82 t b b;
#X obj 555 413 sel 1;
#X msg 501 148 num_outputs 8;
#X obj 209 46 + 1;
#X obj 34 207 list prepend;
#X obj 33 77 loadbang;
#X obj 32 112 pak 0 0 0 0 0 0 0 0;
#X msg 633 460 1;
#X obj 253 107 gate 2 1;
#X obj 213 172 tgl 15 0 empty empty empty 17 7 0 10 -262144 -1 -1 0
1;
#X obj 213 196 gate;
#X obj 272 189 gate;
#X obj 822 184 int;
#X obj 868 184 int;
#X msg 686 457 train;
#X obj 741 58 r ml_control;
#X obj 822 267 s \$0-ml_mode;
#X obj 868 221 s \$0-ml_sensor;
#X obj 209 20 r \$0-ml_mode;
#X obj 213 146 r \$0-ml_sensor;
#X obj 570 364 print ann_voice;
#X msg 1038 208 clear;
#X obj 282 322 s ctrl_data;
#X msg 732 458 0;
#X obj 686 434 t b b;
#X obj 741 118 route t_ctrl;
#X obj 702 149 s \$0-t_ctrl;
#X obj 414 383 r \$0-t_ctrl;
#X obj 115 147 r \$0-t_ctrl;
#X obj 1038 185 t b b;
#X msg 1090 208 0;
#X msg 978 262 read /root/training_voice2.data;
#X msg 928 304 write /root/training_voice2.data;
#X obj 395 422 voice;
#X obj 822 153 route mode sensor write read train clear voicefade voicetype
;
#X obj 1186 186 i;
#X obj 741 88 route 3;
#X connect 0 0 12 0;
#X connect 1 0 12 0;
#X connect 2 0 12 0;
#X connect 6 0 12 0;
#X connect 7 0 8 0;
#X connect 8 0 12 0;
#X connect 9 0 6 0;
#X connect 10 0 15 0;
#X connect 11 0 23 1;
#X connect 12 0 37 0;
#X connect 12 0 48 0;
#X connect 12 1 13 0;
#X connect 12 1 35 0;
#X connect 13 0 16 0;
#X connect 13 1 14 0;
#X connect 14 1 22 0;
#X connect 15 0 46 0;
#X connect 15 1 1 0;
#X connect 15 1 17 0;
#X connect 16 0 39 0;
#X connect 17 0 12 0;
#X connect 18 0 23 0;
#X connect 19 0 7 0;
#X connect 20 0 21 0;
#X connect 21 0 19 1;
#X connect 22 0 26 0;
#X connect 23 0 26 1;
#X connect 23 1 25 1;
#X connect 24 0 25 0;
#X connect 25 0 19 0;
#X connect 26 0 9 0;
#X connect 27 0 31 0;
#X connect 28 0 32 0;
#X connect 29 0 12 0;
#X connect 30 0 51 0;
#X connect 33 0 18 0;
#X connect 34 0 24 0;
#X connect 36 0 12 0;
#X connect 38 0 26 0;
#X connect 39 0 29 0;
#X connect 39 1 38 0;
#X connect 40 0 41 0;
#X connect 40 1 49 0;
#X connect 42 0 48 1;
#X connect 43 0 19 1;
#X connect 44 0 36 0;
#X connect 44 1 45 0;
#X connect 45 0 26 0;
#X connect 46 0 12 0;
#X connect 47 0 12 0;
#X connect 49 0 27 0;
#X connect 49 1 28 0;
#X connect 49 2 47 0;
#X connect 49 3 46 0;
#X connect 49 4 39 0;
#X connect 49 5 44 0;
#X connect 49 6 48 2;
#X connect 49 7 50 0;
#X connect 50 0 48 3;
#X connect 51 0 40 0;
#X restore 546 311 pd ml_voice2;
#X obj 646 219 spigot 1;
#X msg 606 200 0;
#X obj 483 211 t f f;
#X obj 459 145 t b f b;
#X msg 568 200 1;
#X connect 0 0 3 0;
#X connect 1 0 4 0;
#X connect 3 0 2 0;
#X connect 4 0 2 1;
#X connect 5 0 4 1;
#X connect 5 0 3 1;
#X connect 6 0 32 0;
#X connect 7 0 32 1;
#X connect 8 0 32 2;
#X connect 9 0 32 3;
#X connect 10 0 3 1;
#X connect 10 0 4 1;
#X connect 11 0 32 4;
#X connect 12 0 32 5;
#X connect 13 0 32 6;
#X connect 14 0 32 7;
#X connect 15 0 38 0;
#X connect 16 0 26 0;
#X connect 16 1 35 0;
#X connect 16 2 36 0;
#X connect 16 3 37 0;
#X connect 17 0 41 0;
#X connect 18 0 40 0;
#X connect 20 0 21 0;
#X connect 21 0 34 0;
#X connect 27 0 29 0;
#X connect 28 0 41 0;
#X connect 29 0 30 0;
#X connect 30 0 31 0;
#X connect 32 0 33 0;
#X connect 38 0 16 1;
#X connect 39 0 38 1;
#X connect 40 0 27 0;
#X connect 40 1 16 0;
#X connect 41 0 42 0;
#X connect 41 1 18 0;
#X connect 41 2 39 0;
#X connect 42 0 38 1;
