#N canvas 36 82 1241 785 12;
#X declare -path ../_common;
#X obj 136 414 catch~ outL;
#X obj 197 438 catch~ outR;
#X obj 150 592 dac~;
#X obj 136 477 *~ 1;
#X obj 191 475 *~ 1;
#X msg 308 447 1;
#X obj 101 87 vsl 15 128 0 1 0 0 empty empty empty 0 -9 0 10 -262144
-1 -1 0 1;
#X obj 133 87 vsl 15 128 0 1 0 0 empty empty empty 0 -9 0 10 -262144
-1 -1 0 1;
#X obj 166 87 vsl 15 128 0 1 0 0 empty empty empty 0 -9 0 10 -262144
-1 -1 0 1;
#X obj 195 87 vsl 15 128 0 1 0 0 empty empty empty 0 -9 0 10 -262144
-1 -1 0 1;
#X obj 268 395 r volume;
#X obj 227 87 vsl 15 128 0 1 0 0 empty empty empty 0 -9 0 10 -262144
-1 -1 0 1;
#X obj 259 87 vsl 15 128 0 1 0 0 empty empty empty 0 -9 0 10 -262144
-1 -1 0 1;
#X obj 292 87 vsl 15 128 0 1 0 0 empty empty empty 0 -9 0 10 -262144
-1 -1 0 1;
#X obj 321 87 vsl 15 128 0 1 0 0 empty empty empty 0 -9 0 10 -262144
-1 -1 0 1;
#X obj 821 122 osccontroller 50555 239.100.100.100;
#X obj 813 324 r sensors;
#X obj 718 368 gate 6 1, f 14;
#X obj 718 292 r mapping_mode;
#X obj 717 331 + 1;
#X obj 821 56 init;
#X obj 995 76 r wifi_ready;
#X msg 995 101 listen 50555;
#X obj 10 10 declare -path ../_common;
#X text 771 457 synthesizer;
#X obj 821 78 oscsender;
#X obj 821 100 sensorread;
#X msg 459 28 \; pd dsp 1;
#N canvas 253 23 1128 769 testSynth 0;
#X obj 452 584 throw~ outL;
#X obj 562 582 throw~ outR;
#X obj 96 446 *~ 0;
#X obj 231 442 *~ 0;
#X obj 354 426 *~ 0;
#X obj 495 434 *~ 0;
#X obj 410 367 * 0.25;
#X obj 538 353 * 0.25;
#X obj 516 17 inlet;
#X obj 515 60 unpack 0 0 0 0 0 0 0 0;
#X obj 69 355 osc~ 232;
#X obj 204 351 osc~ 356;
#X obj 339 347 osc~ 473;
#X obj 468 343 osc~ 621;
#X obj 274 361 * 0.25;
#X obj 140 375 * 0.25;
#X obj 638 438 *~ 0;
#X obj 773 434 *~ 0;
#X obj 896 418 *~ 0;
#X obj 1037 426 *~ 0;
#X obj 952 359 * 0.25;
#X obj 1080 345 * 0.25;
#X obj 816 353 * 0.25;
#X obj 682 367 * 0.25;
#X obj 611 347 osc~ 732;
#X obj 746 343 osc~ 556;
#X obj 881 339 osc~ 373;
#X obj 1010 335 osc~ 211;
#X obj 218 170 r reset;
#X obj 629 16 inlet;
#X connect 2 0 0 0;
#X connect 2 0 1 0;
#X connect 3 0 0 0;
#X connect 3 0 1 0;
#X connect 4 0 0 0;
#X connect 4 0 1 0;
#X connect 5 0 0 0;
#X connect 5 0 1 0;
#X connect 6 0 4 1;
#X connect 7 0 5 1;
#X connect 8 0 9 0;
#X connect 9 0 15 0;
#X connect 9 1 14 0;
#X connect 9 2 6 0;
#X connect 9 3 7 0;
#X connect 9 4 23 0;
#X connect 9 5 22 0;
#X connect 9 6 20 0;
#X connect 9 7 21 0;
#X connect 10 0 2 0;
#X connect 11 0 3 0;
#X connect 12 0 4 0;
#X connect 13 0 5 0;
#X connect 14 0 3 1;
#X connect 15 0 2 1;
#X connect 16 0 1 0;
#X connect 16 0 0 0;
#X connect 17 0 1 0;
#X connect 17 0 0 0;
#X connect 18 0 1 0;
#X connect 18 0 0 0;
#X connect 19 0 1 0;
#X connect 19 0 0 0;
#X connect 20 0 18 1;
#X connect 21 0 19 1;
#X connect 22 0 17 1;
#X connect 23 0 16 1;
#X connect 24 0 16 0;
#X connect 25 0 17 0;
#X connect 26 0 18 0;
#X connect 27 0 19 0;
#X connect 28 0 15 0;
#X connect 28 0 14 0;
#X connect 28 0 6 0;
#X connect 28 0 7 0;
#X connect 28 0 23 0;
#X connect 28 0 22 0;
#X connect 28 0 20 0;
#X connect 28 0 21 0;
#X connect 29 0 9 0;
#X restore 655 530 pd testSynth;
#X obj 722 481 ml_ann_testSynth;
#X obj 643 292 r ml_mode;
#X obj 608 367 gate 6 1, f 14;
#X obj 828 367 gate 6 1, f 14;
#X obj 924 322 r t_ctrl;
#N canvas 5 154 1334 724 ml_voice 0;
#X msg 812 255 help;
#X msg 805 166 mode 1;
#X msg 811 278 train;
#X msg 459 253 clear;
#X msg 791 594 train;
#X msg 993 112 num_hidden 7;
#X msg 994 136 min_epochs 300;
#X msg 993 161 max_epochs 400;
#X obj 977 291 r mlp;
#X obj 572 205 list trim;
#X obj 125 234 list prepend add;
#X obj 125 256 list trim;
#X obj 572 183 list prepend map;
#X obj 790 76 loadbang;
#X obj 557 11 inlet;
#X obj 666 334 ml.ann;
#X obj 791 619 s mlp;
#X obj 793 420 route read train;
#X obj 847 461 sel 0 1;
#X obj 790 100 t b b;
#X obj 793 445 sel 1;
#X obj 849 618 print trained in;
#X obj 791 569 t b b;
#X obj 807 534 bng 15 250 50 0 empty empty empty 17 7 0 10 -262144
-1 -1;
#X obj 808 396 print ann;
#X obj 976 322 route read write;
#X msg 874 166 num_outputs 8;
#X obj 383 55 + 1;
#X obj 125 205 list prepend;
#X obj 58 100 loadbang;
#X obj 57 135 pak 0 0 0 0 0 0 0 0;
#X obj 849 592 realtime;
#X msg 848 504 1;
#X obj 500 100 gate 2 1;
#X obj 436 200 sel 1 0;
#X obj 351 138 tgl 15 0 empty empty empty 17 7 0 10 -262144 -1 -1 0
1;
#X obj 351 111 r ml_sensor;
#X obj 354 161 gate;
#X obj 571 159 gate;
#X obj 383 29 inlet;
#X obj 780 20 inlet;
#N canvas 253 23 1128 769 voice 0;
#X obj 317 599 throw~ outL;
#X obj 407 598 throw~ outR;
#X obj 480 34 inlet;
#X obj 480 64 unpack 0 0 0 0 0 0 0 0;
#X obj 583 35 inlet;
#X obj 427 309 unpack f f f f f f f f f;
#X obj 193 412 bp~ 0 0;
#X obj 340 419 bp~ 0 0;
#X obj 343 481 hip~ 50;
#X obj 538 421 bp~ 0 0;
#X floatatom 528 184 5 0 0 0 - - -;
#X obj 352 363 line;
#X obj 403 363 line;
#X obj 455 363 line;
#X obj 508 364 line;
#X obj 560 365 line;
#X obj 614 364 line;
#X obj 345 517 *~ 0.8;
#X obj 193 258 phasor~;
#X obj 194 348 lop~ 5000;
#X text 467 224 a;
#X text 526 228 e;
#X text 604 231 o;
#X text 710 234 u;
#X msg 614 340 \$1 500;
#X msg 560 340 \$1 500;
#X msg 508 340 \$1 500;
#X msg 455 339 \$1 500;
#X msg 403 339 \$1 500;
#X msg 352 339 \$1 500;
#X obj 668 567 line;
#X obj 193 224 *~ 500;
#X floatatom 193 179 5 0 1 0 - - -;
#X floatatom 530 113 5 0 1 0 - - -;
#X obj 193 201 sig~;
#X floatatom 667 461 5 0 1 0 - - -;
#X obj 817 490 tgl 15 0 empty empty empty 17 7 0 10 -262144 -1 -1 0
1;
#X obj 848 433 change;
#X obj 848 465 t b;
#X msg 848 493 1;
#X msg 891 509 0;
#X msg 825 532 \$1 200;
#X obj 530 160 i;
#X obj 530 137 * 4;
#N canvas 72 151 450 300 formant_0 0;
#X msg 69 80 850;
#X msg 96 79 30;
#X msg 119 98 6;
#X msg 143 98 1220;
#X msg 170 116 80;
#X msg 191 126 6;
#X msg 214 138 2810;
#X msg 243 139 100;
#X msg 263 150 -4;
#X obj 107 177 pack f f f f f f f f f;
#X obj 132 1 inlet;
#X obj 98 219 outlet;
#X obj 131 42 sel 0;
#X connect 0 0 9 0;
#X connect 1 0 9 1;
#X connect 2 0 9 2;
#X connect 3 0 9 3;
#X connect 4 0 9 4;
#X connect 5 0 9 5;
#X connect 6 0 9 6;
#X connect 7 0 9 7;
#X connect 8 0 9 8;
#X connect 9 0 11 0;
#X connect 10 0 12 0;
#X connect 12 0 0 0;
#X connect 12 0 1 0;
#X connect 12 0 2 0;
#X connect 12 0 3 0;
#X connect 12 0 4 0;
#X connect 12 0 5 0;
#X connect 12 0 6 0;
#X connect 12 0 7 0;
#X connect 12 0 8 0;
#X restore 428 246 pd formant_0;
#N canvas 109 121 450 300 formant_1 0;
#X msg 96 79 30;
#X msg 170 116 80;
#X msg 243 139 100;
#X obj 107 177 pack f f f f f f f f f;
#X obj 132 1 inlet;
#X obj 98 219 outlet;
#X msg 263 150 0;
#X msg 69 80 430;
#X msg 119 98 5;
#X msg 143 98 2480;
#X msg 192 126 2;
#X msg 214 138 3070;
#X obj 131 42 sel 1;
#X connect 0 0 3 1;
#X connect 1 0 3 4;
#X connect 2 0 3 7;
#X connect 3 0 5 0;
#X connect 4 0 12 0;
#X connect 6 0 3 8;
#X connect 7 0 3 0;
#X connect 8 0 3 2;
#X connect 9 0 3 3;
#X connect 10 0 3 5;
#X connect 11 0 3 6;
#X connect 12 0 7 0;
#X connect 12 0 0 0;
#X connect 12 0 8 0;
#X connect 12 0 9 0;
#X connect 12 0 1 0;
#X connect 12 0 10 0;
#X connect 12 0 11 0;
#X connect 12 0 2 0;
#X connect 12 0 6 0;
#X restore 515 250 pd formant_1;
#N canvas 75 99 450 300 formant_2 0;
#X msg 96 79 30;
#X msg 170 116 80;
#X msg 243 139 100;
#X obj 107 177 pack f f f f f f f f f;
#X obj 132 1 inlet;
#X obj 98 219 outlet;
#X msg 69 80 590;
#X msg 119 98 7;
#X msg 143 98 920;
#X msg 192 126 3;
#X msg 214 138 2710;
#X msg 263 150 -4;
#X obj 131 42 sel 2;
#X connect 0 0 3 1;
#X connect 1 0 3 4;
#X connect 2 0 3 7;
#X connect 3 0 5 0;
#X connect 4 0 12 0;
#X connect 6 0 3 0;
#X connect 7 0 3 2;
#X connect 8 0 3 3;
#X connect 9 0 3 5;
#X connect 10 0 3 6;
#X connect 11 0 3 8;
#X connect 12 0 6 0;
#X connect 12 0 0 0;
#X connect 12 0 7 0;
#X connect 12 0 8 0;
#X connect 12 0 1 0;
#X connect 12 0 9 0;
#X connect 12 0 10 0;
#X connect 12 0 2 0;
#X connect 12 0 11 0;
#X restore 606 252 pd formant_2;
#N canvas 27 88 450 300 formant_3 0;
#X msg 96 79 30;
#X msg 170 116 80;
#X msg 243 139 100;
#X obj 107 177 pack f f f f f f f f f;
#X obj 132 1 inlet;
#X obj 98 219 outlet;
#X msg 119 98 4;
#X msg 192 126 4;
#X msg 263 150 -2;
#X msg 68 80 370;
#X msg 143 98 950;
#X msg 214 138 2670;
#X obj 131 42 sel 3;
#X connect 0 0 3 1;
#X connect 1 0 3 4;
#X connect 2 0 3 7;
#X connect 3 0 5 0;
#X connect 4 0 12 0;
#X connect 6 0 3 2;
#X connect 7 0 3 5;
#X connect 8 0 3 8;
#X connect 9 0 3 0;
#X connect 10 0 3 3;
#X connect 11 0 3 6;
#X connect 12 0 9 0;
#X connect 12 0 0 0;
#X connect 12 0 6 0;
#X connect 12 0 10 0;
#X connect 12 0 1 0;
#X connect 12 0 7 0;
#X connect 12 0 11 0;
#X connect 12 0 2 0;
#X connect 12 0 8 0;
#X restore 693 253 pd formant_3;
#X obj 891 481 del 1000;
#X obj 739 354 > 0.3;
#X obj 748 409 gate 1;
#X obj 772 322 t f f;
#X obj 698 383 sel 0;
#X msg 698 407 0;
#X msg 668 510 \$1 100;
#X obj 606 435 r reset;
#X connect 2 0 3 0;
#X connect 3 0 34 0;
#X connect 3 1 43 0;
#X connect 3 2 51 0;
#X connect 4 0 3 0;
#X connect 5 0 29 0;
#X connect 5 1 28 0;
#X connect 5 3 27 0;
#X connect 5 4 26 0;
#X connect 5 6 25 0;
#X connect 5 7 24 0;
#X connect 6 0 8 0;
#X connect 7 0 8 0;
#X connect 8 0 17 0;
#X connect 9 0 8 0;
#X connect 10 0 44 0;
#X connect 10 0 45 0;
#X connect 10 0 46 0;
#X connect 10 0 47 0;
#X connect 11 0 6 1;
#X connect 12 0 6 2;
#X connect 13 0 7 1;
#X connect 14 0 7 2;
#X connect 15 0 9 1;
#X connect 16 0 9 2;
#X connect 17 0 0 0;
#X connect 17 0 1 0;
#X connect 18 0 19 0;
#X connect 19 0 6 0;
#X connect 19 0 7 0;
#X connect 19 0 9 0;
#X connect 24 0 16 0;
#X connect 25 0 15 0;
#X connect 26 0 14 0;
#X connect 27 0 13 0;
#X connect 28 0 12 0;
#X connect 29 0 11 0;
#X connect 30 0 17 1;
#X connect 31 0 18 0;
#X connect 32 0 34 0;
#X connect 33 0 43 0;
#X connect 34 0 31 0;
#X connect 35 0 54 0;
#X connect 36 0 41 0;
#X connect 37 0 38 0;
#X connect 38 0 39 0;
#X connect 38 0 48 0;
#X connect 39 0 41 0;
#X connect 40 0 41 0;
#X connect 41 0 30 0;
#X connect 42 0 10 0;
#X connect 43 0 42 0;
#X connect 44 0 5 0;
#X connect 45 0 5 0;
#X connect 46 0 5 0;
#X connect 47 0 5 0;
#X connect 48 0 40 0;
#X connect 49 0 50 0;
#X connect 49 0 52 0;
#X connect 50 0 35 0;
#X connect 51 0 50 1;
#X connect 51 1 49 0;
#X connect 52 0 53 0;
#X connect 53 0 35 0;
#X connect 54 0 30 0;
#X connect 55 0 54 0;
#X restore 599 416 pd voice;
#X msg 976 349 read /root/training_voice.data;
#X msg 1031 376 write /root/training_voice.data;
#X connect 0 0 15 0;
#X connect 1 0 15 0;
#X connect 2 0 15 0;
#X connect 3 0 15 0;
#X connect 4 0 16 0;
#X connect 8 0 25 0;
#X connect 9 0 15 0;
#X connect 10 0 11 0;
#X connect 11 0 15 0;
#X connect 12 0 9 0;
#X connect 13 0 19 0;
#X connect 14 0 33 1;
#X connect 15 0 41 0;
#X connect 15 1 17 0;
#X connect 15 1 24 0;
#X connect 17 0 20 0;
#X connect 17 1 18 0;
#X connect 18 1 31 1;
#X connect 18 1 32 0;
#X connect 19 0 42 0;
#X connect 19 1 1 0;
#X connect 19 1 26 0;
#X connect 20 0 22 0;
#X connect 22 0 4 0;
#X connect 22 1 31 0;
#X connect 23 0 22 0;
#X connect 25 0 42 0;
#X connect 25 1 43 0;
#X connect 25 2 15 0;
#X connect 26 0 15 0;
#X connect 27 0 33 0;
#X connect 28 0 10 0;
#X connect 29 0 30 0;
#X connect 30 0 28 1;
#X connect 31 0 21 0;
#X connect 32 0 38 0;
#X connect 33 0 38 1;
#X connect 33 1 37 1;
#X connect 34 0 3 0;
#X connect 35 0 37 0;
#X connect 36 0 35 0;
#X connect 37 0 28 0;
#X connect 38 0 12 0;
#X connect 39 0 27 0;
#X connect 39 0 34 0;
#X connect 40 0 41 1;
#X connect 40 0 28 1;
#X connect 42 0 15 0;
#X connect 43 0 15 0;
#X restore 884 501 pd ml_voice;
#X obj 517 345 change;
#X floatatom 744 243 5 0 0 0 - - -;
#X obj 515 376 t b;
#X msg 515 402 0;
#X obj 515 430 s reset;
#X obj 153 273 pak 0 0 0 0 0 0 0 0;
#X obj 153 303 s t_ctrl;
#X connect 0 0 3 0;
#X connect 1 0 4 0;
#X connect 3 0 2 0;
#X connect 4 0 2 1;
#X connect 5 0 4 1;
#X connect 5 0 3 1;
#X connect 6 0 40 0;
#X connect 7 0 40 1;
#X connect 8 0 40 2;
#X connect 9 0 40 3;
#X connect 10 0 3 1;
#X connect 10 0 4 1;
#X connect 11 0 40 4;
#X connect 12 0 40 5;
#X connect 13 0 40 6;
#X connect 14 0 40 7;
#X connect 16 0 17 1;
#X connect 17 0 28 0;
#X connect 17 1 29 1;
#X connect 17 2 34 1;
#X connect 18 0 19 0;
#X connect 19 0 17 0;
#X connect 19 0 31 0;
#X connect 19 0 32 0;
#X connect 19 0 35 0;
#X connect 21 0 22 0;
#X connect 22 0 15 0;
#X connect 30 0 31 1;
#X connect 31 1 29 0;
#X connect 31 2 34 0;
#X connect 32 1 29 2;
#X connect 32 2 34 2;
#X connect 33 0 32 1;
#X connect 35 0 37 0;
#X connect 36 0 19 0;
#X connect 37 0 38 0;
#X connect 38 0 39 0;
#X connect 40 0 41 0;
