#N canvas 169 276 1751 902 12;
#X msg 838 230 help;
#X msg 805 166 mode 1;
#X msg 837 253 train;
#X msg 993 112 num_hidden 7;
#X msg 994 136 min_epochs 300;
#X msg 993 161 max_epochs 400;
#X obj 572 205 list trim;
#X obj 125 234 list prepend add;
#X obj 125 256 list trim;
#X obj 572 183 list prepend map;
#X obj 790 76 loadbang;
#X obj 557 11 inlet;
#X msg 154 415 write /Users/mikst/test3.data;
#X obj 645 331 ml.ann;
#X obj 793 420 route read train;
#X obj 847 461 sel 0 1;
#X obj 790 100 t b b;
#X obj 793 445 sel 1;
#X msg 125 355 read /Users/inx/Documents/_bela/test3.data;
#X msg 139 384 read /Users/inx/Documents/_bela/test2.data;
#X msg 874 166 num_outputs 8;
#X obj 409 38 + 1;
#X obj 125 205 list prepend;
#X obj 58 100 loadbang;
#X obj 57 135 pak 0 0 0 0 0 0 0 0;
#X msg 870 488 1;
#X obj 500 100 gate 2 1;
#X obj 351 138 tgl 15 0 empty empty empty 17 7 0 10 -262144 -1 -1 0
1;
#X obj 354 161 gate;
#X obj 571 159 gate;
#N canvas 253 23 1128 769 testSynth 0;
#X obj 416 601 throw~ outL;
#X obj 526 599 throw~ outR;
#X obj 261 429 *~ 0;
#X obj 412 422 *~ 0;
#X obj 547 419 *~ 0;
#X obj 712 433 *~ 0;
#X obj 603 360 * 0.25;
#X obj 755 352 * 0.25;
#X obj 480 34 inlet;
#X obj 480 67 unpack 0 0 0 0 0 0 0 0;
#X obj 234 338 osc~ 232;
#X obj 385 331 osc~ 356;
#X obj 455 341 * 0.25;
#X obj 305 358 * 0.25;
#X obj 584 31 inlet;
#X obj 245 83 r reset;
#X obj 386 299 + 356;
#X obj 386 271 * 300;
#X obj 533 310 + 621;
#X obj 533 282 * 500;
#X obj 532 340 osc~ 621;
#X obj 684 314 + 732;
#X obj 685 342 osc~ 732;
#X obj 683 285 * 700;
#X obj 234 303 + 132;
#X obj 234 275 * 400;
#X connect 2 0 0 0;
#X connect 2 0 1 0;
#X connect 3 0 0 0;
#X connect 3 0 1 0;
#X connect 4 0 0 0;
#X connect 4 0 1 0;
#X connect 5 0 0 0;
#X connect 5 0 1 0;
#X connect 6 0 4 1;
#X connect 7 0 5 1;
#X connect 8 0 9 0;
#X connect 9 0 25 0;
#X connect 9 1 13 0;
#X connect 9 2 17 0;
#X connect 9 3 12 0;
#X connect 9 4 19 0;
#X connect 9 5 6 0;
#X connect 9 6 23 0;
#X connect 9 7 7 0;
#X connect 10 0 2 0;
#X connect 11 0 3 0;
#X connect 12 0 3 1;
#X connect 13 0 2 1;
#X connect 14 0 9 0;
#X connect 15 0 13 0;
#X connect 15 0 12 0;
#X connect 15 0 6 0;
#X connect 15 0 7 0;
#X connect 16 0 11 0;
#X connect 17 0 16 0;
#X connect 18 0 20 0;
#X connect 19 0 18 0;
#X connect 20 0 4 0;
#X connect 21 0 22 0;
#X connect 22 0 5 0;
#X connect 23 0 21 0;
#X connect 24 0 10 0;
#X connect 25 0 24 0;
#X restore 599 416 pd testSynth;
#X msg 1363 438 read /root/training_testSynth.data;
#X msg 1296 462 write /root/training_testSynth.data;
#X obj 287 77 print ml_mode:;
#X obj 1340 145 int;
#X obj 1391 143 int;
#X msg 1164 563 train;
#X text 1264 357 0 map 1 train;
#X obj 1259 20 r ml_control;
#X obj 1336 277 s \$0-ml_mode;
#X obj 409 9 r \$0-ml_mode;
#X obj 1388 249 s \$0-ml_sensor;
#X obj 351 111 r \$0-ml_sensor;
#X obj 796 389 print ann_testSynth;
#X obj 1259 50 route 1;
#X obj 1340 114 route mode sensor write read train clear;
#X msg 1603 169 clear;
#X obj 1259 80 route t_ctrl;
#X obj 1212 151 s \$0-t_ctrl;
#X obj 679 387 r \$0-t_ctrl;
#X obj 1164 540 t b b;
#X msg 1212 537 0;
#X obj 541 447 s ctrl_data;
#X obj 217 134 r \$0-t_ctrl;
#X obj 1605 141 t b b;
#X msg 1659 175 0;
#X connect 0 0 13 0;
#X connect 1 0 13 0;
#X connect 2 0 13 0;
#X connect 6 0 13 0;
#X connect 7 0 8 0;
#X connect 8 0 13 0;
#X connect 9 0 6 0;
#X connect 10 0 16 0;
#X connect 11 0 26 1;
#X connect 12 0 13 0;
#X connect 13 0 30 0;
#X connect 13 0 52 0;
#X connect 13 1 14 0;
#X connect 13 1 43 0;
#X connect 14 0 17 0;
#X connect 14 1 15 0;
#X connect 15 1 25 0;
#X connect 16 0 31 0;
#X connect 16 1 1 0;
#X connect 16 1 20 0;
#X connect 17 0 50 0;
#X connect 18 0 13 0;
#X connect 19 0 13 0;
#X connect 20 0 13 0;
#X connect 21 0 26 0;
#X connect 21 0 33 0;
#X connect 22 0 7 0;
#X connect 23 0 24 0;
#X connect 24 0 22 1;
#X connect 25 0 29 0;
#X connect 26 0 29 1;
#X connect 26 1 28 1;
#X connect 27 0 28 0;
#X connect 28 0 22 0;
#X connect 29 0 9 0;
#X connect 31 0 13 0;
#X connect 32 0 13 0;
#X connect 34 0 39 0;
#X connect 35 0 41 0;
#X connect 36 0 13 0;
#X connect 38 0 44 0;
#X connect 40 0 21 0;
#X connect 42 0 27 0;
#X connect 44 0 47 0;
#X connect 45 0 34 0;
#X connect 45 1 35 0;
#X connect 45 2 32 0;
#X connect 45 3 31 0;
#X connect 45 4 50 0;
#X connect 45 5 54 0;
#X connect 46 0 13 0;
#X connect 47 0 48 0;
#X connect 47 1 45 0;
#X connect 49 0 30 1;
#X connect 50 0 36 0;
#X connect 50 1 51 0;
#X connect 51 0 29 0;
#X connect 53 0 22 1;
#X connect 54 0 46 0;
#X connect 54 1 55 0;
#X connect 55 0 29 0;
