#N canvas -146 23 1436 855 12;
#X msg 653 204 help;
#X msg 620 140 mode 1;
#X msg 652 227 train;
#X obj 448 215 list trim;
#X obj 125 234 list prepend add;
#X obj 125 256 list trim;
#X obj 448 193 list prepend map;
#X obj 605 50 loadbang;
#X obj 557 11 inlet;
#X obj 442 299 ml.ann;
#X obj 613 431 route read train;
#X obj 667 472 sel 0 1;
#X obj 605 74 t b b;
#X obj 613 456 sel 1;
#X obj 409 38 + 1;
#X obj 125 205 list prepend;
#X obj 126 29 loadbang;
#X msg 690 499 1;
#X obj 351 138 tgl 15 0 empty empty empty 17 7 0 10 -262144 -1 -1 0
1;
#X obj 354 161 gate;
#X obj 447 169 gate;
#N canvas 253 23 1128 769 testSynth 0;
#X obj 416 601 throw~ outL;
#X obj 526 599 throw~ outR;
#X obj 394 412 *~ 0;
#X obj 551 415 *~ 0;
#X obj 426 44 inlet;
#X obj 524 324 osc~ 356;
#X obj 594 334 * 0.25;
#X obj 438 341 * 0.25;
#X obj 530 41 inlet;
#X obj 245 83 r reset;
#X obj 525 264 * 1000;
#X obj 367 321 osc~ 132;
#X obj 367 286 + 100;
#X obj 525 292 + 100;
#X obj 426 77 unpack 0 0 0 0;
#X obj 367 258 * 1000;
#X connect 2 0 0 0;
#X connect 2 0 1 0;
#X connect 3 0 0 0;
#X connect 3 0 1 0;
#X connect 4 0 14 0;
#X connect 5 0 3 0;
#X connect 6 0 3 1;
#X connect 7 0 2 1;
#X connect 8 0 14 0;
#X connect 9 0 7 0;
#X connect 9 0 6 0;
#X connect 10 0 13 0;
#X connect 11 0 2 0;
#X connect 12 0 11 0;
#X connect 13 0 5 0;
#X connect 14 0 15 0;
#X connect 14 1 7 0;
#X connect 14 2 10 0;
#X connect 14 3 6 0;
#X connect 15 0 12 0;
#X restore 419 427 pd testSynth;
#X obj 287 77 print ml_mode:;
#X obj 1032 168 int;
#X obj 1083 166 int;
#X msg 744 498 train;
#X obj 951 43 r ml_control;
#X obj 1028 300 s \$0-ml_mode;
#X obj 409 9 r \$0-ml_mode;
#X obj 1080 272 s \$0-ml_sensor;
#X obj 351 111 r \$0-ml_sensor;
#X obj 616 400 print ann_testSynth;
#X obj 951 73 route 1;
#X obj 1032 137 route mode sensor write read train clear;
#X msg 1258 293 clear;
#X obj 951 103 route t_ctrl;
#X obj 919 157 s \$0-t_ctrl;
#X obj 499 398 r \$0-t_ctrl;
#X obj 744 475 t b b;
#X msg 792 472 0;
#X obj 361 458 s ctrl_data;
#X obj 206 143 r \$0-t_ctrl;
#X obj 1260 265 t b b;
#X msg 1314 299 0;
#X obj 919 134 8to4pack;
#X msg 126 56 0 0 0 0;
#X msg 689 140 num_outputs 4;
#X msg 1176 389 read /root/training_testSynth_out4.data;
#X obj 472 82 gate 2;
#X msg 1126 414 write /root/training_testSynth_out4.data;
#X connect 0 0 9 0;
#X connect 1 0 9 0;
#X connect 2 0 9 0;
#X connect 3 0 9 0;
#X connect 4 0 5 0;
#X connect 5 0 9 0;
#X connect 6 0 3 0;
#X connect 7 0 12 0;
#X connect 8 0 48 1;
#X connect 9 0 21 0;
#X connect 9 0 40 0;
#X connect 9 1 10 0;
#X connect 9 1 31 0;
#X connect 10 0 13 0;
#X connect 10 1 11 0;
#X connect 11 1 17 0;
#X connect 12 0 47 0;
#X connect 12 1 1 0;
#X connect 12 1 46 0;
#X connect 13 0 38 0;
#X connect 14 0 22 0;
#X connect 14 0 48 0;
#X connect 15 0 4 0;
#X connect 16 0 45 0;
#X connect 17 0 20 0;
#X connect 18 0 19 0;
#X connect 19 0 15 0;
#X connect 20 0 6 0;
#X connect 23 0 27 0;
#X connect 24 0 29 0;
#X connect 25 0 9 0;
#X connect 26 0 32 0;
#X connect 28 0 14 0;
#X connect 30 0 18 0;
#X connect 32 0 35 0;
#X connect 33 0 23 0;
#X connect 33 1 24 0;
#X connect 33 2 49 0;
#X connect 33 3 47 0;
#X connect 33 4 38 0;
#X connect 33 5 42 0;
#X connect 34 0 9 0;
#X connect 35 0 44 0;
#X connect 35 1 33 0;
#X connect 37 0 21 1;
#X connect 38 0 25 0;
#X connect 38 1 39 0;
#X connect 39 0 20 0;
#X connect 41 0 15 1;
#X connect 42 0 34 0;
#X connect 42 1 43 0;
#X connect 43 0 20 0;
#X connect 44 0 36 0;
#X connect 45 0 15 1;
#X connect 46 0 9 0;
#X connect 47 0 9 0;
#X connect 48 0 20 1;
#X connect 48 1 19 1;
#X connect 49 0 9 0;
