#N canvas 92 62 1348 816 12;
#X msg 812 255 help;
#X msg 805 166 mode 1;
#X msg 811 278 train;
#X msg 459 253 clear;
#X msg 791 594 train;
#X msg 993 112 num_hidden 7;
#X msg 994 136 min_epochs 300;
#X msg 993 161 max_epochs 400;
#X obj 977 291 r mlp;
#X obj 572 205 list trim;
#X obj 125 234 list prepend add;
#X obj 125 256 list trim;
#X obj 572 183 list prepend map;
#X obj 790 76 loadbang;
#X obj 557 11 inlet;
#X msg 154 415 write /Users/mikst/test3.data;
#X obj 666 334 ml.ann;
#X obj 791 619 s mlp;
#X obj 793 420 route read train;
#X obj 847 461 sel 0 1;
#X obj 790 100 t b b;
#X obj 793 445 sel 1;
#X obj 849 618 print trained in;
#X obj 791 569 t b b;
#X obj 807 534 bng 15 250 50 0 empty empty empty 17 7 0 10 -262144
-1 -1;
#X msg 125 355 read /Users/inx/Documents/_bela/test3.data;
#X msg 139 384 read /Users/inx/Documents/_bela/test2.data;
#X obj 808 396 print ann;
#X obj 976 322 route read write;
#X msg 874 166 num_outputs 8;
#X obj 383 55 + 1;
#X obj 125 205 list prepend;
#X obj 58 100 loadbang;
#X obj 57 135 pak 0 0 0 0 0 0 0 0;
#X obj 849 592 realtime;
#X msg 848 504 1;
#X obj 500 100 gate 2 1;
#X obj 436 200 sel 1 0;
#X obj 351 138 tgl 15 0 empty empty empty 17 7 0 10 -262144 -1 -1 0
1;
#X obj 351 111 r ml_sensor;
#X obj 354 161 gate;
#X obj 571 159 gate;
#N canvas 253 23 1128 769 testSynth 0;
#X obj 416 601 throw~ outL;
#X obj 526 599 throw~ outR;
#X obj 261 429 *~ 0;
#X obj 412 422 *~ 0;
#X obj 547 419 *~ 0;
#X obj 712 433 *~ 0;
#X obj 603 360 * 0.25;
#X obj 755 352 * 0.25;
#X obj 480 34 inlet;
#X obj 480 67 unpack 0 0 0 0 0 0 0 0;
#X obj 234 338 osc~ 232;
#X obj 385 331 osc~ 356;
#X obj 455 341 * 0.25;
#X obj 305 358 * 0.25;
#X obj 584 31 inlet;
#X obj 245 83 r reset;
#X obj 386 299 + 356;
#X obj 386 271 * 300;
#X obj 533 310 + 621;
#X obj 533 282 * 500;
#X obj 532 340 osc~ 621;
#X obj 684 314 + 732;
#X obj 685 342 osc~ 732;
#X obj 683 285 * 700;
#X obj 234 303 + 132;
#X obj 234 275 * 400;
#X connect 2 0 0 0;
#X connect 2 0 1 0;
#X connect 3 0 0 0;
#X connect 3 0 1 0;
#X connect 4 0 0 0;
#X connect 4 0 1 0;
#X connect 5 0 0 0;
#X connect 5 0 1 0;
#X connect 6 0 4 1;
#X connect 7 0 5 1;
#X connect 8 0 9 0;
#X connect 9 0 25 0;
#X connect 9 1 13 0;
#X connect 9 2 17 0;
#X connect 9 3 12 0;
#X connect 9 4 19 0;
#X connect 9 5 6 0;
#X connect 9 6 23 0;
#X connect 9 7 7 0;
#X connect 10 0 2 0;
#X connect 11 0 3 0;
#X connect 12 0 3 1;
#X connect 13 0 2 1;
#X connect 14 0 9 0;
#X connect 15 0 13 0;
#X connect 15 0 12 0;
#X connect 15 0 6 0;
#X connect 15 0 7 0;
#X connect 16 0 11 0;
#X connect 17 0 16 0;
#X connect 18 0 20 0;
#X connect 19 0 18 0;
#X connect 20 0 4 0;
#X connect 21 0 22 0;
#X connect 22 0 5 0;
#X connect 23 0 21 0;
#X connect 24 0 10 0;
#X connect 25 0 24 0;
#X restore 599 416 pd testSynth;
#X msg 976 349 read /root/training_testSynth.data;
#X msg 1031 376 write /root/training_testSynth.data;
#X obj 383 29 inlet;
#X obj 780 20 inlet;
#X connect 0 0 16 0;
#X connect 1 0 16 0;
#X connect 2 0 16 0;
#X connect 3 0 16 0;
#X connect 4 0 17 0;
#X connect 8 0 28 0;
#X connect 9 0 16 0;
#X connect 10 0 11 0;
#X connect 11 0 16 0;
#X connect 12 0 9 0;
#X connect 13 0 20 0;
#X connect 14 0 36 1;
#X connect 15 0 16 0;
#X connect 16 0 42 0;
#X connect 16 1 18 0;
#X connect 16 1 27 0;
#X connect 18 0 21 0;
#X connect 18 1 19 0;
#X connect 19 1 34 1;
#X connect 19 1 35 0;
#X connect 20 0 43 0;
#X connect 20 1 1 0;
#X connect 20 1 29 0;
#X connect 21 0 23 0;
#X connect 23 0 4 0;
#X connect 23 1 34 0;
#X connect 24 0 23 0;
#X connect 25 0 16 0;
#X connect 26 0 16 0;
#X connect 28 0 43 0;
#X connect 28 1 44 0;
#X connect 28 2 16 0;
#X connect 29 0 16 0;
#X connect 30 0 36 0;
#X connect 31 0 10 0;
#X connect 32 0 33 0;
#X connect 33 0 31 1;
#X connect 34 0 22 0;
#X connect 35 0 41 0;
#X connect 36 0 41 1;
#X connect 36 1 40 1;
#X connect 37 0 3 0;
#X connect 38 0 40 0;
#X connect 39 0 38 0;
#X connect 40 0 31 0;
#X connect 41 0 12 0;
#X connect 43 0 16 0;
#X connect 44 0 16 0;
#X connect 45 0 30 0;
#X connect 45 0 37 0;
#X connect 46 0 42 1;
#X connect 46 0 31 1;
