#N canvas 4 23 460 362 12;
#X obj 28 150 abs;
#X obj 28 177 min 1;
#X obj 29 125 scale 0 1 0 1;
#X obj 46 99 f;
#X obj 29 19 inlet;
#X obj 79 18 inlet;
#X obj 28 254 outlet;
#X obj 28 227 max 0;
#X obj 28 202 scale 0.05 1 0 1;
#X connect 0 0 1 0;
#X connect 1 0 8 0;
#X connect 2 0 0 0;
#X connect 3 0 2 1;
#X connect 4 0 3 0;
#X connect 5 0 3 1;
#X connect 5 0 2 0;
#X connect 7 0 6 0;
#X connect 8 0 7 0;
