#N canvas 441 23 1087 685 12;
#X obj 317 599 throw~ outL;
#X obj 407 598 throw~ outR;
#X obj 480 34 inlet;
#X obj 583 35 inlet;
#X obj 427 309 unpack f f f f f f f f f;
#X obj 344 426 bp~ 0 0;
#X obj 438 423 bp~ 0 0;
#X obj 344 457 hip~ 50;
#X obj 538 421 bp~ 0 0;
#X floatatom 528 184 5 0 0 0 - - -;
#X obj 352 363 line;
#X obj 403 363 line;
#X obj 455 363 line;
#X obj 508 364 line;
#X obj 560 365 line;
#X obj 614 364 line;
#X obj 344 566 *~ 0.8;
#X obj 193 258 phasor~;
#X obj 194 348 lop~ 5000;
#X text 467 224 a;
#X text 526 228 e;
#X text 604 231 o;
#X text 710 234 u;
#X msg 614 340 \$1 500;
#X msg 560 340 \$1 500;
#X msg 508 340 \$1 500;
#X msg 455 339 \$1 500;
#X msg 403 339 \$1 500;
#X msg 352 339 \$1 500;
#X floatatom 530 113 5 0 1 0 - - -;
#X floatatom 699 433 5 0 1 0 - - -;
#X obj 845 408 change;
#X obj 845 437 t b;
#X msg 845 468 1;
#X msg 888 484 0;
#X msg 845 509 \$1 200;
#X obj 530 160 i;
#X obj 530 137 * 4;
#N canvas 72 151 450 300 formant_0 0;
#X msg 69 80 850;
#X msg 96 79 30;
#X msg 119 98 6;
#X msg 143 98 1220;
#X msg 170 116 80;
#X msg 191 126 6;
#X msg 214 138 2810;
#X msg 243 139 100;
#X msg 263 150 -4;
#X obj 107 177 pack f f f f f f f f f;
#X obj 132 1 inlet;
#X obj 98 219 outlet;
#X obj 131 42 sel 0;
#X connect 0 0 9 0;
#X connect 1 0 9 1;
#X connect 2 0 9 2;
#X connect 3 0 9 3;
#X connect 4 0 9 4;
#X connect 5 0 9 5;
#X connect 6 0 9 6;
#X connect 7 0 9 7;
#X connect 8 0 9 8;
#X connect 9 0 11 0;
#X connect 10 0 12 0;
#X connect 12 0 0 0;
#X connect 12 0 1 0;
#X connect 12 0 2 0;
#X connect 12 0 3 0;
#X connect 12 0 4 0;
#X connect 12 0 5 0;
#X connect 12 0 6 0;
#X connect 12 0 7 0;
#X connect 12 0 8 0;
#X restore 428 246 pd formant_0;
#N canvas 109 121 450 300 formant_1 0;
#X msg 96 79 30;
#X msg 170 116 80;
#X msg 243 139 100;
#X obj 107 177 pack f f f f f f f f f;
#X obj 132 1 inlet;
#X obj 98 219 outlet;
#X msg 263 150 0;
#X msg 69 80 430;
#X msg 119 98 5;
#X msg 143 98 2480;
#X msg 192 126 2;
#X msg 214 138 3070;
#X obj 131 42 sel 1;
#X connect 0 0 3 1;
#X connect 1 0 3 4;
#X connect 2 0 3 7;
#X connect 3 0 5 0;
#X connect 4 0 12 0;
#X connect 6 0 3 8;
#X connect 7 0 3 0;
#X connect 8 0 3 2;
#X connect 9 0 3 3;
#X connect 10 0 3 5;
#X connect 11 0 3 6;
#X connect 12 0 7 0;
#X connect 12 0 0 0;
#X connect 12 0 8 0;
#X connect 12 0 9 0;
#X connect 12 0 1 0;
#X connect 12 0 10 0;
#X connect 12 0 11 0;
#X connect 12 0 2 0;
#X connect 12 0 6 0;
#X restore 515 250 pd formant_1;
#N canvas 75 99 450 300 formant_2 0;
#X msg 96 79 30;
#X msg 170 116 80;
#X msg 243 139 100;
#X obj 107 177 pack f f f f f f f f f;
#X obj 132 1 inlet;
#X obj 98 219 outlet;
#X msg 69 80 590;
#X msg 119 98 7;
#X msg 143 98 920;
#X msg 192 126 3;
#X msg 214 138 2710;
#X msg 263 150 -4;
#X obj 131 42 sel 2;
#X connect 0 0 3 1;
#X connect 1 0 3 4;
#X connect 2 0 3 7;
#X connect 3 0 5 0;
#X connect 4 0 12 0;
#X connect 6 0 3 0;
#X connect 7 0 3 2;
#X connect 8 0 3 3;
#X connect 9 0 3 5;
#X connect 10 0 3 6;
#X connect 11 0 3 8;
#X connect 12 0 6 0;
#X connect 12 0 0 0;
#X connect 12 0 7 0;
#X connect 12 0 8 0;
#X connect 12 0 1 0;
#X connect 12 0 9 0;
#X connect 12 0 10 0;
#X connect 12 0 2 0;
#X connect 12 0 11 0;
#X restore 606 252 pd formant_2;
#N canvas 27 88 450 300 formant_3 0;
#X msg 96 79 30;
#X msg 170 116 80;
#X msg 243 139 100;
#X obj 107 177 pack f f f f f f f f f;
#X obj 132 1 inlet;
#X obj 98 219 outlet;
#X msg 119 98 4;
#X msg 192 126 4;
#X msg 263 150 -2;
#X msg 68 80 370;
#X msg 143 98 950;
#X msg 214 138 2670;
#X obj 131 42 sel 3;
#X connect 0 0 3 1;
#X connect 1 0 3 4;
#X connect 2 0 3 7;
#X connect 3 0 5 0;
#X connect 4 0 12 0;
#X connect 6 0 3 2;
#X connect 7 0 3 5;
#X connect 8 0 3 8;
#X connect 9 0 3 0;
#X connect 10 0 3 3;
#X connect 11 0 3 6;
#X connect 12 0 9 0;
#X connect 12 0 0 0;
#X connect 12 0 6 0;
#X connect 12 0 10 0;
#X connect 12 0 1 0;
#X connect 12 0 7 0;
#X connect 12 0 11 0;
#X connect 12 0 2 0;
#X connect 12 0 8 0;
#X restore 693 253 pd formant_3;
#X obj 739 354 > 0.3;
#X obj 740 405 gate 1;
#X obj 706 326 t f f;
#X obj 683 382 sel 0;
#X msg 683 406 0;
#X msg 699 460 \$1 100;
#X obj 763 530 switch 2 1;
#X obj 763 477 tgl 15 0 empty empty empty 17 7 0 10 -262144 -1 -1 0
1;
#X obj 763 501 + 1;
#X msg 614 500 0 100;
#X obj 698 34 inlet;
#X floatatom 172 120 5 0 1 0 - - -;
#X obj 172 142 sig~;
#X obj 211 193 +~ 100;
#X obj 172 165 *~ 300;
#X msg 272 148 7;
#X msg 306 148 113;
#X msg 340 149 221;
#X obj 193 220 +~;
#X obj 278 201 osc~ 0.2;
#X obj 227 220 *~ 0.5;
#X obj 56 59 loadbang;
#X msg 59 93 0;
#X obj 809 33 inlet;
#X obj 752 92 sel 1;
#X obj 799 92 sel 2;
#X obj 845 93 sel 3;
#X obj 888 456 del 500;
#X obj 480 64 unpack 0 0 0 0 0 0 0 0;
#X obj 694 543 line;
#X connect 2 0 70 0;
#X connect 3 0 70 0;
#X connect 4 0 28 0;
#X connect 4 1 27 0;
#X connect 4 3 26 0;
#X connect 4 4 25 0;
#X connect 4 6 24 0;
#X connect 4 7 23 0;
#X connect 5 0 7 0;
#X connect 6 0 7 0;
#X connect 7 0 16 0;
#X connect 8 0 7 0;
#X connect 9 0 38 0;
#X connect 9 0 39 0;
#X connect 9 0 40 0;
#X connect 9 0 41 0;
#X connect 9 0 31 0;
#X connect 10 0 5 1;
#X connect 11 0 5 2;
#X connect 12 0 6 1;
#X connect 13 0 6 2;
#X connect 14 0 8 1;
#X connect 15 0 8 2;
#X connect 16 0 0 0;
#X connect 16 0 1 0;
#X connect 17 0 18 0;
#X connect 18 0 5 0;
#X connect 18 0 6 0;
#X connect 18 0 8 0;
#X connect 23 0 15 0;
#X connect 24 0 14 0;
#X connect 25 0 13 0;
#X connect 26 0 12 0;
#X connect 27 0 11 0;
#X connect 28 0 10 0;
#X connect 29 0 37 0;
#X connect 30 0 47 0;
#X connect 31 0 32 0;
#X connect 32 0 33 0;
#X connect 32 0 69 0;
#X connect 33 0 35 0;
#X connect 34 0 35 0;
#X connect 35 0 48 2;
#X connect 36 0 9 0;
#X connect 37 0 36 0;
#X connect 38 0 4 0;
#X connect 39 0 4 0;
#X connect 40 0 4 0;
#X connect 41 0 4 0;
#X connect 42 0 43 0;
#X connect 42 0 45 0;
#X connect 43 0 30 0;
#X connect 44 0 43 1;
#X connect 44 1 42 0;
#X connect 45 0 46 0;
#X connect 46 0 30 0;
#X connect 47 0 48 1;
#X connect 48 0 71 0;
#X connect 49 0 50 0;
#X connect 50 0 48 0;
#X connect 51 0 71 0;
#X connect 52 0 49 0;
#X connect 53 0 54 0;
#X connect 54 0 56 0;
#X connect 55 0 60 0;
#X connect 56 0 55 0;
#X connect 57 0 55 1;
#X connect 58 0 55 1;
#X connect 59 0 55 1;
#X connect 60 0 17 0;
#X connect 61 0 62 0;
#X connect 62 0 60 1;
#X connect 63 0 64 0;
#X connect 63 0 51 0;
#X connect 64 0 37 0;
#X connect 64 0 54 0;
#X connect 65 0 66 0;
#X connect 65 0 67 0;
#X connect 65 0 68 0;
#X connect 66 0 57 0;
#X connect 67 0 58 0;
#X connect 68 0 59 0;
#X connect 69 0 34 0;
#X connect 70 0 54 0;
#X connect 70 1 37 0;
#X connect 70 2 44 0;
#X connect 71 0 16 1;
