#N canvas 246 253 938 636 12;
#X obj 532 22 loadbang;
#X obj 532 86 send toGUI;
#X obj 45 28 receive fromGUI;
#X obj 45 67 list trim;
#X obj 45 342 send toGUI;
#X obj 378 284 netreceive -u -b;
#X msg 357 254 listen 0;
#X obj 378 323 oscparse;
#X obj 460 209 loadbang;
#X obj 378 362 list trim;
#X msg 433 254 listen 51555;
#X obj 378 440 route sensor;
#X obj 725 287 list prepend /myMultiSlider;
#X obj 725 249 pack 0 0 0 0 0 0 0 0;
#X obj 725 325 send toGUI;
#X obj 725 173 random 100;
#X obj 725 211 / 100;
#X obj 811 173 random 100;
#X obj 811 197 / 100;
#X obj 378 479 list prepend /myMultiSlider;
#X obj 378 518 send toGUI;
#X obj 378 401 route 192.168.0.1;
#X msg 277 356 symbol \$2;
#X msg 503 359 symbol 192.168.0.181;
#X msg 128 567 0.277359 0.3974 0.403809 0.40033;
#X obj 129 520 list prepend set;
#X obj 128 543 list trim;
#X obj 129 496 spigot;
#X obj 172 463 tgl 15 0 empty empty empty 17 7 0 10 -262144 -1 -1 0
1;
#X obj 782 128 bng 15 250 50 0 empty empty empty 17 7 0 10 -262144
-1 -1;
#X msg 72 290 list /recvToggle 1;
#X obj 357 181 sel 0 1;
#X obj 72 191 t b;
#X obj 45 106 route /myMenu /recvToggle;
#X obj 357 154 i;
#X msg 45 145 list /deviceLabel device: \$2;
#X msg 532 48 list /myMenu 192.168.0.45 192.168.0.181 192.168.0.182
192.168.0.183;
#X connect 0 0 36 0;
#X connect 2 0 3 0;
#X connect 3 0 33 0;
#X connect 5 0 7 0;
#X connect 6 0 5 0;
#X connect 7 0 9 0;
#X connect 8 0 10 0;
#X connect 9 0 21 0;
#X connect 10 0 5 0;
#X connect 11 0 19 0;
#X connect 11 0 27 0;
#X connect 12 0 14 0;
#X connect 13 0 12 0;
#X connect 15 0 16 0;
#X connect 16 0 13 0;
#X connect 17 0 18 0;
#X connect 18 0 13 1;
#X connect 19 0 20 0;
#X connect 21 0 11 0;
#X connect 22 0 21 1;
#X connect 23 0 21 1;
#X connect 25 0 26 0;
#X connect 26 0 24 0;
#X connect 27 0 25 0;
#X connect 28 0 27 1;
#X connect 29 0 15 0;
#X connect 29 0 17 0;
#X connect 30 0 4 0;
#X connect 31 0 6 0;
#X connect 31 1 10 0;
#X connect 32 0 10 0;
#X connect 32 0 30 0;
#X connect 33 0 35 0;
#X connect 33 0 22 0;
#X connect 33 0 32 0;
#X connect 33 1 34 0;
#X connect 34 0 31 0;
#X connect 35 0 4 0;
#X connect 36 0 1 0;
