#N canvas 349 134 1241 785 12;
#X declare -path ../_common;
#X obj 136 414 catch~ outL;
#X obj 197 438 catch~ outR;
#X obj 150 516 dac~;
#X obj 602 83 main;
#X obj 136 477 *~ 1;
#X obj 185 479 *~ 1;
#X msg 308 447 1;
#X obj 101 87 vsl 15 128 0 1 0 0 empty empty empty 0 -9 0 10 -262144
-1 -1 0 1;
#X obj 133 87 vsl 15 128 0 1 0 0 empty empty empty 0 -9 0 10 -262144
-1 -1 0 1;
#X obj 166 87 vsl 15 128 0 1 0 0 empty empty empty 0 -9 0 10 -262144
-1 -1 0 1;
#X obj 195 87 vsl 15 128 0 1 0 0 empty empty empty 0 -9 0 10 -262144
-1 -1 0 1;
#X obj 268 395 r volume;
#X obj 59 234 s ctrl1;
#X obj 116 234 s ctrl2;
#X obj 177 234 s ctrl3;
#X obj 235 234 s ctrl4;
#X obj 227 87 vsl 15 128 0 1 0 0 empty empty empty 0 -9 0 10 -262144
-1 -1 0 1;
#X obj 259 87 vsl 15 128 0 1 0 0 empty empty empty 0 -9 0 10 -262144
-1 -1 0 1;
#X obj 292 87 vsl 15 128 0 1 0 0 empty empty empty 0 -9 0 10 -262144
-1 -1 0 1;
#X obj 321 87 vsl 15 128 0 1 0 0 empty empty empty 0 -9 0 10 -262144
-1 -1 0 1;
#X obj 295 236 s ctrl5;
#X obj 352 236 s ctrl6;
#X obj 413 236 s ctrl7;
#X obj 472 236 s ctrl8;
#X obj 821 141 osccontroller 50555 239.100.100.100;
#X obj 559 493 unpack 0 0 0 0 0 0 0 0;
#X obj 544 538 s ctrl1;
#X obj 570 562 s ctrl2;
#X obj 606 590 s ctrl3;
#X obj 631 618 s ctrl4;
#X obj 652 535 s ctrl5;
#X obj 680 561 s ctrl6;
#X obj 706 587 s ctrl7;
#X obj 734 618 s ctrl8;
#X obj 981 316 r sensors;
#X obj 718 366 gate 6 1, f 38;
#X obj 718 292 r mapping_mode;
#X obj 718 329 + 1;
#X obj 821 56 init;
#X obj 995 93 r wifi_ready;
#X msg 995 118 listen 50555;
#X obj 10 10 declare -path ../_common;
#X text 577 64 synthesizer;
#X obj 770 433 ml_svm, f 7;
#X floatatom 490 365 5 0 0 0 - - -;
#X msg 448 318 24;
#X msg 484 319 30;
#X msg 526 316 49;
#N canvas 198 85 690 706 keys 0;
#X obj 134 323 pack;
#X msg 125 148 61;
#X msg 146 174 62;
#X msg 165 147 63;
#X msg 186 173 64;
#X msg 225 174 65;
#X msg 250 147 66;
#X msg 272 173 67;
#X msg 290 146 68;
#X msg 312 173 69;
#X msg 331 145 70;
#X msg 352 172 71;
#X msg 391 172 72;
#X msg 416 145 73;
#X msg 437 171 74;
#X msg 456 146 75;
#X msg 477 170 76;
#X msg 516 171 77;
#X msg 541 144 78;
#X msg 563 170 79;
#X msg 581 143 80;
#X msg 603 170 81;
#X msg 622 142 82;
#X msg 643 169 83;
#X obj 108 68 key;
#X floatatom 54 114 5 0 0 0 - - -;
#X obj 107 90 spigot;
#X obj 159 91 tgl 15 0 empty empty empty 17 7 0 10 -262144 -1 -1 0
1;
#X obj 97 114 sel 97 119 115 101 100;
#X obj 134 294 makenote 3 500;
#X msg 100 175 60;
#X obj 37 244 r res;
#X obj 141 216 pack 60 60;
#X obj 36 269 pack 60 60;
#X obj 159 451 outlet;
#X connect 0 0 34 0;
#X connect 1 0 32 0;
#X connect 2 0 32 0;
#X connect 3 0 32 0;
#X connect 4 0 32 0;
#X connect 5 0 32 0;
#X connect 6 0 32 0;
#X connect 7 0 32 0;
#X connect 8 0 32 0;
#X connect 9 0 32 0;
#X connect 10 0 32 0;
#X connect 11 0 32 0;
#X connect 12 0 32 0;
#X connect 13 0 32 0;
#X connect 14 0 32 0;
#X connect 15 0 32 0;
#X connect 16 0 32 0;
#X connect 17 0 32 0;
#X connect 18 0 32 0;
#X connect 19 0 32 0;
#X connect 20 0 32 0;
#X connect 21 0 32 0;
#X connect 22 0 32 0;
#X connect 23 0 32 0;
#X connect 24 0 25 0;
#X connect 24 0 26 0;
#X connect 26 0 28 0;
#X connect 27 0 26 1;
#X connect 28 0 30 0;
#X connect 28 1 1 0;
#X connect 28 2 2 0;
#X connect 28 3 3 0;
#X connect 28 4 4 0;
#X connect 29 0 0 0;
#X connect 29 1 0 1;
#X connect 30 0 32 0;
#X connect 31 0 33 0;
#X connect 32 0 29 0;
#X connect 33 0 29 0;
#X restore 1016 542 pd keys;
#X obj 992 584 s notes;
#X obj 1072 575 unpack 1 1;
#X obj 1071 600 s mnote;
#X obj 490 388 s note;
#X obj 821 110 oscsender;
#X obj 821 83 sensorread;
#X connect 0 0 4 0;
#X connect 1 0 5 0;
#X connect 4 0 2 0;
#X connect 5 0 2 1;
#X connect 6 0 5 1;
#X connect 6 0 4 1;
#X connect 7 0 12 0;
#X connect 8 0 13 0;
#X connect 9 0 14 0;
#X connect 10 0 15 0;
#X connect 11 0 4 1;
#X connect 11 0 5 1;
#X connect 16 0 20 0;
#X connect 17 0 21 0;
#X connect 18 0 22 0;
#X connect 19 0 23 0;
#X connect 25 0 26 0;
#X connect 25 1 27 0;
#X connect 25 2 28 0;
#X connect 25 3 29 0;
#X connect 25 4 30 0;
#X connect 25 5 31 0;
#X connect 25 6 32 0;
#X connect 25 7 33 0;
#X connect 34 0 35 1;
#X connect 35 0 25 0;
#X connect 35 1 43 0;
#X connect 36 0 37 0;
#X connect 37 0 35 0;
#X connect 39 0 40 0;
#X connect 40 0 24 0;
#X connect 44 0 52 0;
#X connect 45 0 44 0;
#X connect 46 0 44 0;
#X connect 47 0 44 0;
#X connect 48 0 49 0;
#X connect 48 0 50 0;
#X connect 50 0 51 0;
