#N canvas 746 377 1125 798 10;
#X obj 256 607 throw~ outL;
#X obj 366 605 throw~ outR;
#X obj 218 53 r ctrl1;
#X obj 306 53 r ctrl2;
#X obj 398 53 r ctrl3;
#X obj 497 53 r ctrl4;
#X obj 587 53 r ctrl5;
#X obj 675 53 r ctrl6;
#X obj 767 53 r ctrl7;
#X obj 866 53 r ctrl8;
#X obj 640 128 loadbang;
#X obj 646 256 soundfiler;
#N canvas 0 0 450 300 (subpatch) 0;
#X array sample-table_1 44104 float 0;
#X coords 0 1.02 44103 -1.02 200 130 1 0 0;
#X restore 850 138 graph;
#X obj 170 367 line~;
#X msg 646 231 read voice.wav sample-table_1;
#X obj 170 399 tabread4~ sample-table_1;
#N canvas 0 0 450 300 (subpatch) 0;
#X array sample-table_2 44104 float 0;
#X coords 0 1.02 44103 -1.02 200 130 1 0 0;
#X restore 848 295 graph;
#X msg 258 295 0 \, 44104 1000;
#N canvas 0 0 450 300 (subpatch) 0;
#X array sample-table_3 44104 float 0;
#X coords 0 1.02 44103 -1.02 200 130 1 0 0;
#X restore 849 455 graph;
#X msg 628 209 read voice2.wav sample-table_2;
#X msg 611 184 read bell.aiff sample-table_3;
#X obj 327 366 line~;
#X msg 415 294 0 \, 44104 1000;
#X obj 505 366 line~;
#X msg 593 294 0 \, 44104 1000;
#X obj 505 398 tabread4~ sample-table_3;
#X obj 327 398 tabread4~ sample-table_2;
#X obj 368 179 sel 24 30 49;
#X floatatom 76 147 5 0 0 0 - - -;
#X obj 77 51 r note;
#X connect 10 0 14 0;
#X connect 10 0 19 0;
#X connect 10 0 20 0;
#X connect 13 0 15 0;
#X connect 14 0 11 0;
#X connect 15 0 0 0;
#X connect 15 0 1 0;
#X connect 17 0 13 0;
#X connect 19 0 11 0;
#X connect 20 0 11 0;
#X connect 21 0 26 0;
#X connect 22 0 21 0;
#X connect 23 0 25 0;
#X connect 24 0 23 0;
#X connect 25 0 0 0;
#X connect 25 0 1 0;
#X connect 26 0 0 0;
#X connect 26 0 1 0;
#X connect 27 0 17 0;
#X connect 27 1 22 0;
#X connect 27 2 24 0;
#X connect 29 0 27 0;
#X connect 29 0 28 0;
