#N canvas 190 58 1232 758 12;
#X floatatom 235 97 5 0 0 0 - - -;
#X obj 62 86 slipdec;
#X obj 62 115 oscparse;
#X obj 27 20 inlet;
#X obj 74 340 int;
#X obj 125 338 int;
#X obj 176 453 s mlp;
#X obj 57 549 print set_train;
#X obj 125 513 print set_sensor;
#X obj 315 209 route volume;
#X obj 278 397 t b;
#X msg 278 420 train;
#X obj 206 178 route ml audio sensor ctrl, f 63;
#X obj 315 237 f;
#X obj 315 265 s volume;
#X obj 534 373 f;
#X obj 584 373 f;
#X obj 634 373 f;
#X obj 684 373 f;
#X obj 74 309 route train sensor write read dotrain;
#X obj 49 524 s ml_train;
#X obj 121 487 s ml_sensor;
#X obj 62 58 netreceive -b \$1;
#X obj 423 91 slipenc 65536;
#X obj 423 63 oscformat bela;
#X obj 534 407 s ctrl1;
#X obj 595 407 s ctrl2;
#X obj 655 407 s ctrl3;
#X obj 719 407 s ctrl4;
#X obj 782 372 f;
#X obj 832 372 f;
#X obj 882 372 f;
#X obj 932 372 f;
#X obj 782 406 s ctrl5;
#X obj 843 406 s ctrl6;
#X obj 903 406 s ctrl7;
#X obj 967 406 s ctrl8;
#X obj 176 122 print clients connected;
#X obj 38 199 print osccontroller;
#X obj 633 43 loadbang;
#X obj 633 77 i \$1;
#X obj 633 111 print controller listen on port;
#X obj 99 148 list trim;
#X obj 530 580 s log_control_values;
#X obj 530 543 i;
#X obj 424 238 i;
#X obj 465 239 i;
#X obj 483 274 s sensor_or_ctrl;
#X obj 418 300 s sensor_on;
#X obj 530 471 route log send;
#X obj 577 531 s ctrl_send;
#X obj 577 503 i;
#X obj 425 209 route on switch send;
#X obj 630 259 s sensor_send;
#X obj 616 223 i;
#X msg 176 339 write;
#X msg 227 363 read;
#X obj 534 339 route ctrl1 ctrl2 ctrl3 ctrl4 ctrl5 ctrl6 ctrl7 ctrl8
note;
#X obj 987 372 i;
#X obj 1028 408 s note;
#X connect 1 0 2 0;
#X connect 2 0 38 0;
#X connect 2 0 42 0;
#X connect 3 0 22 0;
#X connect 4 0 7 0;
#X connect 4 0 20 0;
#X connect 5 0 8 0;
#X connect 5 0 21 0;
#X connect 9 0 13 0;
#X connect 10 0 11 0;
#X connect 11 0 6 0;
#X connect 12 0 19 0;
#X connect 12 1 9 0;
#X connect 12 2 52 0;
#X connect 12 3 57 0;
#X connect 13 0 14 0;
#X connect 15 0 25 0;
#X connect 16 0 26 0;
#X connect 17 0 27 0;
#X connect 18 0 28 0;
#X connect 19 0 4 0;
#X connect 19 1 5 0;
#X connect 19 2 55 0;
#X connect 19 3 56 0;
#X connect 19 4 10 0;
#X connect 22 0 1 0;
#X connect 22 1 0 0;
#X connect 22 1 37 0;
#X connect 24 0 23 0;
#X connect 29 0 33 0;
#X connect 30 0 34 0;
#X connect 31 0 35 0;
#X connect 32 0 36 0;
#X connect 39 0 40 0;
#X connect 40 0 41 0;
#X connect 42 0 12 0;
#X connect 44 0 43 0;
#X connect 45 0 48 0;
#X connect 46 0 47 0;
#X connect 49 0 44 0;
#X connect 49 1 51 0;
#X connect 51 0 50 0;
#X connect 52 0 45 0;
#X connect 52 1 46 0;
#X connect 52 2 54 0;
#X connect 54 0 53 0;
#X connect 55 0 6 0;
#X connect 56 0 6 0;
#X connect 57 0 15 0;
#X connect 57 1 16 0;
#X connect 57 2 17 0;
#X connect 57 3 18 0;
#X connect 57 4 29 0;
#X connect 57 5 30 0;
#X connect 57 6 31 0;
#X connect 57 7 32 0;
#X connect 57 8 58 0;
#X connect 57 9 49 0;
#X connect 58 0 59 0;
