#N canvas 194 262 1118 765 12;
#X obj 108 94 - 1;
#X obj 107 118 abs;
#X obj 230 25 inlet;
#X obj 53 27 inlet;
#X obj 228 275 outlet;
#X obj 69 268 outlet;
#X obj 71 148 spigot 1;
#X obj 240 154 spigot;
#X connect 0 0 1 0;
#X connect 1 0 6 1;
#X connect 2 0 6 0;
#X connect 2 0 7 0;
#X connect 3 0 0 0;
#X connect 3 0 7 1;
#X connect 6 0 5 0;
#X connect 7 0 4 0;
