#N canvas 233 23 1027 855 10;
#X obj 101 102 unpack f f f f f f f f f;
#X obj -138 301 bp~ 0 0;
#X obj 9 308 bp~ 0 0;
#X obj 7 474 hip~ 50;
#X obj 207 310 bp~ 0 0;
#X obj 568 -60 snapshot~;
#X obj 564 -116 loadbang;
#X obj 569 -13 int;
#X obj 321 -10 send number;
#X obj 168 -67 r number;
#X floatatom 169 -33 5 0 0 0 - - -;
#X obj 634 -88 adc~ 6;
#X obj 570 -35 * 26;
#X obj 568 11 - 8;
#X obj 26 156 line;
#X obj 77 156 line;
#X obj 129 156 line;
#X obj 182 157 line;
#X obj 234 158 line;
#X obj 288 157 line;
#X obj 565 -93 metro 10;
#X obj 677 174 adc~ 3;
#N canvas 805 583 450 300 rechteck 0;
#X obj -18 96 * -1;
#X msg 54 99 0;
#X obj -76 139 phasor~;
#X obj 25 137 phasor~;
#X msg 103 99 0.5;
#X obj -37 204 -~ 1;
#X obj -38 177 +~;
#X obj 69 51 loadbang;
#X obj -169 58 *~ 500;
#X obj -43 242 *~ 0.7;
#X obj -61 66 snapshot~;
#X obj -84 5 loadbang;
#X obj -85 32 metro 10;
#X obj -192 12 inlet~;
#X obj 76 234 outlet~;
#X connect 0 0 3 0;
#X connect 1 0 2 1;
#X connect 2 0 6 0;
#X connect 3 0 6 1;
#X connect 4 0 3 1;
#X connect 5 0 9 0;
#X connect 6 0 5 0;
#X connect 7 0 1 0;
#X connect 7 0 4 0;
#X connect 8 0 2 0;
#X connect 9 0 14 0;
#X connect 10 0 0 0;
#X connect 11 0 12 0;
#X connect 12 0 10 0;
#X connect 13 0 8 0;
#X connect 13 0 10 0;
#X restore -214 82 pd rechteck;
#X text 626 1010 Johannes Kreidler;
#X text 622 1034 www.pd-tutorial.com;
#X obj -5 639 dac~;
#X obj 6 525 *~ 0.8;
#N canvas 374 276 450 300 additiv 0;
#X obj -407 13 osc~ 200;
#X obj -342 14 osc~ 400;
#X obj -315 75 *~;
#X obj -471 39 noise~;
#X obj -280 -20 osc~ 100;
#X obj -210 4 osc~ 201;
#X obj -459 83 *~ 0.3;
#X obj -177 99 outlet~;
#X obj -402 -37 +~ 200;
#X obj -276 -57 +~ 100;
#X obj -174 -44 +~ 300;
#X obj -299 -99 inlet~;
#X connect 0 0 2 0;
#X connect 1 0 2 0;
#X connect 2 0 7 0;
#X connect 3 0 6 0;
#X connect 4 0 2 1;
#X connect 5 0 2 1;
#X connect 8 0 0 0;
#X connect 9 0 4 0;
#X connect 10 0 5 0;
#X connect 11 0 1 0;
#X connect 11 0 8 0;
#X connect 11 0 9 0;
#X connect 11 0 10 0;
#X restore -214 108 pd additiv;
#X obj -135 123 phasor~;
#X obj -137 237 lop~ 5000;
#X text 141 17 a;
#X text 200 21 e;
#X text 278 24 o;
#X text 384 27 u;
#X obj 647 13 adc~ 4;
#X obj 626 43 snapshot~;
#X obj 626 -36 loadbang;
#X obj 626 67 * -1;
#X obj 626 90 + 1;
#X obj 626 112 - 0.5;
#X obj 626 134 * 5;
#X obj 626 159 > 0;
#X obj 626 -10 metro 10;
#X obj 332 536 line;
#X msg 332 479 \$1 60;
#X floatatom -134 -44 5 0 1 0 - - -;
#X floatatom 321 -80 5 0 1 0 - - -;
#X obj -134 -22 sig~;
#X floatatom 331 430 5 0 1 0 - - -;
#X obj 424 456 tgl 15 0 empty empty empty 17 7 0 10 -262144 -1 -1 0
1;
#X obj 512 402 change;
#X obj 512 434 t b;
#X msg 512 462 1;
#X msg 555 478 0;
#X msg 382 513 \$1 200;
#X obj 321 -33 i;
#X obj 321 -56 * 4;
#N canvas 72 151 450 300 formant_0 0;
#X msg 69 80 850;
#X msg 96 79 30;
#X msg 119 98 6;
#X msg 143 98 1220;
#X msg 170 116 80;
#X msg 191 126 6;
#X msg 214 138 2810;
#X msg 243 139 100;
#X msg 263 150 -4;
#X obj 107 177 pack f f f f f f f f f;
#X obj 132 1 inlet;
#X obj 98 219 outlet;
#X obj 131 42 sel 0;
#X connect 0 0 9 0;
#X connect 1 0 9 1;
#X connect 2 0 9 2;
#X connect 3 0 9 3;
#X connect 4 0 9 4;
#X connect 5 0 9 5;
#X connect 6 0 9 6;
#X connect 7 0 9 7;
#X connect 8 0 9 8;
#X connect 9 0 11 0;
#X connect 10 0 12 0;
#X connect 12 0 0 0;
#X connect 12 0 1 0;
#X connect 12 0 2 0;
#X connect 12 0 3 0;
#X connect 12 0 4 0;
#X connect 12 0 5 0;
#X connect 12 0 6 0;
#X connect 12 0 7 0;
#X connect 12 0 8 0;
#X restore 102 39 pd formant_0;
#N canvas 109 121 450 300 formant_1 0;
#X msg 96 79 30;
#X msg 170 116 80;
#X msg 243 139 100;
#X obj 107 177 pack f f f f f f f f f;
#X obj 132 1 inlet;
#X obj 98 219 outlet;
#X msg 263 150 0;
#X msg 69 80 430;
#X msg 119 98 5;
#X msg 143 98 2480;
#X msg 192 126 2;
#X msg 214 138 3070;
#X obj 131 42 sel 1;
#X connect 0 0 3 1;
#X connect 1 0 3 4;
#X connect 2 0 3 7;
#X connect 3 0 5 0;
#X connect 4 0 12 0;
#X connect 6 0 3 8;
#X connect 7 0 3 0;
#X connect 8 0 3 2;
#X connect 9 0 3 3;
#X connect 10 0 3 5;
#X connect 11 0 3 6;
#X connect 12 0 7 0;
#X connect 12 0 0 0;
#X connect 12 0 8 0;
#X connect 12 0 9 0;
#X connect 12 0 1 0;
#X connect 12 0 10 0;
#X connect 12 0 11 0;
#X connect 12 0 2 0;
#X connect 12 0 6 0;
#X restore 189 43 pd formant_1;
#N canvas 75 99 450 300 formant_2 0;
#X msg 96 79 30;
#X msg 170 116 80;
#X msg 243 139 100;
#X obj 107 177 pack f f f f f f f f f;
#X obj 132 1 inlet;
#X obj 98 219 outlet;
#X msg 69 80 590;
#X msg 119 98 7;
#X msg 143 98 920;
#X msg 192 126 3;
#X msg 214 138 2710;
#X msg 263 150 -4;
#X obj 131 42 sel 2;
#X connect 0 0 3 1;
#X connect 1 0 3 4;
#X connect 2 0 3 7;
#X connect 3 0 5 0;
#X connect 4 0 12 0;
#X connect 6 0 3 0;
#X connect 7 0 3 2;
#X connect 8 0 3 3;
#X connect 9 0 3 5;
#X connect 10 0 3 6;
#X connect 11 0 3 8;
#X connect 12 0 6 0;
#X connect 12 0 0 0;
#X connect 12 0 7 0;
#X connect 12 0 8 0;
#X connect 12 0 1 0;
#X connect 12 0 9 0;
#X connect 12 0 10 0;
#X connect 12 0 2 0;
#X connect 12 0 11 0;
#X restore 280 45 pd formant_2;
#N canvas 27 88 450 300 formant_3 0;
#X msg 96 79 30;
#X msg 170 116 80;
#X msg 243 139 100;
#X obj 107 177 pack f f f f f f f f f;
#X obj 132 1 inlet;
#X obj 98 219 outlet;
#X msg 119 98 4;
#X msg 192 126 4;
#X msg 263 150 -2;
#X msg 68 80 370;
#X msg 143 98 950;
#X msg 214 138 2670;
#X obj 131 42 sel 3;
#X connect 0 0 3 1;
#X connect 1 0 3 4;
#X connect 2 0 3 7;
#X connect 3 0 5 0;
#X connect 4 0 12 0;
#X connect 6 0 3 2;
#X connect 7 0 3 5;
#X connect 8 0 3 8;
#X connect 9 0 3 0;
#X connect 10 0 3 3;
#X connect 11 0 3 6;
#X connect 12 0 9 0;
#X connect 12 0 0 0;
#X connect 12 0 6 0;
#X connect 12 0 10 0;
#X connect 12 0 1 0;
#X connect 12 0 7 0;
#X connect 12 0 11 0;
#X connect 12 0 2 0;
#X connect 12 0 8 0;
#X restore 367 46 pd formant_3;
#X msg 26 132 \$1 500;
#X msg 77 132 \$1 500;
#X msg 129 132 \$1 500;
#X msg 182 133 \$1 500;
#X msg 234 133 \$1 500;
#X msg 288 133 \$1 500;
#X obj -95 29 +~ 100;
#X obj -134 1 *~ 300;
#X msg -11 -10 7;
#X msg -66 -32 113;
#X msg -31 -47 221;
#X obj 555 450 del 500;
#X obj -113 56 +~;
#X obj 4 33 osc~ 0.2;
#X obj -47 56 *~ 0.5;
#X connect 0 0 61 0;
#X connect 0 1 62 0;
#X connect 0 3 63 0;
#X connect 0 4 64 0;
#X connect 0 6 65 0;
#X connect 0 7 66 0;
#X connect 1 0 3 0;
#X connect 2 0 3 0;
#X connect 3 0 26 0;
#X connect 4 0 3 0;
#X connect 6 0 20 0;
#X connect 7 0 13 0;
#X connect 9 0 10 0;
#X connect 10 0 57 0;
#X connect 10 0 58 0;
#X connect 10 0 59 0;
#X connect 10 0 60 0;
#X connect 11 0 5 0;
#X connect 12 0 7 0;
#X connect 14 0 1 1;
#X connect 15 0 1 2;
#X connect 16 0 2 1;
#X connect 17 0 2 2;
#X connect 18 0 4 1;
#X connect 19 0 4 2;
#X connect 26 0 25 0;
#X connect 26 0 25 1;
#X connect 28 0 29 0;
#X connect 29 0 1 0;
#X connect 29 0 2 0;
#X connect 29 0 4 0;
#X connect 34 0 35 0;
#X connect 35 0 37 0;
#X connect 36 0 42 0;
#X connect 37 0 38 0;
#X connect 38 0 39 0;
#X connect 39 0 40 0;
#X connect 40 0 41 0;
#X connect 42 0 35 0;
#X connect 43 0 26 1;
#X connect 44 0 43 0;
#X connect 45 0 47 0;
#X connect 46 0 56 0;
#X connect 47 0 68 0;
#X connect 48 0 44 0;
#X connect 49 0 54 0;
#X connect 50 0 51 0;
#X connect 51 0 52 0;
#X connect 51 0 72 0;
#X connect 52 0 54 0;
#X connect 53 0 54 0;
#X connect 54 0 43 0;
#X connect 55 0 8 0;
#X connect 56 0 55 0;
#X connect 57 0 0 0;
#X connect 58 0 0 0;
#X connect 59 0 0 0;
#X connect 60 0 0 0;
#X connect 61 0 14 0;
#X connect 62 0 15 0;
#X connect 63 0 16 0;
#X connect 64 0 17 0;
#X connect 65 0 18 0;
#X connect 66 0 19 0;
#X connect 67 0 73 0;
#X connect 68 0 27 0;
#X connect 68 0 22 0;
#X connect 68 0 67 0;
#X connect 69 0 67 1;
#X connect 70 0 67 1;
#X connect 71 0 67 1;
#X connect 72 0 53 0;
#X connect 73 0 28 0;
#X connect 74 0 75 0;
#X connect 75 0 73 1;
