#N canvas 4 23 706 612 12;
#X obj 95 253 - 0.5;
#X obj 95 279 abs;
#X obj 95 305 * 2;
#X obj 163 289 r sensor_speed;
#X obj 94 393 line;
#X obj 95 333 min 1;
#X obj 96 166 inlet;
#X obj 94 424 outlet;
#X obj 225 424 outlet;
#X obj 95 195 t f f f;
#X obj 223 199 spigot 1;
#X obj 226 229 t b f;
#X msg 295 198 0;
#X obj 163 315 * 4;
#X obj 95 360 pack 0 160;
#X connect 0 0 1 0;
#X connect 0 0 8 0;
#X connect 1 0 2 0;
#X connect 2 0 5 0;
#X connect 3 0 13 0;
#X connect 4 0 7 0;
#X connect 5 0 14 0;
#X connect 6 0 9 0;
#X connect 9 0 0 1;
#X connect 9 1 0 0;
#X connect 9 2 10 0;
#X connect 10 0 11 0;
#X connect 11 0 12 0;
#X connect 11 1 0 1;
#X connect 12 0 10 1;
#X connect 13 0 14 1;
#X connect 14 0 4 0;
