#N canvas 4 23 702 672 12;
#X obj 53 85 unpack 0 0 0 0 0 0 0 0;
#X obj 52 121 max 0;
#X obj 52 147 min 1;
#X obj 70 178 max 0;
#X obj 70 204 min 1;
#X obj 89 231 max 0;
#X obj 89 257 min 1;
#X obj 111 125 max 0;
#X obj 111 148 min 1;
#X obj 123 177 max 0;
#X obj 123 203 min 1;
#X obj 150 232 max 0;
#X obj 150 258 min 1;
#X obj 175 125 max 0;
#X obj 175 151 min 1;
#X obj 206 187 max 0;
#X obj 206 213 min 1;
#X obj 56 548 pack 0 0 0 0 0 0 0 0;
#X obj 54 50 inlet;
#X obj 57 592 outlet;
#X msg 560 293 100;
#X obj 28 340 list;
#X obj 28 366 line;
#X obj 54 406 list;
#X obj 54 432 line;
#X obj 75 338 list;
#X obj 75 364 line;
#X obj 104 407 list;
#X obj 104 433 line;
#X obj 401 59 inlet;
#X obj 126 313 list;
#X obj 126 339 line;
#X obj 153 385 list;
#X obj 153 411 line;
#X obj 186 293 list;
#X obj 186 319 line;
#X obj 212 368 list;
#X obj 212 394 line;
#X obj 560 259 loadbang;
#X connect 0 0 1 0;
#X connect 0 1 3 0;
#X connect 0 2 5 0;
#X connect 0 3 7 0;
#X connect 0 4 9 0;
#X connect 0 5 11 0;
#X connect 0 6 13 0;
#X connect 0 7 15 0;
#X connect 1 0 2 0;
#X connect 2 0 21 0;
#X connect 3 0 4 0;
#X connect 4 0 23 0;
#X connect 5 0 6 0;
#X connect 6 0 25 0;
#X connect 7 0 8 0;
#X connect 8 0 27 0;
#X connect 9 0 10 0;
#X connect 10 0 30 0;
#X connect 11 0 12 0;
#X connect 12 0 32 0;
#X connect 13 0 14 0;
#X connect 14 0 34 0;
#X connect 15 0 16 0;
#X connect 16 0 36 0;
#X connect 17 0 19 0;
#X connect 18 0 0 0;
#X connect 20 0 21 1;
#X connect 20 0 23 1;
#X connect 20 0 25 1;
#X connect 20 0 27 1;
#X connect 20 0 30 1;
#X connect 20 0 32 1;
#X connect 20 0 34 1;
#X connect 20 0 36 1;
#X connect 21 0 22 0;
#X connect 22 0 17 0;
#X connect 23 0 24 0;
#X connect 24 0 17 1;
#X connect 25 0 26 0;
#X connect 26 0 17 2;
#X connect 27 0 28 0;
#X connect 28 0 17 3;
#X connect 29 0 21 1;
#X connect 29 0 25 1;
#X connect 29 0 23 1;
#X connect 29 0 27 1;
#X connect 29 0 30 1;
#X connect 29 0 32 1;
#X connect 29 0 34 1;
#X connect 29 0 36 1;
#X connect 30 0 31 0;
#X connect 31 0 17 4;
#X connect 32 0 33 0;
#X connect 33 0 17 5;
#X connect 34 0 35 0;
#X connect 35 0 17 6;
#X connect 36 0 37 0;
#X connect 37 0 17 7;
#X connect 38 0 20 0;
