#N canvas 4 23 702 672 12;
#X obj 53 85 unpack 0 0 0 0 0 0 0 0;
#X obj 52 121 max 0;
#X obj 52 147 min 1;
#X obj 70 178 max 0;
#X obj 70 204 min 1;
#X obj 89 231 max 0;
#X obj 89 257 min 1;
#X obj 111 125 max 0;
#X obj 111 148 min 1;
#X obj 123 177 max 0;
#X obj 123 203 min 1;
#X obj 150 232 max 0;
#X obj 150 258 min 1;
#X obj 175 125 max 0;
#X obj 175 151 min 1;
#X obj 180 177 max 0;
#X obj 180 203 min 1;
#X obj 56 301 pack 0 0 0 0 0 0 0 0;
#X obj 54 50 inlet;
#X obj 57 345 outlet;
#X connect 0 0 1 0;
#X connect 0 1 3 0;
#X connect 0 2 5 0;
#X connect 0 3 7 0;
#X connect 0 4 9 0;
#X connect 0 5 11 0;
#X connect 0 6 13 0;
#X connect 0 7 15 0;
#X connect 1 0 2 0;
#X connect 2 0 17 0;
#X connect 3 0 4 0;
#X connect 4 0 17 1;
#X connect 5 0 6 0;
#X connect 6 0 17 2;
#X connect 7 0 8 0;
#X connect 8 0 17 3;
#X connect 9 0 10 0;
#X connect 10 0 17 4;
#X connect 11 0 12 0;
#X connect 12 0 17 5;
#X connect 13 0 14 0;
#X connect 14 0 17 6;
#X connect 15 0 16 0;
#X connect 16 0 17 7;
#X connect 17 0 19 0;
#X connect 18 0 0 0;
