#N canvas 167 23 845 619 12;
#X obj 381 151 t f f;
#X floatatom 443 217 5 0 0 0 - - -;
#X obj 406 247 sel 1;
#X obj 425 188 f;
#X obj 293 153 t f f;
#X floatatom 361 217 5 0 0 0 - - -;
#X obj 324 246 sel 1;
#X obj 342 188 f;
#X obj 341 126 gate;
#X obj 297 69 tgl 15 0 empty empty empty 17 7 0 10 -262144 -1 -1 0
1;
#X obj 324 215 > 0;
#X obj 407 217 < 1;
#X msg 561 169 1, f 4;
#X msg 565 143 0;
#X obj 440 126 t b;
#X obj 377 399 scale 0 1 0 1;
#X obj 539 240 f;
#X obj 298 272 sel 0;
#X obj 387 336 f;
#X obj 376 427 min 1;
#X obj 377 455 max 0;
#X obj 569 345 + 0.1;
#X obj 296 40 inlet;
#X obj 189 39 inlet;
#X obj 376 486 outlet;
#X obj 525 488 outlet;
#X obj 449 488 outlet;
#X obj 527 45 inlet;
#X obj 585 45 inlet;
#X obj 351 84 t f f;
#X obj 392 107 sel 1;
#X obj 298 298 t b b;
#X obj 570 295 > 0.1;
#X obj 570 321 gate;
#X obj 539 264 t f f;
#X obj 569 371 min 1;
#X obj 506 326 sel 0;
#X msg 506 361 1;
#X connect 0 0 11 0;
#X connect 0 1 3 1;
#X connect 1 0 18 1;
#X connect 2 0 3 0;
#X connect 3 0 1 0;
#X connect 3 0 11 1;
#X connect 4 0 10 0;
#X connect 4 1 7 1;
#X connect 5 0 16 1;
#X connect 6 0 7 0;
#X connect 7 0 5 0;
#X connect 7 0 10 1;
#X connect 8 0 4 0;
#X connect 8 0 0 0;
#X connect 9 0 17 0;
#X connect 9 0 29 0;
#X connect 10 0 6 0;
#X connect 11 0 2 0;
#X connect 12 0 15 2;
#X connect 12 0 11 1;
#X connect 13 0 10 1;
#X connect 13 0 15 1;
#X connect 14 0 12 0;
#X connect 14 0 13 0;
#X connect 15 0 19 0;
#X connect 16 0 34 0;
#X connect 17 0 31 0;
#X connect 18 0 26 0;
#X connect 18 0 15 1;
#X connect 19 0 20 0;
#X connect 20 0 24 0;
#X connect 21 0 35 0;
#X connect 22 0 9 0;
#X connect 23 0 8 1;
#X connect 23 0 15 0;
#X connect 27 0 15 1;
#X connect 28 0 15 2;
#X connect 29 0 8 0;
#X connect 29 1 30 0;
#X connect 30 0 14 0;
#X connect 31 0 18 0;
#X connect 31 1 16 0;
#X connect 32 0 33 0;
#X connect 32 0 36 0;
#X connect 33 0 21 0;
#X connect 34 0 33 1;
#X connect 34 1 32 0;
#X connect 35 0 15 2;
#X connect 35 0 25 0;
#X connect 36 0 37 0;
#X connect 37 0 25 0;
