#N canvas 4 23 1074 855 12;
#X obj 96 192 send bela_i2c @hv_param;
#X msg 96 158 debug 1;
#X obj 67 77 L3GD20;
#N canvas 122 138 1288 740 LSM303_Accel 0;
#X msg 293 223 writeread 15 1;
#X text 407 222 get id (expect 51 (0x33));
#X msg 318 277 write 32 87;
#X text 398 279 Enable the accelerometer (100Hz);
#X msg 334 402 writeread 40 6;
#X text 432 402 get raw data;
#X text 895 117 from i2c;
#X obj 816 95 receive bela_i2c_in;
#X obj 793 170 spigot;
#X obj 792 222 unpack 0 0 0 0 0 0;
#X obj 798 287 << 8;
#X obj 778 327 +;
#X obj 859 285 << 8;
#X obj 839 325 +;
#X obj 928 289 << 8;
#X obj 908 329 +;
#X obj 173 61 inlet;
#X obj 196 435 outlet;
#X obj 170 95 t b b;
#X obj 293 202 delay 500;
#X obj 317 255 delay 500;
#X obj 335 313 delay 500;
#X obj 335 335 t b b;
#X msg 422 339 1;
#X msg 231 126 open 1 25;
#X text 303 127 LSM303 Accel (0x32 >> 1) (50 >> 1 = 25);
#X obj 364 364 metro 100;
#X obj 825 425 pack 0 0 0;
#X obj 765 567 outlet;
#X connect 0 0 17 0;
#X connect 2 0 17 0;
#X connect 4 0 17 0;
#X connect 7 0 8 0;
#X connect 8 0 9 0;
#X connect 9 0 11 0;
#X connect 9 1 10 0;
#X connect 9 2 13 0;
#X connect 9 3 12 0;
#X connect 9 4 15 0;
#X connect 9 5 14 0;
#X connect 10 0 11 1;
#X connect 11 0 27 0;
#X connect 12 0 13 1;
#X connect 13 0 27 1;
#X connect 14 0 15 1;
#X connect 15 0 27 2;
#X connect 16 0 18 0;
#X connect 18 0 19 0;
#X connect 18 1 24 0;
#X connect 19 0 0 0;
#X connect 19 0 20 0;
#X connect 20 0 2 0;
#X connect 20 0 21 0;
#X connect 21 0 22 0;
#X connect 22 0 26 0;
#X connect 22 1 23 0;
#X connect 23 0 8 1;
#X connect 24 0 17 0;
#X connect 26 0 4 0;
#X connect 27 0 28 0;
#X restore 131 103 pd LSM303_Accel;
#X obj 67 51 t b b;
#X obj 67 24 inlet;
#X obj 204 268 outlet;
#X connect 1 0 0 0;
#X connect 2 0 0 0;
#X connect 3 0 0 0;
#X connect 3 1 6 0;
#X connect 4 0 2 0;
#X connect 5 0 4 0;
