#N canvas 346 83 1240 659 12;
#X obj 85 38 inlet;
#X obj 61 617 outlet;
#X msg 109 118 open 1 107;
#X text 196 118 L3GD20;
#X msg 186 198 writeread 15 1;
#X text 300 197 get id;
#X obj 82 82 t b b;
#X obj 154 168 delay 500;
#X text 365 59 #define L3GD20_ID (0xD4) //!< L3GD20 ID;
#X text 366 77 #define L3GD20H_ID (0xD7) //!< L3GD20H ID;
#X msg 229 279 write 32 0;
#X text 311 277 reset;
#X msg 334 354 write 32 15;
#X text 416 352 enable all three channels;
#X text 474 480 read 6 bytes from sensor;
#X obj 226 249 delay 500;
#X obj 311 329 delay 100;
#X obj 370 394 delay 500;
#X msg 361 479 writeread 168 6;
#X text 895 117 from i2c;
#X obj 816 95 receive bela_i2c_in;
#X obj 793 170 spigot;
#X obj 372 418 t b b;
#X msg 512 419 1;
#X obj 792 222 unpack 0 0 0 0 0 0;
#X obj 798 287 << 8;
#X obj 778 327 +;
#X obj 859 285 << 8;
#X obj 839 325 +;
#X obj 928 289 << 8;
#X obj 908 329 +;
#X obj 361 455 metro 40;
#X obj 816 402 pack 0 0 0;
#X obj 821 462 s gyro;
#X connect 0 0 6 0;
#X connect 2 0 1 0;
#X connect 4 0 1 0;
#X connect 6 0 7 0;
#X connect 6 1 2 0;
#X connect 7 0 4 0;
#X connect 7 0 15 0;
#X connect 10 0 1 0;
#X connect 12 0 1 0;
#X connect 15 0 10 0;
#X connect 15 0 16 0;
#X connect 16 0 12 0;
#X connect 16 0 17 0;
#X connect 17 0 22 0;
#X connect 18 0 1 0;
#X connect 20 0 21 0;
#X connect 21 0 24 0;
#X connect 22 0 31 0;
#X connect 22 1 23 0;
#X connect 23 0 21 1;
#X connect 24 0 26 0;
#X connect 24 1 25 0;
#X connect 24 2 28 0;
#X connect 24 3 27 0;
#X connect 24 4 30 0;
#X connect 24 5 29 0;
#X connect 25 0 26 1;
#X connect 26 0 32 0;
#X connect 27 0 28 1;
#X connect 28 0 32 1;
#X connect 29 0 30 1;
#X connect 30 0 32 2;
#X connect 31 0 18 0;
#X connect 32 0 33 0;
