#N canvas 507 564 450 300 12;
#X obj 207 128 list split 1;
#X obj 220 77 list;
#X obj 222 188 list;
#X obj 207 152 t b a;
#X obj 215 35 inlet;
#X obj 238 253 outlet;
#X connect 0 0 3 0;
#X connect 0 1 2 1;
#X connect 1 0 0 0;
#X connect 2 0 1 0;
#X connect 3 0 2 0;
#X connect 3 1 5 0;
#X connect 4 0 1 0;
