#N canvas 62 117 1770 866 12;
#X msg 271 249 writeread 15 1;
#X text 368 248 get id (expect 51 (0x33));
#X msg 169 155 write 32 87;
#X text 255 157 Enable the accelerometer (100Hz);
#X text 588 300 get raw data;
#X text 895 117 from i2c;
#X obj 816 95 receive bela_i2c_in;
#X obj 789 167 spigot;
#X obj 828 426 unpack 0 0 0 0 0 0;
#X obj 849 449 << 8;
#X obj 828 471 +;
#X obj 891 449 << 8;
#X obj 870 471 +;
#X obj 933 449 << 8;
#X obj 912 471 +;
#X obj 169 66 inlet;
#X obj 138 564 outlet;
#X obj 493 280 t b b;
#X msg 829 138 1;
#X text 309 127 LSM303 Accel (0x32 >> 1) (50 >> 1 = 25);
#X obj 828 607 pack 0 0 0, f 26;
#X msg 906 357 writeread \$1 1;
#X msg 493 301 writeread 40 1;
#X obj 789 243 i;
#X obj 789 265 + 1;
#X obj 789 221 t b l;
#X obj 789 199 list prepend;
#X msg 750 217 0;
#X obj 828 403 list;
#X obj 789 309 sel 6;
#X obj 906 333 + 40;
#X obj 789 287 t f f;
#X obj 683 97 t b;
#X obj 828 525 * 0.0039;
#X obj 828 503 >> 6;
#X obj 828 547 * 9.80665;
#X obj 904 525 * 0.0039;
#X obj 904 503 >> 6;
#X obj 904 547 * 9.80665;
#X obj 979 525 * 0.0039;
#X obj 979 503 >> 6;
#X obj 979 547 * 9.80665;
#X msg 1056 433 4;
#X msg 1056 456 0.00098;
#X msg 1178 466 8;
#X msg 1178 492 0.01563;
#X text 1178 442 low power 2G;
#X text 1056 412 high res 2G;
#X text 207 65 init;
#X obj 536 30 inlet;
#X obj 758 749 outlet;
#X msg 994 141 0;
#X obj 829 632 t a b;
#X msg 231 126 address 25;
#X obj 828 577 - 38.9;
#X obj 912 580 - 38.6;
#X text 574 30 measure accel;
#X text 659 750 accel out;
#X obj 169 95 t b b;
#X connect 0 0 16 0;
#X connect 2 0 16 0;
#X connect 6 0 7 0;
#X connect 7 0 26 0;
#X connect 8 0 10 0;
#X connect 8 1 9 0;
#X connect 8 2 12 0;
#X connect 8 3 11 0;
#X connect 8 4 14 0;
#X connect 8 5 13 0;
#X connect 9 0 10 1;
#X connect 10 0 34 0;
#X connect 11 0 12 1;
#X connect 12 0 37 0;
#X connect 13 0 14 1;
#X connect 14 0 40 0;
#X connect 15 0 58 0;
#X connect 17 0 22 0;
#X connect 17 1 32 0;
#X connect 17 1 53 0;
#X connect 18 0 7 1;
#X connect 20 0 52 0;
#X connect 21 0 16 0;
#X connect 22 0 16 0;
#X connect 23 0 24 0;
#X connect 24 0 31 0;
#X connect 25 0 23 0;
#X connect 25 1 26 1;
#X connect 25 1 28 1;
#X connect 26 0 25 0;
#X connect 27 0 23 1;
#X connect 28 0 8 0;
#X connect 29 0 28 0;
#X connect 29 1 30 0;
#X connect 30 0 21 0;
#X connect 31 0 29 0;
#X connect 31 1 23 1;
#X connect 32 0 18 0;
#X connect 32 0 27 0;
#X connect 32 0 26 1;
#X connect 33 0 35 0;
#X connect 34 0 33 0;
#X connect 35 0 54 0;
#X connect 36 0 38 0;
#X connect 37 0 36 0;
#X connect 38 0 55 0;
#X connect 39 0 41 0;
#X connect 40 0 39 0;
#X connect 41 0 20 2;
#X connect 42 0 40 1;
#X connect 42 0 37 1;
#X connect 42 0 34 1;
#X connect 43 0 39 1;
#X connect 43 0 36 1;
#X connect 43 0 33 1;
#X connect 44 0 40 1;
#X connect 44 0 37 1;
#X connect 44 0 34 1;
#X connect 45 0 39 1;
#X connect 45 0 36 1;
#X connect 45 0 33 1;
#X connect 49 0 17 0;
#X connect 51 0 7 1;
#X connect 52 0 50 0;
#X connect 52 1 51 0;
#X connect 53 0 16 0;
#X connect 54 0 20 0;
#X connect 55 0 20 1;
#X connect 58 0 2 0;
#X connect 58 1 53 0;
