#N canvas 181 23 1258 855 12;
#X obj 29 34 inlet;
#X obj 63 362 route volume;
#X obj 27 324 route ml audio sensor ctrl, f 63;
#X obj 63 390 f;
#X obj 63 418 s volume;
#X obj 350 724 s log_control_values;
#X obj 350 699 i;
#X obj 219 400 i;
#X obj 219 468 s sensor_on;
#X obj 393 698 s ctrl_send;
#X obj 393 670 i;
#X obj 260 428 s sensor_send;
#X obj 259 405 i;
#X obj 484 443 i;
#X obj 432 490 print osccontroller;
#X obj 483 324 route system mode;
#X obj 541 350 i;
#X obj 540 374 s mapping_mode;
#X obj 87 297 route p0;
#X obj 141 243 r my_id;
#X obj 538 451 s send_ip;
#X obj 141 267 symbol;
#X obj 27 254 route all;
#X obj 436 668 s note;
#X obj 436 641 i;
#X obj 51 538 list prepend 0;
#X obj 50 564 s ml_control;
#X obj 542 773 list prepend 0;
#X obj 541 799 s ml_control;
#X obj 542 743 prepend t_ctrl;
#X obj 484 417 route osc_log ip;
#X obj 302 404 i;
#X obj 296 540 s sensor_speed;
#X obj 321 482 s sensor_base;
#X obj 219 370 route on send speed base calibration;
#X obj 359 407 s calibration;
#X obj 28 89 zmq_sub 192.168.0.10:5555 control;
#X obj 28 116 route control;
#X obj 320 143 oscparse;
#X obj 320 175 list trim;
#X obj 320 111 netreceive -u -b;
#X msg 320 83 listen 50444;
#X obj 319 55 t b;
#X obj 350 592 route log send note t_ctrl;
#X obj 430 463 gate 1;
#X connect 1 0 3 0;
#X connect 2 0 25 0;
#X connect 2 1 1 0;
#X connect 2 2 34 0;
#X connect 2 3 43 0;
#X connect 2 4 15 0;
#X connect 3 0 4 0;
#X connect 6 0 5 0;
#X connect 7 0 8 0;
#X connect 10 0 9 0;
#X connect 12 0 11 0;
#X connect 13 0 44 0;
#X connect 15 0 30 0;
#X connect 15 1 16 0;
#X connect 16 0 17 0;
#X connect 16 0 25 1;
#X connect 16 0 27 1;
#X connect 18 0 2 0;
#X connect 19 0 21 0;
#X connect 21 0 18 1;
#X connect 22 0 2 0;
#X connect 22 1 18 0;
#X connect 24 0 23 0;
#X connect 25 0 26 0;
#X connect 27 0 28 0;
#X connect 29 0 27 0;
#X connect 30 0 13 0;
#X connect 30 1 20 0;
#X connect 31 0 32 0;
#X connect 34 0 7 0;
#X connect 34 1 12 0;
#X connect 34 2 31 0;
#X connect 34 3 33 0;
#X connect 34 4 35 0;
#X connect 36 0 37 0;
#X connect 37 0 22 0;
#X connect 37 0 44 1;
#X connect 38 0 39 0;
#X connect 40 0 38 0;
#X connect 41 0 40 0;
#X connect 42 0 41 0;
#X connect 43 0 6 0;
#X connect 43 1 10 0;
#X connect 43 2 24 0;
#X connect 43 3 29 0;
#X connect 44 0 14 0;
