#N canvas 238 190 1258 855 12;
#X obj 27 188 oscparse;
#X obj 27 20 inlet;
#X obj 63 362 route volume;
#X obj 27 324 route ml audio sensor ctrl, f 63;
#X obj 63 390 f;
#X obj 63 418 s volume;
#X obj 436 576 f;
#X obj 486 576 f;
#X obj 536 576 f;
#X obj 586 576 f;
#X obj 436 610 s ctrl1;
#X obj 497 610 s ctrl2;
#X obj 557 610 s ctrl3;
#X obj 621 610 s ctrl4;
#X obj 684 575 f;
#X obj 734 575 f;
#X obj 784 575 f;
#X obj 834 575 f;
#X obj 684 609 s ctrl5;
#X obj 745 609 s ctrl6;
#X obj 805 609 s ctrl7;
#X obj 869 609 s ctrl8;
#X obj 27 216 list trim;
#X obj 947 674 s log_control_values;
#X obj 947 649 i;
#X obj 436 542 route ctrl1 ctrl2 ctrl3 ctrl4 ctrl5 ctrl6 ctrl7 ctrl8
;
#X obj 219 400 i;
#X obj 219 468 s sensor_on;
#X obj 990 648 s ctrl_send;
#X obj 990 620 i;
#X obj 260 428 s sensor_send;
#X obj 259 405 i;
#X obj 484 443 i;
#X obj 432 490 print osccontroller;
#X obj 432 465 spigot 1;
#X obj 427 442 tgl 15 0 empty empty empty 17 7 0 10 -262144 -1 -1 0
1;
#X obj 483 323 route system mode;
#X obj 541 350 i;
#X obj 540 374 s mapping_mode;
#X obj 87 297 route p0;
#X obj 176 254 r my_id;
#X obj 538 451 s send_ip;
#X obj 176 278 symbol;
#X obj 27 254 route all;
#X obj 947 542 route log send note;
#X obj 1033 618 s note;
#X obj 1033 591 i;
#X obj 500 734 pak 0 0 0 0 0 0 0 0;
#X obj 51 538 list prepend 0;
#X obj 50 564 s ml_control;
#X obj 500 793 list prepend 0;
#X obj 499 819 s ml_control;
#X obj 500 763 prepend t_ctrl;
#X obj 27 49 netreceive -b;
#X obj 27 155 pd_slipdec;
#X obj 320 118 netreceive -u -b;
#X msg 320 83 listen 50444;
#X obj 325 51 t b;
#X obj 115 76 change;
#X msg 115 124 clear;
#X obj 115 100 t b;
#X obj 192 170 print connected clients;
#X obj 484 417 route osc_log ip;
#X obj 219 371 route on send speed;
#X obj 302 404 i;
#X obj 296 540 s sensor_speed;
#X connect 0 0 22 0;
#X connect 1 0 53 0;
#X connect 1 0 57 0;
#X connect 2 0 4 0;
#X connect 3 0 48 0;
#X connect 3 1 2 0;
#X connect 3 2 63 0;
#X connect 3 3 25 0;
#X connect 3 4 36 0;
#X connect 4 0 5 0;
#X connect 6 0 10 0;
#X connect 6 0 47 0;
#X connect 7 0 11 0;
#X connect 7 0 47 1;
#X connect 8 0 12 0;
#X connect 8 0 47 2;
#X connect 9 0 13 0;
#X connect 9 0 47 3;
#X connect 14 0 18 0;
#X connect 14 0 47 4;
#X connect 15 0 19 0;
#X connect 15 0 47 5;
#X connect 16 0 20 0;
#X connect 16 0 47 6;
#X connect 17 0 21 0;
#X connect 17 0 47 7;
#X connect 22 0 34 0;
#X connect 22 0 43 0;
#X connect 24 0 23 0;
#X connect 25 0 6 0;
#X connect 25 1 7 0;
#X connect 25 2 8 0;
#X connect 25 3 9 0;
#X connect 25 4 14 0;
#X connect 25 5 15 0;
#X connect 25 6 16 0;
#X connect 25 7 17 0;
#X connect 25 8 44 0;
#X connect 26 0 27 0;
#X connect 29 0 28 0;
#X connect 31 0 30 0;
#X connect 32 0 34 1;
#X connect 34 0 33 0;
#X connect 35 0 34 1;
#X connect 36 0 62 0;
#X connect 36 1 37 0;
#X connect 37 0 38 0;
#X connect 37 0 48 1;
#X connect 37 0 50 1;
#X connect 39 0 3 0;
#X connect 40 0 42 0;
#X connect 42 0 39 1;
#X connect 43 0 3 0;
#X connect 43 1 39 0;
#X connect 44 0 24 0;
#X connect 44 1 29 0;
#X connect 44 2 46 0;
#X connect 46 0 45 0;
#X connect 47 0 52 0;
#X connect 48 0 49 0;
#X connect 50 0 51 0;
#X connect 52 0 50 0;
#X connect 53 0 54 0;
#X connect 53 1 58 0;
#X connect 53 1 61 0;
#X connect 54 0 0 0;
#X connect 55 0 0 0;
#X connect 56 0 55 0;
#X connect 57 0 56 0;
#X connect 58 0 60 0;
#X connect 59 0 54 0;
#X connect 60 0 59 0;
#X connect 62 0 32 0;
#X connect 62 1 41 0;
#X connect 63 0 26 0;
#X connect 63 1 31 0;
#X connect 63 2 64 0;
#X connect 64 0 65 0;
