#N canvas 204 23 1258 855 12;
#X obj 27 78 oscparse;
#X obj 27 20 inlet;
#X obj 70 563 int;
#X obj 121 561 int;
#X obj 172 699 s mlp;
#X obj 63 299 route volume;
#X obj 274 563 t b;
#X msg 274 586 train;
#X obj 27 261 route ml audio sensor ctrl, f 63;
#X obj 63 327 f;
#X obj 63 355 s volume;
#X obj 436 576 f;
#X obj 486 576 f;
#X obj 536 576 f;
#X obj 586 576 f;
#X obj 120 733 s ml_sensor;
#X obj 436 610 s ctrl1;
#X obj 497 610 s ctrl2;
#X obj 557 610 s ctrl3;
#X obj 621 610 s ctrl4;
#X obj 684 575 f;
#X obj 734 575 f;
#X obj 784 575 f;
#X obj 834 575 f;
#X obj 684 609 s ctrl5;
#X obj 745 609 s ctrl6;
#X obj 805 609 s ctrl7;
#X obj 869 609 s ctrl8;
#X obj 27 105 list trim;
#X obj 947 674 s log_control_values;
#X obj 947 649 i;
#X obj 436 542 route ctrl1 ctrl2 ctrl3 ctrl4 ctrl5 ctrl6 ctrl7 ctrl8
;
#X obj 219 337 i;
#X obj 219 405 s sensor_on;
#X obj 990 648 s ctrl_send;
#X obj 990 620 i;
#X obj 260 365 s sensor_send;
#X obj 259 342 i;
#X obj 484 380 i;
#X obj 432 427 print osccontroller;
#X obj 432 402 spigot 1;
#X obj 427 379 tgl 15 0 empty empty empty 17 7 0 10 -262144 -1 -1 0
1;
#X msg 172 562 write;
#X msg 223 563 read;
#X text 67 787 0 map 1 train;
#X obj 68 761 s ml_mode;
#X obj 70 532 route mode sensor write read train, f 37;
#X obj 483 260 route system mode;
#X obj 541 287 i;
#X obj 540 311 s mapping_mode;
#X obj 219 308 route on send;
#X obj 87 186 route p0;
#X obj 176 143 r my_id;
#X obj 484 354 route osc_log ip;
#X obj 538 388 s send_ip;
#X obj 176 167 symbol;
#X obj 27 49 netreceive -u -b;
#X obj 27 143 route all;
#X obj 259 215 print unknown;
#X obj 947 542 route log send note;
#X obj 1033 618 s note;
#X obj 1033 591 i;
#X obj 500 734 pak 0 0 0 0 0 0 0 0;
#X obj 500 771 s t_ctrl;
#X connect 0 0 28 0;
#X connect 1 0 56 0;
#X connect 2 0 45 0;
#X connect 3 0 15 0;
#X connect 5 0 9 0;
#X connect 6 0 7 0;
#X connect 7 0 4 0;
#X connect 8 0 46 0;
#X connect 8 1 5 0;
#X connect 8 2 50 0;
#X connect 8 3 31 0;
#X connect 8 4 47 0;
#X connect 9 0 10 0;
#X connect 11 0 16 0;
#X connect 11 0 62 0;
#X connect 12 0 17 0;
#X connect 12 0 62 1;
#X connect 13 0 18 0;
#X connect 13 0 62 2;
#X connect 14 0 19 0;
#X connect 14 0 62 3;
#X connect 20 0 24 0;
#X connect 20 0 62 4;
#X connect 21 0 25 0;
#X connect 21 0 62 5;
#X connect 22 0 26 0;
#X connect 22 0 62 6;
#X connect 23 0 27 0;
#X connect 23 0 62 7;
#X connect 28 0 40 0;
#X connect 28 0 57 0;
#X connect 30 0 29 0;
#X connect 31 0 11 0;
#X connect 31 1 12 0;
#X connect 31 2 13 0;
#X connect 31 3 14 0;
#X connect 31 4 20 0;
#X connect 31 5 21 0;
#X connect 31 6 22 0;
#X connect 31 7 23 0;
#X connect 31 8 59 0;
#X connect 32 0 33 0;
#X connect 35 0 34 0;
#X connect 37 0 36 0;
#X connect 38 0 40 1;
#X connect 40 0 39 0;
#X connect 41 0 40 1;
#X connect 42 0 4 0;
#X connect 43 0 4 0;
#X connect 46 0 2 0;
#X connect 46 1 3 0;
#X connect 46 2 42 0;
#X connect 46 3 43 0;
#X connect 46 4 6 0;
#X connect 47 0 53 0;
#X connect 47 1 48 0;
#X connect 48 0 49 0;
#X connect 50 0 32 0;
#X connect 50 1 37 0;
#X connect 51 0 8 0;
#X connect 51 1 58 0;
#X connect 52 0 55 0;
#X connect 53 0 38 0;
#X connect 53 1 54 0;
#X connect 55 0 51 1;
#X connect 56 0 0 0;
#X connect 57 0 8 0;
#X connect 57 1 51 0;
#X connect 59 0 30 0;
#X connect 59 1 35 0;
#X connect 59 2 61 0;
#X connect 61 0 60 0;
#X connect 62 0 63 0;
