#N canvas 46 23 1258 855 12;
#X obj 29 34 inlet;
#X obj 63 362 route volume;
#X obj 27 324 route ml audio sensor ctrl, f 63;
#X obj 63 390 f;
#X obj 63 418 s volume;
#X obj 436 576 f;
#X obj 486 576 f;
#X obj 536 576 f;
#X obj 586 576 f;
#X obj 436 610 s ctrl1;
#X obj 497 610 s ctrl2;
#X obj 557 610 s ctrl3;
#X obj 621 610 s ctrl4;
#X obj 684 575 f;
#X obj 734 575 f;
#X obj 784 575 f;
#X obj 834 575 f;
#X obj 684 609 s ctrl5;
#X obj 745 609 s ctrl6;
#X obj 805 609 s ctrl7;
#X obj 869 609 s ctrl8;
#X obj 947 674 s log_control_values;
#X obj 947 649 i;
#X obj 436 542 route ctrl1 ctrl2 ctrl3 ctrl4 ctrl5 ctrl6 ctrl7 ctrl8
;
#X obj 219 400 i;
#X obj 219 468 s sensor_on;
#X obj 990 648 s ctrl_send;
#X obj 990 620 i;
#X obj 260 428 s sensor_send;
#X obj 259 405 i;
#X obj 484 443 i;
#X obj 432 490 print osccontroller;
#X obj 432 465 spigot 1;
#X obj 427 442 tgl 15 0 empty empty empty 17 7 0 10 -262144 -1 -1 0
1;
#X obj 483 324 route system mode;
#X obj 541 350 i;
#X obj 540 374 s mapping_mode;
#X obj 87 297 route p0;
#X obj 141 243 r my_id;
#X obj 538 451 s send_ip;
#X obj 141 267 symbol;
#X obj 27 254 route all;
#X obj 947 542 route log send note;
#X obj 1033 618 s note;
#X obj 1033 591 i;
#X obj 500 734 pak 0 0 0 0 0 0 0 0;
#X obj 51 538 list prepend 0;
#X obj 50 564 s ml_control;
#X obj 500 793 list prepend 0;
#X obj 499 819 s ml_control;
#X obj 500 763 prepend t_ctrl;
#X obj 484 417 route osc_log ip;
#X obj 302 404 i;
#X obj 296 540 s sensor_speed;
#X obj 321 482 s sensor_base;
#X obj 219 370 route on send speed base calibration;
#X obj 359 407 s calibration;
#X obj 28 89 zmq_sub 192.168.0.10:5555 control;
#X obj 28 116 route control;
#X obj 320 143 oscparse;
#X obj 320 175 list trim;
#X obj 320 111 netreceive -u -b;
#X msg 320 83 listen 50444;
#X obj 319 55 t b;
#X connect 0 0 57 0;
#X connect 1 0 3 0;
#X connect 2 0 46 0;
#X connect 2 1 1 0;
#X connect 2 2 55 0;
#X connect 2 3 23 0;
#X connect 2 4 34 0;
#X connect 3 0 4 0;
#X connect 5 0 9 0;
#X connect 5 0 45 0;
#X connect 6 0 10 0;
#X connect 6 0 45 1;
#X connect 7 0 11 0;
#X connect 7 0 45 2;
#X connect 8 0 12 0;
#X connect 8 0 45 3;
#X connect 13 0 17 0;
#X connect 13 0 45 4;
#X connect 14 0 18 0;
#X connect 14 0 45 5;
#X connect 15 0 19 0;
#X connect 15 0 45 6;
#X connect 16 0 20 0;
#X connect 16 0 45 7;
#X connect 22 0 21 0;
#X connect 23 0 5 0;
#X connect 23 1 6 0;
#X connect 23 2 7 0;
#X connect 23 3 8 0;
#X connect 23 4 13 0;
#X connect 23 5 14 0;
#X connect 23 6 15 0;
#X connect 23 7 16 0;
#X connect 23 8 42 0;
#X connect 24 0 25 0;
#X connect 27 0 26 0;
#X connect 29 0 28 0;
#X connect 30 0 32 1;
#X connect 32 0 31 0;
#X connect 33 0 32 1;
#X connect 34 0 51 0;
#X connect 34 1 35 0;
#X connect 35 0 36 0;
#X connect 35 0 46 1;
#X connect 35 0 48 1;
#X connect 37 0 2 0;
#X connect 38 0 40 0;
#X connect 40 0 37 1;
#X connect 41 0 2 0;
#X connect 41 1 37 0;
#X connect 42 0 22 0;
#X connect 42 1 27 0;
#X connect 42 2 44 0;
#X connect 44 0 43 0;
#X connect 45 0 50 0;
#X connect 46 0 47 0;
#X connect 48 0 49 0;
#X connect 50 0 48 0;
#X connect 51 0 30 0;
#X connect 51 1 39 0;
#X connect 52 0 53 0;
#X connect 55 0 24 0;
#X connect 55 1 29 0;
#X connect 55 2 52 0;
#X connect 55 3 54 0;
#X connect 55 4 56 0;
#X connect 57 0 58 0;
#X connect 58 0 41 0;
#X connect 58 0 32 0;
#X connect 59 0 60 0;
#X connect 61 0 59 0;
#X connect 62 0 61 0;
#X connect 63 0 62 0;
