#N canvas 368 372 1439 691 12;
#X obj 78 231 spigot;
#X msg 147 142 1;
#X obj 78 62 r sensors;
#X obj 940 33 r ctrl1;
#X obj 1000 33 r ctrl2;
#X obj 1058 33 r ctrl3;
#X obj 1120 33 r ctrl4;
#X obj 1179 33 r ctrl5;
#X obj 1239 33 r ctrl6;
#X obj 1297 33 r ctrl7;
#X obj 1359 33 r ctrl8;
#X obj 1027 147 pack 0 0 0 0 0 0 0 0;
#X obj 1067 204 spigot;
#X obj 1106 179 r log_control_values;
#X obj 1067 230 print ctrl;
#X obj 1027 412 spigot;
#X obj 1066 275 r ctrl_send;
#X obj 126 109 r sensor_send;
#X obj 1028 458 oscformat ctrl;
#X obj 128 198 &&;
#X obj 147 166 t b a;
#X msg 262 506 disconnect;
#X obj 78 539 netsend -u -b;
#X obj 200 591 print netsend;
#X obj 198 565 print netsend1;
#X obj 78 628 delay 1000;
#X obj 78 568 sel 0 1;
#X obj 78 599 t b b;
#X msg 357 548 connect 192.168.178.255 51555;
#X msg 259 472 connect 239.200.200.200 51555;
#X obj 78 431 oscformat sensor;
#X text 262 447 multicast address and port;
#X text 354 573 broadcast address and port: we do not use it;
#X text 169 201 making sure that wifi setup is ready;
#X msg 1085 328 1;
#X obj 1066 384 &&;
#X obj 1085 352 t b a;
#X obj 242 92 r wifi_ready;
#X obj 241 115 t b;
#X obj 1160 275 r wifi_ready;
#X obj 1160 300 t b;
#X text 1107 386 making sure that wifi setup is ready;
#X obj 613 63 r my_id;
#X obj 716 62 r my_ip;
#X obj 613 92 symbol;
#X msg 135 390 set \$1 sensor;
#X msg 930 414 set \$1 ctrl;
#X obj 78 487 list prepend send;
#X obj 78 512 list trim;
#X obj 808 380 symbol;
#X obj 755 429 oscformat ip;
#X obj 603 365 bng 15 250 50 0 empty empty empty 17 7 0 10 -262144
-1 -1;
#X obj 731 353 del 100;
#X obj 656 329 r send_ip;
#X obj 755 404 pack s s;
#X obj 755 380 symbol;
#X obj 656 361 t b;
#X obj 613 201 t b a;
#X connect 0 0 30 0;
#X connect 1 0 20 0;
#X connect 2 0 0 0;
#X connect 3 0 11 0;
#X connect 4 0 11 1;
#X connect 5 0 11 2;
#X connect 6 0 11 3;
#X connect 7 0 11 4;
#X connect 8 0 11 5;
#X connect 9 0 11 6;
#X connect 10 0 11 7;
#X connect 11 0 12 0;
#X connect 11 0 15 0;
#X connect 12 0 14 0;
#X connect 13 0 12 1;
#X connect 15 0 18 0;
#X connect 16 0 35 0;
#X connect 17 0 19 0;
#X connect 18 0 47 0;
#X connect 19 0 0 1;
#X connect 20 0 19 0;
#X connect 20 1 19 1;
#X connect 21 0 22 0;
#X connect 22 0 23 0;
#X connect 22 0 26 0;
#X connect 22 1 24 0;
#X connect 25 0 29 0;
#X connect 26 0 27 0;
#X connect 26 1 52 0;
#X connect 27 0 25 0;
#X connect 27 1 21 0;
#X connect 28 0 22 0;
#X connect 29 0 22 0;
#X connect 30 0 47 0;
#X connect 34 0 36 0;
#X connect 35 0 15 1;
#X connect 36 0 35 0;
#X connect 36 1 35 1;
#X connect 37 0 38 0;
#X connect 38 0 1 0;
#X connect 39 0 40 0;
#X connect 40 0 34 0;
#X connect 42 0 44 0;
#X connect 43 0 49 0;
#X connect 44 0 57 0;
#X connect 45 0 30 0;
#X connect 46 0 18 0;
#X connect 47 0 48 0;
#X connect 48 0 22 0;
#X connect 49 0 54 1;
#X connect 50 0 47 0;
#X connect 51 0 55 0;
#X connect 52 0 55 0;
#X connect 53 0 56 0;
#X connect 54 0 50 0;
#X connect 55 0 54 0;
#X connect 56 0 55 0;
#X connect 57 0 29 0;
#X connect 57 1 46 0;
#X connect 57 1 45 0;
#X connect 57 1 55 1;
