#N canvas 152 23 1271 855 12;
#X declare -lib zexy;
#X msg 148 184 1;
#X obj 98 61 r sensors;
#X obj 1067 198 spigot;
#X obj 1106 179 r log_control_values;
#X obj 1067 230 print ctrl;
#X obj 1027 404 spigot;
#X obj 1067 262 r ctrl_send;
#X obj 287 125 r sensor_send;
#X obj 282 215 &&;
#X obj 301 191 t b a;
#X text 323 214 making sure that wifi setup is ready;
#X msg 1160 333 1;
#X obj 1067 326 &&;
#X obj 1067 294 t b a;
#X obj 173 88 r wifi_ready;
#X obj 150 161 t b;
#X obj 1160 269 r wifi_ready;
#X obj 1160 301 t b;
#X text 1107 403 making sure that wifi setup is ready;
#X obj 613 61 r my_id;
#X obj 716 61 r my_ip;
#X obj 613 93 symbol;
#X obj 113 593 list trim;
#X obj 808 378 symbol;
#X obj 603 378 bng 15 250 50 0 empty empty empty 17 7 0 10 -262144
-1 -1;
#X obj 656 336 r send_ip;
#X obj 755 410 pack s s;
#X obj 755 378 symbol;
#X obj 621 354 t b;
#X obj 591 161 t b a;
#X obj 1027 142 r ctrl_data;
#X obj 64 161 list;
#X obj 25 61 metro 40;
#X obj 284 30 loadbang;
#X obj 76 18 r sensor_speed;
#X msg 379 79 1;
#N canvas 847 23 528 608 timestamp 1;
#X obj 83 102 time, f 17;
#X text 210 137 msec;
#X text 203 234 sec;
#X text 169 260 min;
#X text 161 310 hours;
#X obj 155 235 * 1000;
#X obj 111 271 * 60000;
#X obj 92 309 * 3.6e+06;
#X obj 92 346 expr $f1 + $f2 + $f3 + $f4;
#X obj 82 68 t b;
#X obj 239 35 inlet;
#X obj 92 431 outlet;
#X floatatom 135 177 5 0 0 0 - - -;
#X obj 316 27 declare -lib zexy;
#X msg 47 321 3.33;
#X obj 82 37 loadbang;
#X obj 289 454 + 40;
#X obj 452 117 inlet;
#X obj 272 247 t b;
#X obj 299 124 bng 15 250 50 0 empty empty empty 17 7 0 10 -262144
-1 -1;
#X obj 25 75 bng 15 250 50 0 empty empty empty 17 7 0 10 -262144 -1
-1;
#X obj 273 489 t f f;
#X obj 302 405 f 0;
#X obj 271 531 - 40;
#X connect 0 0 7 0;
#X connect 0 1 6 0;
#X connect 0 1 12 0;
#X connect 0 2 5 0;
#X connect 0 3 8 3;
#X connect 5 0 8 2;
#X connect 6 0 8 1;
#X connect 7 0 8 0;
#X connect 9 0 0 0;
#X connect 10 0 18 0;
#X connect 14 0 11 0;
#X connect 15 0 9 0;
#X connect 16 0 21 0;
#X connect 17 0 16 1;
#X connect 17 0 23 1;
#X connect 18 0 22 0;
#X connect 19 0 18 0;
#X connect 20 0 0 0;
#X connect 21 0 23 0;
#X connect 21 1 22 1;
#X connect 22 0 16 0;
#X connect 23 0 11 0;
#X restore 154 300 pd timestamp;
#X obj 78 263 t l b;
#X obj 78 336 list;
#X obj 135 762 zmq;
#X msg 446 693 socket publish;
#X obj 414 693 t b b;
#X obj 482 654 bng 15 250 50 0 empty empty empty 17 7 0 10 -262144
-1 -1;
#X obj 135 794 print PUB;
#X obj 190 693 list prepend send sensors id;
#X obj 190 725 list trim;
#X msg 414 725 connect tcp://192.168.0.10:5556;
#X msg 327 378 send sensors \$1;
#X obj 97 481 list prepend sensors;
#X obj 642 481 list prepend send info;
#X obj 1028 458 list prepend mapped;
#X msg 1145 439 send mapped \$1;
#X obj 777 439 print ip-setup;
#X obj 78 231 gate;
#X obj 731 336 del 400;
#X obj 168 121 delay 500;
#X connect 0 0 53 0;
#X connect 1 0 31 1;
#X connect 2 0 4 0;
#X connect 3 0 2 1;
#X connect 5 0 50 0;
#X connect 6 0 12 0;
#X connect 7 0 8 0;
#X connect 9 0 8 0;
#X connect 9 1 8 1;
#X connect 11 0 5 1;
#X connect 13 0 12 0;
#X connect 13 1 12 1;
#X connect 14 0 55 0;
#X connect 15 0 0 0;
#X connect 16 0 17 0;
#X connect 17 0 11 0;
#X connect 19 0 21 0;
#X connect 20 0 23 0;
#X connect 21 0 29 0;
#X connect 22 0 39 0;
#X connect 23 0 26 1;
#X connect 24 0 27 0;
#X connect 25 0 28 0;
#X connect 26 0 49 0;
#X connect 26 0 52 0;
#X connect 27 0 26 0;
#X connect 28 0 27 0;
#X connect 29 0 41 0;
#X connect 29 0 54 0;
#X connect 29 1 47 0;
#X connect 29 1 27 1;
#X connect 29 1 51 0;
#X connect 30 0 2 0;
#X connect 30 0 5 0;
#X connect 31 0 53 1;
#X connect 32 0 31 0;
#X connect 33 0 32 0;
#X connect 33 0 35 0;
#X connect 34 0 32 1;
#X connect 34 0 36 1;
#X connect 35 0 8 0;
#X connect 36 0 38 1;
#X connect 37 0 38 0;
#X connect 37 1 36 0;
#X connect 38 0 48 0;
#X connect 40 0 39 0;
#X connect 41 0 46 0;
#X connect 41 1 40 0;
#X connect 42 0 41 0;
#X connect 44 0 45 0;
#X connect 45 0 39 0;
#X connect 46 0 39 0;
#X connect 47 0 48 1;
#X connect 48 0 22 0;
#X connect 49 0 22 0;
#X connect 50 0 22 0;
#X connect 51 0 50 1;
#X connect 53 0 37 0;
#X connect 54 0 27 0;
#X connect 55 0 15 0;
