#N canvas 4 187 1436 691 12;
#X declare -lib zexy;
#X obj 78 231 spigot;
#X msg 147 142 1;
#X obj 98 61 r sensors;
#X obj 1067 204 spigot;
#X obj 1106 179 r log_control_values;
#X obj 1067 230 print ctrl;
#X obj 1027 412 spigot;
#X obj 1066 275 r ctrl_send;
#X obj 126 109 r sensor_send;
#X obj 1028 458 oscformat ctrl;
#X obj 128 198 &&;
#X obj 147 166 t b a;
#X msg 262 506 disconnect;
#X obj 78 539 netsend -u -b;
#X obj 200 591 print netsend;
#X obj 198 565 print netsend1;
#X obj 78 628 delay 1000;
#X obj 78 568 sel 0 1;
#X obj 78 599 t b b;
#X msg 357 548 connect 192.168.178.255 51555;
#X msg 259 472 connect 239.200.200.200 51555;
#X obj 78 431 oscformat sensor;
#X text 262 447 multicast address and port;
#X text 354 573 broadcast address and port: we do not use it;
#X text 169 201 making sure that wifi setup is ready;
#X msg 1085 328 1;
#X obj 1066 384 &&;
#X obj 1085 352 t b a;
#X obj 242 92 r wifi_ready;
#X obj 241 115 t b;
#X obj 1160 275 r wifi_ready;
#X obj 1160 300 t b;
#X text 1107 386 making sure that wifi setup is ready;
#X obj 613 63 r my_id;
#X obj 716 62 r my_ip;
#X obj 613 92 symbol;
#X msg 135 390 set \$1 sensor;
#X msg 930 414 set \$1 ctrl;
#X obj 78 487 list prepend send;
#X obj 78 512 list trim;
#X obj 808 380 symbol;
#X obj 755 429 oscformat ip;
#X obj 603 365 bng 15 250 50 0 empty empty empty 17 7 0 10 -262144
-1 -1;
#X obj 731 353 del 100;
#X obj 656 329 r send_ip;
#X obj 755 404 pack s s;
#X obj 755 380 symbol;
#X obj 656 361 t b;
#X obj 613 201 t b a;
#X obj 1027 147 r ctrl_data;
#X obj 64 161 list;
#X obj 62 29 metro 40;
#X obj 223 36 loadbang;
#X obj 147 12 r sensor_speed;
#X msg 192 78 1;
#N canvas 355 23 528 608 timestamp 1;
#X obj 83 102 time, f 17;
#X text 210 137 msec;
#X text 203 234 sec;
#X text 169 260 min;
#X text 161 310 hours;
#X obj 155 235 * 1000;
#X obj 111 271 * 60000;
#X obj 92 309 * 3.6e+06;
#X obj 92 346 expr $f1 + $f2 + $f3 + $f4;
#X obj 82 68 t b;
#X obj 239 35 inlet;
#X obj 92 431 outlet;
#X floatatom 135 177 5 0 0 0 - - -;
#X obj 316 27 declare -lib zexy;
#X msg 47 321 3.33;
#X obj 82 37 loadbang;
#X obj 302 405 f;
#X obj 289 454 + 40;
#X obj 466 50 inlet;
#X obj 272 247 t b;
#X obj 299 124 bng 15 250 50 0 empty empty empty 17 7 0 10 -262144
-1 -1;
#X obj 25 75 bng 15 250 50 0 empty empty empty 17 7 0 10 -262144 -1
-1;
#X obj 273 489 t f f;
#X connect 0 0 7 0;
#X connect 0 1 6 0;
#X connect 0 1 12 0;
#X connect 0 2 5 0;
#X connect 0 3 8 3;
#X connect 5 0 8 2;
#X connect 6 0 8 1;
#X connect 7 0 8 0;
#X connect 8 0 16 1;
#X connect 9 0 0 0;
#X connect 10 0 19 0;
#X connect 14 0 11 0;
#X connect 15 0 9 0;
#X connect 16 0 17 0;
#X connect 17 0 22 0;
#X connect 18 0 17 1;
#X connect 19 0 16 0;
#X connect 20 0 19 0;
#X connect 21 0 0 0;
#X connect 22 0 11 0;
#X connect 22 1 16 1;
#X restore 154 300 pd timestamp;
#X obj 78 269 t l b;
#X obj 78 336 list;
#X connect 0 0 56 0;
#X connect 1 0 11 0;
#X connect 2 0 50 1;
#X connect 3 0 5 0;
#X connect 4 0 3 1;
#X connect 6 0 9 0;
#X connect 7 0 26 0;
#X connect 8 0 10 0;
#X connect 9 0 38 0;
#X connect 10 0 0 1;
#X connect 11 0 10 0;
#X connect 11 1 10 1;
#X connect 12 0 13 0;
#X connect 13 0 14 0;
#X connect 13 0 17 0;
#X connect 13 1 15 0;
#X connect 16 0 20 0;
#X connect 17 0 18 0;
#X connect 17 1 43 0;
#X connect 18 0 16 0;
#X connect 18 1 12 0;
#X connect 19 0 13 0;
#X connect 20 0 13 0;
#X connect 21 0 38 0;
#X connect 25 0 27 0;
#X connect 26 0 6 1;
#X connect 27 0 26 0;
#X connect 27 1 26 1;
#X connect 28 0 29 0;
#X connect 29 0 1 0;
#X connect 30 0 31 0;
#X connect 31 0 25 0;
#X connect 33 0 35 0;
#X connect 34 0 40 0;
#X connect 35 0 48 0;
#X connect 36 0 21 0;
#X connect 37 0 9 0;
#X connect 38 0 39 0;
#X connect 39 0 13 0;
#X connect 40 0 45 1;
#X connect 41 0 38 0;
#X connect 42 0 46 0;
#X connect 43 0 46 0;
#X connect 44 0 47 0;
#X connect 45 0 41 0;
#X connect 46 0 45 0;
#X connect 47 0 46 0;
#X connect 48 0 20 0;
#X connect 48 1 37 0;
#X connect 48 1 36 0;
#X connect 48 1 46 1;
#X connect 49 0 3 0;
#X connect 49 0 6 0;
#X connect 50 0 0 0;
#X connect 51 0 50 0;
#X connect 52 0 51 0;
#X connect 52 0 54 0;
#X connect 53 0 51 1;
#X connect 53 0 55 1;
#X connect 54 0 10 0;
#X connect 55 0 57 1;
#X connect 56 0 57 0;
#X connect 56 1 55 0;
#X connect 57 0 21 0;
