#N canvas 925 322 650 644 12;
#X obj 54 278 spigot 1;
#X obj 122 278 spigot;
#X msg 53 374 1;
#X obj 222 208 - 1;
#X obj 223 232 abs;
#X obj 224 184 t a a;
#X obj 319 340 sel 220 221;
#X obj 317 376 t b b;
#X msg 418 417 219;
#X obj 386 376 t b b;
#X msg 349 417 192;
#X msg 296 417 0;
#X obj 127 463 list prepend;
#X obj 127 493 t a;
#X obj 46 521 list prepend;
#X msg 193 155 0;
#X obj 87 29 inlet;
#X obj 88 118 t a b;
#X obj 46 572 outlet;
#X text 80 325 ESC END;
#X text 338 318 ESC_END ESC_ESC;
#X text 446 416 ESC;
#X text 374 416 END;
#X text 283 77 ESC_END 220 /* ESC ESC_END means END data byte */;
#X text 282 96 ESC_ESC 221 /* ESC ESC_ESC means ESC data byte */;
#X text 270 20 RFC 1055;
#X text 283 41 END 192 /* indicates end of packet */;
#X text 283 58 ESC 219 /* indicates byte stuffing */;
#X obj 88 159 listiter;
#X text 565 609 i-n-g-o;
#X obj 22 67 route clear;
#X obj 144 106 t b, f 6;
#X obj 22 36 inlet;
#X obj 21 202 t f f;
#X obj 85 404 t b b;
#X obj 53 347 sel 219 192;
#X connect 0 0 35 0;
#X connect 1 0 6 0;
#X connect 2 0 5 0;
#X connect 3 0 4 0;
#X connect 4 0 0 1;
#X connect 5 0 3 0;
#X connect 5 1 1 1;
#X connect 6 0 7 0;
#X connect 6 1 9 0;
#X connect 7 0 11 0;
#X connect 7 1 10 0;
#X connect 8 0 12 0;
#X connect 9 0 11 0;
#X connect 9 1 8 0;
#X connect 10 0 12 0;
#X connect 11 0 5 0;
#X connect 12 0 13 0;
#X connect 13 0 14 1;
#X connect 13 0 12 1;
#X connect 14 0 18 0;
#X connect 15 0 5 0;
#X connect 16 0 17 0;
#X connect 17 0 28 0;
#X connect 17 1 31 0;
#X connect 28 0 0 0;
#X connect 28 0 1 0;
#X connect 30 0 31 0;
#X connect 30 1 33 0;
#X connect 31 0 15 0;
#X connect 31 0 12 1;
#X connect 32 0 30 0;
#X connect 33 0 1 0;
#X connect 33 1 0 0;
#X connect 34 0 31 0;
#X connect 34 1 14 0;
#X connect 35 0 2 0;
#X connect 35 1 34 0;
#X connect 35 2 12 0;
