#N canvas 408 308 683 578 12;
#X obj 113 196 sel 192 219;
#X msg 113 229 219 220;
#X text 25 230 ESC ESC_END;
#X msg 150 260 219 221;
#X text 214 261 ESC ESC_ESC;
#X obj 113 386 t a;
#X obj 113 358 list prepend;
#X obj 62 436 list prepend;
#X obj 90 124 t b a b;
#X msg 62 365 192;
#X obj 90 91 inlet;
#X obj 62 493 outlet;
#X text 301 79 ESC_END 220 /* ESC ESC_END means END data byte */;
#X text 300 98 ESC_ESC 221 /* ESC ESC_ESC means ESC data byte */;
#X text 288 22 RFC 1055;
#X text 301 43 END 192 /* indicates end of packet */;
#X text 301 60 ESC 219 /* indicates byte stuffing */;
#X obj 113 162 listiter;
#X text 598 545 i-n-g-o;
#X connect 0 0 1 0;
#X connect 0 1 3 0;
#X connect 0 2 6 0;
#X connect 1 0 6 0;
#X connect 3 0 6 0;
#X connect 5 0 6 1;
#X connect 5 0 7 1;
#X connect 6 0 5 0;
#X connect 7 0 11 0;
#X connect 8 0 9 0;
#X connect 8 1 17 0;
#X connect 8 2 6 1;
#X connect 9 0 7 0;
#X connect 10 0 8 0;
#X connect 17 0 0 0;
