#N canvas 55 23 1385 811 12;
#X obj 244 252 textfile;
#X obj 113 218 list trim;
#X msg 169 268 clear;
#X msg 432 410 rewind;
#X obj 17 503 route sensor1;
#X obj 17 527 route min;
#X obj 100 528 route max;
#X obj 91 153 list trim;
#X obj 92 126 list prepend add sensor1 min;
#X obj 113 191 list prepend add sensor1 max;
#X obj 215 381 t b a;
#X obj 102 386 gate;
#X msg 96 334 0;
#X obj 383 324 t b;
#X obj 383 348 delay 50;
#X msg 126 335 1;
#X obj 383 375 t b b b;
#X obj 102 365 tgl 15 0 empty empty empty 17 7 0 10 -262144 -1 -1 0
1;
#X obj 39 -27 inlet;
#X obj 165 -25 inlet;
#X obj 108 -25 inlet;
#X obj 16 704 outlet;
#X obj 83 705 outlet;
#X obj 183 533 route min;
#X obj 266 534 route max;
#X obj 182 710 outlet;
#X obj 249 711 outlet;
#X obj 183 509 route sensor2;
#X obj 218 93 list trim;
#X obj 215 35 list trim;
#X obj 265 -26 inlet;
#X obj 214 -25 inlet;
#X obj 216 6 list prepend add sensor2 min;
#X obj 217 66 list prepend add sensor2 max;
#X obj 430 91 list trim;
#X obj 432 36 list trim;
#X obj 488 -29 inlet;
#X obj 439 -27 inlet;
#X obj 433 8 list prepend add sensor3 min;
#X obj 429 64 list prepend add sensor3 max;
#X obj 510 198 list trim;
#X obj 510 144 list trim;
#X obj 599 -29 inlet;
#X obj 552 -31 inlet;
#X obj 511 115 list prepend add sensor4 min;
#X obj 509 171 list prepend add sensor4 max;
#X obj 657 89 list trim;
#X obj 657 35 list trim;
#X obj 707 -31 inlet;
#X obj 660 -33 inlet;
#X obj 658 6 list prepend add sensor5 min;
#X obj 656 62 list prepend add sensor5 max;
#X obj 728 204 list trim;
#X obj 729 144 list trim;
#X obj 808 -31 inlet;
#X obj 761 -33 inlet;
#X obj 729 121 list prepend add sensor6 min;
#X obj 727 177 list prepend add sensor6 max;
#X obj 873 95 list trim;
#X obj 873 41 list trim;
#X obj 923 -25 inlet;
#X obj 876 -27 inlet;
#X obj 874 12 list prepend add sensor7 min;
#X obj 872 68 list prepend add sensor7 max;
#X obj 959 195 list trim;
#X obj 959 141 list trim;
#X obj 1022 -26 inlet;
#X obj 975 -27 inlet;
#X obj 960 112 list prepend add sensor8 min;
#X obj 958 169 list prepend add sensor8 max;
#X obj 353 535 route min;
#X obj 436 536 route max;
#X obj 352 712 outlet;
#X obj 419 713 outlet;
#X obj 353 511 route sensor3;
#X obj 512 537 route min;
#X obj 595 538 route max;
#X obj 511 714 outlet;
#X obj 578 715 outlet;
#X obj 512 514 route sensor4;
#X obj 680 537 route min;
#X obj 763 538 route max;
#X obj 679 714 outlet;
#X obj 746 715 outlet;
#X obj 680 513 route sensor5;
#X obj 841 541 route min;
#X obj 924 542 route max;
#X obj 840 718 outlet;
#X obj 907 719 outlet;
#X obj 841 517 route sensor6;
#X obj 1002 536 route min;
#X obj 1085 537 route max;
#X obj 1001 713 outlet;
#X obj 1068 714 outlet;
#X obj 1002 512 route sensor7;
#X obj 1161 534 route min;
#X obj 1244 535 route max;
#X obj 1160 711 outlet;
#X obj 1227 712 outlet;
#X obj 1161 510 route sensor8;
#X obj 632 422 print preset:;
#X msg 628 395 finish reading;
#X obj 30 235 sel 1 0;
#X obj 53 284 delay 200;
#X msg 822 363 read \$1 cr;
#X obj 826 335 symbol;
#X obj 731 326 symbol;
#X msg 733 363 write \$1 cr;
#X obj 769 265 symbol;
#X obj 769 242 r path;
#X obj 784 413 print preset_file;
#X obj 30 196 change;
#X msg 792 291 symbol \$1/threshold.txt;
#X connect 0 0 10 0;
#X connect 0 1 12 0;
#X connect 1 0 0 0;
#X connect 2 0 0 0;
#X connect 3 0 0 0;
#X connect 4 0 5 0;
#X connect 4 0 6 0;
#X connect 5 0 21 0;
#X connect 6 0 22 0;
#X connect 7 0 0 0;
#X connect 8 0 7 0;
#X connect 9 0 1 0;
#X connect 10 0 11 1;
#X connect 10 1 4 0;
#X connect 10 1 27 0;
#X connect 10 1 74 0;
#X connect 10 1 79 0;
#X connect 10 1 84 0;
#X connect 10 1 89 0;
#X connect 10 1 94 0;
#X connect 10 1 99 0;
#X connect 11 0 0 0;
#X connect 12 0 17 0;
#X connect 13 0 14 0;
#X connect 14 0 16 0;
#X connect 15 0 17 0;
#X connect 16 0 0 0;
#X connect 16 0 101 0;
#X connect 16 1 15 0;
#X connect 16 2 3 0;
#X connect 17 0 11 0;
#X connect 18 0 111 0;
#X connect 19 0 9 0;
#X connect 20 0 8 0;
#X connect 23 0 25 0;
#X connect 24 0 26 0;
#X connect 27 0 23 0;
#X connect 27 0 24 0;
#X connect 28 0 0 0;
#X connect 29 0 0 0;
#X connect 30 0 33 0;
#X connect 31 0 32 0;
#X connect 32 0 29 0;
#X connect 33 0 28 0;
#X connect 34 0 0 0;
#X connect 35 0 0 0;
#X connect 36 0 39 0;
#X connect 37 0 38 0;
#X connect 38 0 35 0;
#X connect 39 0 34 0;
#X connect 40 0 0 0;
#X connect 41 0 0 0;
#X connect 42 0 45 0;
#X connect 43 0 44 0;
#X connect 44 0 41 0;
#X connect 45 0 40 0;
#X connect 46 0 0 0;
#X connect 47 0 0 0;
#X connect 48 0 51 0;
#X connect 49 0 50 0;
#X connect 50 0 47 0;
#X connect 51 0 46 0;
#X connect 52 0 0 0;
#X connect 53 0 0 0;
#X connect 54 0 57 0;
#X connect 55 0 56 0;
#X connect 56 0 53 0;
#X connect 57 0 52 0;
#X connect 58 0 0 0;
#X connect 59 0 0 0;
#X connect 60 0 63 0;
#X connect 61 0 62 0;
#X connect 62 0 59 0;
#X connect 63 0 58 0;
#X connect 64 0 0 0;
#X connect 65 0 0 0;
#X connect 66 0 69 0;
#X connect 67 0 68 0;
#X connect 68 0 65 0;
#X connect 69 0 64 0;
#X connect 70 0 72 0;
#X connect 71 0 73 0;
#X connect 74 0 70 0;
#X connect 74 0 71 0;
#X connect 75 0 77 0;
#X connect 76 0 78 0;
#X connect 79 0 75 0;
#X connect 79 0 76 0;
#X connect 80 0 82 0;
#X connect 81 0 83 0;
#X connect 84 0 80 0;
#X connect 84 0 81 0;
#X connect 85 0 87 0;
#X connect 86 0 88 0;
#X connect 89 0 85 0;
#X connect 89 0 86 0;
#X connect 90 0 92 0;
#X connect 91 0 93 0;
#X connect 94 0 90 0;
#X connect 94 0 91 0;
#X connect 95 0 97 0;
#X connect 96 0 98 0;
#X connect 99 0 95 0;
#X connect 99 0 96 0;
#X connect 101 0 100 0;
#X connect 102 0 2 0;
#X connect 102 1 103 0;
#X connect 103 0 106 0;
#X connect 104 0 0 0;
#X connect 104 0 13 0;
#X connect 104 0 110 0;
#X connect 105 0 104 0;
#X connect 106 0 107 0;
#X connect 107 0 0 0;
#X connect 107 0 110 0;
#X connect 108 0 112 0;
#X connect 109 0 108 0;
#X connect 111 0 102 0;
#X connect 112 0 105 0;
#X connect 112 0 106 1;
