#N canvas 223 23 1100 743 12;
#X obj 540 139 tgl 15 0 empty empty empty 17 7 0 10 -262144 -1 -1 1
1;
#X obj 176 306 snapshot~;
#X obj 203 328 snapshot~;
#X obj 230 353 snapshot~;
#X obj 261 378 snapshot~;
#X obj 54 32 adc~ 3 4 5 6 7 8 9 10;
#X obj 53 294 snapshot~;
#X obj 80 316 snapshot~;
#X obj 107 341 snapshot~;
#X obj 138 366 snapshot~;
#X obj 53 438 pack 0 0 0 0 0 0 0 0;
#X obj 540 179 t b b;
#X obj 53 558 s sensors;
#X obj 540 117 r sensor_on;
#X obj 510 34 loadbang;
#X msg 510 60 1;
#X obj 590 79 r sensor_speed;
#X obj 52 486 threshold_sensor;
#X obj 540 157 metro 40;
#X obj 654 524 pack 0 0 0 0 0 0 0 0;
#X obj 514 344 t b b;
#X obj 726 336 metro 1000;
#X obj 514 409 rndwalk;
#X obj 583 411 rndwalk;
#X obj 653 411 rndwalk;
#X obj 722 413 rndwalk;
#X obj 790 410 rndwalk;
#X obj 859 412 rndwalk;
#X obj 929 412 rndwalk;
#X obj 998 414 rndwalk;
#X obj 514 318 metro 40;
#X obj 306 557 switch 2 1;
#X obj 310 521 + 1;
#X obj 311 501 tgl 15 0 empty empty empty 17 7 0 10 -262144 -1 -1 0
1;
#X obj 311 470 r sensor_random;
#X obj 43 122 average~ 5000;
#X obj 77 146 average~ 5000;
#X obj 105 171 average~ 5000;
#X obj 140 194 average~ 5000;
#X obj 137 83 average~ 5000;
#X obj 171 107 average~ 5000;
#X obj 199 132 average~ 5000;
#X obj 233 155 average~ 5000;
#X connect 0 0 18 0;
#X connect 1 0 10 4;
#X connect 2 0 10 5;
#X connect 3 0 10 6;
#X connect 4 0 10 7;
#X connect 5 0 35 0;
#X connect 5 1 36 0;
#X connect 5 2 37 0;
#X connect 5 3 38 0;
#X connect 5 4 39 0;
#X connect 5 5 40 0;
#X connect 5 6 41 0;
#X connect 5 7 42 0;
#X connect 6 0 10 0;
#X connect 7 0 10 1;
#X connect 8 0 10 2;
#X connect 9 0 10 3;
#X connect 10 0 17 0;
#X connect 11 0 6 0;
#X connect 11 1 4 0;
#X connect 11 1 3 0;
#X connect 11 1 2 0;
#X connect 11 1 1 0;
#X connect 11 1 9 0;
#X connect 11 1 8 0;
#X connect 11 1 7 0;
#X connect 13 0 0 0;
#X connect 14 0 15 0;
#X connect 15 0 0 0;
#X connect 15 0 21 0;
#X connect 15 0 30 0;
#X connect 16 0 18 1;
#X connect 16 0 30 1;
#X connect 17 0 31 1;
#X connect 18 0 11 0;
#X connect 19 0 31 2;
#X connect 20 0 22 0;
#X connect 20 1 23 0;
#X connect 20 1 24 0;
#X connect 20 1 25 0;
#X connect 20 1 26 0;
#X connect 20 1 27 0;
#X connect 20 1 28 0;
#X connect 20 1 29 0;
#X connect 21 0 22 1;
#X connect 21 0 29 1;
#X connect 21 0 28 1;
#X connect 21 0 27 1;
#X connect 21 0 26 1;
#X connect 21 0 25 1;
#X connect 21 0 24 1;
#X connect 21 0 23 1;
#X connect 22 0 19 0;
#X connect 23 0 19 1;
#X connect 24 0 19 2;
#X connect 25 0 19 3;
#X connect 26 0 19 4;
#X connect 27 0 19 5;
#X connect 28 0 19 6;
#X connect 29 0 19 7;
#X connect 30 0 20 0;
#X connect 31 0 12 0;
#X connect 32 0 31 0;
#X connect 33 0 32 0;
#X connect 34 0 33 0;
#X connect 35 0 6 0;
#X connect 36 0 7 0;
#X connect 37 0 8 0;
#X connect 38 0 9 0;
#X connect 39 0 1 0;
#X connect 40 0 2 0;
#X connect 41 0 3 0;
#X connect 42 0 4 0;
