#N canvas 205 204 1123 674 12;
#X declare -path ../_common;
#X obj 667 54 init;
#X obj 841 74 r wifi_ready;
#X msg 841 99 listen 50555;
#X obj 10 10 declare -path ../_common;
#X obj 667 76 oscsender;
#X obj 667 98 sensorread;
#X msg 466 53 \; pd dsp 1;
#N canvas 162 109 1128 769 testSynth 0;
#X obj 452 584 throw~ outL;
#X obj 562 582 throw~ outR;
#X obj 96 446 *~ 0;
#X obj 231 442 *~ 0;
#X obj 354 426 *~ 0;
#X obj 495 434 *~ 0;
#X obj 410 367 * 0.25;
#X obj 538 353 * 0.25;
#X obj 516 17 inlet;
#X obj 515 60 unpack 0 0 0 0 0 0 0 0;
#X obj 69 355 osc~ 232;
#X obj 204 351 osc~ 356;
#X obj 339 347 osc~ 473;
#X obj 468 343 osc~ 621;
#X obj 274 361 * 0.25;
#X obj 140 375 * 0.25;
#X obj 638 438 *~ 0;
#X obj 773 434 *~ 0;
#X obj 896 418 *~ 0;
#X obj 1037 426 *~ 0;
#X obj 952 359 * 0.25;
#X obj 1080 345 * 0.25;
#X obj 816 353 * 0.25;
#X obj 682 367 * 0.25;
#X obj 611 347 osc~ 732;
#X obj 746 343 osc~ 556;
#X obj 881 339 osc~ 373;
#X obj 1010 335 osc~ 211;
#X obj 91 47 r sensor_base;
#X obj 308 115 thre;
#X obj 400 121 thre;
#X obj 482 123 thre;
#X obj 561 125 thre;
#X obj 621 127 thre;
#X obj 689 128 thre;
#X obj 755 127 thre;
#X obj 820 126 thre;
#X obj 883 92 switch~;
#X obj 883 27 inlet;
#X obj 885 56 == 1;
#X connect 2 0 0 0;
#X connect 2 0 1 0;
#X connect 3 0 0 0;
#X connect 3 0 1 0;
#X connect 4 0 0 0;
#X connect 4 0 1 0;
#X connect 5 0 0 0;
#X connect 5 0 1 0;
#X connect 6 0 4 1;
#X connect 7 0 5 1;
#X connect 8 0 9 0;
#X connect 9 0 29 1;
#X connect 9 1 30 1;
#X connect 9 2 31 1;
#X connect 9 3 32 1;
#X connect 9 4 33 1;
#X connect 9 5 34 1;
#X connect 9 6 35 1;
#X connect 9 7 36 1;
#X connect 10 0 2 0;
#X connect 11 0 3 0;
#X connect 12 0 4 0;
#X connect 13 0 5 0;
#X connect 14 0 3 1;
#X connect 15 0 2 1;
#X connect 16 0 1 0;
#X connect 16 0 0 0;
#X connect 17 0 1 0;
#X connect 17 0 0 0;
#X connect 18 0 1 0;
#X connect 18 0 0 0;
#X connect 19 0 1 0;
#X connect 19 0 0 0;
#X connect 20 0 18 1;
#X connect 21 0 19 1;
#X connect 22 0 17 1;
#X connect 23 0 16 1;
#X connect 24 0 16 0;
#X connect 25 0 17 0;
#X connect 26 0 18 0;
#X connect 27 0 19 0;
#X connect 28 0 29 0;
#X connect 28 0 30 0;
#X connect 28 0 31 0;
#X connect 28 0 32 0;
#X connect 28 0 33 0;
#X connect 28 0 34 0;
#X connect 28 0 35 0;
#X connect 28 0 36 0;
#X connect 29 0 15 0;
#X connect 30 0 14 0;
#X connect 31 0 6 0;
#X connect 32 0 7 0;
#X connect 33 0 23 0;
#X connect 34 0 22 0;
#X connect 35 0 20 0;
#X connect 36 0 21 0;
#X connect 38 0 39 0;
#X connect 39 0 37 0;
#X restore 432 399 pd testSynth;
#X obj 667 120 osccontroller;
#N canvas 25 149 1295 726 ml_voice 0;
#X msg 574 223 help;
#X msg 432 148 mode 1;
#X msg 573 246 train;
#X msg 580 44 num_hidden 7;
#X msg 581 68 min_epochs 300;
#X msg 580 93 max_epochs 400;
#X obj 273 235 list trim;
#X obj 34 236 list prepend add;
#X obj 34 258 list trim;
#X obj 273 213 list prepend map;
#X obj 310 18 inlet;
#X obj 428 302 ml.ann;
#X obj 555 388 route read train;
#X obj 609 429 sel 0 1;
#X obj 555 413 sel 1;
#X obj 209 46 + 1;
#X obj 34 207 list prepend;
#X obj 30 71 loadbang;
#X msg 633 460 1;
#X obj 253 107 gate 2 1;
#X obj 213 172 tgl 15 0 empty empty empty 17 7 0 10 -262144 -1 -1 0
1;
#X obj 213 196 gate;
#X obj 272 189 gate;
#X obj 822 184 int;
#X obj 868 184 int;
#X msg 686 457 train;
#X obj 741 58 r ml_control;
#X obj 570 364 print ann_voice;
#X msg 1038 208 clear;
#X obj 282 322 s ctrl_data;
#X msg 732 458 0;
#X obj 686 434 t b b;
#X obj 741 118 route t_ctrl;
#X obj 1038 185 t b b;
#X msg 1090 208 0;
#X obj 396 422 voice;
#X obj 822 153 route mode sensor write read train clear voicefade voicetype
;
#X obj 1186 180 i;
#X obj 741 88 route 2;
#X msg 501 147 num_outputs 8;
#X msg 32 102 0 0 0 0 0 0 0 0;
#X obj 703 154 s voice_ml_ctrl;
#X obj 425 357 r voice_ml_ctrl;
#X obj 114 125 r voice_ml_ctrl;
#X obj 184 19 r voice_ml_mode;
#X obj 822 267 s voice_ml_mode;
#X obj 215 146 r voice_ml_sensor;
#X obj 868 221 s voice_ml_sensor;
#X obj 883 92 switch~;
#X obj 883 27 inlet;
#X obj 885 56 == 3;
#X obj 1000 332 symbol;
#X obj 912 301 symbol;
#X msg 913 330 write \$1;
#X msg 999 356 read \$1;
#X obj 417 58 r path;
#X obj 417 82 t a b;
#X obj 985 31 symbol;
#X msg 985 54 symbol \$1/training_voice.data;
#X connect 0 0 11 0;
#X connect 1 0 11 0;
#X connect 2 0 11 0;
#X connect 6 0 11 0;
#X connect 7 0 8 0;
#X connect 8 0 11 0;
#X connect 9 0 6 0;
#X connect 10 0 19 1;
#X connect 11 0 29 0;
#X connect 11 0 35 0;
#X connect 11 1 12 0;
#X connect 11 1 27 0;
#X connect 12 0 14 0;
#X connect 12 1 13 0;
#X connect 13 1 18 0;
#X connect 14 0 31 0;
#X connect 15 0 19 0;
#X connect 16 0 7 0;
#X connect 17 0 40 0;
#X connect 18 0 22 0;
#X connect 19 0 22 1;
#X connect 19 1 21 1;
#X connect 20 0 21 0;
#X connect 21 0 16 0;
#X connect 22 0 9 0;
#X connect 23 0 45 0;
#X connect 24 0 47 0;
#X connect 25 0 11 0;
#X connect 26 0 38 0;
#X connect 28 0 11 0;
#X connect 30 0 22 0;
#X connect 31 0 25 0;
#X connect 31 1 30 0;
#X connect 32 0 41 0;
#X connect 32 1 36 0;
#X connect 33 0 28 0;
#X connect 33 1 34 0;
#X connect 34 0 22 0;
#X connect 36 0 23 0;
#X connect 36 1 24 0;
#X connect 36 2 52 0;
#X connect 36 3 51 0;
#X connect 36 4 31 0;
#X connect 36 5 33 0;
#X connect 36 6 35 2;
#X connect 36 7 37 0;
#X connect 37 0 35 3;
#X connect 38 0 32 0;
#X connect 39 0 11 0;
#X connect 40 0 16 1;
#X connect 42 0 35 1;
#X connect 43 0 16 1;
#X connect 44 0 15 0;
#X connect 46 0 20 0;
#X connect 49 0 50 0;
#X connect 50 0 48 0;
#X connect 51 0 54 0;
#X connect 52 0 53 0;
#X connect 53 0 11 0;
#X connect 54 0 11 0;
#X connect 55 0 56 0;
#X connect 56 0 57 0;
#X connect 56 1 1 0;
#X connect 56 1 39 0;
#X connect 57 0 58 0;
#X connect 58 0 52 1;
#X connect 58 0 51 0;
#X restore 509 338 pd ml_voice;
#N canvas 59 23 1381 704 ml_trigger 0;
#X msg 574 223 help;
#X msg 573 246 train;
#X obj 273 235 list trim;
#X obj 34 236 list prepend add;
#X obj 34 258 list trim;
#X obj 273 213 list prepend map;
#X obj 305 22 inlet;
#X obj 555 388 route read train;
#X obj 609 429 sel 0 1;
#X obj 555 413 sel 1;
#X obj 198 88 + 1;
#X obj 34 211 list prepend;
#X obj 38 102 loadbang;
#X msg 633 460 1;
#X obj 253 107 gate 2 1;
#X obj 213 172 tgl 15 0 empty empty empty 17 7 0 10 -262144 -1 -1 0
1;
#X obj 213 196 gate;
#X obj 272 189 gate;
#X obj 822 184 int;
#X obj 868 184 int;
#X msg 686 457 train;
#X obj 741 58 r ml_control;
#X msg 1038 208 clear;
#X msg 732 458 0;
#X obj 741 118 route t_ctrl;
#X obj 1038 185 t b b;
#X msg 1090 208 0;
#X obj 589 325 print svm;
#X floatatom 285 402 5 0 0 0 - - -;
#X obj 1250 190 i;
#X obj 176 64 tgl 15 0 empty empty empty 17 7 0 10 -262144 -1 -1 0
1;
#X obj 442 271 ml.svm;
#X obj 1304 186 f;
#X obj 741 88 route 4;
#X obj 1229 226 s trigger-filenum;
#X obj 868 221 s trigger-ml_sensor;
#X obj 822 267 s trigger-ml_mode;
#X obj 198 62 r trigger-ml_mode;
#X obj 213 146 r trigger-ml_sensor;
#X obj 74 149 r trigger-filenum;
#X msg 39 149 10;
#X msg 452 139 0.9;
#X obj 741 146 route mode sensor write read train clear voicefade voicetype
filenum coeff save load, f 87;
#X obj 283 326 r trigger-filenum;
#X msg 1172 45 1;
#X msg 1246 67 3;
#X msg 1209 58 2;
#X msg 416 137 0.1;
#X msg 1287 27 10;
#X msg 580 113 getattributes;
#X msg 442 194 null_rejection_coeff \$1;
#X obj 415 358 sel 10 0;
#X msg 434 112 null_rejection 0;
#X msg 1295 58 4;
#X msg 1310 87 5;
#X obj 686 434 t b b b;
#X obj 416 325 change;
#X obj 1025 91 switch~;
#X obj 1025 26 inlet;
#X obj 1027 55 == 5;
#X obj 430 400 consonant;
#X obj 981 387 symbol;
#X obj 893 356 symbol;
#X msg 893 380 write \$1;
#X msg 980 411 read \$1;
#X obj 961 44 r path;
#X obj 964 75 symbol;
#X msg 966 109 symbol \$1/train_tri.data;
#X connect 0 0 31 0;
#X connect 1 0 31 0;
#X connect 2 0 31 0;
#X connect 3 0 4 0;
#X connect 4 0 31 0;
#X connect 5 0 2 0;
#X connect 6 0 14 1;
#X connect 7 0 9 0;
#X connect 7 1 8 0;
#X connect 8 1 13 0;
#X connect 9 0 55 0;
#X connect 10 0 14 0;
#X connect 11 0 3 0;
#X connect 12 0 40 0;
#X connect 13 0 17 0;
#X connect 14 0 17 1;
#X connect 14 1 16 1;
#X connect 15 0 16 0;
#X connect 16 0 11 0;
#X connect 17 0 5 0;
#X connect 18 0 36 0;
#X connect 19 0 35 0;
#X connect 20 0 31 0;
#X connect 21 0 33 0;
#X connect 22 0 31 0;
#X connect 23 0 17 0;
#X connect 24 1 42 0;
#X connect 25 0 22 0;
#X connect 25 1 26 0;
#X connect 26 0 17 0;
#X connect 29 0 34 0;
#X connect 30 0 10 0;
#X connect 31 0 28 0;
#X connect 31 0 56 0;
#X connect 31 1 7 0;
#X connect 31 1 27 0;
#X connect 32 0 50 0;
#X connect 33 0 24 0;
#X connect 37 0 10 0;
#X connect 38 0 15 0;
#X connect 39 0 11 1;
#X connect 40 0 11 1;
#X connect 41 0 50 0;
#X connect 42 0 18 0;
#X connect 42 1 19 0;
#X connect 42 2 62 0;
#X connect 42 3 61 0;
#X connect 42 4 55 0;
#X connect 42 5 25 0;
#X connect 42 8 29 0;
#X connect 42 9 32 0;
#X connect 43 0 51 0;
#X connect 44 0 29 0;
#X connect 45 0 29 0;
#X connect 46 0 29 0;
#X connect 47 0 50 0;
#X connect 48 0 29 0;
#X connect 49 0 31 0;
#X connect 50 0 31 0;
#X connect 51 2 60 0;
#X connect 52 0 31 0;
#X connect 53 0 29 0;
#X connect 54 0 29 0;
#X connect 55 0 20 0;
#X connect 55 1 52 0;
#X connect 55 1 47 0;
#X connect 55 2 23 0;
#X connect 56 0 51 0;
#X connect 58 0 59 0;
#X connect 59 0 57 0;
#X connect 61 0 64 0;
#X connect 62 0 63 0;
#X connect 63 0 31 0;
#X connect 64 0 31 0;
#X connect 65 0 66 0;
#X connect 66 0 67 0;
#X connect 67 0 62 1;
#X connect 67 0 61 0;
#X restore 585 288 pd ml_trigger;
#X obj 646 156 r sensors;
#X obj 459 102 r mapping_mode;
#X obj 482 167 + 1;
#X floatatom 400 111 5 0 0 0 - - -;
#X obj 647 231 spigot 1;
#X msg 606 181 0;
#X obj 483 192 t f f;
#X obj 459 126 t b f b;
#X msg 568 181 1;
#X obj 103 453 dac~;
#X obj 222 318 r volume;
#X obj 169 277 catch~ outR;
#X obj 74 278 catch~ outL;
#N canvas 4 23 1436 855 ml_synth 0;
#X msg 653 204 help;
#X msg 620 140 mode 1;
#X msg 652 227 train;
#X obj 448 215 list trim;
#X obj 125 234 list prepend add;
#X obj 125 256 list trim;
#X obj 448 193 list prepend map;
#X obj 605 50 loadbang;
#X obj 557 11 inlet;
#X obj 442 299 ml.ann;
#X obj 613 431 route read train;
#X obj 667 472 sel 0 1;
#X obj 605 74 t b b;
#X obj 613 456 sel 1;
#X obj 409 38 + 1;
#X obj 125 205 list prepend;
#X obj 126 29 loadbang;
#X msg 690 499 1;
#X obj 351 138 tgl 15 0 empty empty empty 17 7 0 10 -262144 -1 -1 0
1;
#X obj 354 161 gate;
#X obj 447 169 gate;
#N canvas 253 23 1128 769 testSynth 0;
#X obj 416 601 throw~ outL;
#X obj 526 599 throw~ outR;
#X obj 394 412 *~ 0;
#X obj 551 415 *~ 0;
#X obj 426 44 inlet;
#X obj 524 324 osc~ 356;
#X obj 594 334 * 0.25;
#X obj 438 341 * 0.25;
#X obj 530 41 inlet;
#X obj 525 264 * 1000;
#X obj 367 321 osc~ 132;
#X obj 367 286 + 100;
#X obj 525 292 + 100;
#X obj 367 258 * 1000;
#X obj 426 77 unpack 0 0 0 0 0 0 0 0;
#X connect 2 0 0 0;
#X connect 2 0 1 0;
#X connect 3 0 0 0;
#X connect 3 0 1 0;
#X connect 4 0 14 0;
#X connect 5 0 3 0;
#X connect 6 0 3 1;
#X connect 7 0 2 1;
#X connect 8 0 14 0;
#X connect 9 0 12 0;
#X connect 10 0 2 0;
#X connect 11 0 10 0;
#X connect 12 0 5 0;
#X connect 13 0 11 0;
#X connect 14 0 13 0;
#X connect 14 1 7 0;
#X connect 14 2 9 0;
#X connect 14 3 6 0;
#X restore 419 427 pd testSynth;
#X obj 287 77 print ml_mode:;
#X obj 1032 168 int;
#X obj 1083 166 int;
#X msg 744 498 train;
#X obj 951 43 r ml_control;
#X obj 616 400 print ann_testSynth;
#X msg 1258 293 clear;
#X obj 951 103 route t_ctrl;
#X obj 744 475 t b b;
#X msg 792 472 0;
#X obj 361 458 s ctrl_data;
#X obj 1260 265 t b b;
#X msg 1314 299 0;
#X obj 472 82 gate 2 1;
#X obj 951 73 route 1;
#X msg 126 56 0 0 0 0 0 0 0 0;
#X msg 689 140 num_outputs 8;
#X msg 1176 390 read /root/training_testSynth.data;
#X msg 1126 414 write /root/training_testSynth.data;
#X obj 919 157 s tsynth_ctrl;
#X obj 409 9 r tsynth_ml_mode;
#X obj 351 111 r tsynth_ml_sensor;
#X obj 453 394 r tsynth_ctrl;
#X obj 205 143 r tsynth_ctrl;
#X obj 1028 300 s tsynth_ml_mode;
#X obj 1080 272 s tsynth_ml_sensor;
#X obj 1032 137 route mode sensor write read train clear;
#X obj 1128 89 switch~;
#X obj 1128 24 inlet;
#X obj 1130 53 == 2;
#X connect 0 0 9 0;
#X connect 1 0 9 0;
#X connect 2 0 9 0;
#X connect 3 0 9 0;
#X connect 4 0 5 0;
#X connect 5 0 9 0;
#X connect 6 0 3 0;
#X connect 7 0 12 0;
#X connect 8 0 35 1;
#X connect 9 0 21 0;
#X connect 9 0 32 0;
#X connect 9 1 10 0;
#X connect 9 1 27 0;
#X connect 10 0 13 0;
#X connect 10 1 11 0;
#X connect 11 1 17 0;
#X connect 12 0 39 0;
#X connect 12 1 1 0;
#X connect 12 1 38 0;
#X connect 13 0 30 0;
#X connect 14 0 22 0;
#X connect 14 0 35 0;
#X connect 15 0 4 0;
#X connect 16 0 37 0;
#X connect 17 0 20 0;
#X connect 18 0 19 0;
#X connect 19 0 15 0;
#X connect 20 0 6 0;
#X connect 23 0 46 0;
#X connect 24 0 47 0;
#X connect 25 0 9 0;
#X connect 26 0 36 0;
#X connect 28 0 9 0;
#X connect 29 0 41 0;
#X connect 29 1 48 0;
#X connect 30 0 25 0;
#X connect 30 1 31 0;
#X connect 31 0 20 0;
#X connect 33 0 28 0;
#X connect 33 1 34 0;
#X connect 34 0 20 0;
#X connect 35 0 20 1;
#X connect 35 1 19 1;
#X connect 36 0 29 0;
#X connect 37 0 15 1;
#X connect 38 0 9 0;
#X connect 39 0 9 0;
#X connect 40 0 9 0;
#X connect 42 0 14 0;
#X connect 43 0 18 0;
#X connect 44 0 21 1;
#X connect 45 0 15 1;
#X connect 48 0 23 0;
#X connect 48 1 24 0;
#X connect 48 2 40 0;
#X connect 48 3 39 0;
#X connect 48 4 30 0;
#X connect 48 5 33 0;
#X connect 50 0 51 0;
#X connect 51 0 49 0;
#X restore 690 534 pd ml_synth;
#X obj 515 238 gate 6 1, f 14;
#X obj 131 385 *~;
#X obj 261 254 loadbang;
#X msg 281 346 0;
#X msg 316 348 1;
#X msg 261 280 1;
#X obj 94 386 *~;
#X msg 219 345 \$1 50;
#X obj 219 369 line~;
#N canvas 32 86 1252 715 kling 0;
#N canvas 125 23 1288 782 granular 0;
#X obj 837 638 array define grainArray;
#X text 910 559 duration in samples;
#X obj 807 533 soundfiler;
#X floatatom 807 557 0 0 0 0 - - -;
#X obj 654 639 s grainDur;
#X floatatom 654 608 10 0 0 0 - - -;
#X obj 44 509 clone grain 16;
#X msg 47 418 next \$1;
#X text 109 418 target next voice;
#X obj 45 282 phasor~;
#X text 105 279 0-1;
#X obj 45 349 *~;
#X text 80 350 0-dur in samples;
#X floatatom 167 294 15 0 0 0 - - -;
#X obj 174 265 r fileDur;
#X obj 807 581 s fileDur;
#X obj 474 345 tgl 15 0 empty empty empty 17 7 0 10 -262144 -1 -1 1
1;
#X obj 472 382 metro 125;
#X floatatom 46 112 10 0 0 0 - - -;
#X obj 45 25 r fileDur;
#X obj 129 25 loadbang;
#X obj 128 54 samplerate~;
#X obj 45 84 expr $f2 / $f1;
#X obj 198 27 bng 15 250 50 0 empty empty empty 17 7 0 10 -262144 -1
-1;
#X text 126 113 normal speed for this sample;
#X obj 45 250 * 1;
#X floatatom 155 182 10 0 0 0 - - -;
#X text 232 184 playback rate (1 is normal);
#X floatatom 584 342 5 0 0 0 - - -;
#X text 626 343 grain rate;
#X obj 472 406 random 10;
#X obj 472 430 + 50;
#X floatatom 585 402 5 0 0 0 - - -;
#X floatatom 562 433 5 0 0 0 - - -;
#X text 509 427 jitter;
#X obj 49 385 snapshot~;
#X obj 529 114 hsl 128 15 0.1 0.7 0 0 empty empty empty -2 -8 0 10
-228856 -1 -1 0 1;
#X obj 522 210 nbx 5 14 -1e+37 1e+37 0 0 empty empty empty 0 -8 0 10
-228856 -1 -1 0 256;
#X obj 522 152 nbx 5 14 -1e+37 1e+37 0 0 empty empty empty 0 -8 0 10
-228856 -1 -1 0 256;
#X text 582 151 <= input;
#X text 584 211 <= scaled value;
#X obj 761 116 hsl 128 15 0.1 0.7 0 0 empty empty empty -2 -8 0 10
-228856 -1 -1 0 1;
#X obj 755 214 nbx 5 14 -1e+37 1e+37 0 0 empty empty empty 0 -8 0 10
-228856 -1 -1 0 256;
#X obj 758 153 nbx 5 14 -1e+37 1e+37 0 0 empty empty empty 0 -8 0 10
-228856 -1 -1 0 256;
#X text 818 152 <= input;
#X text 820 212 <= scaled value;
#X obj 987 121 hsl 128 15 0.1 0.7 0 0 empty empty empty -2 -8 0 10
-228856 -1 -1 0 1;
#X obj 984 207 nbx 5 14 -1e+37 1e+37 0 0 empty empty empty 0 -8 0 10
-228856 -1 -1 0 256;
#X obj 984 149 nbx 5 14 -1e+37 1e+37 0 0 empty empty empty 0 -8 0 10
-228856 -1 -1 0 256;
#X text 1044 148 <= input;
#X text 1046 208 <= scaled value;
#X obj 807 463 loadbang;
#X obj 472 317 loadbang;
#X obj 69 203 t b f;
#X obj 651 569 loadmess 70;
#X obj 604 434 loadmess 300;
#X obj 627 404 loadmess 35;
#X obj 571 314 loadmess 35;
#X obj 71 748 *~ 0.1;
#X msg 808 490 read -resize Julia_trainingAudio_k.wav grainArray;
#X obj 203 719 nbx 5 14 -1e+37 1e+37 0 0 empty empty empty 0 -8 0 10
-228856 -1 -1 0 256;
#X text 263 660 <= input;
#X text 265 720 <= scaled value;
#X obj 591 53 unpack 0 0 0 0 0 0 0 0;
#X obj 590 15 inlet;
#X obj 522 180 scale 0 1 -0.7 0.9;
#X obj 758 181 scale 0 1 5 70;
#X obj 984 177 scale 0 1 60 240;
#X obj 33 829 throw~ outL;
#X obj 133 828 throw~ outR;
#X obj 203 689 scale 0 1 0 0.2;
#X connect 2 0 3 0;
#X connect 3 0 15 0;
#X connect 5 0 4 0;
#X connect 6 0 58 0;
#X connect 7 0 6 0;
#X connect 9 0 11 0;
#X connect 11 0 35 0;
#X connect 13 0 11 1;
#X connect 14 0 13 0;
#X connect 16 0 17 0;
#X connect 17 0 30 0;
#X connect 17 0 35 0;
#X connect 18 0 25 0;
#X connect 19 0 22 0;
#X connect 20 0 21 0;
#X connect 21 0 22 1;
#X connect 22 0 18 0;
#X connect 23 0 21 0;
#X connect 25 0 9 0;
#X connect 26 0 53 0;
#X connect 28 0 17 1;
#X connect 30 0 31 0;
#X connect 32 0 30 1;
#X connect 33 0 31 1;
#X connect 35 0 7 0;
#X connect 36 0 38 0;
#X connect 38 0 65 0;
#X connect 41 0 43 0;
#X connect 42 0 28 0;
#X connect 43 0 66 0;
#X connect 46 0 48 0;
#X connect 48 0 67 0;
#X connect 51 0 59 0;
#X connect 52 0 16 0;
#X connect 53 0 25 0;
#X connect 53 1 25 1;
#X connect 54 0 5 0;
#X connect 55 0 33 0;
#X connect 56 0 32 0;
#X connect 57 0 28 0;
#X connect 58 0 68 0;
#X connect 58 0 69 0;
#X connect 59 0 2 0;
#X connect 63 0 65 0;
#X connect 63 1 66 0;
#X connect 63 2 67 0;
#X connect 63 3 70 0;
#X connect 64 0 63 0;
#X connect 65 0 37 0;
#X connect 65 0 26 0;
#X connect 66 0 42 0;
#X connect 67 0 47 0;
#X connect 67 0 5 0;
#X connect 70 0 60 0;
#X connect 70 0 58 1;
#X restore 370 435 pd granular;
#X msg 574 223 help;
#X msg 432 148 mode 1;
#X msg 573 246 train;
#X msg 580 44 num_hidden 7;
#X msg 581 68 min_epochs 300;
#X msg 580 93 max_epochs 400;
#X obj 273 235 list trim;
#X obj 34 236 list prepend add;
#X obj 34 258 list trim;
#X obj 273 213 list prepend map;
#X obj 339 21 inlet;
#X obj 428 302 ml.ann;
#X obj 555 388 route read train;
#X obj 609 429 sel 0 1;
#X obj 555 413 sel 1;
#X obj 209 46 + 1;
#X obj 34 207 list prepend;
#X obj 33 77 loadbang;
#X msg 633 460 1;
#X obj 253 107 gate 2 1;
#X obj 213 172 tgl 15 0 empty empty empty 17 7 0 10 -262144 -1 -1 0
1;
#X obj 213 196 gate;
#X obj 272 189 gate;
#X obj 822 184 int;
#X obj 868 184 int;
#X msg 686 457 train;
#X obj 741 58 r ml_control;
#X obj 570 364 print ann_voice;
#X msg 1038 208 clear;
#X obj 282 322 s ctrl_data;
#X msg 732 458 0;
#X obj 686 434 t b b;
#X obj 741 118 route t_ctrl;
#X obj 1038 185 t b b;
#X msg 1090 208 0;
#X obj 822 153 route mode sensor write read train clear voicefade voicetype
;
#X obj 1186 186 i;
#X msg 501 148 num_outputs 8;
#X obj 883 92 switch~;
#X obj 883 27 inlet;
#X obj 885 56 == 6;
#X obj 741 88 route 5;
#X obj 424 382 r granlar-t_ctrl;
#X obj 115 113 r granlar-t_ctrl;
#X obj 209 20 r granlar-ml_mode;
#X obj 698 154 s granlar-t_ctrl;
#X obj 822 267 s granlar-ml_mode;
#X obj 213 146 r granlar-ml_sensor;
#X obj 868 221 s granlar-ml_sensor;
#X msg 34 97 0 0 0 0 0 0 0 0;
#X obj 969 33 r path;
#X obj 981 387 symbol;
#X obj 893 356 symbol;
#X msg 893 380 write \$1;
#X msg 980 411 read \$1;
#X obj 969 62 t a b;
#X obj 969 88 symbol;
#X msg 969 112 symbol \$1/training_granlar.data;
#X connect 1 0 12 0;
#X connect 2 0 12 0;
#X connect 3 0 12 0;
#X connect 7 0 12 0;
#X connect 8 0 9 0;
#X connect 9 0 12 0;
#X connect 10 0 7 0;
#X connect 11 0 20 1;
#X connect 12 0 30 0;
#X connect 12 0 0 0;
#X connect 12 1 13 0;
#X connect 12 1 28 0;
#X connect 13 0 15 0;
#X connect 13 1 14 0;
#X connect 14 1 19 0;
#X connect 15 0 32 0;
#X connect 16 0 20 0;
#X connect 17 0 8 0;
#X connect 18 0 50 0;
#X connect 19 0 23 0;
#X connect 20 0 23 1;
#X connect 20 1 22 1;
#X connect 21 0 22 0;
#X connect 22 0 17 0;
#X connect 23 0 10 0;
#X connect 24 0 47 0;
#X connect 25 0 49 0;
#X connect 26 0 12 0;
#X connect 27 0 42 0;
#X connect 29 0 12 0;
#X connect 31 0 23 0;
#X connect 32 0 26 0;
#X connect 32 1 31 0;
#X connect 33 0 46 0;
#X connect 33 1 36 0;
#X connect 34 0 29 0;
#X connect 34 1 35 0;
#X connect 35 0 23 0;
#X connect 36 0 24 0;
#X connect 36 1 25 0;
#X connect 36 2 53 0;
#X connect 36 3 52 0;
#X connect 36 4 32 0;
#X connect 36 5 34 0;
#X connect 36 7 37 0;
#X connect 38 0 12 0;
#X connect 40 0 41 0;
#X connect 41 0 39 0;
#X connect 42 0 33 0;
#X connect 43 0 0 0;
#X connect 44 0 17 1;
#X connect 45 0 16 0;
#X connect 48 0 21 0;
#X connect 50 0 17 1;
#X connect 51 0 56 0;
#X connect 52 0 55 0;
#X connect 53 0 54 0;
#X connect 55 0 12 0;
#X connect 56 0 57 0;
#X connect 56 1 2 0;
#X connect 56 1 38 0;
#X connect 57 0 58 0;
#X connect 58 0 53 1;
#X connect 58 0 52 0;
#X restore 633 265 pd kling;
#N canvas 162 40 1128 838 testSynth 0;
#X obj 452 584 throw~ outL;
#X obj 562 582 throw~ outR;
#X obj 96 446 *~ 0;
#X obj 231 442 *~ 0;
#X obj 354 426 *~ 0;
#X obj 495 434 *~ 0;
#X obj 410 367 * 0.25;
#X obj 538 353 * 0.25;
#X obj 516 17 inlet;
#X obj 515 60 unpack 0 0 0 0 0 0 0 0;
#X obj 69 355 osc~ 232;
#X obj 204 351 osc~ 356;
#X obj 339 347 osc~ 473;
#X obj 468 343 osc~ 621;
#X obj 274 361 * 0.25;
#X obj 140 375 * 0.25;
#X obj 638 438 *~ 0;
#X obj 773 434 *~ 0;
#X obj 896 418 *~ 0;
#X obj 1037 426 *~ 0;
#X obj 952 359 * 0.25;
#X obj 1080 345 * 0.25;
#X obj 816 353 * 0.25;
#X obj 682 367 * 0.25;
#X obj 611 347 osc~ 732;
#X obj 746 343 osc~ 556;
#X obj 881 339 osc~ 373;
#X obj 1010 335 osc~ 211;
#X obj 883 92 switch~;
#X obj 883 27 inlet;
#X obj 885 56 == 2;
#X obj 293 148 t f f;
#X obj 292 190 - 0.5;
#X connect 2 0 0 0;
#X connect 2 0 1 0;
#X connect 3 0 0 0;
#X connect 3 0 1 0;
#X connect 4 0 0 0;
#X connect 4 0 1 0;
#X connect 5 0 0 0;
#X connect 5 0 1 0;
#X connect 6 0 4 1;
#X connect 7 0 5 1;
#X connect 8 0 9 0;
#X connect 10 0 2 0;
#X connect 11 0 3 0;
#X connect 12 0 4 0;
#X connect 13 0 5 0;
#X connect 14 0 3 1;
#X connect 15 0 2 1;
#X connect 16 0 1 0;
#X connect 16 0 0 0;
#X connect 17 0 1 0;
#X connect 17 0 0 0;
#X connect 18 0 1 0;
#X connect 18 0 0 0;
#X connect 19 0 1 0;
#X connect 19 0 0 0;
#X connect 20 0 18 1;
#X connect 21 0 19 1;
#X connect 22 0 17 1;
#X connect 23 0 16 1;
#X connect 24 0 16 0;
#X connect 25 0 17 0;
#X connect 26 0 18 0;
#X connect 27 0 19 0;
#X connect 29 0 30 0;
#X connect 30 0 28 0;
#X connect 31 0 32 1;
#X connect 31 1 32 0;
#X restore 568 423 pd testSynth;
#X obj 104 127 s path;
#X obj 103 56 loadbang;
#X text 517 4 simple-kling;
#X msg 103 90 /root/Bela/projects/simple-kling;
#X connect 1 0 2 0;
#X connect 2 0 8 0;
#X connect 11 0 15 0;
#X connect 12 0 18 0;
#X connect 13 0 17 0;
#X connect 14 0 18 0;
#X connect 15 0 25 1;
#X connect 16 0 15 1;
#X connect 17 1 25 0;
#X connect 17 1 7 1;
#X connect 17 1 9 1;
#X connect 17 1 10 1;
#X connect 17 1 34 1;
#X connect 18 0 19 0;
#X connect 18 1 13 0;
#X connect 18 2 16 0;
#X connect 19 0 15 1;
#X connect 21 0 32 0;
#X connect 22 0 26 0;
#X connect 23 0 31 0;
#X connect 25 0 7 0;
#X connect 25 2 9 0;
#X connect 25 4 10 0;
#X connect 25 5 34 0;
#X connect 26 0 20 1;
#X connect 27 0 30 0;
#X connect 28 0 32 0;
#X connect 29 0 32 0;
#X connect 30 0 32 0;
#X connect 31 0 20 0;
#X connect 32 0 33 0;
#X connect 33 0 26 1;
#X connect 33 0 31 1;
#X connect 37 0 39 0;
#X connect 39 0 36 0;
