#N canvas 315 23 1123 674 12;
#X declare -path ../_common;
#X obj 667 54 init;
#X obj 777 118 r wifi_ready;
#X obj 10 10 declare -path ../_common;
#X obj 667 76 oscsender;
#X obj 667 98 sensorread;
#X msg 466 53 \; pd dsp 1;
#N canvas 162 109 1128 769 testSynth 0;
#X obj 452 584 throw~ outL;
#X obj 562 582 throw~ outR;
#X obj 96 446 *~ 0;
#X obj 231 442 *~ 0;
#X obj 354 426 *~ 0;
#X obj 495 434 *~ 0;
#X obj 410 367 * 0.25;
#X obj 538 353 * 0.25;
#X obj 516 17 inlet;
#X obj 515 60 unpack 0 0 0 0 0 0 0 0;
#X obj 69 355 osc~ 232;
#X obj 204 351 osc~ 356;
#X obj 339 347 osc~ 473;
#X obj 468 343 osc~ 621;
#X obj 274 361 * 0.25;
#X obj 140 375 * 0.25;
#X obj 638 438 *~ 0;
#X obj 773 434 *~ 0;
#X obj 896 418 *~ 0;
#X obj 1037 426 *~ 0;
#X obj 952 359 * 0.25;
#X obj 1080 345 * 0.25;
#X obj 816 353 * 0.25;
#X obj 682 367 * 0.25;
#X obj 611 347 osc~ 732;
#X obj 746 343 osc~ 556;
#X obj 881 339 osc~ 373;
#X obj 1010 335 osc~ 211;
#X obj 91 47 r sensor_base;
#X obj 308 115 thre;
#X obj 400 121 thre;
#X obj 482 123 thre;
#X obj 561 125 thre;
#X obj 621 127 thre;
#X obj 689 128 thre;
#X obj 755 127 thre;
#X obj 820 126 thre;
#X obj 883 92 switch~;
#X obj 883 27 inlet;
#X obj 885 56 == 1;
#X obj 455 692 s ctrl_data;
#X obj 425 653 pack 0 0 0 0 0 0 0 0;
#X obj 139 316 line;
#X msg 138 286 \$1 50;
#X obj 274 306 line;
#X msg 273 276 \$1 50;
#X obj 408 309 line;
#X msg 407 279 \$1 50;
#X obj 557 296 line;
#X msg 556 266 \$1 50;
#X obj 683 308 line;
#X msg 682 278 \$1 50;
#X obj 806 312 line;
#X msg 805 282 \$1 50;
#X obj 948 315 line;
#X msg 947 285 \$1 50;
#X obj 1058 295 line;
#X msg 1057 265 \$1 50;
#X connect 2 0 0 0;
#X connect 2 0 1 0;
#X connect 3 0 0 0;
#X connect 3 0 1 0;
#X connect 4 0 0 0;
#X connect 4 0 1 0;
#X connect 5 0 0 0;
#X connect 5 0 1 0;
#X connect 6 0 4 1;
#X connect 7 0 5 1;
#X connect 8 0 9 0;
#X connect 9 0 29 1;
#X connect 9 1 30 1;
#X connect 9 2 31 1;
#X connect 9 3 32 1;
#X connect 9 4 33 1;
#X connect 9 5 34 1;
#X connect 9 6 35 1;
#X connect 9 7 36 1;
#X connect 10 0 2 0;
#X connect 11 0 3 0;
#X connect 12 0 4 0;
#X connect 13 0 5 0;
#X connect 14 0 3 1;
#X connect 15 0 2 1;
#X connect 16 0 1 0;
#X connect 16 0 0 0;
#X connect 17 0 1 0;
#X connect 17 0 0 0;
#X connect 18 0 1 0;
#X connect 18 0 0 0;
#X connect 19 0 1 0;
#X connect 19 0 0 0;
#X connect 20 0 18 1;
#X connect 21 0 19 1;
#X connect 22 0 17 1;
#X connect 23 0 16 1;
#X connect 24 0 16 0;
#X connect 25 0 17 0;
#X connect 26 0 18 0;
#X connect 27 0 19 0;
#X connect 28 0 29 0;
#X connect 28 0 30 0;
#X connect 28 0 31 0;
#X connect 28 0 32 0;
#X connect 28 0 33 0;
#X connect 28 0 34 0;
#X connect 28 0 35 0;
#X connect 28 0 36 0;
#X connect 29 0 43 0;
#X connect 30 0 45 0;
#X connect 31 0 47 0;
#X connect 32 0 49 0;
#X connect 33 0 51 0;
#X connect 34 0 53 0;
#X connect 35 0 55 0;
#X connect 36 0 57 0;
#X connect 38 0 39 0;
#X connect 39 0 37 0;
#X connect 41 0 40 0;
#X connect 42 0 15 0;
#X connect 42 0 41 0;
#X connect 43 0 42 0;
#X connect 44 0 14 0;
#X connect 44 0 41 1;
#X connect 45 0 44 0;
#X connect 46 0 6 0;
#X connect 46 0 41 2;
#X connect 47 0 46 0;
#X connect 48 0 7 0;
#X connect 48 0 41 3;
#X connect 49 0 48 0;
#X connect 50 0 23 0;
#X connect 50 0 41 4;
#X connect 51 0 50 0;
#X connect 52 0 22 0;
#X connect 52 0 41 5;
#X connect 53 0 52 0;
#X connect 54 0 20 0;
#X connect 54 0 41 6;
#X connect 55 0 54 0;
#X connect 56 0 21 0;
#X connect 56 0 41 7;
#X connect 57 0 56 0;
#X restore 432 449 pd testSynth;
#X obj 667 120 osccontroller;
#N canvas 110 23 1295 726 ml_voice 0;
#X msg 574 223 help;
#X msg 626 98 mode 1;
#X msg 573 246 train;
#X msg 417 137 min_epochs 300;
#X msg 480 113 max_epochs 400;
#X obj 273 235 list trim;
#X obj 34 236 list prepend add;
#X obj 34 258 list trim;
#X obj 273 213 list prepend map;
#X obj 310 18 inlet;
#X obj 428 302 ml.ann;
#X obj 555 388 route read train;
#X obj 587 440 sel 0 1;
#X obj 555 413 sel 1;
#X obj 209 46 + 1;
#X obj 34 207 list prepend;
#X obj 30 71 loadbang;
#X msg 586 512 1;
#X obj 253 107 gate 2 1;
#X obj 213 172 tgl 15 0 empty empty empty 17 7 0 10 -262144 -1 -1 0
1;
#X obj 213 196 gate;
#X obj 272 189 gate;
#X obj 822 184 int;
#X obj 868 184 int;
#X msg 686 509 train;
#X obj 741 58 r ml_control;
#X msg 1038 208 clear;
#X obj 282 322 s ctrl_data;
#X msg 732 458 0;
#X obj 686 434 t b b;
#X obj 741 118 route t_ctrl;
#X obj 1038 185 t b b;
#X msg 1090 208 0;
#X obj 822 153 route mode sensor write read train clear voicefade voicetype
;
#X obj 1186 180 i;
#X obj 741 88 route 2;
#X msg 560 171 num_outputs 8;
#X msg 32 102 0 0 0 0 0 0 0 0;
#X obj 703 154 s voice_ml_ctrl;
#X obj 409 376 r voice_ml_ctrl;
#X obj 114 125 r voice_ml_ctrl;
#X obj 184 19 r voice_ml_mode;
#X obj 822 267 s voice_ml_mode;
#X obj 215 146 r voice_ml_sensor;
#X obj 868 221 s voice_ml_sensor;
#X obj 883 92 switch~;
#X obj 883 27 inlet;
#X obj 885 56 == 3;
#X obj 1000 332 symbol;
#X obj 912 301 symbol;
#X msg 913 330 write \$1;
#X msg 999 356 read \$1;
#X obj 419 41 r path;
#X obj 985 31 symbol;
#X obj 396 422 voder;
#X msg 985 54 symbol \$1/training_voice2.data;
#X msg 602 136 scaling 0;
#X text 361 17 sensor data in pack of 8;
#X obj 381 347 constrainer;
#X obj 136 484 spigot;
#X msg 178 457 1;
#X obj 139 511 t l b;
#X obj 173 578 + 1;
#X obj 172 547 i 0;
#X obj 173 615 t f f;
#X obj 172 647 < 100;
#X obj 155 431 t b b b;
#X msg 219 460 0;
#X obj 59 571 print annout;
#X msg 383 112 num_hidden 5;
#X obj 577 337 print ann;
#X msg 818 401 read /Users/mikst/Documents/_PROJECT/ShapeOfThing/edge_of_the_world-performance/bela/simple-kling/training_voice2.data
;
#X obj 496 51 t a b;
#X obj 418 78 t b b b b b b;
#X obj 1001 92 sel 1;
#X obj 1000 123 onebang;
#X obj 1054 91 loadbang;
#X obj 1101 279 delay 1000;
#X obj 686 483 delay 200;
#X obj 586 474 delay 400;
#X connect 0 0 10 0;
#X connect 1 0 10 0;
#X connect 2 0 10 0;
#X connect 3 0 10 0;
#X connect 4 0 10 0;
#X connect 5 0 10 0;
#X connect 6 0 7 0;
#X connect 7 0 10 0;
#X connect 8 0 5 0;
#X connect 9 0 18 1;
#X connect 9 0 54 1;
#X connect 10 0 58 0;
#X connect 10 1 11 0;
#X connect 10 1 70 0;
#X connect 11 0 13 0;
#X connect 11 1 12 0;
#X connect 12 1 79 0;
#X connect 13 0 29 0;
#X connect 14 0 18 0;
#X connect 15 0 6 0;
#X connect 16 0 37 0;
#X connect 17 0 21 0;
#X connect 18 0 21 1;
#X connect 18 1 20 1;
#X connect 19 0 20 0;
#X connect 20 0 15 0;
#X connect 21 0 8 0;
#X connect 22 0 42 0;
#X connect 23 0 44 0;
#X connect 24 0 10 0;
#X connect 25 0 35 0;
#X connect 26 0 10 0;
#X connect 28 0 21 0;
#X connect 29 0 78 0;
#X connect 29 1 28 0;
#X connect 29 1 72 0;
#X connect 30 0 38 0;
#X connect 30 1 33 0;
#X connect 31 0 26 0;
#X connect 31 1 32 0;
#X connect 32 0 21 0;
#X connect 33 0 22 0;
#X connect 33 1 23 0;
#X connect 33 2 49 0;
#X connect 33 3 48 0;
#X connect 33 4 29 0;
#X connect 33 5 31 0;
#X connect 33 7 34 0;
#X connect 35 0 30 0;
#X connect 36 0 10 0;
#X connect 37 0 15 1;
#X connect 39 0 54 0;
#X connect 40 0 15 1;
#X connect 41 0 14 0;
#X connect 43 0 19 0;
#X connect 46 0 47 0;
#X connect 47 0 45 0;
#X connect 47 0 74 0;
#X connect 48 0 51 0;
#X connect 49 0 50 0;
#X connect 50 0 10 0;
#X connect 51 0 10 0;
#X connect 52 0 72 0;
#X connect 53 0 55 0;
#X connect 55 0 49 1;
#X connect 55 0 48 1;
#X connect 56 0 10 0;
#X connect 58 0 54 0;
#X connect 58 0 27 0;
#X connect 59 0 61 0;
#X connect 60 0 59 1;
#X connect 61 0 68 0;
#X connect 61 1 63 0;
#X connect 62 0 64 0;
#X connect 63 0 62 0;
#X connect 64 0 65 0;
#X connect 64 1 63 1;
#X connect 65 0 59 1;
#X connect 66 1 60 0;
#X connect 66 2 67 0;
#X connect 67 0 63 1;
#X connect 69 0 10 0;
#X connect 71 0 10 0;
#X connect 72 0 53 0;
#X connect 72 1 73 0;
#X connect 73 0 69 0;
#X connect 73 1 3 0;
#X connect 73 2 4 0;
#X connect 73 3 36 0;
#X connect 73 4 56 0;
#X connect 73 5 1 0;
#X connect 74 0 75 0;
#X connect 75 0 77 0;
#X connect 76 0 75 1;
#X connect 77 0 48 0;
#X connect 78 0 24 0;
#X connect 79 0 17 0;
#X restore 543 396 pd ml_voice;
#N canvas 36 174 1381 704 ml_trigger 0;
#X msg 574 223 help;
#X msg 573 246 train;
#X obj 273 235 list trim;
#X obj 34 236 list prepend add;
#X obj 34 258 list trim;
#X obj 273 213 list prepend map;
#X obj 305 22 inlet;
#X obj 555 388 route read train;
#X obj 609 429 sel 0 1;
#X obj 553 423 sel 1;
#X obj 198 88 + 1;
#X obj 34 211 list prepend;
#X obj 38 102 loadbang;
#X msg 633 460 1;
#X obj 253 107 gate 2 1;
#X obj 213 172 tgl 15 0 empty empty empty 17 7 0 10 -262144 -1 -1 0
1;
#X obj 213 196 gate;
#X obj 272 189 gate;
#X obj 822 184 int;
#X obj 868 184 int;
#X msg 687 519 train;
#X obj 741 58 r ml_control;
#X msg 1038 208 clear;
#X msg 732 458 0;
#X obj 741 118 route t_ctrl;
#X obj 1038 185 t b b;
#X msg 1090 208 0;
#X obj 589 325 print svm;
#X floatatom 285 402 5 0 0 0 - - -;
#X obj 1250 190 i;
#X obj 176 64 tgl 15 0 empty empty empty 17 7 0 10 -262144 -1 -1 0
1;
#X obj 442 271 ml.svm;
#X obj 1304 186 f;
#X obj 1229 226 s trigger-filenum;
#X obj 868 221 s trigger-ml_sensor;
#X obj 822 267 s trigger-ml_mode;
#X obj 198 62 r trigger-ml_mode;
#X obj 213 146 r trigger-ml_sensor;
#X obj 74 149 r trigger-filenum;
#X msg 39 149 10;
#X msg 452 139 0.9;
#X obj 741 146 route mode sensor write read train clear voicefade voicetype
filenum coeff save load, f 87;
#X obj 283 326 r trigger-filenum;
#X msg 1172 45 1;
#X msg 1246 67 3;
#X msg 1209 58 2;
#X msg 416 137 0.1;
#X msg 1287 27 10;
#X msg 580 113 getattributes;
#X msg 442 194 null_rejection_coeff \$1;
#X obj 415 358 sel 10 0;
#X msg 434 112 null_rejection 0;
#X msg 1295 58 4;
#X msg 1310 87 5;
#X obj 686 434 t b b b;
#X obj 416 325 change;
#X obj 1025 91 switch~;
#X obj 1025 26 inlet;
#X obj 981 387 symbol;
#X obj 893 356 symbol;
#X msg 893 380 write \$1;
#X msg 980 411 read \$1;
#X obj 961 44 r path;
#X obj 964 75 symbol;
#X obj 391 434 print cons;
#X obj 890 87 bng 15 250 50 0 empty empty empty 17 7 0 10 -262144 -1
-1;
#X obj 686 488 delay 100;
#X msg 966 109 symbol \$1/train_tri1.data;
#X obj 430 400 consonant;
#X msg 593 146 scaling 0;
#X obj 608 45 loadbang;
#X text 352 23 sensor data in pack of 8;
#X obj 1027 55 == 6;
#X obj 741 88 route 5;
#X connect 0 0 31 0;
#X connect 1 0 31 0;
#X connect 2 0 31 0;
#X connect 3 0 4 0;
#X connect 4 0 31 0;
#X connect 5 0 2 0;
#X connect 6 0 14 1;
#X connect 7 0 9 0;
#X connect 7 1 8 0;
#X connect 8 1 13 0;
#X connect 9 0 54 0;
#X connect 10 0 14 0;
#X connect 11 0 3 0;
#X connect 12 0 39 0;
#X connect 13 0 17 0;
#X connect 14 0 17 1;
#X connect 14 1 16 1;
#X connect 15 0 16 0;
#X connect 16 0 11 0;
#X connect 17 0 5 0;
#X connect 18 0 35 0;
#X connect 19 0 34 0;
#X connect 20 0 31 0;
#X connect 21 0 73 0;
#X connect 22 0 31 0;
#X connect 23 0 17 0;
#X connect 24 1 41 0;
#X connect 25 0 22 0;
#X connect 25 1 26 0;
#X connect 26 0 17 0;
#X connect 29 0 33 0;
#X connect 30 0 10 0;
#X connect 31 0 28 0;
#X connect 31 0 55 0;
#X connect 31 1 7 0;
#X connect 31 1 27 0;
#X connect 32 0 49 0;
#X connect 36 0 10 0;
#X connect 37 0 15 0;
#X connect 38 0 11 1;
#X connect 39 0 11 1;
#X connect 40 0 49 0;
#X connect 41 0 18 0;
#X connect 41 1 19 0;
#X connect 41 2 59 0;
#X connect 41 3 58 0;
#X connect 41 4 54 0;
#X connect 41 5 25 0;
#X connect 41 8 29 0;
#X connect 41 9 32 0;
#X connect 42 0 50 0;
#X connect 43 0 29 0;
#X connect 44 0 29 0;
#X connect 45 0 29 0;
#X connect 46 0 49 0;
#X connect 47 0 29 0;
#X connect 48 0 31 0;
#X connect 49 0 31 0;
#X connect 50 2 68 0;
#X connect 51 0 31 0;
#X connect 52 0 29 0;
#X connect 53 0 29 0;
#X connect 54 0 66 0;
#X connect 54 1 51 0;
#X connect 54 1 46 0;
#X connect 54 2 23 0;
#X connect 55 0 50 0;
#X connect 55 0 64 0;
#X connect 57 0 72 0;
#X connect 58 0 61 0;
#X connect 59 0 60 0;
#X connect 60 0 31 0;
#X connect 61 0 31 0;
#X connect 62 0 63 0;
#X connect 63 0 67 0;
#X connect 65 0 58 0;
#X connect 66 0 20 0;
#X connect 67 0 59 1;
#X connect 67 0 58 1;
#X connect 69 0 31 0;
#X connect 70 0 69 0;
#X connect 72 0 56 0;
#X connect 73 0 24 0;
#X restore 813 473 pd ml_trigger;
#X obj 646 156 r sensors;
#X obj 459 102 r mapping_mode;
#X obj 482 167 + 1;
#X floatatom 400 111 5 0 0 0 - - -;
#X obj 647 210 spigot 1;
#X msg 606 181 0;
#X obj 483 192 t f f;
#X obj 459 126 t b f b;
#X msg 568 181 1;
#X obj 103 453 dac~;
#X obj 222 318 r volume;
#X obj 169 277 catch~ outR;
#X obj 74 278 catch~ outL;
#X obj 131 385 *~;
#X obj 261 254 loadbang;
#X msg 299 281 0;
#X msg 261 280 1;
#X obj 94 386 *~;
#X msg 219 345 \$1 50;
#X obj 219 369 line~;
#N canvas 188 110 1252 715 kling 1;
#X msg 543 279 help;
#X msg 542 302 train;
#X obj 273 235 list trim;
#X obj 34 236 list prepend add;
#X obj 34 258 list trim;
#X obj 273 213 list prepend map;
#X obj 339 21 inlet;
#X obj 428 302 ml.ann;
#X obj 555 388 route read train;
#X obj 609 429 sel 0 1;
#X obj 555 413 sel 1;
#X obj 209 46 + 1;
#X obj 34 207 list prepend;
#X obj 33 77 loadbang;
#X msg 594 504 1;
#X obj 253 107 gate 2 1;
#X obj 213 172 tgl 15 0 empty empty empty 17 7 0 10 -262144 -1 -1 0
1;
#X obj 213 196 gate;
#X obj 272 189 gate;
#X obj 822 184 int;
#X obj 868 184 int;
#X msg 678 541 train;
#X obj 741 58 r ml_control;
#X msg 1038 208 clear;
#X obj 282 322 s ctrl_data;
#X msg 747 486 0;
#X obj 678 478 t b b;
#X obj 741 118 route t_ctrl;
#X obj 1038 185 t b b;
#X msg 1076 231 0;
#X obj 822 153 route mode sensor write read train clear voicefade voicetype
;
#X obj 1186 186 i;
#X obj 868 3 inlet;
#X obj 424 382 r granlar-t_ctrl;
#X obj 115 113 r granlar-t_ctrl;
#X obj 209 20 r granlar-ml_mode;
#X obj 698 154 s granlar-t_ctrl;
#X obj 822 267 s granlar-ml_mode;
#X obj 213 146 r granlar-ml_sensor;
#X obj 868 221 s granlar-ml_sensor;
#X msg 34 97 0 0 0 0 0 0 0 0;
#X obj 969 18 r path;
#X obj 981 387 symbol;
#X obj 893 356 symbol;
#X msg 893 380 write \$1;
#X msg 980 411 read \$1;
#X obj 969 47 t a b;
#X obj 969 88 symbol;
#X obj 391 454 granular;
#X obj 570 364 print ann_kling;
#X msg 969 112 symbol \$1/training_granlar2.data;
#X text 390 18 sensor data in pack of 8;
#X obj 412 331 constrainer;
#X obj 869 28 == 5;
#X obj 741 88 route 4;
#X obj 870 55 sel 1;
#X obj 863 123 onebang;
#X obj 908 97 loadbang;
#X obj 678 508 delay 200;
#X obj 595 473 delay 400;
#X obj 763 20 switch~;
#X msg 590 83 mode 1;
#X msg 592 129 num_outputs 8;
#X msg 590 106 scaling 0;
#X obj 432 77 t b b b b b b;
#X obj 1059 309 delay 1000;
#X msg 593 152 num_hidden 5;
#X msg 560 220 input_activation_function 1;
#X msg 564 197 hidden_activation_function 1;
#X msg 561 244 training_rate 0.2;
#X msg 393 112 min_epochs 300;
#X msg 410 137 max_epochs 400;
#X connect 0 0 7 0;
#X connect 1 0 7 0;
#X connect 2 0 7 0;
#X connect 3 0 4 0;
#X connect 4 0 7 0;
#X connect 5 0 2 0;
#X connect 6 0 15 1;
#X connect 6 0 48 2;
#X connect 7 0 52 0;
#X connect 7 1 8 0;
#X connect 7 1 49 0;
#X connect 8 0 10 0;
#X connect 8 1 9 0;
#X connect 9 1 59 0;
#X connect 10 0 26 0;
#X connect 11 0 15 0;
#X connect 12 0 3 0;
#X connect 13 0 40 0;
#X connect 14 0 18 0;
#X connect 15 0 18 1;
#X connect 15 1 17 1;
#X connect 16 0 17 0;
#X connect 17 0 12 0;
#X connect 18 0 5 0;
#X connect 19 0 37 0;
#X connect 20 0 39 0;
#X connect 21 0 7 0;
#X connect 22 0 54 0;
#X connect 23 0 7 0;
#X connect 25 0 18 0;
#X connect 26 0 58 0;
#X connect 26 1 25 0;
#X connect 27 0 36 0;
#X connect 27 1 30 0;
#X connect 28 0 23 0;
#X connect 28 1 29 0;
#X connect 29 0 18 0;
#X connect 30 0 19 0;
#X connect 30 1 20 0;
#X connect 30 2 43 0;
#X connect 30 3 42 0;
#X connect 30 4 26 0;
#X connect 30 5 28 0;
#X connect 30 7 31 0;
#X connect 32 0 53 0;
#X connect 33 0 48 0;
#X connect 34 0 12 1;
#X connect 35 0 11 0;
#X connect 38 0 16 0;
#X connect 40 0 12 1;
#X connect 41 0 46 0;
#X connect 42 0 45 0;
#X connect 43 0 44 0;
#X connect 44 0 7 0;
#X connect 45 0 7 0;
#X connect 46 0 47 0;
#X connect 46 1 64 0;
#X connect 47 0 50 0;
#X connect 50 0 43 1;
#X connect 50 0 42 1;
#X connect 52 0 48 0;
#X connect 52 0 24 0;
#X connect 53 0 55 0;
#X connect 53 0 60 0;
#X connect 54 0 27 0;
#X connect 55 0 56 0;
#X connect 56 0 65 0;
#X connect 57 0 56 1;
#X connect 58 0 21 0;
#X connect 59 0 14 0;
#X connect 61 0 7 0;
#X connect 62 0 7 0;
#X connect 63 0 7 0;
#X connect 64 0 71 0;
#X connect 64 0 69 0;
#X connect 64 0 67 0;
#X connect 64 0 68 0;
#X connect 64 1 70 0;
#X connect 64 2 66 0;
#X connect 64 3 62 0;
#X connect 64 4 63 0;
#X connect 64 5 61 0;
#X connect 66 0 7 0;
#X connect 70 0 7 0;
#X connect 71 0 7 0;
#X restore 600 331 pd kling;
#X obj 104 127 s path;
#X obj 103 56 loadbang;
#X text 517 4 simple-kling;
#X msg 103 90 /root/Bela/projects/simple-kling;
#N canvas 226 23 1128 838 accSynth 0;
#X obj 452 584 throw~ outL;
#X obj 562 582 throw~ outR;
#X obj 96 446 *~ 0;
#X obj 231 442 *~ 0;
#X obj 354 426 *~ 0;
#X obj 495 434 *~ 0;
#X obj 516 17 inlet;
#X obj 509 53 unpack 0 0 0 0 0 0 0 0;
#X obj 69 355 osc~ 232;
#X obj 204 351 osc~ 356;
#X obj 339 347 osc~ 473;
#X obj 468 343 osc~ 621;
#X obj 638 438 *~ 0;
#X obj 773 434 *~ 0;
#X obj 896 418 *~ 0;
#X obj 1037 426 *~ 0;
#X obj 611 347 osc~ 732;
#X obj 746 343 osc~ 556;
#X obj 881 339 osc~ 373;
#X obj 1010 335 osc~ 211;
#X obj 883 92 switch~;
#X obj 883 27 inlet;
#X obj 885 56 == 2;
#X obj 313 710 s ctrl_data;
#X obj 316 671 pack 0 0 0 0 0 0 0 0;
#X obj 62 280 acc_line;
#X obj 202 280 acc_line;
#X obj 339 281 acc_line;
#X obj 467 278 acc_line;
#X obj 606 278 acc_line;
#X obj 740 279 acc_line;
#X obj 877 278 acc_line;
#X obj 1006 278 acc_line;
#X obj 455 712 s acc;
#X connect 2 0 0 0;
#X connect 2 0 1 0;
#X connect 3 0 0 0;
#X connect 3 0 1 0;
#X connect 4 0 0 0;
#X connect 4 0 1 0;
#X connect 5 0 0 0;
#X connect 5 0 1 0;
#X connect 6 0 7 0;
#X connect 7 0 25 0;
#X connect 7 1 26 0;
#X connect 7 2 27 0;
#X connect 7 3 28 0;
#X connect 7 4 29 0;
#X connect 7 5 30 0;
#X connect 7 6 31 0;
#X connect 7 7 32 0;
#X connect 8 0 2 0;
#X connect 9 0 3 0;
#X connect 10 0 4 0;
#X connect 11 0 5 0;
#X connect 12 0 1 0;
#X connect 12 0 0 0;
#X connect 13 0 1 0;
#X connect 13 0 0 0;
#X connect 14 0 1 0;
#X connect 14 0 0 0;
#X connect 15 0 1 0;
#X connect 15 0 0 0;
#X connect 16 0 12 0;
#X connect 17 0 13 0;
#X connect 18 0 14 0;
#X connect 19 0 15 0;
#X connect 21 0 22 0;
#X connect 22 0 20 0;
#X connect 24 0 23 0;
#X connect 24 0 33 0;
#X connect 25 0 2 1;
#X connect 25 0 24 0;
#X connect 26 0 3 1;
#X connect 26 0 24 1;
#X connect 27 0 4 1;
#X connect 27 0 24 2;
#X connect 28 0 5 1;
#X connect 28 0 24 3;
#X connect 29 0 12 1;
#X connect 29 0 24 4;
#X connect 30 0 13 1;
#X connect 30 0 24 5;
#X connect 31 0 14 1;
#X connect 31 0 24 6;
#X connect 32 0 15 1;
#X connect 32 0 24 7;
#X restore 501 424 pd accSynth;
#N canvas 90 152 1295 726 ml_phoneme 0;
#X msg 574 223 help;
#X msg 573 246 train;
#X obj 273 235 list trim;
#X obj 34 236 list prepend add;
#X obj 34 258 list trim;
#X obj 273 213 list prepend map;
#X obj 310 18 inlet;
#X obj 428 302 ml.ann;
#X obj 555 388 route read train;
#X obj 609 429 sel 0 1;
#X obj 555 413 sel 1;
#X obj 209 46 + 1;
#X obj 34 207 list prepend;
#X obj 30 71 loadbang;
#X msg 598 490 1;
#X obj 253 107 gate 2 1;
#X obj 213 172 tgl 15 0 empty empty empty 17 7 0 10 -262144 -1 -1 0
1;
#X obj 213 196 gate;
#X obj 272 189 gate;
#X obj 822 184 int;
#X obj 868 184 int;
#X msg 686 509 train;
#X obj 741 58 r ml_control;
#X msg 1038 208 clear;
#X obj 282 322 s ctrl_data;
#X msg 732 458 0;
#X obj 686 434 t b b;
#X obj 741 118 route t_ctrl;
#X obj 1038 185 t b b;
#X msg 1090 208 0;
#X obj 822 153 route mode sensor write read train clear voicefade voicetype
;
#X obj 1186 180 i;
#X msg 32 102 0 0 0 0 0 0 0 0;
#X obj 833 76 switch~;
#X obj 883 27 inlet;
#X obj 1000 332 symbol;
#X obj 912 301 symbol;
#X msg 913 330 write \$1;
#X msg 999 356 read \$1;
#X obj 417 58 r path;
#X obj 417 82 t a b;
#X obj 985 31 symbol;
#X text 361 17 sensor data in pack of 8;
#X obj 412 331 constrainer;
#X obj 885 56 == 4;
#X msg 985 55 symbol \$1/training_phoneme.data;
#X obj 741 88 route 3;
#X obj 703 154 s pho_ml_ctrl;
#X obj 260 358 r pho_ml_ctrl;
#X obj 114 125 r pho_ml_ctrl;
#X obj 184 19 r pho_ml_mode;
#X obj 822 267 s pho_ml_mode;
#X obj 868 221 s pho_ml_sensor;
#X obj 215 146 r pho_ml_sensor;
#X obj 396 422 phoneme;
#X obj 918 123 onebang;
#X obj 962 96 loadbang;
#X obj 1065 269 delay 1000;
#X obj 856 102 sel 1;
#X obj 686 483 delay 200;
#X obj 597 462 delay 400;
#X msg 628 131 mode 1;
#X msg 419 170 min_epochs 300;
#X msg 482 146 max_epochs 400;
#X msg 549 193 num_outputs 8;
#X msg 604 169 scaling 0;
#X msg 385 145 num_hidden 5;
#X obj 420 111 t b b b b b b;
#X connect 0 0 7 0;
#X connect 1 0 7 0;
#X connect 2 0 7 0;
#X connect 3 0 4 0;
#X connect 4 0 7 0;
#X connect 5 0 2 0;
#X connect 6 0 15 1;
#X connect 6 0 54 1;
#X connect 7 0 43 0;
#X connect 7 1 8 0;
#X connect 8 0 10 0;
#X connect 8 1 9 0;
#X connect 9 1 60 0;
#X connect 10 0 26 0;
#X connect 11 0 15 0;
#X connect 12 0 3 0;
#X connect 13 0 32 0;
#X connect 14 0 18 0;
#X connect 15 0 18 1;
#X connect 15 1 17 1;
#X connect 16 0 17 0;
#X connect 17 0 12 0;
#X connect 18 0 5 0;
#X connect 19 0 51 0;
#X connect 20 0 52 0;
#X connect 21 0 7 0;
#X connect 22 0 46 0;
#X connect 23 0 7 0;
#X connect 25 0 18 0;
#X connect 26 0 59 0;
#X connect 26 1 25 0;
#X connect 27 0 47 0;
#X connect 27 1 30 0;
#X connect 28 0 23 0;
#X connect 28 1 29 0;
#X connect 29 0 18 0;
#X connect 30 0 19 0;
#X connect 30 1 20 0;
#X connect 30 2 36 0;
#X connect 30 3 35 0;
#X connect 30 4 26 0;
#X connect 30 5 28 0;
#X connect 30 7 31 0;
#X connect 32 0 12 1;
#X connect 34 0 44 0;
#X connect 35 0 38 0;
#X connect 36 0 37 0;
#X connect 37 0 7 0;
#X connect 38 0 7 0;
#X connect 39 0 40 0;
#X connect 40 0 41 0;
#X connect 40 1 67 0;
#X connect 41 0 45 0;
#X connect 43 0 24 0;
#X connect 43 0 54 0;
#X connect 44 0 33 0;
#X connect 44 0 58 0;
#X connect 45 0 36 1;
#X connect 45 0 35 1;
#X connect 46 0 27 0;
#X connect 48 0 54 0;
#X connect 49 0 12 1;
#X connect 50 0 11 0;
#X connect 53 0 16 0;
#X connect 55 0 57 0;
#X connect 56 0 55 1;
#X connect 57 0 35 0;
#X connect 58 0 55 0;
#X connect 59 0 21 0;
#X connect 60 0 14 0;
#X connect 61 0 7 0;
#X connect 62 0 7 0;
#X connect 63 0 7 0;
#X connect 64 0 7 0;
#X connect 65 0 7 0;
#X connect 66 0 7 0;
#X connect 67 0 66 0;
#X connect 67 1 62 0;
#X connect 67 2 63 0;
#X connect 67 3 64 0;
#X connect 67 4 65 0;
#X connect 67 5 61 0;
#X restore 570 369 pd ml_phoneme;
#X obj 156 315 limiter;
#X obj 78 316 limiter;
#X msg 58 186 /Users/mikst/Documents/_PROJECT/ShapeOfThing/edge_of_the_world-performance/bela/simple-kling
;
#X obj 515 238 gate 5 1, f 14;
#X msg 385 71 4;
#X connect 1 0 7 0;
#X connect 10 0 14 0;
#X connect 11 0 17 0;
#X connect 12 0 16 0;
#X connect 13 0 17 0;
#X connect 14 0 40 1;
#X connect 15 0 14 1;
#X connect 16 1 6 1;
#X connect 16 1 8 1;
#X connect 16 1 35 1;
#X connect 16 1 36 1;
#X connect 16 1 30 1;
#X connect 16 1 40 0;
#X connect 17 0 18 0;
#X connect 17 1 12 0;
#X connect 17 2 15 0;
#X connect 18 0 14 1;
#X connect 20 0 28 0;
#X connect 21 0 37 0;
#X connect 22 0 38 0;
#X connect 23 0 19 1;
#X connect 24 0 26 0;
#X connect 25 0 28 0;
#X connect 26 0 28 0;
#X connect 27 0 19 0;
#X connect 28 0 29 0;
#X connect 29 0 23 1;
#X connect 29 0 27 1;
#X connect 32 0 34 0;
#X connect 34 0 31 0;
#X connect 37 0 23 0;
#X connect 38 0 27 0;
#X connect 39 0 31 0;
#X connect 40 0 6 0;
#X connect 40 1 35 0;
#X connect 40 2 8 0;
#X connect 40 3 36 0;
#X connect 40 4 30 0;
#X connect 41 0 17 0;
