#N canvas 36 23 1436 855 10;
#N canvas 131 469 695 409 vowel1 0;
#N canvas 143 545 450 300 aai 0;
#X obj 107 177 readsf~;
#X msg 102 139 start;
#X obj 101 112 trigger b b;
#X obj 110 53 inlet;
#X obj 109 229 outlet~;
#X msg 152 138 open aai.wav;
#X connect 0 0 4 0;
#X connect 1 0 0 0;
#X connect 2 0 1 0;
#X connect 2 1 5 0;
#X connect 3 0 2 0;
#X connect 5 0 0 0;
#X restore 225 114 pd aai;
#X obj 80 68 sel 1;
#X obj 144 72 sel 3;
#X obj 173 12 inlet;
#X obj 161 244 outlet~;
#N canvas 248 522 450 300 ei 0;
#X obj 107 177 readsf~;
#X msg 102 139 start;
#X obj 101 112 trigger b b;
#X obj 110 53 inlet;
#X obj 109 229 outlet~;
#X msg 152 138 open ei.wav;
#X connect 0 0 4 0;
#X connect 1 0 0 0;
#X connect 2 0 1 0;
#X connect 2 1 5 0;
#X connect 3 0 2 0;
#X connect 5 0 0 0;
#X restore 143 115 pd ei;
#N canvas 166 533 450 300 ooo 0;
#X obj 107 177 readsf~;
#X msg 102 139 start;
#X obj 101 112 trigger b b;
#X obj 110 53 inlet;
#X obj 109 229 outlet~;
#X msg 152 138 open au.wav;
#X connect 0 0 4 0;
#X connect 1 0 0 0;
#X connect 2 0 1 0;
#X connect 2 1 5 0;
#X connect 3 0 2 0;
#X connect 5 0 0 0;
#X restore 66 116 pd ooo;
#N canvas 143 545 450 300 uu 0;
#X obj 107 177 readsf~;
#X msg 102 139 start;
#X obj 101 112 trigger b b;
#X obj 110 53 inlet;
#X obj 109 229 outlet~;
#X msg 152 138 open aai.wav;
#X connect 0 0 4 0;
#X connect 1 0 0 0;
#X connect 2 0 1 0;
#X connect 2 1 5 0;
#X connect 3 0 2 0;
#X connect 5 0 0 0;
#X restore 280 117 pd uu;
#X obj 281 72 sel 0;
#X obj 227 71 sel 2;
#X connect 0 0 4 0;
#X connect 1 0 6 0;
#X connect 2 0 5 0;
#X connect 3 0 1 0;
#X connect 3 0 2 0;
#X connect 3 0 8 0;
#X connect 3 0 9 0;
#X connect 5 0 4 0;
#X connect 6 0 4 0;
#X connect 7 0 4 0;
#X connect 8 0 7 0;
#X connect 9 0 0 0;
#X restore 207 403 pd vowel1;
#N canvas 179 572 450 300 vowels2 0;
#N canvas 248 522 450 300 o 0;
#X obj 107 177 readsf~;
#X msg 102 139 start;
#X obj 101 112 trigger b b;
#X obj 110 53 inlet;
#X obj 109 229 outlet~;
#X msg 152 138 open o.wav;
#X connect 0 0 4 0;
#X connect 1 0 0 0;
#X connect 2 0 1 0;
#X connect 2 1 5 0;
#X connect 3 0 2 0;
#X connect 5 0 0 0;
#X restore 40 118 pd o;
#N canvas 248 522 450 300 oe 0;
#X obj 107 177 readsf~;
#X msg 102 139 start;
#X obj 101 112 trigger b b;
#X obj 110 53 inlet;
#X obj 109 229 outlet~;
#X msg 152 138 open oe.wav;
#X connect 0 0 4 0;
#X connect 1 0 0 0;
#X connect 2 0 1 0;
#X connect 2 1 5 0;
#X connect 3 0 2 0;
#X connect 5 0 0 0;
#X restore 79 119 pd oe;
#N canvas 248 522 450 300 oeee 0;
#X obj 107 177 readsf~;
#X msg 102 139 start;
#X obj 101 112 trigger b b;
#X obj 110 53 inlet;
#X obj 109 229 outlet~;
#X msg 152 138 open oeee.wav;
#X connect 0 0 4 0;
#X connect 1 0 0 0;
#X connect 2 0 1 0;
#X connect 2 1 5 0;
#X connect 3 0 2 0;
#X connect 5 0 0 0;
#X restore 208 118 pd oeee;
#N canvas 248 522 450 300 oeshort 0;
#X obj 107 177 readsf~;
#X msg 102 139 start;
#X obj 101 112 trigger b b;
#X obj 110 53 inlet;
#X obj 109 229 outlet~;
#X msg 152 138 open oeshort.wav;
#X connect 0 0 4 0;
#X connect 1 0 0 0;
#X connect 2 0 1 0;
#X connect 2 1 5 0;
#X connect 3 0 2 0;
#X connect 5 0 0 0;
#X restore 351 116 pd oeshort;
#N canvas 248 522 450 300 oi 0;
#X obj 107 177 readsf~;
#X msg 102 139 start;
#X obj 101 112 trigger b b;
#X obj 110 53 inlet;
#X obj 109 229 outlet~;
#X msg 152 138 open oi.wav;
#X connect 0 0 4 0;
#X connect 1 0 0 0;
#X connect 2 0 1 0;
#X connect 2 1 5 0;
#X connect 3 0 2 0;
#X connect 5 0 0 0;
#X restore 257 117 pd oi;
#N canvas 248 522 450 300 ooo 0;
#X obj 107 177 readsf~;
#X msg 102 139 start;
#X obj 101 112 trigger b b;
#X obj 110 53 inlet;
#X obj 109 229 outlet~;
#X msg 152 138 open oi.wav;
#X connect 0 0 4 0;
#X connect 1 0 0 0;
#X connect 2 0 1 0;
#X connect 2 1 5 0;
#X connect 3 0 2 0;
#X connect 5 0 0 0;
#X restore 302 116 pd ooo;
#N canvas 248 522 450 300 ua 0;
#X obj 107 177 readsf~;
#X msg 102 139 start;
#X obj 101 112 trigger b b;
#X obj 110 53 inlet;
#X obj 109 229 outlet~;
#X msg 154 138 open ua.wav;
#X connect 0 0 4 0;
#X connect 1 0 0 0;
#X connect 2 0 1 0;
#X connect 2 1 5 0;
#X connect 3 0 2 0;
#X connect 5 0 0 0;
#X restore 167 119 pd ua;
#N canvas 248 522 450 300 uu 0;
#X obj 107 177 readsf~;
#X msg 102 139 start;
#X obj 101 112 trigger b b;
#X obj 110 53 inlet;
#X obj 109 229 outlet~;
#X msg 154 138 open uu.wav;
#X connect 0 0 4 0;
#X connect 1 0 0 0;
#X connect 2 0 1 0;
#X connect 2 1 5 0;
#X connect 3 0 2 0;
#X connect 5 0 0 0;
#X restore 126 119 pd uu;
#X obj 215 13 inlet;
#X obj 48 74 sel 0;
#X obj 179 211 outlet~;
#X obj 94 75 sel 1;
#X obj 139 73 sel 2;
#X obj 185 76 sel 3;
#X obj 232 74 sel 4;
#X obj 273 77 sel 5;
#X obj 319 73 sel 6;
#X obj 364 73 sel 7;
#X connect 0 0 10 0;
#X connect 1 0 10 0;
#X connect 2 0 10 0;
#X connect 3 0 10 0;
#X connect 4 0 10 0;
#X connect 5 0 10 0;
#X connect 6 0 10 0;
#X connect 7 0 10 0;
#X connect 8 0 9 0;
#X connect 8 0 11 0;
#X connect 8 0 12 0;
#X connect 8 0 13 0;
#X connect 8 0 14 0;
#X connect 8 0 15 0;
#X connect 8 0 16 0;
#X connect 8 0 17 0;
#X connect 9 0 0 0;
#X connect 11 0 1 0;
#X connect 12 0 7 0;
#X connect 13 0 6 0;
#X connect 14 0 2 0;
#X connect 15 0 4 0;
#X connect 16 0 5 0;
#X connect 17 0 3 0;
#X restore 619 372 pd vowels2;
#X obj 611 324 random 8;
#N canvas 701 513 740 350 consonants2 0;
#N canvas 248 522 450 300 ff 0;
#X obj 107 177 readsf~;
#X msg 102 139 start;
#X obj 101 112 trigger b b;
#X obj 110 53 inlet;
#X obj 109 229 outlet~;
#X msg 152 138 open ff.wav;
#X connect 0 0 4 0;
#X connect 1 0 0 0;
#X connect 2 0 1 0;
#X connect 2 1 5 0;
#X connect 3 0 2 0;
#X connect 5 0 0 0;
#X restore -5571 122 pd ff;
#N canvas 248 522 450 300 s 0;
#X obj 107 177 readsf~;
#X msg 102 139 start;
#X obj 101 112 trigger b b;
#X obj 110 53 inlet;
#X obj 109 229 outlet~;
#X msg 155 138 open rrra.wav;
#X connect 0 0 4 0;
#X connect 1 0 0 0;
#X connect 2 0 1 0;
#X connect 2 1 5 0;
#X connect 3 0 2 0;
#X connect 5 0 0 0;
#X restore -5853 129 pd s;
#N canvas 248 522 450 300 sch 0;
#X obj 107 177 readsf~;
#X msg 102 139 start;
#X obj 101 112 trigger b b;
#X obj 110 53 inlet;
#X obj 109 229 outlet~;
#X msg 155 138 open sch.wav;
#X connect 0 0 4 0;
#X connect 1 0 0 0;
#X connect 2 0 1 0;
#X connect 2 1 5 0;
#X connect 3 0 2 0;
#X connect 5 0 0 0;
#X restore -5902 127 pd sch;
#N canvas 248 522 450 300 schej 0;
#X obj 107 177 readsf~;
#X msg 102 139 start;
#X obj 101 112 trigger b b;
#X obj 110 53 inlet;
#X obj 109 229 outlet~;
#X msg 155 138 open schej.wav;
#X connect 0 0 4 0;
#X connect 1 0 0 0;
#X connect 2 0 1 0;
#X connect 2 1 5 0;
#X connect 3 0 2 0;
#X connect 5 0 0 0;
#X restore -5528 121 pd schej;
#N canvas 248 522 450 300 sss 0;
#X obj 107 177 readsf~;
#X msg 102 139 start;
#X obj 101 112 trigger b b;
#X obj 110 53 inlet;
#X obj 109 229 outlet~;
#X msg 155 138 open sss.wav;
#X connect 0 0 4 0;
#X connect 1 0 0 0;
#X connect 2 0 1 0;
#X connect 2 1 5 0;
#X connect 3 0 2 0;
#X connect 5 0 0 0;
#X restore -5465 123 pd sss;
#N canvas 248 522 450 300 tsch 0;
#X obj 107 177 readsf~;
#X msg 102 139 start;
#X obj 101 112 trigger b b;
#X obj 110 53 inlet;
#X obj 109 229 outlet~;
#X msg 154 138 open tsch.wav;
#X connect 0 0 4 0;
#X connect 1 0 0 0;
#X connect 2 0 1 0;
#X connect 2 1 5 0;
#X connect 3 0 2 0;
#X connect 5 0 0 0;
#X restore -5959 128 pd tsch;
#N canvas 248 522 450 300 tschej 0;
#X obj 107 177 readsf~;
#X msg 102 139 start;
#X obj 101 112 trigger b b;
#X obj 110 53 inlet;
#X obj 109 229 outlet~;
#X msg 154 138 open tschej.wav;
#X connect 0 0 4 0;
#X connect 1 0 0 0;
#X connect 2 0 1 0;
#X connect 2 1 5 0;
#X connect 3 0 2 0;
#X connect 5 0 0 0;
#X restore -5419 124 pd tschej;
#X obj -5964 85 sel 1;
#X obj -5907 85 sel 2;
#X obj -5861 88 sel 3;
#X obj -5682 24 inlet;
#X obj -5729 209 outlet~;
#X obj -5571 88 sel 4;
#X obj -5519 92 sel 5;
#X obj -5471 93 sel 6;
#X obj -5412 90 sel 0;
#X connect 0 0 11 0;
#X connect 1 0 11 0;
#X connect 2 0 11 0;
#X connect 3 0 11 0;
#X connect 4 0 11 0;
#X connect 5 0 11 0;
#X connect 6 0 11 0;
#X connect 7 0 5 0;
#X connect 8 0 2 0;
#X connect 9 0 1 0;
#X connect 10 0 7 0;
#X connect 10 0 8 0;
#X connect 10 0 9 0;
#X connect 10 0 12 0;
#X connect 10 0 13 0;
#X connect 10 0 14 0;
#X connect 10 0 15 0;
#X connect 12 0 0 0;
#X connect 13 0 3 0;
#X connect 14 0 4 0;
#X connect 15 0 6 0;
#X restore 767 373 pd consonants2;
#X obj 207 371 random 5;
#X obj 618 599 freeverb~;
#X msg 912 604 wet \$1;
#X obj 920 569 hsl 128 15 0 1 0 0 empty empty empty -2 -8 0 10 -262144
-1 -1 0 1;
#X text 1069 567 controll the amount of reverb;
#N canvas 256 286 450 300 consonants 0;
#N canvas 248 522 450 300 mm 0;
#X obj 107 177 readsf~;
#X msg 102 139 start;
#X obj 101 112 trigger b b;
#X obj 110 53 inlet;
#X obj 109 229 outlet~;
#X msg 152 138 open mm.wav;
#X connect 0 0 4 0;
#X connect 1 0 0 0;
#X connect 2 0 1 0;
#X connect 2 1 5 0;
#X connect 3 0 2 0;
#X connect 5 0 0 0;
#X restore 279 164 pd mm;
#N canvas 248 522 450 300 nn 0;
#X obj 107 177 readsf~;
#X msg 102 139 start;
#X obj 101 112 trigger b b;
#X obj 110 53 inlet;
#X obj 109 229 outlet~;
#X msg 152 138 open nn.wav;
#X connect 0 0 4 0;
#X connect 1 0 0 0;
#X connect 2 0 1 0;
#X connect 2 1 5 0;
#X connect 3 0 2 0;
#X connect 5 0 0 0;
#X restore 318 196 pd nn;
#X obj 205 40 inlet;
#X obj 185 252 outlet~;
#X obj 279 124 sel 0;
#X obj 392 129 sel 1;
#X connect 0 0 3 0;
#X connect 1 0 3 0;
#X connect 2 0 4 0;
#X connect 2 0 5 0;
#X connect 4 0 0 0;
#X connect 5 0 1 0;
#X restore 422 373 pd consonants n/m;
#X obj 425 325 random 2;
#X obj 785 329 random 7;
#N canvas 601 520 740 350 consonants3 0;
#N canvas 248 522 450 300 ff 0;
#X obj 107 177 readsf~;
#X msg 102 139 start;
#X obj 101 112 trigger b b;
#X obj 110 53 inlet;
#X obj 109 229 outlet~;
#X msg 152 138 open ff.wav;
#X connect 0 0 4 0;
#X connect 1 0 0 0;
#X connect 2 0 1 0;
#X connect 2 1 5 0;
#X connect 3 0 2 0;
#X connect 5 0 0 0;
#X restore -5571 122 pd ff;
#N canvas 248 522 450 300 j 0;
#X obj 107 177 readsf~;
#X msg 102 139 start;
#X obj 101 112 trigger b b;
#X obj 110 53 inlet;
#X obj 109 229 outlet~;
#X msg 152 138 open j.wav;
#X connect 0 0 4 0;
#X connect 1 0 0 0;
#X connect 2 0 1 0;
#X connect 2 1 5 0;
#X connect 3 0 2 0;
#X connect 5 0 0 0;
#X restore -5624 121 pd j;
#X obj -5682 24 inlet;
#X obj -5729 209 outlet~;
#X obj -5615 90 sel 0;
#X obj -5571 88 sel 4;
#X obj -5698 89 sel 2;
#N canvas 248 522 450 300 h 0;
#X obj 107 177 readsf~;
#X msg 102 139 start;
#X obj 101 112 trigger b b;
#X obj 110 53 inlet;
#X obj 109 229 outlet~;
#X msg 152 138 open h.wav;
#X connect 0 0 4 0;
#X connect 1 0 0 0;
#X connect 2 0 1 0;
#X connect 2 1 5 0;
#X connect 3 0 2 0;
#X connect 5 0 0 0;
#X restore -5698 123 pd h;
#X connect 0 0 3 0;
#X connect 1 0 3 0;
#X connect 2 0 4 0;
#X connect 2 0 5 0;
#X connect 2 0 6 0;
#X connect 4 0 1 0;
#X connect 5 0 0 0;
#X connect 6 0 7 0;
#X connect 7 0 3 0;
#X restore 999 369 pd consonants3;
#X obj 1222 333 random 4;
#N canvas 256 286 450 300 consonants4 0;
#N canvas 248 522 450 300 b 0;
#X obj 107 177 readsf~;
#X msg 102 139 start;
#X obj 101 112 trigger b b;
#X obj 110 53 inlet;
#X obj 109 229 outlet~;
#X msg 152 138 open b.wav;
#X connect 0 0 4 0;
#X connect 1 0 0 0;
#X connect 2 0 1 0;
#X connect 2 1 5 0;
#X connect 3 0 2 0;
#X connect 5 0 0 0;
#X restore 156 164 pd b;
#N canvas 248 522 450 300 d 0;
#X obj 107 177 readsf~;
#X msg 102 139 start;
#X obj 101 112 trigger b b;
#X obj 110 53 inlet;
#X obj 109 229 outlet~;
#X msg 152 139 open d.wav;
#X connect 0 0 4 0;
#X connect 1 0 0 0;
#X connect 2 0 1 0;
#X connect 2 1 5 0;
#X connect 3 0 2 0;
#X connect 5 0 0 0;
#X restore 98 165 pd d;
#N canvas 248 522 450 300 g 0;
#X obj 107 177 readsf~;
#X msg 102 139 start;
#X obj 101 112 trigger b b;
#X obj 110 53 inlet;
#X obj 109 229 outlet~;
#X msg 152 138 open g.wav;
#X connect 0 0 4 0;
#X connect 1 0 0 0;
#X connect 2 0 1 0;
#X connect 2 1 5 0;
#X connect 3 0 2 0;
#X connect 5 0 0 0;
#X restore 209 167 pd g;
#N canvas 248 522 450 300 k 0;
#X obj 107 177 readsf~;
#X msg 102 139 start;
#X obj 101 112 trigger b b;
#X obj 110 53 inlet;
#X obj 109 229 outlet~;
#X msg 152 138 open k.wav;
#X connect 0 0 4 0;
#X connect 1 0 0 0;
#X connect 2 0 1 0;
#X connect 2 1 5 0;
#X connect 3 0 2 0;
#X connect 5 0 0 0;
#X restore 258 175 pd k;
#X obj 92 128 sel 1;
#X obj 150 129 sel 3;
#X obj 205 40 inlet;
#X obj 185 252 outlet~;
#X obj 204 126 sel 2;
#X obj 264 125 sel 0;
#X connect 0 0 7 0;
#X connect 1 0 7 0;
#X connect 2 0 7 0;
#X connect 3 0 7 0;
#X connect 4 0 1 0;
#X connect 5 0 0 0;
#X connect 6 0 4 0;
#X connect 6 0 5 0;
#X connect 6 0 8 0;
#X connect 6 0 9 0;
#X connect 8 0 2 0;
#X connect 9 0 3 0;
#X restore 1219 382 pd consonants4;
#X obj 1018 325 random 3;
#X obj 804 664 hsl 128 15 0 1 0 0 empty empty empty -2 -8 0 10 -262144
-1 -1 0 1;
#X obj 797 553 hsl 128 15 0 1 0 0 empty empty empty -2 -8 0 10 -262144
-1 -1 0 1;
#X msg 751 579 width \$1;
#X msg 730 626 roomsize \$1;
#X obj 736 51 inlet;
#X obj 537 709 throw~ outL;
#X obj 647 707 throw~ outR;
#X obj 634 218 sel 1 2 3 4 5 6, f 40;
#X connect 0 0 5 0;
#X connect 1 0 5 0;
#X connect 2 0 1 0;
#X connect 3 0 5 0;
#X connect 4 0 0 0;
#X connect 5 0 21 0;
#X connect 5 1 22 0;
#X connect 6 0 5 0;
#X connect 7 0 6 0;
#X connect 9 0 5 0;
#X connect 10 0 9 0;
#X connect 11 0 3 0;
#X connect 12 0 5 0;
#X connect 13 0 14 0;
#X connect 14 0 5 0;
#X connect 15 0 12 0;
#X connect 16 0 19 0;
#X connect 17 0 18 0;
#X connect 18 0 5 0;
#X connect 19 0 5 0;
#X connect 20 0 23 0;
#X connect 23 0 4 0;
#X connect 23 1 10 0;
#X connect 23 2 2 0;
#X connect 23 3 11 0;
#X connect 23 4 15 0;
#X connect 23 5 13 0;
