#N canvas 562 24 718 749 12;
#X obj 53 625 tabread4~ grainArray;
#X obj 53 591 line~;
#X floatatom 49 226 15 0 0 0 - - -;
#X obj 50 255 t f f;
#X text 164 233 start(samples);
#X obj 48 454 pack f f f;
#X obj 78 385 +;
#X floatatom 165 319 10 0 0 0 - - -;
#X text 165 558 start (samples) end (samples) time (millis);
#X text 241 318 grain dur (millis);
#X obj 165 348 * 44.1;
#X floatatom 79 414 10 0 0 0 - - -;
#X msg 52 557 \$1 \, \$2 \$3, f 14;
#X obj 316 353 loadbang;
#X obj 316 377 samplerate~;
#X obj 316 401 / 1000;
#X text 408 378 update sample rate;
#X obj 53 694 outlet~;
#X obj 50 48 t f b, f 85;
#X obj 674 218 t b b;
#X obj 674 242 del 50;
#X msg 786 246 1;
#X msg 674 266 0;
#X obj 674 290 pack f 50;
#X obj 674 314 line~;
#X text 762 292 volume control;
#X obj 52 653 *~, f 91;
#X obj 166 290 r grainDur;
#X obj 800 129 r grainDur;
#X obj 800 153 - 50;
#X obj 50 -23 inlet;
#X obj 230 -14 inlet;
#X floatatom 230 11 15 0 0 0 - - -;
#X obj 231 179 scale 0.1 0.9 1 10000;
#X floatatom 260 204 15 0 0 0 - - -;
#X connect 0 0 26 0;
#X connect 1 0 0 0;
#X connect 2 0 3 0;
#X connect 3 0 5 0;
#X connect 3 1 6 0;
#X connect 5 0 12 0;
#X connect 6 0 11 0;
#X connect 7 0 10 0;
#X connect 7 0 5 2;
#X connect 10 0 6 1;
#X connect 11 0 5 1;
#X connect 12 0 1 0;
#X connect 13 0 14 0;
#X connect 14 0 15 0;
#X connect 15 0 10 1;
#X connect 18 0 2 0;
#X connect 18 1 19 0;
#X connect 19 0 20 0;
#X connect 19 1 21 0;
#X connect 20 0 22 0;
#X connect 21 0 23 0;
#X connect 22 0 23 0;
#X connect 23 0 24 0;
#X connect 24 0 26 1;
#X connect 26 0 17 0;
#X connect 27 0 7 0;
#X connect 28 0 29 0;
#X connect 29 0 20 1;
#X connect 30 0 18 0;
#X connect 31 0 32 0;
#X connect 32 0 33 0;
#X connect 33 0 34 0;
#X connect 33 0 2 0;
