#N canvas 510 29 718 749 12;
#X obj 53 625 tabread4~ grainArray;
#X obj 53 591 line~;
#X floatatom 50 160 15 0 0 0 - - -;
#X obj 50 255 t f f;
#X text 165 167 start(samples);
#X obj 48 454 pack f f f;
#X obj 78 385 +;
#X floatatom 165 319 10 0 0 0 - - -;
#X text 165 558 start (samples) end (samples) time (millis);
#X text 241 318 grain dur (millis);
#X obj 165 348 * 44.1;
#X floatatom 79 414 10 0 0 0 - - -;
#X msg 52 557 \$1 \, \$2 \$3, f 14;
#X obj 372 225 loadbang;
#X obj 372 249 samplerate~;
#X obj 372 273 / 1000;
#X text 464 250 update sample rate;
#X obj 53 694 outlet~;
#X obj 50 48 t f b, f 90;
#X obj 674 218 t b b;
#X obj 674 242 del 50;
#X msg 786 246 1;
#X msg 674 266 0;
#X obj 674 290 pack f 50;
#X obj 674 314 line~;
#X text 762 292 volume control;
#X obj 55 659 *~, f 91;
#X obj 166 290 r grainDur;
#X obj 800 129 r grainDur;
#X obj 800 153 - 50;
#X obj 50 -23 inlet;
#X floatatom 94 13 5 0 0 0 - - -;
#N canvas 0 23 450 300 randomVals 0;
#X obj 147 79 random 10;
#X obj 147 103 + 50;
#X floatatom 268 79 5 0 0 0 - - -;
#X floatatom 268 102 5 0 0 0 - - -;
#X text 186 102 <= jitter;
#X floatatom 147 127 5 0 0 0 - - -;
#X obj 46 163 + 0;
#X floatatom 46 187 5 0 0 0 - - -;
#X obj 64 7 inlet;
#X obj 46 219 outlet;
#X obj 147 22 tgl 15 0 empty empty empty 17 7 0 10 -262144 -1 -1 1
1;
#X obj 147 46 metro 125;
#X obj 147 -6 loadbang;
#X obj 320 79 loadmess 200;
#X obj 320 103 loadmess 200;
#X connect 0 0 1 0;
#X connect 1 0 5 0;
#X connect 2 0 0 1;
#X connect 3 0 1 1;
#X connect 5 0 6 0;
#X connect 6 0 7 0;
#X connect 7 0 9 0;
#X connect 8 0 6 1;
#X connect 10 0 11 0;
#X connect 11 0 0 0;
#X connect 12 0 10 0;
#X connect 13 0 2 0;
#X connect 14 0 3 0;
#X restore 86 194 pd randomVals;
#X floatatom 51 223 15 0 0 0 - - -;
#X connect 0 0 26 0;
#X connect 1 0 0 0;
#X connect 2 0 32 0;
#X connect 2 0 33 0;
#X connect 3 0 5 0;
#X connect 3 1 6 0;
#X connect 5 0 12 0;
#X connect 6 0 11 0;
#X connect 7 0 10 0;
#X connect 7 0 5 2;
#X connect 10 0 6 1;
#X connect 11 0 5 1;
#X connect 12 0 1 0;
#X connect 13 0 14 0;
#X connect 14 0 15 0;
#X connect 15 0 10 1;
#X connect 18 0 2 0;
#X connect 18 1 19 0;
#X connect 19 0 20 0;
#X connect 19 1 21 0;
#X connect 20 0 22 0;
#X connect 21 0 23 0;
#X connect 22 0 23 0;
#X connect 23 0 24 0;
#X connect 24 0 26 1;
#X connect 26 0 17 0;
#X connect 27 0 7 0;
#X connect 28 0 29 0;
#X connect 29 0 20 1;
#X connect 30 0 18 0;
#X connect 30 0 31 0;
#X connect 33 0 3 0;
