#N canvas 4 23 1083 755 12;
#X obj 1190 823 array define grainArray;
#X text 1272 764 duration in samples;
#X obj 1189 740 soundfiler;
#X floatatom 1189 764 0 0 0 0 - - -;
#X obj 757 190 s grainDur;
#X obj 15 480 clone grain 16;
#X msg 15 454 next \$1;
#X text 77 454 target next voice;
#X obj 16 278 phasor~;
#X text 79 277 0-1;
#X obj 16 313 *~;
#X text 50 314 0-dur in samples;
#X obj 1189 788 s fileDur;
#X floatatom 17 5 10 0 0 0 - - -;
#X obj 16 -53 r fileDur;
#X obj 110 -76 loadbang;
#X obj 109 -48 samplerate~;
#X obj 16 -23 expr $f2 / $f1;
#X obj 201 -77 bng 15 250 50 0 empty empty empty 17 7 0 10 -262144
-1 -1;
#X text 107 6 normal speed for this sample;
#X obj 16 249 * 1;
#X floatatom 38 175 10 0 0 0 - - -;
#X text 117 170 playback rate (1 is normal);
#X obj 15 423 snapshot~;
#X obj 397 119 hsl 256 15 0 1 0 0 empty empty empty -2 -8 0 10 -203904
-1 -1 0 1;
#X obj 394 223 nbx 15 14 -1e+37 1e+37 0 0 empty empty empty 0 -8 0
10 -228856 -1 -1 0 256;
#X obj 394 163 nbx 5 14 -1e+37 1e+37 0 0 empty empty empty 0 -8 0 10
-228856 -1 -1 0 256;
#X text 459 160 <= input;
#X text 548 221 <= scaled value;
#X obj 107 351 hsl 128 15 0 1 0 0 empty empty empty -2 -8 0 10 -203904
-1 -1 0 1;
#X obj 760 121 hsl 128 15 0 1 0 0 empty empty empty -2 -8 0 10 -203904
-1 -1 0 1;
#X obj 1189 688 loadbang;
#X obj 36 196 t b f;
#X obj 262 681 hsl 128 15 0 1 0 0 empty empty empty -2 -8 0 10 -203904
-1 -1 0 1;
#X obj 55 149 loadmess 0.001;
#X msg 1189 713 read -resize singing_mix.wav grainArray;
#X obj 510 -160 inlet;
#X obj 510 -114 unpack 0 0 0 0 0 0 0 0;
#X obj 40 84 hsl 128 15 0 1 0 0 empty empty empty -2 -8 0 10 -203904
-1 -1 0 1;
#X obj 349 931 dac~;
#X obj 61 930 throw~ outL;
#X obj 186 930 throw~ outR;
#X obj 151 800 vradio 15 1 0 3 empty empty empty 0 -8 0 10 -228856
-1 -1 1;
#X text 139 800 0;
#X text 139 815 1;
#X text 139 830 2;
#X text 169 798 <= route to correct output (0 closed \, 1 bela \, 2
laptop);
#X floatatom 174 127 5 0 0 0 - - -;
#X text 846 166 <= grain duration;
#N canvas 883 182 450 300 grainDur 0;
#X floatatom 44 155 10 0 0 0 - - -;
#X obj 45 106 nbx 5 14 -1e+37 1e+37 0 0 empty empty empty 0 -8 0 10
-228856 -1 -1 0 256;
#X obj 45 47 nbx 5 14 -1e+37 1e+37 0 0 empty empty empty 0 -8 0 10
-228856 -1 -1 0 256;
#X text 105 46 <= input;
#X text 107 104 <= scaled value;
#X obj 68 126 loadmess 70;
#X obj 45 74 scale 0 1 60 240;
#X obj 45 8 inlet;
#X obj 44 206 outlet;
#X connect 0 0 8 0;
#X connect 1 0 0 0;
#X connect 2 0 6 0;
#X connect 5 0 0 0;
#X connect 6 0 1 0;
#X connect 7 0 2 0;
#X restore 757 164 pd grainDur;
#N canvas 0 23 450 300 volume 0;
#X obj 133 147 nbx 5 14 -1e+37 1e+37 0 0 empty empty empty 0 -8 0 10
-228856 -1 -1 0 256;
#X obj 133 89 nbx 5 14 -1e+37 1e+37 0 0 empty empty empty 0 -8 0 10
-228856 -1 -1 0 256;
#X text 193 88 <= input;
#X text 195 148 <= scaled value;
#X obj 133 117 scale 0 1 0 0.2;
#X obj 51 209 *~ 0.1;
#X obj 133 39 inlet;
#X obj 51 40 inlet~;
#X obj 50 257 outlet~;
#X connect 0 0 5 1;
#X connect 1 0 4 0;
#X connect 4 0 0 0;
#X connect 5 0 8 0;
#X connect 6 0 1 0;
#X connect 7 0 5 0;
#X restore 199 724 pd volume;
#X text 413 678 <= volume;
#X text 251 370 <= grain rate;
#N canvas 0 23 450 300 grainRate 0;
#X obj 90 240 tgl 15 0 empty empty empty 17 7 0 10 -262144 -1 -1 1
1;
#X obj 90 264 metro 125;
#X floatatom 171 178 5 0 0 0 - - -;
#X obj 152 113 nbx 5 14 -1e+37 1e+37 0 0 empty empty empty 0 -8 0 10
-228856 -1 -1 0 256;
#X obj 152 62 nbx 5 14 -1e+37 1e+37 0 0 empty empty empty 0 -8 0 10
-228856 -1 -1 0 256;
#X text 213 61 <= input;
#X text 217 110 <= scaled value;
#X obj 90 212 loadbang;
#X obj 181 150 loadmess 35;
#X obj 152 85 scale 0 1 5 300;
#X text 225 234 <= grain rate;
#N canvas 0 23 450 300 randomVals 0;
#X obj 147 48 random 10;
#X obj 147 72 + 50;
#X floatatom 268 48 5 0 0 0 - - -;
#X floatatom 268 71 5 0 0 0 - - -;
#X obj 320 48 loadmess 35;
#X obj 320 72 loadmess 30;
#X text 186 71 <= jitter;
#X floatatom 147 96 5 0 0 0 - - -;
#X obj 46 163 + 0;
#X floatatom 46 187 5 0 0 0 - - -;
#X obj 147 7 inlet;
#X obj 64 7 inlet;
#X obj 46 219 outlet;
#X connect 0 0 1 0;
#X connect 1 0 7 0;
#X connect 2 0 0 1;
#X connect 3 0 1 1;
#X connect 4 0 2 0;
#X connect 5 0 3 0;
#X connect 7 0 8 0;
#X connect 8 0 9 0;
#X connect 9 0 12 0;
#X connect 10 0 0 0;
#X connect 11 0 8 1;
#X restore 171 209 pd randomVals;
#X floatatom 171 233 5 0 0 0 - - -;
#X obj 152 21 inlet;
#X obj 90 307 outlet;
#X connect 0 0 1 0;
#X connect 1 0 11 1;
#X connect 1 0 14 0;
#X connect 2 0 11 0;
#X connect 3 0 2 0;
#X connect 4 0 9 0;
#X connect 7 0 0 0;
#X connect 8 0 2 0;
#X connect 9 0 3 0;
#X connect 11 0 1 1;
#X connect 11 0 12 0;
#X connect 13 0 4 0;
#X restore 103 380 pd grainRate;
#X obj 38 127 scale 0 1 0 0.0002;
#X obj 394 193 scale 0 1 0 4.1e+08;
#X obj 1152 270 bng 15 250 50 0 empty empty empty 17 7 0 10 -262144
-1 -1;
#X obj 1181 332 pack 0 0 0 0 0 0 0 0;
#N canvas 683 23 597 755 presetList 0;
#X obj 37 40 inlet;
#X obj 17 487 outlet;
#X obj 14 116 sel 1;
#X obj 63 116 sel 2;
#X obj 113 117 sel 3;
#X obj 161 119 sel 4;
#X obj 211 118 sel 5;
#X obj 14 448 pack f f f f f f f f;
#X obj 257 119 sel 6;
#X msg 33 190 0.964706 0.0393701 0.15748 0.976378 1 0 0 0;
#X msg 58 228 0.576471 0 0.15748 0.976378 1 0 0 0;
#X msg 73 269 0.231373 0.0393701 0.00787402 0.496063 1 0 0 0;
#X msg 17 151 0.027451 0.23622 0.228346 0.677165 1 0 0 0;
#X msg 107 305 0.992157 0 0.0314961 0.653543 1 0 0 0;
#X msg 146 346 0.823529 0 0.834646 0.976378 1 0 0 0;
#X connect 0 0 2 0;
#X connect 0 0 3 0;
#X connect 0 0 4 0;
#X connect 0 0 5 0;
#X connect 0 0 6 0;
#X connect 0 0 8 0;
#X connect 2 0 12 0;
#X connect 3 0 9 0;
#X connect 4 0 10 0;
#X connect 5 0 11 0;
#X connect 6 0 13 0;
#X connect 7 0 1 0;
#X connect 8 0 14 0;
#X connect 9 0 7 0;
#X connect 10 0 7 0;
#X connect 11 0 7 0;
#X connect 12 0 7 0;
#X connect 13 0 7 0;
#X connect 14 0 7 0;
#X restore 1062 -101 pd presetList;
#X floatatom 1062 -130 7 0 7 0 - - -;
#X obj 1062 -160 inlet;
#X text 1118 -161 <= inlet for preset retrival;
#X obj 1121 -69 s preset;
#X text 1151 237 preset preset storage;
#X text 1453 293 <= receive values;
#X text 1181 269 <= bang to print preset values;
#X obj 1064 964 outlet;
#X obj 1181 293 r v1;
#X obj 1212 293 r v2;
#X obj 1244 293 r v3;
#X obj 1277 293 r v4;
#X obj 1309 293 r v5;
#X obj 1340 293 r v6;
#X obj 1377 293 r v7;
#X obj 1414 293 r v8;
#X obj 577 -137 r preset;
#X text 561 -161 <= inlet for gestiure interaction;
#X obj 411 138 s v1;
#X obj 47 105 s v2;
#X obj 59 380 s v3;
#X obj 770 143 s v4;
#X obj 270 702 s v5;
#X obj 626 49 loadbang;
#X obj 627 80 delay 400;
#X obj 574 158 loadmess 9.01e+09;
#X obj 14 508 *~ 12;
#X obj 865 -160 inlet;
#X text 921 -161 raw sensor data;
#X obj 151 872 gate~ 2 1;
#X connect 2 0 3 0;
#X connect 3 0 12 0;
#X connect 5 0 85 0;
#X connect 6 0 5 0;
#X connect 8 0 10 0;
#X connect 10 0 23 0;
#X connect 13 0 20 0;
#X connect 14 0 17 0;
#X connect 15 0 16 0;
#X connect 16 0 17 1;
#X connect 17 0 13 0;
#X connect 18 0 16 0;
#X connect 20 0 8 0;
#X connect 21 0 32 0;
#X connect 23 0 6 0;
#X connect 24 0 26 0;
#X connect 24 0 77 0;
#X connect 25 0 10 1;
#X connect 26 0 55 0;
#X connect 29 0 53 0;
#X connect 29 0 79 0;
#X connect 30 0 49 0;
#X connect 30 0 80 0;
#X connect 31 0 35 0;
#X connect 32 0 20 0;
#X connect 32 1 20 1;
#X connect 33 0 50 1;
#X connect 33 0 81 0;
#X connect 34 0 21 0;
#X connect 35 0 2 0;
#X connect 36 0 37 0;
#X connect 37 0 24 0;
#X connect 37 1 38 0;
#X connect 37 2 29 0;
#X connect 37 3 30 0;
#X connect 37 4 33 0;
#X connect 38 0 47 0;
#X connect 38 0 54 0;
#X connect 38 0 78 0;
#X connect 42 0 88 0;
#X connect 49 0 4 0;
#X connect 50 0 88 1;
#X connect 53 0 23 0;
#X connect 54 0 21 0;
#X connect 55 0 25 0;
#X connect 56 0 57 0;
#X connect 58 0 62 0;
#X connect 58 0 66 0;
#X connect 59 0 58 0;
#X connect 60 0 59 0;
#X connect 67 0 57 0;
#X connect 68 0 57 1;
#X connect 69 0 57 2;
#X connect 70 0 57 3;
#X connect 71 0 57 4;
#X connect 72 0 57 5;
#X connect 73 0 57 6;
#X connect 74 0 57 7;
#X connect 75 0 37 0;
#X connect 82 0 83 0;
#X connect 83 0 84 0;
#X connect 84 0 55 4;
#X connect 85 0 50 0;
#X connect 88 0 41 0;
#X connect 88 0 40 0;
#X connect 88 1 39 0;
#X connect 88 1 39 1;
