#N canvas 6 23 984 744 12;
#X obj 1549 976 array define grainArray;
#X text 1658 894 duration in samples;
#X obj 1555 868 soundfiler;
#X floatatom 1555 892 0 0 0 0 - - -;
#X obj 1233 403 s grainDur;
#X floatatom 1233 372 10 0 0 0 - - -;
#X obj 44 509 clone grain 16;
#X msg 45 456 next \$1;
#X text 107 456 target next voice;
#X obj 42 271 phasor~;
#X text 105 270 0-1;
#X obj 45 379 *~;
#X text 80 380 0-dur in samples;
#X floatatom 206 325 20 0 0 0 - - -;
#X obj 208 248 r fileDur;
#X obj 1555 916 s fileDur;
#X obj 874 323 tgl 15 0 empty empty empty 17 7 0 10 -262144 -1 -1 1
1;
#X obj 872 350 metro 125;
#X floatatom 27 31 10 0 0 0 - - -;
#X obj 25 -57 r fileDur;
#X obj 133 -69 loadbang;
#X obj 132 -40 samplerate~;
#X obj 26 3 expr $f2 / $f1;
#X obj 198 14 bng 15 250 50 0 empty empty empty 17 7 0 10 -262144 -1
-1;
#X text 117 32 normal speed for this sample;
#X obj 42 238 * 1;
#X floatatom 81 186 10 0 0 0 - - -;
#X text 160 181 playback rate (1 is normal);
#X floatatom 984 320 5 0 0 0 - - -;
#X obj 872 384 random 10;
#X obj 872 408 + 50;
#X floatatom 967 385 5 0 0 0 - - -;
#X floatatom 962 411 5 0 0 0 - - -;
#X text 909 405 jitter;
#X obj 46 417 snapshot~;
#X obj 445 147 hsl 128 15 0 1 0 0 empty empty empty -2 -8 0 10 -228856
-1 -1 7000 1;
#X obj 423 248 nbx 15 14 -1e+37 1e+37 0 0 empty empty empty 0 -8 0
10 -228856 -1 -1 2.25984e+08 256;
#X obj 434 188 nbx 5 14 -1e+37 1e+37 0 0 empty empty empty 0 -8 0 10
-228856 -1 -1 0.551181 256;
#X text 494 187 <= input;
#X text 574 245 <= scaled value;
#X obj 893 129 hsl 128 15 0 1 0 0 empty empty empty -2 -8 0 10 -228856
-1 -1 11000 1;
#X obj 887 227 nbx 5 14 -1e+37 1e+37 0 0 empty empty empty 0 -8 0 10
-228856 -1 -1 260.512 256;
#X obj 890 166 nbx 5 14 -1e+37 1e+37 0 0 empty empty empty 0 -8 0 10
-228856 -1 -1 0.866142 256;
#X text 950 165 <= input;
#X text 952 225 <= scaled value;
#X obj 1167 127 hsl 128 15 0 1 0 0 empty empty empty -2 -8 0 10 -228856
-1 -1 0 1;
#X obj 1164 213 nbx 5 14 -1e+37 1e+37 0 0 empty empty empty 0 -8 0
10 -228856 -1 -1 0 256;
#X obj 1164 155 nbx 5 14 -1e+37 1e+37 0 0 empty empty empty 0 -8 0
10 -228856 -1 -1 0 256;
#X text 1224 154 <= input;
#X text 1226 214 <= scaled value;
#X obj 1570 758 loadbang;
#X obj 872 295 loadbang;
#X obj 79 207 t b f;
#X obj 1230 333 loadmess 70;
#X obj 1027 382 loadmess 35;
#X obj 971 292 loadmess 35;
#X obj 340 870 *~ 0.1;
#X msg 1556 825 read -resize Julia_trainingAudio_k.wav grainArray;
#X obj 380 745 hsl 128 15 0 1 0 0 empty empty empty -2 -8 0 10 -228856
-1 -1 10200 1;
#X obj 377 825 nbx 5 14 -1e+37 1e+37 0 0 empty empty empty 0 -8 0 10
-228856 -1 -1 0.16063 256;
#X obj 377 767 nbx 5 14 -1e+37 1e+37 0 0 empty empty empty 0 -8 0 10
-228856 -1 -1 0.80315 256;
#X text 437 766 <= input;
#X text 439 826 <= scaled value;
#X text 1322 373 grain duration;
#X obj 1004 412 loadmess 30;
#X text 1028 320 grain rate;
#X obj 77 158 loadmess 0.001;
#X msg 1550 735 read -resize phonemes_one_file.wav grainArray;
#X msg 1565 788 read -resize singing_mix.wav grainArray;
#X obj 889 189 scale 0 1 5 300;
#X obj 1164 183 scale 0 1 60 240;
#X obj 377 795 scale 0 1 0 0.2;
#X obj 576 -75 inlet;
#X obj 576 -51 unpack 0 0 0 0 0 0 0 0;
#X obj 313 928 throw~ outL;
#X obj 438 928 throw~ outR;
#X floatatom 227 272 15 0 0 0 - - -;
#X obj 423 218 scale 0 1 0 4.1e+08;
#X floatatom 603 182 20 0 0 0 - - -;
#X obj 609 153 loadmess 4.1e+08;
#X obj 223 116 hsl 128 15 0 1 0 0 empty empty empty -2 -8 0 10 -228856
-1 -1 1900 1;
#X obj 221 143 scale 0 1 0 0.002;
#X connect 2 0 3 0;
#X connect 3 0 15 0;
#X connect 5 0 4 0;
#X connect 6 0 56 0;
#X connect 7 0 6 0;
#X connect 9 0 11 0;
#X connect 11 0 34 0;
#X connect 13 0 11 1;
#X connect 14 0 13 0;
#X connect 14 0 76 0;
#X connect 16 0 17 0;
#X connect 17 0 29 0;
#X connect 17 0 34 0;
#X connect 18 0 25 0;
#X connect 19 0 22 0;
#X connect 20 0 21 0;
#X connect 21 0 22 1;
#X connect 22 0 18 0;
#X connect 23 0 21 0;
#X connect 25 0 9 0;
#X connect 26 0 52 0;
#X connect 28 0 17 1;
#X connect 29 0 30 0;
#X connect 31 0 29 1;
#X connect 32 0 30 1;
#X connect 34 0 7 0;
#X connect 35 0 37 0;
#X connect 36 0 13 0;
#X connect 37 0 77 0;
#X connect 40 0 42 0;
#X connect 42 0 69 0;
#X connect 45 0 47 0;
#X connect 47 0 70 0;
#X connect 50 0 68 0;
#X connect 51 0 16 0;
#X connect 52 0 25 0;
#X connect 52 1 25 1;
#X connect 53 0 5 0;
#X connect 54 0 31 0;
#X connect 55 0 28 0;
#X connect 56 0 75 0;
#X connect 56 0 74 0;
#X connect 57 0 2 0;
#X connect 58 0 60 0;
#X connect 60 0 71 0;
#X connect 64 0 32 0;
#X connect 66 0 26 0;
#X connect 67 0 2 0;
#X connect 68 0 2 0;
#X connect 69 0 41 0;
#X connect 69 0 28 0;
#X connect 70 0 46 0;
#X connect 70 0 5 0;
#X connect 71 0 59 0;
#X connect 71 0 56 1;
#X connect 72 0 73 0;
#X connect 73 0 58 0;
#X connect 73 1 35 0;
#X connect 73 2 40 0;
#X connect 73 3 45 0;
#X connect 73 4 80 0;
#X connect 77 0 36 0;
#X connect 78 0 77 4;
#X connect 79 0 78 0;
#X connect 80 0 81 0;
#X connect 81 0 26 0;
