#N canvas 100 23 1299 855 12;
#X declare -path ../_common;
#X obj 189 494 soundfiler;
#X floatatom 188 548 5 0 0 0 - - -;
#X obj 157 670 tabplay~ pho_01;
#X obj 398 494 soundfiler;
#X floatatom 398 536 5 0 0 0 - - -;
#X obj 373 669 tabplay~ pho_02;
#X obj 187 622 delay 1000;
#X obj 189 571 / 48;
#X floatatom 257 595 5 0 0 0 - - -;
#X obj 396 611 delay 1000;
#X floatatom 441 578 5 0 0 0 - - -;
#X obj 397 556 / 48;
#N canvas 0 22 450 278 (subpatch) 0;
#X array pho_01 23578 float 2;
#X coords 0 1 23578 -1 100 70 1 0 0;
#X restore 541 759 graph;
#N canvas 0 22 450 278 (subpatch) 0;
#X array pho_02 75846 float 2;
#X coords 0 1 75846 -1 100 70 1 0 0;
#X restore 650 760 graph;
#X obj 397 470 list trim;
#X obj 397 447 list prepend read -resize;
#X obj 189 470 list trim;
#X obj 188 446 list prepend read -resize;
#X obj 188 421 list append pho_01;
#X obj 397 422 list append pho_02;
#X msg 259 318 1;
#X obj 258 386 + 1;
#X obj 259 341 + 1;
#X obj 149 522 t b a;
#X obj 345 520 t b a;
#X obj 130 143 int;
#X obj 130 186 change;
#X obj 216 126 hsl 128 15 0 1 0 0 empty empty empty -2 -8 0 10 -203904
-1 -1 0 1;
#X obj 348 356 t b a;
#X obj 464 13 inlet;
#X obj 459 48 unpack 0 0 0 0 0 0 0 0;
#X text 506 9 <= inlet for gestiure interaction;
#X obj 1092 16 inlet;
#X text 1136 16 inlet for raw sensor data;
#X obj 228 831 dac~;
#X obj 21 831 throw~ outL;
#X obj 107 831 throw~ outR;
#X obj 94 771 vradio 15 1 0 3 empty empty empty 0 -8 0 10 -228856 -1
-1 2;
#X text 77 771 0;
#X text 77 786 1;
#X text 77 801 2;
#X obj 129 772 gate~ 2 1;
#X obj 1091 51 unpack 0 0 0 0 0 0 0 0;
#N canvas 0 22 450 278 (subpatch) 0;
#X array pho_03 49862 float 2;
#X coords 0 1 49862 -1 100 70 1 0 0;
#X restore 757 761 graph;
#N canvas 0 22 450 278 (subpatch) 0;
#X array pho_04 44845 float 2;
#X coords 0 1 44845 -1 100 70 1 0 0;
#X restore 864 761 graph;
#X obj 599 497 soundfiler;
#X floatatom 599 546 5 0 0 0 - - -;
#X obj 598 613 delay 1000;
#X floatatom 644 591 5 0 0 0 - - -;
#X obj 599 571 / 48;
#X obj 599 473 list trim;
#X obj 599 450 list prepend read -resize;
#X obj 538 513 t b a;
#X obj 795 490 soundfiler;
#X floatatom 795 539 5 0 0 0 - - -;
#X obj 861 531 unpack;
#X obj 861 555 / 1000;
#X obj 794 606 delay 1000;
#X floatatom 840 584 5 0 0 0 - - -;
#X obj 795 564 / 48;
#X obj 795 466 list trim;
#X obj 795 443 list prepend read -resize;
#X obj 740 513 t b a;
#X obj 599 425 list append pho_03;
#X obj 795 418 list append pho_04;
#X obj 597 669 tabplay~ pho_03;
#X obj 793 669 tabplay~ pho_04;
#X msg 823 694 \; pho_04 const 0, f 18;
#X msg 627 694 \; pho_03 const 0, f 18;
#X msg 424 695 \; pho_02 const 0, f 18;
#X msg 231 694 \; pho_01 const 0;
#X obj 430 309 fifop;
#X msg 478 309 clear;
#X obj 432 333 list trim;
#X obj 1112 659 onebang;
#X obj 1113 624 t b;
#X obj 1111 695 bng 15 250 50 0 empty empty empty 17 7 0 10 -262144
-1 -1;
#X obj 468 640 bng 15 250 50 0 empty empty empty 17 7 0 10 -262144
-1 -1;
#X obj 1169 639 bng 15 250 50 0 empty empty empty 17 7 0 10 -262144
-1 -1;
#X obj 538 278 list;
#X obj 900 264 list;
#X obj 388 326 bng 15 250 50 0 empty empty empty 17 7 0 10 -262144
-1 -1;
#X obj 395 635 t b b b;
#X obj 189 645 t b b b;
#X obj 1159 582 loadbang;
#X obj 230 294 list;
#X obj 1091 80 acc_line;
#X obj 1112 99 acc_line;
#X obj 1133 123 acc_line;
#X obj 1155 146 acc_line;
#X obj 1178 78 acc_line;
#X obj 1199 97 acc_line;
#X obj 1220 121 acc_line;
#X obj 1242 144 acc_line;
#X obj 1252 174 + 0;
#X obj 1234 198 + 0;
#X obj 1217 223 + 0;
#X obj 1199 247 + 0;
#X obj 1139 176 + 0;
#X obj 1121 200 + 0;
#X obj 1104 227 + 0;
#X obj 1198 324 t a a;
#X obj 1147 326 t b b;
#X msg 1258 293 0;
#X obj 1199 298 + 1;
#X obj 1197 375 sel 1;
#X obj 1252 269 sel 0;
#X text 1259 333 time out when sum of velocity is less than 0.2 for
a while;
#X obj 1198 273 < 0.05;
#X obj 1199 351 > 50;
#X obj 130 119 * 10;
#X obj 633 638 t b b b;
#X obj 324 383 gate 4 1, f 15;
#X obj 258 364 % 4;
#X obj 822 632 t b b b;
#X obj 130 165 sel 0 1 2;
#X obj 482 108 int;
#X obj 482 153 change;
#X obj 547 78 hsl 128 15 0 1 0 0 empty empty empty -2 -8 0 10 -203904
-1 -1 0 1;
#X obj 482 84 * 10;
#X obj 482 130 sel 0 1 2;
#X obj 754 74 int;
#X obj 754 119 change;
#X obj 755 31 hsl 128 15 0 1 0 0 empty empty empty -2 -8 0 10 -203904
-1 -1 0 1;
#X obj 754 50 * 10;
#X obj 754 96 sel 0 1 2;
#X msg 54 383 aaa.wav;
#X msg 931 191 aeo.wav;
#X msg 716 195 au.wav;
#X msg 727 242 b.wav;
#X msg 681 242 d.wav;
#X msg 374 266 g.wav;
#X msg 527 242 h.wav;
#X msg 477 242 i.wav;
#X msg 103 266 k.wav;
#X msg 212 266 mm.wav;
#X msg 321 266 nn.wav;
#X msg 266 266 oe.wav;
#X msg 862 190 oeee.wav;
#X msg 776 242 ooo.wav;
#X msg 685 188 p.wav;
#X msg 743 189 plosivetsch.wav;
#X msg 423 266 rrra.wav;
#X msg 1048 186 sch.wav;
#X msg 573 242 t.wav;
#X msg 659 342 ua.wav;
#X msg 983 187 wou.wav;
#X obj 130 234 sel 3 4 5 6 7 8 9, f 35;
#X obj 481 207 sel 3 4 5 6 7 8 9, f 35;
#X obj 752 166 sel 3 4 5 6 7 8 9, f 35;
#X obj 187 748 *~ 0.5;
#X obj 190 597 - 40;
#X obj 397 577 - 40;
#X obj 599 591 - 40;
#X obj 795 584 - 40;
#X obj 746 143 gate;
#X obj 1137 274 > 0.1;
#X obj 160 31 declare -path ../_common;
#X obj 481 180 gate;
#X obj 130 210 gate;
#X connect 0 0 23 0;
#X connect 1 0 7 0;
#X connect 2 0 150 0;
#X connect 2 1 70 0;
#X connect 3 0 24 0;
#X connect 4 0 11 0;
#X connect 5 0 150 0;
#X connect 5 1 69 0;
#X connect 6 0 83 0;
#X connect 7 0 151 0;
#X connect 9 0 77 0;
#X connect 9 0 82 0;
#X connect 11 0 152 0;
#X connect 14 0 3 0;
#X connect 15 0 14 0;
#X connect 16 0 0 0;
#X connect 17 0 16 0;
#X connect 18 0 17 0;
#X connect 19 0 15 0;
#X connect 20 0 22 0;
#X connect 21 0 112 0;
#X connect 22 0 113 0;
#X connect 23 0 2 0;
#X connect 23 0 6 0;
#X connect 23 1 1 0;
#X connect 24 0 9 0;
#X connect 24 0 5 0;
#X connect 24 1 4 0;
#X connect 25 0 115 0;
#X connect 26 0 159 1;
#X connect 27 0 110 0;
#X connect 28 0 20 0;
#X connect 28 1 112 1;
#X connect 29 0 30 0;
#X connect 30 0 110 0;
#X connect 30 1 119 0;
#X connect 30 2 124 0;
#X connect 32 0 42 0;
#X connect 37 0 41 0;
#X connect 41 0 36 0;
#X connect 41 0 35 0;
#X connect 41 1 34 0;
#X connect 41 1 34 1;
#X connect 42 0 86 0;
#X connect 42 1 87 0;
#X connect 42 2 88 0;
#X connect 42 3 89 0;
#X connect 42 4 90 0;
#X connect 42 5 91 0;
#X connect 42 6 92 0;
#X connect 42 7 93 0;
#X connect 45 0 52 0;
#X connect 46 0 49 0;
#X connect 47 0 111 0;
#X connect 49 0 153 0;
#X connect 50 0 45 0;
#X connect 51 0 50 0;
#X connect 52 0 65 0;
#X connect 52 0 47 0;
#X connect 52 1 46 0;
#X connect 53 0 62 0;
#X connect 53 1 55 0;
#X connect 54 0 59 0;
#X connect 55 0 56 0;
#X connect 56 0 59 1;
#X connect 57 0 114 0;
#X connect 59 0 154 0;
#X connect 60 0 53 0;
#X connect 61 0 60 0;
#X connect 62 0 66 0;
#X connect 62 0 57 0;
#X connect 62 1 54 0;
#X connect 63 0 51 0;
#X connect 64 0 61 0;
#X connect 65 0 150 0;
#X connect 65 1 68 0;
#X connect 66 0 150 0;
#X connect 66 1 67 0;
#X connect 71 0 73 0;
#X connect 72 0 71 0;
#X connect 73 0 28 0;
#X connect 74 0 71 0;
#X connect 74 0 76 0;
#X connect 75 0 74 0;
#X connect 78 0 74 1;
#X connect 79 0 71 0;
#X connect 79 0 75 0;
#X connect 80 0 71 0;
#X connect 80 0 75 0;
#X connect 81 0 71 0;
#X connect 82 0 74 1;
#X connect 82 1 74 0;
#X connect 82 2 74 1;
#X connect 83 0 74 1;
#X connect 83 1 74 0;
#X connect 83 2 74 1;
#X connect 84 0 74 1;
#X connect 85 0 71 0;
#X connect 85 0 75 0;
#X connect 86 0 100 0;
#X connect 87 0 99 0;
#X connect 88 0 98 0;
#X connect 89 0 98 1;
#X connect 90 0 96 0;
#X connect 91 0 95 0;
#X connect 92 0 94 0;
#X connect 93 0 94 1;
#X connect 94 0 95 1;
#X connect 95 0 96 1;
#X connect 96 0 97 1;
#X connect 97 0 108 0;
#X connect 97 0 156 0;
#X connect 98 0 99 1;
#X connect 99 0 100 1;
#X connect 100 0 97 0;
#X connect 101 0 104 1;
#X connect 101 0 109 0;
#X connect 102 0 103 0;
#X connect 102 1 72 0;
#X connect 103 0 104 1;
#X connect 104 0 101 0;
#X connect 105 0 102 0;
#X connect 106 0 103 0;
#X connect 108 0 104 0;
#X connect 108 0 106 0;
#X connect 109 0 105 0;
#X connect 110 0 25 0;
#X connect 111 0 74 1;
#X connect 111 1 74 0;
#X connect 111 2 74 1;
#X connect 112 0 18 0;
#X connect 112 1 19 0;
#X connect 112 2 63 0;
#X connect 112 3 64 0;
#X connect 113 0 21 0;
#X connect 113 0 22 1;
#X connect 114 0 74 1;
#X connect 114 1 74 0;
#X connect 114 2 74 1;
#X connect 115 3 26 0;
#X connect 116 0 120 0;
#X connect 117 0 158 1;
#X connect 118 0 119 0;
#X connect 119 0 116 0;
#X connect 120 3 117 0;
#X connect 121 0 125 0;
#X connect 122 0 155 1;
#X connect 123 0 124 0;
#X connect 124 0 121 0;
#X connect 125 3 122 0;
#X connect 126 0 85 0;
#X connect 127 0 80 0;
#X connect 128 0 80 0;
#X connect 129 0 79 0;
#X connect 130 0 79 0;
#X connect 131 0 85 0;
#X connect 132 0 79 0;
#X connect 133 0 79 0;
#X connect 134 0 85 0;
#X connect 135 0 85 0;
#X connect 136 0 85 0;
#X connect 137 0 85 0;
#X connect 138 0 80 0;
#X connect 139 0 79 0;
#X connect 140 0 80 0;
#X connect 141 0 80 0;
#X connect 142 0 85 0;
#X connect 143 0 80 0;
#X connect 144 0 79 0;
#X connect 145 0 79 0;
#X connect 146 0 80 0;
#X connect 147 0 134 0;
#X connect 147 1 126 0;
#X connect 147 2 135 0;
#X connect 147 3 137 0;
#X connect 147 4 136 0;
#X connect 147 5 131 0;
#X connect 147 6 142 0;
#X connect 148 0 133 0;
#X connect 148 1 132 0;
#X connect 148 2 144 0;
#X connect 148 3 145 0;
#X connect 148 4 130 0;
#X connect 148 5 129 0;
#X connect 148 6 139 0;
#X connect 149 0 128 0;
#X connect 149 1 140 0;
#X connect 149 2 141 0;
#X connect 149 3 138 0;
#X connect 149 4 127 0;
#X connect 149 5 146 0;
#X connect 149 6 143 0;
#X connect 150 0 41 1;
#X connect 151 0 6 1;
#X connect 151 0 8 0;
#X connect 152 0 10 0;
#X connect 152 0 9 1;
#X connect 153 0 48 0;
#X connect 153 0 47 1;
#X connect 154 0 58 0;
#X connect 154 0 57 1;
#X connect 155 0 149 0;
#X connect 156 0 155 0;
#X connect 156 0 158 0;
#X connect 156 0 159 0;
#X connect 158 0 148 0;
#X connect 159 0 147 0;
