#N canvas 92 23 1436 855 12;
#X obj 189 494 soundfiler;
#X floatatom 188 548 5 0 0 0 - - -;
#X obj 190 671 tabplay~ pho_01;
#X obj 397 494 soundfiler;
#X floatatom 397 543 5 0 0 0 - - -;
#X obj 395 685 tabplay~ pho_02;
#X obj 189 620 delay 1000;
#X obj 189 571 / 48;
#X obj 257 547 unpack;
#X obj 257 571 / 1000;
#X floatatom 257 595 5 0 0 0 - - -;
#X obj 189 597 - 100;
#X obj 463 535 unpack;
#X obj 463 559 / 1000;
#X obj 396 610 delay 1000;
#X floatatom 442 588 5 0 0 0 - - -;
#X obj 397 568 / 48;
#X obj 397 588 - 100;
#X obj 189 645 t b b;
#X obj 395 635 t b b;
#N canvas 0 22 450 278 (subpatch) 0;
#X array pho_01 36000 float 2;
#X coords 0 1 36000 -1 200 140 1;
#X restore 669 471 graph;
#N canvas 0 22 450 278 (subpatch) 0;
#X array pho_02 36000 float 2;
#X coords 0 1 36000 -1 200 140 1;
#X restore 669 616 graph;
#X obj 397 470 list trim;
#X obj 397 447 list prepend read -resize;
#X msg 176 259 ff.wav;
#X obj 189 470 list trim;
#X obj 188 446 list prepend read -resize;
#X obj 188 421 list append pho_01;
#X msg 72 259 h.wav;
#X obj 397 422 list append pho_02;
#X obj 321 403 gate 2 1;
#X obj 258 374 % 2;
#X msg 259 328 1;
#X obj 258 396 + 1;
#X obj 259 351 + 1;
#X msg 231 709 \; pho_01 const 0;
#X msg 425 712 \; pho_02 const 0, f 18;
#X obj 189 520 t b a;
#X obj 396 517 t b a;
#X obj 189 163 int;
#X obj 189 186 change;
#X obj 192 118 hsl 128 15 0 1 0 0 empty empty empty -2 -8 0 10 -203904
-1 -1 8500 1;
#X obj 189 212 sel 1 2 3 4 5 6 7 8, f 35;
#X msg 119 259 uu.wav;
#X msg 228 259 oeshort.wav;
#X msg 318 259 uu.wav;
#X msg 375 259 sss.wav;
#X msg 437 259 oeee.wav;
#X msg 509 259 tsch.wav;
#X obj 585 230 int;
#X obj 585 253 change;
#X obj 588 185 hsl 128 15 0 1 0 0 empty empty empty -2 -8 0 10 -203904
-1 -1 4000 1;
#X msg 503 324 oe.wav;
#X msg 556 324 s.wav;
#X msg 605 324 b.wav;
#X msg 652 324 g.wav;
#X msg 704 325 ooo.wav;
#X msg 770 325 d.wav;
#X msg 822 326 ei.wav;
#X msg 881 326 aai.wav;
#X obj 656 394 t a;
#X obj 348 339 t b a;
#X obj 348 311 t a;
#X obj 189 139 scale 0 1 0 9;
#X obj 844 124 int;
#X obj 844 147 change;
#X obj 847 79 hsl 128 15 0 1 0 0 empty empty empty -2 -8 0 10 -203904
-1 -1 0 1;
#X obj 915 288 t a;
#X msg 1362 421 aai.wav;
#X msg 743 219 schej.wav;
#X msg 815 218 mm.wav;
#X msg 864 218 nn.wav;
#X msg 910 218 o.wav;
#X msg 963 219 sch.wav;
#X msg 1029 219 j.wav;
#X msg 1134 219 tschej.wav;
#X msg 1081 220 ua.wav;
#X msg 1217 219 oi.wav;
#X obj 843 173 sel 1 2 3 4 5 6 7 8 9, f 35;
#X msg 945 327 ooo.wav;
#X obj 584 279 sel 1 2 3 4 5 6 7 8 9, f 35;
#X obj 844 100 scale 0 1 0 10;
#X obj 585 206 scale 0 1 0 10;
#X obj 400 10 inlet;
#X obj 400 48 unpack 0 0 0 0 0 0 0 0;
#X text 442 6 <= inlet for gestiure interaction;
#X obj 1092 16 inlet;
#X text 1136 16 inlet for raw sensor data;
#X obj 353 861 dac~;
#X obj 146 861 throw~ outL;
#X obj 232 861 throw~ outR;
#X obj 219 801 vradio 15 1 0 3 empty empty empty 0 -8 0 10 -228856
-1 -1 2;
#X text 202 801 0;
#X text 202 816 1;
#X text 202 831 2;
#X obj 254 802 gate~ 2 1;
#X obj 312 778 *~ 1;
#X obj 409 786 hsl 128 15 0 1 0 0 empty empty empty -2 -8 0 10 -203904
-1 -1 6600 1;
#X obj 1091 51 unpack 0 0 0 0 0 0 0 0;
#X text 1116 78 right knee;
#X obj 1114 127 max 0;
#X obj 1115 149 min 1;
#X obj 1113 105 scale 0 1 1.2 0.2;
#X connect 0 0 37 0;
#X connect 0 1 8 0;
#X connect 1 0 7 0;
#X connect 2 0 96 0;
#X connect 2 1 35 0;
#X connect 3 0 38 0;
#X connect 3 1 12 0;
#X connect 4 0 16 0;
#X connect 5 0 96 0;
#X connect 5 1 36 0;
#X connect 6 0 18 0;
#X connect 7 0 11 0;
#X connect 8 0 9 0;
#X connect 9 0 7 1;
#X connect 11 0 6 1;
#X connect 11 0 10 0;
#X connect 12 0 13 0;
#X connect 13 0 16 1;
#X connect 14 0 19 0;
#X connect 16 0 17 0;
#X connect 17 0 15 0;
#X connect 17 0 14 1;
#X connect 18 1 5 0;
#X connect 19 1 2 0;
#X connect 22 0 3 0;
#X connect 23 0 22 0;
#X connect 24 0 62 0;
#X connect 25 0 0 0;
#X connect 26 0 25 0;
#X connect 27 0 26 0;
#X connect 28 0 62 0;
#X connect 29 0 23 0;
#X connect 30 0 27 0;
#X connect 30 1 29 0;
#X connect 31 0 33 0;
#X connect 31 0 34 1;
#X connect 32 0 34 0;
#X connect 33 0 30 0;
#X connect 34 0 31 0;
#X connect 37 0 2 0;
#X connect 37 1 1 0;
#X connect 38 0 5 0;
#X connect 38 1 4 0;
#X connect 39 0 40 0;
#X connect 40 0 42 0;
#X connect 41 0 63 0;
#X connect 42 0 28 0;
#X connect 42 1 43 0;
#X connect 42 2 24 0;
#X connect 42 3 44 0;
#X connect 42 4 45 0;
#X connect 42 5 46 0;
#X connect 42 6 47 0;
#X connect 42 7 48 0;
#X connect 43 0 62 0;
#X connect 44 0 62 0;
#X connect 45 0 62 0;
#X connect 46 0 62 0;
#X connect 47 0 62 0;
#X connect 48 0 62 0;
#X connect 49 0 50 0;
#X connect 50 0 80 0;
#X connect 51 0 82 0;
#X connect 52 0 60 0;
#X connect 53 0 60 0;
#X connect 54 0 60 0;
#X connect 55 0 60 0;
#X connect 56 0 60 0;
#X connect 57 0 60 0;
#X connect 58 0 60 0;
#X connect 59 0 60 0;
#X connect 60 0 61 0;
#X connect 61 0 32 0;
#X connect 61 1 30 1;
#X connect 62 0 61 0;
#X connect 63 0 39 0;
#X connect 64 0 65 0;
#X connect 65 0 78 0;
#X connect 66 0 81 0;
#X connect 67 0 61 0;
#X connect 69 0 67 0;
#X connect 70 0 67 0;
#X connect 71 0 67 0;
#X connect 72 0 67 0;
#X connect 73 0 67 0;
#X connect 74 0 67 0;
#X connect 75 0 67 0;
#X connect 76 0 67 0;
#X connect 77 0 67 0;
#X connect 78 0 69 0;
#X connect 78 1 70 0;
#X connect 78 2 71 0;
#X connect 78 3 72 0;
#X connect 78 4 73 0;
#X connect 78 5 74 0;
#X connect 78 6 76 0;
#X connect 78 7 75 0;
#X connect 78 8 77 0;
#X connect 79 0 60 0;
#X connect 80 0 52 0;
#X connect 80 1 53 0;
#X connect 80 2 54 0;
#X connect 80 3 55 0;
#X connect 80 4 56 0;
#X connect 80 5 57 0;
#X connect 80 6 58 0;
#X connect 80 7 59 0;
#X connect 80 8 79 0;
#X connect 81 0 64 0;
#X connect 82 0 49 0;
#X connect 83 0 84 0;
#X connect 84 0 41 0;
#X connect 84 1 51 0;
#X connect 84 2 66 0;
#X connect 86 0 98 0;
#X connect 91 0 95 0;
#X connect 95 0 90 0;
#X connect 95 0 89 0;
#X connect 95 1 88 0;
#X connect 95 1 88 1;
#X connect 96 0 95 1;
#X connect 97 0 96 1;
#X connect 98 1 102 0;
#X connect 100 0 101 0;
#X connect 101 0 96 1;
#X connect 102 0 100 0;
