#N canvas 109 23 1331 821 12;
#X declare -path ../_common;
#X obj 189 494 soundfiler;
#X obj 157 670 tabplay~ pho_01;
#X obj 398 494 soundfiler;
#X obj 373 669 tabplay~ pho_02;
#X obj 187 622 delay 1000;
#X obj 189 571 / 48;
#X obj 396 611 delay 1000;
#X obj 397 556 / 48;
#N canvas 0 22 450 278 (subpatch) 0;
#X array pho_01 22608 float 2;
#X coords 0 1 22608 -1 100 70 1 0 0;
#X restore 541 759 graph;
#N canvas 0 22 450 278 (subpatch) 0;
#X array pho_02 34523 float 2;
#X coords 0 1 34523 -1 100 70 1 0 0;
#X restore 650 760 graph;
#X obj 397 470 list trim;
#X obj 397 447 list prepend read -resize;
#X obj 189 470 list trim;
#X obj 188 446 list prepend read -resize;
#X obj 188 421 list append pho_01;
#X obj 397 422 list append pho_02;
#X msg 259 318 1;
#X obj 258 386 + 1;
#X obj 259 341 + 1;
#X obj 131 166 int;
#X obj 131 211 change;
#X obj 135 120 hsl 128 15 0 1 0 0 empty empty empty -2 -8 0 10 -203904
-1 -1 0 1;
#X obj 464 13 inlet;
#X obj 459 48 unpack 0 0 0 0 0 0 0 0;
#X text 506 9 <= inlet for gestiure interaction;
#X obj 1092 16 inlet;
#X text 1136 16 inlet for raw sensor data;
#X obj 228 831 dac~;
#X obj 21 831 throw~ outL;
#X obj 107 831 throw~ outR;
#X obj 94 771 vradio 15 1 0 3 empty empty empty 0 -8 0 10 -228856 -1
-1 2;
#X text 77 771 0;
#X text 77 786 1;
#X text 77 801 2;
#X obj 129 772 gate~ 2 1;
#X obj 1091 51 unpack 0 0 0 0 0 0 0 0;
#N canvas 0 22 450 278 (subpatch) 0;
#X array pho_03 19100 float 2;
#X coords 0 1 19100 -1 100 70 1 0 0;
#X restore 757 761 graph;
#N canvas 0 22 450 278 (subpatch) 0;
#X array pho_04 30901 float 2;
#X coords 0 1 30901 -1 100 70 1 0 0;
#X restore 864 761 graph;
#X obj 599 497 soundfiler;
#X obj 598 613 delay 1000;
#X obj 599 571 / 48;
#X obj 599 473 list trim;
#X obj 599 450 list prepend read -resize;
#X obj 795 490 soundfiler;
#X obj 861 531 unpack;
#X obj 861 555 / 1000;
#X obj 794 606 delay 1000;
#X obj 795 564 / 48;
#X obj 795 466 list trim;
#X obj 795 443 list prepend read -resize;
#X obj 599 425 list append pho_03;
#X obj 795 418 list append pho_04;
#X obj 597 669 tabplay~ pho_03;
#X obj 793 669 tabplay~ pho_04;
#X msg 823 694 \; pho_04 const 0, f 18;
#X msg 627 694 \; pho_03 const 0, f 18;
#X msg 424 695 \; pho_02 const 0, f 18;
#X msg 231 694 \; pho_01 const 0;
#X obj 429 304 fifop;
#X msg 729 336 clear;
#X obj 430 333 list trim;
#X obj 1112 659 onebang;
#X obj 468 640 bng 15 250 50 0 empty empty empty 17 7 0 10 -262144
-1 -1;
#X obj 535 268 list;
#X obj 900 264 list;
#X obj 388 326 bng 15 250 50 0 empty empty empty 17 7 0 10 -262144
-1 -1;
#X obj 396 636 t b b b;
#X obj 189 645 t b b b;
#X obj 1158 621 loadbang;
#X obj 212 297 list;
#X obj 1091 80 acc_line;
#X obj 1112 99 acc_line;
#X obj 1133 123 acc_line;
#X obj 1155 146 acc_line;
#X obj 1178 78 acc_line;
#X obj 1199 97 acc_line;
#X obj 1220 121 acc_line;
#X obj 1242 144 acc_line;
#X obj 1252 174 + 0;
#X obj 1234 198 + 0;
#X obj 1217 223 + 0;
#X obj 1199 247 + 0;
#X obj 1139 176 + 0;
#X obj 1121 200 + 0;
#X obj 1104 227 + 0;
#X obj 633 638 t b b b;
#X obj 324 383 gate 4 1, f 15;
#X obj 258 364 % 4;
#X obj 822 632 t b b b;
#X obj 482 137 int;
#X obj 482 179 change;
#X obj 487 89 hsl 128 15 0 1 0 0 empty empty empty -2 -8 0 10 -203904
-1 -1 0 1;
#X obj 753 78 int;
#X obj 753 123 change;
#X obj 754 35 hsl 128 15 0 1 0 0 empty empty empty -2 -8 0 10 -203904
-1 -1 0 1;
#X msg 936 169 aeo.wav;
#X msg 727 242 b.wav;
#X msg 374 266 g.wav;
#X msg 477 242 i.wav;
#X msg 212 266 mm.wav;
#X msg 321 266 nn.wav;
#X msg 872 170 oeee.wav;
#X msg 776 242 ooo.wav;
#X msg 695 168 p.wav;
#X msg 753 169 plosivetsch.wav;
#X msg 1058 166 sch.wav;
#X msg 582 246 t.wav;
#X msg 622 242 ua.wav;
#X msg 993 167 wou.wav;
#X obj 130 234 sel 3 4 5 6 7 8 9, f 35;
#X obj 481 207 sel 3 4 5 6 7 8 9, f 35;
#X obj 754 146 sel 3 4 5 6 7 8 9, f 35;
#X obj 187 748 *~ 0.5;
#X obj 1198 273 < 0.05;
#X obj 32 29 declare -path ../_common;
#X obj 1200 347 onebang;
#X obj 1243 321 sel 0;
#X obj 1198 296 change;
#X obj 1198 322 sel 1;
#X obj 190 597 - 40;
#X obj 397 577 - 40;
#X obj 599 591 - 40;
#X obj 795 584 - 40;
#X msg 514 236 schej.wav;
#X obj 654 523 unpack;
#X obj 654 547 / 1000;
#X obj 466 520 unpack;
#X obj 466 544 / 1000;
#X obj 258 524 unpack;
#X obj 258 548 / 1000;
#X obj 121 519 t b b a;
#X obj 349 522 t b b a;
#X obj 538 513 t b b a;
#X obj 740 513 t b b a;
#X obj 131 142 scale 0 1 0 9;
#X obj 482 113 scale 0 1 0 9;
#X obj 753 54 scale 0 1 0 9;
#X msg 152 266 aai.wav;
#X msg 681 242 l.wav;
#X msg 605 171 oeshort.wav;
#X obj 348 356 t b a;
#X obj 212 348 t b a;
#X msg 103 266 rrra.wav;
#X msg 423 266 oe.wav;
#X msg 266 266 k.wav;
#X obj 132 190 sel 0 1 2;
#X obj 483 155 sel 0 1 2;
#X obj 756 100 sel 0 1 2;
#X obj 538 292 t b a;
#X obj 897 290 t b a;
#X connect 0 0 130 0;
#X connect 0 1 128 0;
#X connect 1 0 112 0;
#X connect 1 1 57 0;
#X connect 2 0 131 0;
#X connect 2 1 126 0;
#X connect 3 0 112 0;
#X connect 3 1 56 0;
#X connect 4 0 67 0;
#X connect 5 0 119 0;
#X connect 6 0 62 0;
#X connect 6 0 66 0;
#X connect 7 0 120 0;
#X connect 10 0 2 0;
#X connect 11 0 10 0;
#X connect 12 0 0 0;
#X connect 13 0 12 0;
#X connect 14 0 13 0;
#X connect 15 0 11 0;
#X connect 16 0 18 0;
#X connect 17 0 86 0;
#X connect 18 0 87 0;
#X connect 19 0 145 0;
#X connect 20 0 109 0;
#X connect 21 0 134 0;
#X connect 22 0 23 0;
#X connect 23 0 134 0;
#X connect 23 1 135 0;
#X connect 23 2 136 0;
#X connect 25 0 35 0;
#X connect 30 0 34 0;
#X connect 34 0 29 0;
#X connect 34 0 28 0;
#X connect 34 1 27 0;
#X connect 34 1 27 1;
#X connect 35 0 70 0;
#X connect 35 1 71 0;
#X connect 35 2 72 0;
#X connect 35 3 73 0;
#X connect 35 4 74 0;
#X connect 35 5 75 0;
#X connect 35 6 76 0;
#X connect 35 7 77 0;
#X connect 38 0 132 0;
#X connect 38 1 124 0;
#X connect 39 0 85 0;
#X connect 40 0 121 0;
#X connect 41 0 38 0;
#X connect 42 0 41 0;
#X connect 43 0 133 0;
#X connect 43 1 44 0;
#X connect 44 0 45 0;
#X connect 45 0 47 1;
#X connect 46 0 88 0;
#X connect 47 0 122 0;
#X connect 48 0 43 0;
#X connect 49 0 48 0;
#X connect 50 0 42 0;
#X connect 51 0 49 0;
#X connect 52 0 112 0;
#X connect 52 1 55 0;
#X connect 53 0 112 0;
#X connect 53 1 54 0;
#X connect 58 0 60 0;
#X connect 59 0 58 0;
#X connect 60 0 140 0;
#X connect 61 0 58 0;
#X connect 63 0 148 0;
#X connect 64 0 149 0;
#X connect 65 0 58 0;
#X connect 66 0 61 1;
#X connect 66 1 61 0;
#X connect 66 2 61 1;
#X connect 67 0 61 1;
#X connect 67 1 61 0;
#X connect 67 2 61 1;
#X connect 68 0 61 1;
#X connect 69 0 141 0;
#X connect 70 0 84 0;
#X connect 71 0 83 0;
#X connect 72 0 82 0;
#X connect 73 0 82 1;
#X connect 74 0 80 0;
#X connect 75 0 79 0;
#X connect 76 0 78 0;
#X connect 77 0 78 1;
#X connect 78 0 79 1;
#X connect 79 0 80 1;
#X connect 80 0 81 1;
#X connect 81 0 113 0;
#X connect 82 0 83 1;
#X connect 83 0 84 1;
#X connect 84 0 81 0;
#X connect 85 0 61 1;
#X connect 85 1 61 0;
#X connect 85 2 61 1;
#X connect 86 0 14 0;
#X connect 86 1 15 0;
#X connect 86 2 50 0;
#X connect 86 3 51 0;
#X connect 87 0 17 0;
#X connect 87 0 18 1;
#X connect 88 0 61 1;
#X connect 88 1 61 0;
#X connect 88 2 61 1;
#X connect 89 0 146 0;
#X connect 90 0 110 0;
#X connect 91 0 135 0;
#X connect 92 0 147 0;
#X connect 93 0 111 0;
#X connect 94 0 136 0;
#X connect 95 0 64 0;
#X connect 96 0 63 0;
#X connect 97 0 69 0;
#X connect 98 0 63 0;
#X connect 99 0 69 0;
#X connect 100 0 69 0;
#X connect 101 0 64 0;
#X connect 102 0 63 0;
#X connect 103 0 64 0;
#X connect 104 0 64 0;
#X connect 105 0 64 0;
#X connect 106 0 63 0;
#X connect 107 0 63 0;
#X connect 108 0 64 0;
#X connect 109 0 142 0;
#X connect 109 1 137 0;
#X connect 109 2 99 0;
#X connect 109 3 144 0;
#X connect 109 4 100 0;
#X connect 109 5 97 0;
#X connect 109 6 143 0;
#X connect 110 0 98 0;
#X connect 110 1 123 0;
#X connect 110 2 106 0;
#X connect 110 3 107 0;
#X connect 110 4 138 0;
#X connect 110 5 96 0;
#X connect 110 6 102 0;
#X connect 111 0 139 0;
#X connect 111 1 103 0;
#X connect 111 2 104 0;
#X connect 111 3 101 0;
#X connect 111 4 95 0;
#X connect 111 5 108 0;
#X connect 111 6 105 0;
#X connect 112 0 34 1;
#X connect 113 0 117 0;
#X connect 115 0 59 0;
#X connect 116 0 115 1;
#X connect 117 0 116 0;
#X connect 117 0 118 0;
#X connect 118 0 115 0;
#X connect 119 0 4 1;
#X connect 120 0 6 1;
#X connect 121 0 39 1;
#X connect 122 0 46 1;
#X connect 123 0 63 0;
#X connect 124 0 125 0;
#X connect 125 0 40 1;
#X connect 126 0 127 0;
#X connect 127 0 7 1;
#X connect 128 0 129 0;
#X connect 129 0 5 1;
#X connect 130 0 4 0;
#X connect 130 1 1 0;
#X connect 130 2 5 0;
#X connect 131 0 6 0;
#X connect 131 1 3 0;
#X connect 131 2 7 0;
#X connect 132 0 39 0;
#X connect 132 1 52 0;
#X connect 132 2 40 0;
#X connect 133 0 46 0;
#X connect 133 1 53 0;
#X connect 133 2 47 0;
#X connect 134 0 19 0;
#X connect 135 0 89 0;
#X connect 136 0 92 0;
#X connect 137 0 69 0;
#X connect 138 0 63 0;
#X connect 139 0 64 0;
#X connect 140 0 16 0;
#X connect 140 1 86 1;
#X connect 141 0 61 0;
#X connect 141 1 58 0;
#X connect 142 0 69 0;
#X connect 143 0 69 0;
#X connect 144 0 69 0;
#X connect 145 3 20 0;
#X connect 146 3 90 0;
#X connect 147 3 93 0;
#X connect 148 0 61 0;
#X connect 148 1 58 0;
#X connect 149 0 61 0;
#X connect 149 1 58 0;
