#N canvas 286 23 926 755 10;
#X obj 1045 1340 hsl 128 15 0 1 0 0 empty empty empty -2 -8 0 10 -203904
-1 -1 12700 1;
#X obj 871 1388 *~ 0;
#X obj 1059 1318 loadmess 0;
#X text 1195 1340 <= sampler volume;
#X text 459 216 <= sample selection;
#X obj 1009 11 inlet;
#X obj 1009 49 unpack 0 0 0 0 0 0 0 0;
#X obj 969 1600 dac~;
#X obj 720 1599 throw~ outL;
#X obj 806 1599 throw~ outR;
#X obj 833 1468 vradio 15 1 0 3 empty empty empty 0 -8 0 10 -228856
-1 -1 2;
#X text 821 1468 0;
#X text 821 1483 1;
#X text 821 1498 2;
#X text 854 1468 <= route to correct output (0 closed \, 1 bela \,
2 laptop);
#X obj 795 1441 loadmess 1;
#X obj 308 219 hsl 128 15 0 30 0 0 empty empty empty -2 -8 0 10 -262144
-1 -1 5500 1;
#X floatatom 243 436 5 0 0 0 - - -;
#N canvas 436 114 450 300 aai 0;
#X obj 107 177 readsf~;
#X msg 102 139 start;
#X obj 101 112 trigger b b;
#X obj 110 53 inlet;
#X obj 109 229 outlet~;
#X msg 152 138 open aai.wav;
#X obj 172 230 outlet;
#X connect 0 0 4 0;
#X connect 0 1 6 0;
#X connect 1 0 0 0;
#X connect 2 0 1 0;
#X connect 2 1 5 0;
#X connect 3 0 2 0;
#X connect 5 0 0 0;
#X restore 762 1100 pd aai;
#N canvas 248 531 450 247 ei 0;
#X obj 107 177 readsf~;
#X msg 102 139 start;
#X obj 101 112 trigger b b;
#X obj 110 53 inlet;
#X obj 109 229 outlet~;
#X msg 152 138 open ei.wav;
#X obj 172 230 outlet;
#X connect 0 0 4 0;
#X connect 0 1 6 0;
#X connect 1 0 0 0;
#X connect 2 0 1 0;
#X connect 2 1 5 0;
#X connect 3 0 2 0;
#X connect 5 0 0 0;
#X restore 720 1100 pd ei;
#N canvas 95 439 450 300 ooo 0;
#X obj 107 177 readsf~;
#X msg 102 139 start;
#X obj 101 112 trigger b b;
#X obj 110 53 inlet;
#X obj 109 229 outlet~;
#X msg 152 138 open au.wav;
#X obj 172 230 outlet;
#X connect 0 0 4 0;
#X connect 0 1 6 0;
#X connect 1 0 0 0;
#X connect 2 0 1 0;
#X connect 2 1 5 0;
#X connect 3 0 2 0;
#X connect 5 0 0 0;
#X restore 610 1101 pd ooo;
#N canvas 143 478 450 300 uu 0;
#X obj 107 177 readsf~;
#X msg 102 139 start;
#X obj 101 112 trigger b b;
#X obj 110 53 inlet;
#X obj 109 229 outlet~;
#X msg 152 138 open aai.wav;
#X obj 172 230 outlet;
#X connect 0 0 4 0;
#X connect 0 1 6 0;
#X connect 1 0 0 0;
#X connect 2 0 1 0;
#X connect 2 1 5 0;
#X connect 3 0 2 0;
#X connect 5 0 0 0;
#X restore 172 1097 pd uu;
#X obj 306 411 bng 15 250 50 0 empty empty empty 17 7 0 10 -262144
-1 -1;
#X floatatom 306 455 5 0 0 0 - - -;
#X obj 306 434 counter 1 15;
#X obj 306 366 int;
#X obj 306 388 change;
#X obj 243 534 pack 0 0 0 0 0 0 0 0 0 0 0 0 0 0 0;
#X floatatom 357 673 5 0 0 0 - - -;
#X floatatom 393 673 5 0 0 0 - - -;
#X floatatom 429 673 5 0 0 0 - - -;
#X floatatom 465 673 5 0 0 0 - - -;
#X floatatom 502 673 5 0 0 0 - - -;
#X floatatom 538 673 5 0 0 0 - - -;
#X floatatom 574 673 5 0 0 0 - - -;
#X floatatom 610 673 5 0 0 0 - - -;
#X floatatom 646 673 5 0 0 0 - - -;
#X floatatom 682 673 5 0 0 0 - - -;
#X floatatom 718 673 5 0 0 0 - - -;
#X floatatom 754 673 5 0 0 0 - - -;
#X floatatom 791 673 5 0 0 0 - - -;
#X floatatom 827 673 5 0 0 0 - - -;
#X floatatom 863 673 5 0 0 0 - - -;
#X obj 242 496 gate 15 0;
#X obj 243 572 unpack 0 0 0 0 0 0 0 0 0 0 0 0 0 0 0;
#X obj 121 414 bng 15 250 50 0 empty empty empty 17 7 0 10 -262144
-1 -1;
#X obj 101 332 counter 1 15;
#X floatatom 101 353 5 0 0 0 - - -;
#X obj 100 263 tgl 15 0 empty empty empty 17 7 0 10 -262144 -1 -1 1
1;
#X obj 114 673 switch 15 0 whateverwhateverwhatever;
#X floatatom 114 790 5 0 0 0 - - -;
#X obj 121 378 delay 10;
#X obj 100 303 metro 500;
#X obj 308 158 hsl 128 15 0 1 0 0 empty empty empty -2 -8 0 10 -203904
-1 -1 5500 1;
#X obj 305 197 scale 0 1 0 30;
#X obj 154 220 hsl 128 15 150 3000 0 0 empty empty empty -2 -8 0 10
-262144 -1 -1 3226 1;
#N canvas 248 478 450 300 mm 0;
#X obj 107 177 readsf~;
#X msg 102 139 start;
#X obj 101 112 trigger b b;
#X obj 110 53 inlet;
#X obj 109 229 outlet~;
#X msg 152 138 open mm.wav;
#X obj 172 230 outlet;
#X connect 0 0 4 0;
#X connect 0 1 6 0;
#X connect 1 0 0 0;
#X connect 2 0 1 0;
#X connect 2 1 5 0;
#X connect 3 0 2 0;
#X connect 5 0 0 0;
#X restore 867 1100 pd mm;
#N canvas 248 478 450 300 nn 0;
#X obj 107 177 readsf~;
#X msg 102 139 start;
#X obj 101 112 trigger b b;
#X obj 110 53 inlet;
#X obj 109 229 outlet~;
#X msg 152 138 open nn.wav;
#X obj 172 230 outlet;
#X connect 0 0 4 0;
#X connect 0 1 6 0;
#X connect 1 0 0 0;
#X connect 2 0 1 0;
#X connect 2 1 5 0;
#X connect 3 0 2 0;
#X connect 5 0 0 0;
#X restore 924 1100 pd nn;
#N canvas 248 478 450 300 o 0;
#X obj 107 177 readsf~;
#X msg 102 139 start;
#X obj 101 112 trigger b b;
#X obj 110 53 inlet;
#X obj 109 229 outlet~;
#X msg 152 138 open o.wav;
#X obj 172 230 outlet;
#X connect 0 0 4 0;
#X connect 0 1 6 0;
#X connect 1 0 0 0;
#X connect 2 0 1 0;
#X connect 2 1 5 0;
#X connect 3 0 2 0;
#X connect 5 0 0 0;
#X restore 969 1100 pd o;
#N canvas 248 478 450 300 oe 0;
#X obj 107 177 readsf~;
#X msg 102 139 start;
#X obj 101 112 trigger b b;
#X obj 110 53 inlet;
#X obj 109 229 outlet~;
#X msg 152 138 open oe.wav;
#X obj 172 230 outlet;
#X connect 0 0 4 0;
#X connect 0 1 6 0;
#X connect 1 0 0 0;
#X connect 2 0 1 0;
#X connect 2 1 5 0;
#X connect 3 0 2 0;
#X connect 5 0 0 0;
#X restore 395 1100 pd oe;
#N canvas 248 478 450 300 oeee 0;
#X obj 107 177 readsf~;
#X msg 102 139 start;
#X obj 101 112 trigger b b;
#X obj 110 53 inlet;
#X obj 109 229 outlet~;
#X msg 152 138 open oeee.wav;
#X obj 172 230 outlet;
#X connect 0 0 4 0;
#X connect 0 1 6 0;
#X connect 1 0 0 0;
#X connect 2 0 1 0;
#X connect 2 1 5 0;
#X connect 3 0 2 0;
#X connect 5 0 0 0;
#X restore 286 1098 pd oeee;
#N canvas 248 478 450 300 oeshort 0;
#X obj 107 177 readsf~;
#X msg 102 139 start;
#X obj 101 112 trigger b b;
#X obj 110 53 inlet;
#X obj 109 229 outlet~;
#X msg 152 138 open oeshort.wav;
#X obj 172 230 outlet;
#X connect 0 0 4 0;
#X connect 0 1 6 0;
#X connect 1 0 0 0;
#X connect 2 0 1 0;
#X connect 2 1 5 0;
#X connect 3 0 2 0;
#X connect 5 0 0 0;
#X restore 108 1099 pd oeshort;
#N canvas 248 478 450 300 oi 0;
#X obj 107 177 readsf~;
#X msg 102 139 start;
#X obj 101 112 trigger b b;
#X obj 110 53 inlet;
#X obj 109 229 outlet~;
#X msg 152 138 open oi.wav;
#X obj 172 230 outlet;
#X connect 0 0 4 0;
#X connect 0 1 6 0;
#X connect 1 0 0 0;
#X connect 2 0 1 0;
#X connect 2 1 5 0;
#X connect 3 0 2 0;
#X connect 5 0 0 0;
#X restore 1213 1100 pd oi;
#N canvas 248 478 450 300 ooo 0;
#X obj 107 177 readsf~;
#X msg 102 139 start;
#X obj 101 112 trigger b b;
#X obj 110 53 inlet;
#X obj 109 229 outlet~;
#X msg 152 138 open oi.wav;
#X obj 172 230 outlet;
#X connect 0 0 4 0;
#X connect 0 1 6 0;
#X connect 1 0 0 0;
#X connect 2 0 1 0;
#X connect 2 1 5 0;
#X connect 3 0 2 0;
#X connect 5 0 0 0;
#X restore 1259 1100 pd ooo;
#N canvas 248 478 450 300 ua 0;
#X obj 107 177 readsf~;
#X msg 102 139 start;
#X obj 101 112 trigger b b;
#X obj 110 53 inlet;
#X obj 109 229 outlet~;
#X msg 154 138 open ua.wav;
#X obj 172 230 outlet;
#X connect 0 0 4 0;
#X connect 0 1 6 0;
#X connect 1 0 0 0;
#X connect 2 0 1 0;
#X connect 2 1 5 0;
#X connect 3 0 2 0;
#X connect 5 0 0 0;
#X restore 1106 1100 pd ua;
#N canvas 248 478 450 300 uu 0;
#X obj 107 177 readsf~;
#X msg 102 139 start;
#X obj 101 112 trigger b b;
#X obj 110 53 inlet;
#X obj 109 229 outlet~;
#X msg 154 138 open uu.wav;
#X obj 172 230 outlet;
#X connect 0 0 4 0;
#X connect 0 1 6 0;
#X connect 1 0 0 0;
#X connect 2 0 1 0;
#X connect 2 1 5 0;
#X connect 3 0 2 0;
#X connect 5 0 0 0;
#X restore 17 1101 pd uu;
#N canvas 248 478 450 300 ff 0;
#X obj 107 177 readsf~;
#X msg 102 139 start;
#X obj 101 112 trigger b b;
#X obj 110 53 inlet;
#X obj 109 229 outlet~;
#X msg 152 138 open ff.wav;
#X obj 172 230 outlet;
#X connect 0 0 4 0;
#X connect 0 1 6 0;
#X connect 1 0 0 0;
#X connect 2 0 1 0;
#X connect 2 1 5 0;
#X connect 3 0 2 0;
#X connect 5 0 0 0;
#X restore 1310 1099 pd ff;
#N canvas 248 478 450 300 s 0;
#X obj 107 177 readsf~;
#X msg 102 139 start;
#X obj 101 112 trigger b b;
#X obj 110 53 inlet;
#X obj 109 229 outlet~;
#X msg 155 138 open rrra.wav;
#X obj 172 230 outlet;
#X connect 0 0 4 0;
#X connect 0 1 6 0;
#X connect 1 0 0 0;
#X connect 2 0 1 0;
#X connect 2 1 5 0;
#X connect 3 0 2 0;
#X connect 5 0 0 0;
#X restore 438 1100 pd s;
#N canvas 248 478 450 300 sch 0;
#X obj 107 177 readsf~;
#X msg 102 139 start;
#X obj 101 112 trigger b b;
#X obj 110 53 inlet;
#X obj 109 229 outlet~;
#X msg 155 138 open sch.wav;
#X obj 172 230 outlet;
#X connect 0 0 4 0;
#X connect 0 1 6 0;
#X connect 1 0 0 0;
#X connect 2 0 1 0;
#X connect 2 1 5 0;
#X connect 3 0 2 0;
#X connect 5 0 0 0;
#X restore 1014 1101 pd sch;
#N canvas 248 478 450 300 schej 0;
#X obj 107 177 readsf~;
#X msg 102 139 start;
#X obj 101 112 trigger b b;
#X obj 110 53 inlet;
#X obj 109 229 outlet~;
#X msg 155 138 open schej.wav;
#X obj 172 230 outlet;
#X connect 0 0 4 0;
#X connect 0 1 6 0;
#X connect 1 0 0 0;
#X connect 2 0 1 0;
#X connect 2 1 5 0;
#X connect 3 0 2 0;
#X connect 5 0 0 0;
#X restore 810 1099 pd schej;
#N canvas 248 478 450 300 sss 0;
#X obj 107 177 readsf~;
#X msg 102 139 start;
#X obj 101 112 trigger b b;
#X obj 110 53 inlet;
#X obj 109 229 outlet~;
#X msg 155 138 open sss.wav;
#X obj 172 230 outlet;
#X connect 0 0 4 0;
#X connect 0 1 6 0;
#X connect 1 0 0 0;
#X connect 2 0 1 0;
#X connect 2 1 5 0;
#X connect 3 0 2 0;
#X connect 5 0 0 0;
#X restore 228 1100 pd sss;
#N canvas 248 478 450 300 tsch 0;
#X obj 107 177 readsf~;
#X msg 102 139 start;
#X obj 101 112 trigger b b;
#X obj 110 53 inlet;
#X obj 109 229 outlet~;
#X msg 154 138 open tsch.wav;
#X obj 172 230 outlet;
#X connect 0 0 4 0;
#X connect 0 1 6 0;
#X connect 1 0 0 0;
#X connect 2 0 1 0;
#X connect 2 1 5 0;
#X connect 3 0 2 0;
#X connect 5 0 0 0;
#X restore 341 1100 pd tsch;
#N canvas 248 478 450 300 tschej 0;
#X obj 107 177 readsf~;
#X msg 102 139 start;
#X obj 101 112 trigger b b;
#X obj 110 53 inlet;
#X obj 109 229 outlet~;
#X msg 154 138 open tschej.wav;
#X obj 172 230 outlet;
#X connect 0 0 4 0;
#X connect 0 1 6 0;
#X connect 1 0 0 0;
#X connect 2 0 1 0;
#X connect 2 1 5 0;
#X connect 3 0 2 0;
#X connect 5 0 0 0;
#X restore 1155 1098 pd tschej;
#X obj 228 1073 sel 6;
#N canvas 248 478 450 300 ff 0;
#X obj 107 177 readsf~;
#X msg 102 139 start;
#X obj 101 112 trigger b b;
#X obj 110 53 inlet;
#X obj 109 229 outlet~;
#X msg 152 138 open ff.wav;
#X obj 172 230 outlet;
#X connect 0 0 4 0;
#X connect 0 1 6 0;
#X connect 1 0 0 0;
#X connect 2 0 1 0;
#X connect 2 1 5 0;
#X connect 3 0 2 0;
#X connect 5 0 0 0;
#X restore 66 1100 pd ff;
#N canvas 248 478 450 300 j 0;
#X obj 107 177 readsf~;
#X msg 102 139 start;
#X obj 101 112 trigger b b;
#X obj 110 53 inlet;
#X obj 109 229 outlet~;
#X msg 152 138 open j.wav;
#X obj 172 230 outlet;
#X connect 0 0 4 0;
#X connect 0 1 6 0;
#X connect 1 0 0 0;
#X connect 2 0 1 0;
#X connect 2 1 5 0;
#X connect 3 0 2 0;
#X connect 5 0 0 0;
#X restore 1062 1101 pd j;
#N canvas 248 478 450 300 h 0;
#X obj 107 177 readsf~;
#X msg 102 139 start;
#X obj 101 112 trigger b b;
#X obj 110 53 inlet;
#X obj 109 229 outlet~;
#X msg 152 138 open h.wav;
#X obj 172 230 outlet;
#X connect 0 0 4 0;
#X connect 0 1 6 0;
#X connect 1 0 0 0;
#X connect 2 0 1 0;
#X connect 2 1 5 0;
#X connect 3 0 2 0;
#X connect 5 0 0 0;
#X restore -30 1100 pd h;
#N canvas 248 478 450 300 b 0;
#X obj 107 177 readsf~;
#X msg 102 139 start;
#X obj 101 112 trigger b b;
#X obj 110 53 inlet;
#X obj 109 229 outlet~;
#X msg 152 138 open b.wav;
#X obj 172 230 outlet;
#X connect 0 0 4 0;
#X connect 0 1 6 0;
#X connect 1 0 0 0;
#X connect 2 0 1 0;
#X connect 2 1 5 0;
#X connect 3 0 2 0;
#X connect 5 0 0 0;
#X restore 480 1100 pd b;
#N canvas 248 478 450 300 d 0;
#X obj 107 177 readsf~;
#X msg 102 139 start;
#X obj 101 112 trigger b b;
#X obj 110 53 inlet;
#X obj 109 229 outlet~;
#X msg 152 139 open d.wav;
#X obj 172 230 outlet;
#X connect 0 0 4 0;
#X connect 0 1 6 0;
#X connect 1 0 0 0;
#X connect 2 0 1 0;
#X connect 2 1 5 0;
#X connect 3 0 2 0;
#X connect 5 0 0 0;
#X restore 668 1099 pd d;
#N canvas 248 478 450 300 g 0;
#X obj 107 177 readsf~;
#X msg 102 139 start;
#X obj 101 112 trigger b b;
#X obj 110 53 inlet;
#X obj 109 229 outlet~;
#X msg 152 138 open g.wav;
#X obj 172 230 outlet;
#X connect 0 0 4 0;
#X connect 0 1 6 0;
#X connect 1 0 0 0;
#X connect 2 0 1 0;
#X connect 2 1 5 0;
#X connect 3 0 2 0;
#X connect 5 0 0 0;
#X restore 517 1100 pd g;
#N canvas 248 478 450 300 k 0;
#X obj 107 177 readsf~;
#X msg 102 139 start;
#X obj 101 112 trigger b b;
#X obj 110 53 inlet;
#X obj 109 229 outlet~;
#X msg 152 138 open k.wav;
#X obj 172 230 outlet;
#X connect 0 0 4 0;
#X connect 0 1 6 0;
#X connect 1 0 0 0;
#X connect 2 0 1 0;
#X connect 2 1 5 0;
#X connect 3 0 2 0;
#X connect 5 0 0 0;
#X restore 563 1100 pd k;
#X obj -30 1073 sel 1;
#X obj 66 1073 sel 3;
#X obj 341 1073 sel 8;
#X obj 438 1073 sel 10;
#X obj 480 1073 sel 11;
#X obj 517 1073 sel 12;
#X obj 563 1073 sel 13;
#X obj 720 1073 sel 16;
#X obj 762 1073 sel 17;
#X obj 867 1073 sel 19;
#X obj 924 1073 sel 20;
#X obj 969 1073 sel 21;
#X obj 1106 1073 sel 24;
#X obj 1213 1073 sel 26;
#X obj 1259 1073 sel 27;
#X obj 286 1071 sel 7;
#X obj 1155 1071 sel 25;
#X obj 84 220 loadbang;
#X obj 610 1074 sel 14;
#X obj 668 1072 sel 15;
#X obj 1014 1074 sel 22;
#X obj 395 1073 sel 9;
#X obj 810 1072 sel 18;
#X obj 172 1070 sel 5;
#X obj 1310 1072 sel 28;
#X obj 110 1070 sel 4;
#X obj 1062 1074 sel 23;
#X obj 17 1074 sel 2;
#X text 289 261 <= playback speed;
#X obj 154 142 hsl 128 15 0 1 0 0 empty empty empty -2 -8 0 10 -203904
-1 -1 3700 1;
#X obj 151 198 scale 0 1 0 3000;
#X obj 1447 453 bng 15 250 50 0 empty empty empty 17 7 0 10 -262144
-1 -1;
#X obj 1476 539 pack 0 0 0 0 0 0 0 0;
#N canvas 786 206 353 395 presetList 0;
#X obj 14 31 inlet;
#X obj 17 487 outlet;
#X obj 14 116 sel 1;
#X obj 63 116 sel 2;
#X obj 113 117 sel 3;
#X obj 161 119 sel 4;
#X obj 211 118 sel 5;
#X obj 14 448 pack f f f f f f f f;
#X obj 257 119 sel 6;
#X msg 14 149 0.133858 1 1 0 0 0 0 0;
#X msg 33 190 0.133858 0 1 0 0 0 0 0 0 0 0 0;
#X msg 58 228 0.0629921 0.519685 1 0 0 0 0 0;
#X msg 73 269 0.228346 1 1 0 0 0 0 0;
#X msg 107 305 0.228346 0 1 0 0 0 0 0;
#X msg 146 346 0.952756 0.622047 1 0 0 0 0 0;
#X connect 0 0 2 0;
#X connect 0 0 3 0;
#X connect 0 0 4 0;
#X connect 0 0 5 0;
#X connect 0 0 6 0;
#X connect 0 0 8 0;
#X connect 2 0 9 0;
#X connect 3 0 10 0;
#X connect 4 0 11 0;
#X connect 5 0 12 0;
#X connect 6 0 13 0;
#X connect 7 0 1 0;
#X connect 8 0 14 0;
#X connect 9 0 7 0;
#X connect 10 0 7 0;
#X connect 11 0 7 0;
#X connect 12 0 7 0;
#X connect 13 0 7 0;
#X connect 14 0 7 0;
#X restore 1404 75 pd presetList;
#X floatatom 1404 46 7 0 7 0 - - -;
#X obj 1404 16 inlet;
#X text 1460 15 <= inlet for preset retrival;
#X obj 1487 119 s preset;
#X text 1446 420 preset preset storage;
#X text 1602 476 <= receive values;
#X text 1476 452 <= bang to print preset values;
#X obj 1404 1597 outlet;
#X obj 1476 476 r v1;
#X obj 1507 476 r v2;
#X obj 1539 476 r v3;
#X obj 1048 29 r preset;
#X text 1051 7 <= inlet for gestiure interaction;
#X obj 1042 1360 s v3;
#X obj 158 163 s v1;
#X obj 314 177 s v2;
#X obj 833 1540 gate~ 2 1;
#X obj 1476 574 print;
#X connect 0 0 1 1;
#X connect 0 0 128 0;
#X connect 1 0 131 1;
#X connect 2 0 0 0;
#X connect 5 0 6 0;
#X connect 6 0 110 0;
#X connect 6 1 53 0;
#X connect 6 2 0 0;
#X connect 10 0 131 0;
#X connect 15 0 10 0;
#X connect 16 0 25 0;
#X connect 17 0 43 1;
#X connect 18 0 1 0;
#X connect 19 0 1 0;
#X connect 20 0 1 0;
#X connect 21 0 1 0;
#X connect 22 0 24 0;
#X connect 23 0 43 0;
#X connect 24 0 23 0;
#X connect 25 0 17 0;
#X connect 25 0 26 0;
#X connect 26 0 22 0;
#X connect 27 0 44 0;
#X connect 43 0 27 0;
#X connect 43 1 27 1;
#X connect 43 2 27 2;
#X connect 43 3 27 3;
#X connect 43 4 27 4;
#X connect 43 5 27 5;
#X connect 43 6 27 6;
#X connect 43 7 27 7;
#X connect 43 8 27 8;
#X connect 43 9 27 9;
#X connect 43 10 27 10;
#X connect 43 11 27 11;
#X connect 43 12 27 12;
#X connect 43 13 27 13;
#X connect 43 14 27 14;
#X connect 44 0 28 0;
#X connect 44 0 49 1;
#X connect 44 1 29 0;
#X connect 44 1 49 2;
#X connect 44 2 30 0;
#X connect 44 2 49 3;
#X connect 44 3 31 0;
#X connect 44 3 49 4;
#X connect 44 4 32 0;
#X connect 44 4 49 5;
#X connect 44 5 33 0;
#X connect 44 5 49 6;
#X connect 44 6 34 0;
#X connect 44 6 49 7;
#X connect 44 7 35 0;
#X connect 44 7 49 8;
#X connect 44 8 36 0;
#X connect 44 8 49 9;
#X connect 44 9 37 0;
#X connect 44 9 49 10;
#X connect 44 10 38 0;
#X connect 44 10 49 11;
#X connect 44 11 39 0;
#X connect 44 11 49 12;
#X connect 44 12 40 0;
#X connect 44 12 49 13;
#X connect 44 13 41 0;
#X connect 44 13 49 14;
#X connect 44 14 42 0;
#X connect 44 14 49 15;
#X connect 45 0 27 0;
#X connect 46 0 47 0;
#X connect 47 0 51 0;
#X connect 47 0 49 0;
#X connect 48 0 52 0;
#X connect 49 0 50 0;
#X connect 50 0 81 0;
#X connect 50 0 82 0;
#X connect 50 0 73 0;
#X connect 50 0 83 0;
#X connect 50 0 84 0;
#X connect 50 0 85 0;
#X connect 50 0 86 0;
#X connect 50 0 87 0;
#X connect 50 0 88 0;
#X connect 50 0 89 0;
#X connect 50 0 90 0;
#X connect 50 0 91 0;
#X connect 50 0 92 0;
#X connect 50 0 93 0;
#X connect 50 0 94 0;
#X connect 50 0 95 0;
#X connect 50 0 96 0;
#X connect 50 0 97 0;
#X connect 50 0 99 0;
#X connect 50 0 100 0;
#X connect 50 0 101 0;
#X connect 50 0 102 0;
#X connect 50 0 103 0;
#X connect 50 0 104 0;
#X connect 50 0 105 0;
#X connect 50 0 106 0;
#X connect 50 0 107 0;
#X connect 50 0 108 0;
#X connect 51 0 45 0;
#X connect 52 0 46 0;
#X connect 53 0 54 0;
#X connect 53 0 130 0;
#X connect 54 0 16 0;
#X connect 55 0 52 1;
#X connect 56 0 1 0;
#X connect 57 0 1 0;
#X connect 58 0 1 0;
#X connect 59 0 1 0;
#X connect 60 0 1 0;
#X connect 61 0 1 0;
#X connect 62 0 1 0;
#X connect 63 0 1 0;
#X connect 64 0 1 0;
#X connect 65 0 1 0;
#X connect 66 0 1 0;
#X connect 67 0 1 0;
#X connect 68 0 1 0;
#X connect 69 0 1 0;
#X connect 70 0 1 0;
#X connect 71 0 1 0;
#X connect 72 0 1 0;
#X connect 73 0 70 0;
#X connect 74 0 1 0;
#X connect 75 0 1 0;
#X connect 76 0 1 0;
#X connect 77 0 1 0;
#X connect 78 0 1 0;
#X connect 79 0 1 0;
#X connect 80 0 1 0;
#X connect 81 0 76 0;
#X connect 82 0 74 0;
#X connect 83 0 71 0;
#X connect 84 0 67 0;
#X connect 85 0 77 0;
#X connect 86 0 79 0;
#X connect 87 0 80 0;
#X connect 88 0 19 0;
#X connect 89 0 18 0;
#X connect 90 0 56 0;
#X connect 91 0 57 0;
#X connect 92 0 58 0;
#X connect 93 0 64 0;
#X connect 94 0 62 0;
#X connect 95 0 63 0;
#X connect 96 0 60 0;
#X connect 97 0 72 0;
#X connect 98 0 48 0;
#X connect 99 0 20 0;
#X connect 100 0 78 0;
#X connect 101 0 68 0;
#X connect 102 0 59 0;
#X connect 103 0 69 0;
#X connect 104 0 21 0;
#X connect 105 0 66 0;
#X connect 106 0 61 0;
#X connect 107 0 75 0;
#X connect 108 0 65 0;
#X connect 110 0 111 0;
#X connect 110 0 129 0;
#X connect 111 0 55 0;
#X connect 112 0 113 0;
#X connect 114 0 118 0;
#X connect 114 0 122 0;
#X connect 115 0 114 0;
#X connect 116 0 115 0;
#X connect 123 0 113 0;
#X connect 124 0 113 1;
#X connect 125 0 113 2;
#X connect 126 0 6 0;
#X connect 131 0 9 0;
#X connect 131 0 8 0;
#X connect 131 1 7 0;
#X connect 131 1 7 1;
