#N canvas 4 28 1436 782 12;
#X obj 189 494 soundfiler;
#X floatatom 188 548 5 0 0 0 - - -;
#X obj 157 670 tabplay~ pho_01;
#X obj 398 494 soundfiler;
#X floatatom 398 536 5 0 0 0 - - -;
#X obj 373 669 tabplay~ pho_02;
#X obj 187 622 delay 1000;
#X floatatom 257 595 5 0 0 0 - - -;
#X obj 396 611 delay 1000;
#X floatatom 441 578 5 0 0 0 - - -;
#N canvas 0 22 450 278 (subpatch) 0;
#X array pho_01 39323 float 2;
#X coords 0 1 39323 -1 100 70 1 0 0;
#X restore 541 759 graph;
#N canvas 0 22 450 278 (subpatch) 0;
#X array pho_02 39323 float 2;
#X coords 0 1 39323 -1 100 70 1 0 0;
#X restore 650 760 graph;
#X obj 397 470 list trim;
#X obj 397 447 list prepend read -resize;
#X obj 189 470 list trim;
#X obj 188 446 list prepend read -resize;
#X obj 188 421 list append pho_01;
#X obj 397 422 list append pho_02;
#X msg 259 318 1;
#X obj 258 386 + 1;
#X obj 259 341 + 1;
#X obj 149 522 t b a;
#X obj 345 520 t b a;
#X obj 154 133 int;
#X obj 154 177 change;
#X obj 148 85 hsl 128 15 0 1 0 0 empty empty empty -2 -8 0 10 -203904
-1 -1 12700 1;
#X obj 472 167 int;
#X obj 473 192 change;
#X obj 476 118 hsl 128 15 0 1 0 0 empty empty empty -2 -8 0 10 -203904
-1 -1 0 1;
#X obj 348 356 t b a;
#X obj 400 10 inlet;
#X obj 400 48 unpack 0 0 0 0 0 0 0 0;
#X text 442 6 <= inlet for gestiure interaction;
#X obj 1092 16 inlet;
#X text 1136 16 inlet for raw sensor data;
#X obj 228 831 dac~;
#X obj 21 831 throw~ outL;
#X obj 107 831 throw~ outR;
#X obj 94 771 vradio 15 1 0 3 empty empty empty 0 -8 0 10 -228856 -1
-1 2;
#X text 77 771 0;
#X text 77 786 1;
#X text 77 801 2;
#X obj 129 772 gate~ 2 1;
#X obj 187 748 *~ 1;
#X obj 1091 51 unpack 0 0 0 0 0 0 0 0;
#N canvas 0 22 450 278 (subpatch) 0;
#X array pho_03 38475 float 2;
#X coords 0 1 38475 -1 100 70 1 0 0;
#X restore 757 761 graph;
#N canvas 0 22 450 278 (subpatch) 0;
#X array pho_04 39323 float 2;
#X coords 0 1 39323 -1 100 70 1 0 0;
#X restore 864 761 graph;
#X obj 600 500 soundfiler;
#X floatatom 599 546 5 0 0 0 - - -;
#X obj 598 613 delay 1000;
#X floatatom 644 591 5 0 0 0 - - -;
#X obj 599 473 list trim;
#X obj 599 450 list prepend read -resize;
#X obj 538 513 t b a;
#X obj 795 490 soundfiler;
#X floatatom 795 539 5 0 0 0 - - -;
#X obj 794 606 delay 1000;
#X floatatom 840 584 5 0 0 0 - - -;
#X obj 795 466 list trim;
#X obj 795 443 list prepend read -resize;
#X obj 740 513 t b a;
#X obj 599 425 list append pho_03;
#X obj 795 418 list append pho_04;
#X obj 597 669 tabplay~ pho_03;
#X obj 793 669 tabplay~ pho_04;
#X msg 823 694 \; pho_04 const 0, f 18;
#X msg 627 694 \; pho_03 const 0, f 18;
#X msg 424 695 \; pho_02 const 0, f 18;
#X msg 231 694 \; pho_01 const 0;
#X obj 430 309 fifop;
#X msg 541 310 clear;
#X obj 432 333 list trim;
#X obj 1112 659 onebang;
#X obj 1113 624 t b;
#X obj 1111 695 bng 15 250 50 0 empty empty empty 17 7 0 10 -262144
-1 -1;
#X obj 468 640 bng 15 250 50 0 empty empty empty 17 7 0 10 -262144
-1 -1;
#X obj 1169 639 bng 15 250 50 0 empty empty empty 17 7 0 10 -262144
-1 -1;
#X obj 543 282 list;
#X obj 900 264 list;
#X obj 424 255 bng 15 250 50 0 empty empty empty 17 7 0 10 -262144
-1 -1;
#X obj 395 635 t b b b;
#X obj 189 645 t b b b;
#X obj 1159 582 loadbang;
#X obj 230 294 list;
#X obj 1091 80 acc_line;
#X obj 1112 99 acc_line;
#X obj 1133 123 acc_line;
#X obj 1155 146 acc_line;
#X obj 1178 78 acc_line;
#X obj 1199 97 acc_line;
#X obj 1220 121 acc_line;
#X obj 1242 144 acc_line;
#X obj 1252 174 + 0;
#X obj 1234 198 + 0;
#X obj 1217 223 + 0;
#X obj 1199 247 + 0;
#X obj 1139 176 + 0;
#X obj 1121 200 + 0;
#X obj 1104 227 + 0;
#X obj 1198 324 t a a;
#X obj 1147 326 t b b;
#X msg 1258 293 0;
#X obj 1199 298 + 1;
#X obj 1197 375 sel 1;
#X obj 1252 269 sel 0;
#X text 1259 333 time out when sum of velocity is less than 0.2 for
a while;
#X obj 1198 273 < 0.05;
#X obj 1199 351 > 50;
#X obj 633 638 t b b b;
#X obj 324 383 gate 4 1, f 15;
#X obj 258 364 % 4;
#X obj 822 632 t b b b;
#X msg 131 229 humms01.wav;
#X msg 234 228 humms02.wav;
#X msg 328 227 humms03.wav;
#X obj 189 571 / 44;
#X obj 397 556 / 44;
#X obj 599 572 / 44;
#X obj 795 564 / 44;
#X obj 190 597 - 40;
#X obj 397 577 - 40;
#X obj 599 591 - 40;
#X obj 795 584 - 40;
#X msg 473 249 humms04.wav;
#X msg 576 248 humms05.wav;
#X msg 670 247 humms06.wav;
#X obj 757 114 int;
#X obj 758 139 change;
#X obj 761 65 hsl 128 15 0 1 0 0 empty empty empty -2 -8 0 10 -203904
-1 -1 0 1;
#X msg 758 196 humms07.wav;
#X msg 861 195 humms08.wav;
#X msg 955 194 humms09.wav;
#X obj 558 341 print;
#X obj 154 109 * 5;
#X obj 153 156 sel 0;
#X obj 154 195 sel 2 3 4, f 35;
#X obj 473 145 * 5;
#X obj 504 167 sel 0;
#X obj 472 216 sel 2 3 4, f 35;
#X obj 758 92 * 5;
#X obj 789 114 sel 0;
#X obj 757 163 sel 2 3 4, f 35;
#X connect 0 0 21 0;
#X connect 1 0 115 0;
#X connect 2 0 43 0;
#X connect 2 1 68 0;
#X connect 3 0 22 0;
#X connect 4 0 116 0;
#X connect 5 0 43 0;
#X connect 5 1 67 0;
#X connect 6 0 81 0;
#X connect 8 0 75 0;
#X connect 8 0 80 0;
#X connect 12 0 3 0;
#X connect 13 0 12 0;
#X connect 14 0 0 0;
#X connect 15 0 14 0;
#X connect 16 0 15 0;
#X connect 17 0 13 0;
#X connect 18 0 20 0;
#X connect 19 0 109 0;
#X connect 20 0 110 0;
#X connect 21 0 2 0;
#X connect 21 0 6 0;
#X connect 21 1 1 0;
#X connect 22 0 8 0;
#X connect 22 0 5 0;
#X connect 22 1 4 0;
#X connect 23 0 134 0;
#X connect 24 0 135 0;
#X connect 25 0 133 0;
#X connect 26 0 137 0;
#X connect 27 0 138 0;
#X connect 28 0 136 0;
#X connect 29 0 18 0;
#X connect 29 1 109 1;
#X connect 29 1 132 0;
#X connect 30 0 31 0;
#X connect 31 0 133 0;
#X connect 31 1 136 0;
#X connect 31 2 128 0;
#X connect 33 0 44 0;
#X connect 38 0 42 0;
#X connect 42 0 37 0;
#X connect 42 0 36 0;
#X connect 42 1 35 0;
#X connect 42 1 35 1;
#X connect 43 0 42 1;
#X connect 44 0 84 0;
#X connect 44 1 85 0;
#X connect 44 2 86 0;
#X connect 44 3 87 0;
#X connect 44 4 88 0;
#X connect 44 5 89 0;
#X connect 44 6 90 0;
#X connect 44 7 91 0;
#X connect 47 0 53 0;
#X connect 48 0 117 0;
#X connect 49 0 108 0;
#X connect 51 0 47 0;
#X connect 52 0 51 0;
#X connect 53 0 63 0;
#X connect 53 0 49 0;
#X connect 53 1 48 0;
#X connect 54 0 60 0;
#X connect 55 0 118 0;
#X connect 56 0 111 0;
#X connect 58 0 54 0;
#X connect 59 0 58 0;
#X connect 60 0 64 0;
#X connect 60 0 56 0;
#X connect 60 1 55 0;
#X connect 61 0 52 0;
#X connect 62 0 59 0;
#X connect 63 0 43 0;
#X connect 63 1 66 0;
#X connect 64 0 43 0;
#X connect 64 1 65 0;
#X connect 69 0 71 0;
#X connect 70 0 69 0;
#X connect 71 0 29 0;
#X connect 72 0 69 0;
#X connect 72 0 74 0;
#X connect 73 0 72 0;
#X connect 76 0 72 1;
#X connect 77 0 69 0;
#X connect 77 0 73 0;
#X connect 78 0 69 0;
#X connect 78 0 73 0;
#X connect 79 0 69 0;
#X connect 80 0 72 1;
#X connect 80 1 72 0;
#X connect 80 2 72 1;
#X connect 81 0 72 1;
#X connect 81 1 72 0;
#X connect 81 2 72 1;
#X connect 82 0 72 1;
#X connect 83 0 69 0;
#X connect 83 0 73 0;
#X connect 84 0 98 0;
#X connect 85 0 97 0;
#X connect 86 0 96 0;
#X connect 87 0 96 1;
#X connect 88 0 94 0;
#X connect 89 0 93 0;
#X connect 90 0 92 0;
#X connect 91 0 92 1;
#X connect 92 0 93 1;
#X connect 93 0 94 1;
#X connect 94 0 95 1;
#X connect 95 0 106 0;
#X connect 96 0 97 1;
#X connect 97 0 98 1;
#X connect 98 0 95 0;
#X connect 99 0 102 1;
#X connect 99 0 107 0;
#X connect 100 0 101 0;
#X connect 100 1 70 0;
#X connect 101 0 102 1;
#X connect 102 0 99 0;
#X connect 103 0 100 0;
#X connect 104 0 101 0;
#X connect 106 0 102 0;
#X connect 106 0 104 0;
#X connect 107 0 103 0;
#X connect 108 0 72 1;
#X connect 108 1 72 0;
#X connect 108 2 72 1;
#X connect 109 0 16 0;
#X connect 109 1 17 0;
#X connect 109 2 61 0;
#X connect 109 3 62 0;
#X connect 110 0 19 0;
#X connect 110 0 20 1;
#X connect 111 0 72 1;
#X connect 111 1 72 0;
#X connect 111 2 72 1;
#X connect 112 0 83 0;
#X connect 113 0 83 0;
#X connect 114 0 83 0;
#X connect 115 0 119 0;
#X connect 116 0 120 0;
#X connect 117 0 121 0;
#X connect 118 0 122 0;
#X connect 119 0 6 1;
#X connect 119 0 7 0;
#X connect 120 0 9 0;
#X connect 120 0 8 1;
#X connect 121 0 50 0;
#X connect 121 0 49 1;
#X connect 122 0 57 0;
#X connect 122 0 56 1;
#X connect 123 0 77 0;
#X connect 124 0 77 0;
#X connect 125 0 77 0;
#X connect 126 0 140 0;
#X connect 127 0 141 0;
#X connect 128 0 139 0;
#X connect 129 0 78 0;
#X connect 130 0 78 0;
#X connect 131 0 78 0;
#X connect 133 0 23 0;
#X connect 134 1 24 0;
#X connect 135 0 112 0;
#X connect 135 1 113 0;
#X connect 135 2 114 0;
#X connect 136 0 26 0;
#X connect 137 1 27 0;
#X connect 138 0 123 0;
#X connect 138 1 124 0;
#X connect 138 2 125 0;
#X connect 139 0 126 0;
#X connect 140 1 127 0;
#X connect 141 0 129 0;
#X connect 141 1 130 0;
#X connect 141 2 131 0;
