#N canvas 141 23 838 787 12;
#X obj 189 494 soundfiler;
#X floatatom 188 548 5 0 0 0 - - -;
#X obj 157 670 tabplay~ pho_01;
#X obj 398 494 soundfiler;
#X floatatom 398 536 5 0 0 0 - - -;
#X obj 373 669 tabplay~ pho_02;
#X obj 187 622 delay 1000;
#X obj 189 571 / 48;
#X floatatom 257 595 5 0 0 0 - - -;
#X obj 396 611 delay 1000;
#X floatatom 441 578 5 0 0 0 - - -;
#X obj 397 556 / 48;
#N canvas 0 22 450 278 (subpatch) 0;
#X array pho_01 36000 float 2;
#X coords 0 1 36000 -1 100 70 1 0 0;
#X restore 541 759 graph;
#N canvas 0 22 450 278 (subpatch) 0;
#X array pho_02 36000 float 2;
#X coords 0 1 36000 -1 100 70 1 0 0;
#X restore 650 760 graph;
#X obj 397 470 list trim;
#X obj 397 447 list prepend read -resize;
#X obj 189 470 list trim;
#X obj 188 446 list prepend read -resize;
#X obj 188 421 list append pho_01;
#X obj 397 422 list append pho_02;
#X msg 259 318 1;
#X obj 258 386 + 1;
#X obj 259 341 + 1;
#X obj 149 522 t b a;
#X obj 345 520 t b a;
#X obj 154 133 int;
#X obj 154 178 change;
#X obj 159 81 hsl 128 15 0 1 0 0 empty empty empty -2 -8 0 10 -203904
-1 -1 0 1;
#X obj 534 166 int;
#X obj 535 191 change;
#X obj 538 117 hsl 128 15 0 1 0 0 empty empty empty -2 -8 0 10 -203904
-1 -1 0 1;
#X msg 78 227 s.wav;
#X obj 348 356 t b a;
#X obj 726 94 int;
#X obj 726 121 change;
#X obj 729 49 hsl 128 15 0 1 0 0 empty empty empty -2 -8 0 10 -203904
-1 -1 0 1;
#X obj 400 10 inlet;
#X obj 400 48 unpack 0 0 0 0 0 0 0 0;
#X text 442 6 <= inlet for gestiure interaction;
#X obj 1092 16 inlet;
#X text 1136 16 inlet for raw sensor data;
#X obj 228 831 dac~;
#X obj 21 831 throw~ outL;
#X obj 107 831 throw~ outR;
#X obj 94 771 vradio 15 1 0 3 empty empty empty 0 -8 0 10 -228856 -1
-1 2;
#X text 77 771 0;
#X text 77 786 1;
#X text 77 801 2;
#X obj 129 772 gate~ 2 1;
#X obj 187 748 *~ 1;
#X obj 1091 51 unpack 0 0 0 0 0 0 0 0;
#N canvas 0 22 450 278 (subpatch) 0;
#X array pho_03 36000 float 2;
#X coords 0 1 36000 -1 100 70 1 0 0;
#X restore 757 761 graph;
#N canvas 0 22 450 278 (subpatch) 0;
#X array pho_04 36000 float 2;
#X coords 0 1 36000 -1 100 70 1 0 0;
#X restore 864 761 graph;
#X obj 599 497 soundfiler;
#X floatatom 599 546 5 0 0 0 - - -;
#X obj 598 613 delay 1000;
#X floatatom 644 591 5 0 0 0 - - -;
#X obj 599 571 / 48;
#X obj 599 473 list trim;
#X obj 599 450 list prepend read -resize;
#X obj 538 513 t b a;
#X obj 795 490 soundfiler;
#X floatatom 795 539 5 0 0 0 - - -;
#X obj 861 531 unpack;
#X obj 861 555 / 1000;
#X obj 794 606 delay 1000;
#X floatatom 840 584 5 0 0 0 - - -;
#X obj 795 564 / 48;
#X obj 795 466 list trim;
#X obj 795 443 list prepend read -resize;
#X obj 740 513 t b a;
#X obj 599 425 list append pho_03;
#X obj 795 418 list append pho_04;
#X obj 597 669 tabplay~ pho_03;
#X obj 793 669 tabplay~ pho_04;
#X obj 599 591 - 80;
#X obj 795 584 - 80;
#X obj 725 144 sel 1 2 3 4 5 6 7, f 35;
#X obj 154 195 sel 1 2 3 4 5 6 7 8, f 35;
#X msg 823 694 \; pho_04 const 0, f 18;
#X msg 627 694 \; pho_03 const 0, f 18;
#X msg 424 695 \; pho_02 const 0, f 18;
#X msg 231 694 \; pho_01 const 0;
#X obj 430 309 fifop;
#X msg 478 309 clear;
#X obj 432 333 list trim;
#X obj 1112 659 onebang;
#X obj 1113 624 t b;
#X obj 1111 695 bng 15 250 50 0 empty empty empty 17 7 0 10 -262144
-1 -1;
#X obj 468 640 bng 15 250 50 0 empty empty empty 17 7 0 10 -262144
-1 -1;
#X msg 245 228 ff.wav;
#X obj 1169 639 bng 15 250 50 0 empty empty empty 17 7 0 10 -262144
-1 -1;
#X obj 605 281 list;
#X obj 900 264 list;
#X obj 424 255 bng 15 250 50 0 empty empty empty 17 7 0 10 -262144
-1 -1;
#X obj 395 635 t b b b;
#X obj 189 645 t b b b;
#X obj 1159 582 loadbang;
#X msg 516 251 uu.wav;
#X msg 903 178 ua.wav;
#X msg 189 227 oe.wav;
#X obj 230 294 list;
#X msg 125 227 ooo.wav;
#X msg 302 228 o.wav;
#X msg 358 228 ei.wav;
#X msg 778 251 h.wav;
#X msg 858 177 d.wav;
#X msg 572 251 mm.wav;
#X msg 956 178 nn.wav;
#X msg 631 251 ooo.wav;
#X msg 802 179 oi.wav;
#X msg 696 251 tschej.wav;
#X msg 468 251 ff.wav;
#X obj 1091 80 acc_line;
#X obj 1112 99 acc_line;
#X obj 1133 123 acc_line;
#X obj 1155 146 acc_line;
#X obj 1178 78 acc_line;
#X obj 1199 97 acc_line;
#X obj 1220 121 acc_line;
#X obj 1242 144 acc_line;
#X obj 1252 174 + 0;
#X obj 1234 198 + 0;
#X obj 1217 223 + 0;
#X obj 1199 247 + 0;
#X obj 1139 176 + 0;
#X obj 1121 200 + 0;
#X obj 1104 227 + 0;
#X obj 1198 324 t a a;
#X obj 1147 326 t b b;
#X msg 1258 293 0;
#X obj 1199 298 + 1;
#X obj 1197 375 sel 1;
#X obj 1252 269 sel 0;
#X text 1259 333 time out when sum of velocity is less than 0.2 for
a while;
#X obj 1198 273 < 0.05;
#X msg 742 179 schej.wav;
#X obj 190 597 - 200;
#X obj 397 577 - 200;
#X obj 1199 351 > 50;
#X obj 154 155 sel 0 1 2 9 10;
#X obj 601 175 sel 0 1 2 9 10;
#X obj 154 109 * 10;
#X obj 535 144 * 10;
#X obj 726 70 * 9;
#X obj 633 638 t b b b;
#X obj 324 383 gate 4 1, f 15;
#X obj 258 364 % 4;
#X obj 822 632 t b b b;
#X obj 484 369 print;
#X obj 534 215 sel 1 2 3 4 5 6 7 8 9, f 35;
#X obj 799 95 sel 0 1 2 9;
#X connect 0 0 23 0;
#X connect 1 0 7 0;
#X connect 2 0 49 0;
#X connect 2 1 82 0;
#X connect 3 0 24 0;
#X connect 4 0 11 0;
#X connect 5 0 49 0;
#X connect 5 1 81 0;
#X connect 6 0 96 0;
#X connect 7 0 137 0;
#X connect 9 0 89 0;
#X connect 9 0 95 0;
#X connect 11 0 138 0;
#X connect 14 0 3 0;
#X connect 15 0 14 0;
#X connect 16 0 0 0;
#X connect 17 0 16 0;
#X connect 18 0 17 0;
#X connect 19 0 15 0;
#X connect 20 0 22 0;
#X connect 21 0 146 0;
#X connect 22 0 147 0;
#X connect 23 0 2 0;
#X connect 23 0 6 0;
#X connect 23 1 1 0;
#X connect 24 0 9 0;
#X connect 24 0 5 0;
#X connect 24 1 4 0;
#X connect 25 0 140 0;
#X connect 26 0 78 0;
#X connect 27 0 142 0;
#X connect 28 0 141 0;
#X connect 29 0 150 0;
#X connect 30 0 143 0;
#X connect 31 0 101 0;
#X connect 32 0 20 0;
#X connect 32 1 146 1;
#X connect 32 1 149 0;
#X connect 33 0 151 0;
#X connect 34 0 77 0;
#X connect 35 0 144 0;
#X connect 36 0 37 0;
#X connect 37 0 142 0;
#X connect 37 1 143 0;
#X connect 37 2 144 0;
#X connect 39 0 50 0;
#X connect 44 0 48 0;
#X connect 48 0 43 0;
#X connect 48 0 42 0;
#X connect 48 1 41 0;
#X connect 48 1 41 1;
#X connect 49 0 48 1;
#X connect 50 0 113 0;
#X connect 50 1 114 0;
#X connect 50 2 115 0;
#X connect 50 3 116 0;
#X connect 50 4 117 0;
#X connect 50 5 118 0;
#X connect 50 6 119 0;
#X connect 50 7 120 0;
#X connect 53 0 60 0;
#X connect 54 0 57 0;
#X connect 55 0 145 0;
#X connect 57 0 75 0;
#X connect 58 0 53 0;
#X connect 59 0 58 0;
#X connect 60 0 73 0;
#X connect 60 0 55 0;
#X connect 60 1 54 0;
#X connect 61 0 70 0;
#X connect 61 1 63 0;
#X connect 62 0 67 0;
#X connect 63 0 64 0;
#X connect 64 0 67 1;
#X connect 65 0 148 0;
#X connect 67 0 76 0;
#X connect 68 0 61 0;
#X connect 69 0 68 0;
#X connect 70 0 74 0;
#X connect 70 0 65 0;
#X connect 70 1 62 0;
#X connect 71 0 59 0;
#X connect 72 0 69 0;
#X connect 73 0 49 0;
#X connect 73 1 80 0;
#X connect 74 0 49 0;
#X connect 74 1 79 0;
#X connect 75 0 56 0;
#X connect 75 0 55 1;
#X connect 76 0 66 0;
#X connect 76 0 65 1;
#X connect 77 2 136 0;
#X connect 77 3 110 0;
#X connect 77 4 106 0;
#X connect 77 5 99 0;
#X connect 77 6 108 0;
#X connect 78 2 31 0;
#X connect 78 3 102 0;
#X connect 78 4 100 0;
#X connect 78 5 90 0;
#X connect 78 6 103 0;
#X connect 78 7 104 0;
#X connect 83 0 85 0;
#X connect 84 0 83 0;
#X connect 85 0 32 0;
#X connect 86 0 83 0;
#X connect 86 0 88 0;
#X connect 87 0 86 0;
#X connect 90 0 101 0;
#X connect 91 0 86 1;
#X connect 92 0 83 0;
#X connect 92 0 87 0;
#X connect 93 0 83 0;
#X connect 93 0 87 0;
#X connect 94 0 83 0;
#X connect 95 0 86 1;
#X connect 95 1 86 0;
#X connect 95 2 86 1;
#X connect 96 0 86 1;
#X connect 96 1 86 0;
#X connect 96 2 86 1;
#X connect 97 0 86 1;
#X connect 98 0 92 0;
#X connect 99 0 93 0;
#X connect 100 0 101 0;
#X connect 101 0 83 0;
#X connect 101 0 87 0;
#X connect 102 0 101 0;
#X connect 103 0 101 0;
#X connect 104 0 101 0;
#X connect 105 0 92 0;
#X connect 106 0 93 0;
#X connect 107 0 92 0;
#X connect 108 0 93 0;
#X connect 109 0 92 0;
#X connect 110 0 93 0;
#X connect 111 0 92 0;
#X connect 112 0 92 0;
#X connect 113 0 127 0;
#X connect 114 0 126 0;
#X connect 115 0 125 0;
#X connect 116 0 125 1;
#X connect 117 0 123 0;
#X connect 118 0 122 0;
#X connect 119 0 121 0;
#X connect 120 0 121 1;
#X connect 121 0 122 1;
#X connect 122 0 123 1;
#X connect 123 0 124 1;
#X connect 124 0 135 0;
#X connect 125 0 126 1;
#X connect 126 0 127 1;
#X connect 127 0 124 0;
#X connect 128 0 131 1;
#X connect 128 0 139 0;
#X connect 129 0 130 0;
#X connect 129 1 84 0;
#X connect 130 0 131 1;
#X connect 131 0 128 0;
#X connect 132 0 129 0;
#X connect 133 0 130 0;
#X connect 135 0 131 0;
#X connect 135 0 133 0;
#X connect 136 0 93 0;
#X connect 137 0 6 1;
#X connect 137 0 8 0;
#X connect 138 0 10 0;
#X connect 138 0 9 1;
#X connect 139 0 132 0;
#X connect 140 5 26 0;
#X connect 141 5 29 0;
#X connect 142 0 25 0;
#X connect 143 0 28 0;
#X connect 144 0 33 0;
#X connect 145 0 86 1;
#X connect 145 1 86 0;
#X connect 145 2 86 1;
#X connect 146 0 18 0;
#X connect 146 1 19 0;
#X connect 146 2 71 0;
#X connect 146 3 72 0;
#X connect 147 0 21 0;
#X connect 147 0 22 1;
#X connect 148 0 86 1;
#X connect 148 1 86 0;
#X connect 148 2 86 1;
#X connect 150 2 112 0;
#X connect 150 3 98 0;
#X connect 150 4 107 0;
#X connect 150 5 109 0;
#X connect 150 6 111 0;
#X connect 150 7 105 0;
#X connect 150 8 105 0;
#X connect 151 4 34 0;
