#N canvas 117 23 1027 755 10;
#X obj 204 169 unpack f f f f f f f f f;
#X obj 96 367 bp~ 0 0;
#X obj 157 366 bp~ 0 0;
#X obj 149 538 hip~ 50;
#X obj 220 364 bp~ 0 0;
#X floatatom 676 22 5 0 0 0 - - -;
#N canvas 72 151 450 300 formant 0;
#X obj 131 42 sel 1;
#X msg 69 80 850;
#X msg 96 79 30;
#X msg 119 98 6;
#X msg 143 98 1220;
#X msg 170 116 80;
#X msg 191 126 6;
#X msg 214 138 2810;
#X msg 243 139 100;
#X msg 263 150 -4;
#X obj 107 177 pack f f f f f f f f f;
#X obj 132 1 inlet;
#X obj 98 219 outlet;
#X connect 0 0 1 0;
#X connect 0 0 2 0;
#X connect 0 0 3 0;
#X connect 0 0 4 0;
#X connect 0 0 5 0;
#X connect 0 0 6 0;
#X connect 0 0 7 0;
#X connect 0 0 8 0;
#X connect 0 0 9 0;
#X connect 1 0 10 0;
#X connect 2 0 10 1;
#X connect 3 0 10 2;
#X connect 4 0 10 3;
#X connect 5 0 10 4;
#X connect 6 0 10 5;
#X connect 7 0 10 6;
#X connect 8 0 10 7;
#X connect 9 0 10 8;
#X connect 10 0 12 0;
#X connect 11 0 0 0;
#X restore 677 111 pd formant 1;
#X obj 64 238 line;
#X obj 109 238 line;
#X obj 153 241 line;
#X obj 217 248 line;
#X obj 265 252 line;
#X obj 328 249 line;
#X text 716 89 a;
#X text 775 90 e;
#X text 853 89 o;
#X text 959 88 u;
#X msg 329 229 \$1 500;
#X msg 280 228 \$1 500;
#X msg 232 222 \$1 500;
#X msg 180 216 \$1 500;
#X msg 138 214 \$1 500;
#X msg 87 210 \$1 500;
#X obj 243 549 hsl 128 15 0 1 0 0 empty empty empty -2 -8 0 10 -262144
-1 -1 10700 1;
#N canvas 0 22 450 300 (subpatch) 0;
#X array array1 441000 float 2;
#X coords 0 1 441000 -1 200 140 1;
#X restore 1136 210 graph;
#X obj 1191 17 soundfiler;
#X floatatom 1191 49 15 0 0 0 - - -;
#X obj -127 -21 line~;
#X obj -127 -98 bng 15 250 50 0 empty empty empty 17 7 0 10 -262144
-1 -1;
#X obj -110 627 *~ \$1;
#X obj -127 -74 metro 10000;
#X msg -127 -48 0 \, 441000 10000;
#X floatatom 251 683 5 0 0 0 - - -;
#X obj 165 798 hip~;
#X obj 254 662 hsl 128 15 0 10000 0 0 empty empty empty -2 -8 0 10
-262144 -1 -1 0 1;
#X obj -100 118 lop~ 20000;
#X obj 253 758 hsl 128 15 10000 0 0 0 empty empty empty -2 -8 0 10
-262144 -1 -1 0 1;
#X obj 166 824 lop~;
#X floatatom 250 788 5 0 0 0 - - -;
#X obj 1396 -54 loadbang;
#X text 384 546 voder volume;
#X text 62 597 wet/dry;
#X text 394 662 high pass;
#X text 399 758 low pass;
#X obj -81 594 hsl 128 15 0 1 0 0 empty empty empty -2 -8 0 10 -262144
-1 -1 0 1;
#X floatatom -68 614 5 0 0 0 - - -;
#X obj 675 -4 int;
#X obj 259 634 loadmess 0;
#X obj -84 563 loadmess 0;
#X obj 254 726 loadmess 10000;
#X obj 253 526 loadmess 0;
#X obj -123 -150 loadbang;
#X obj 155 645 *~ 0;
#N canvas 0 22 450 300 (subpatch) 0;
#X array array2 441000 float 2;
#X coords 0 1 441000 -1 200 140 1;
#X restore 1348 213 graph;
#N canvas 0 22 450 300 (subpatch) 0;
#X array array3 441000 float 2;
#X coords 0 1 441000 -1 200 140 1;
#X restore 1137 393 graph;
#N canvas 0 22 450 300 (subpatch) 0;
#X array array4 441000 float 2;
#X coords 0 1 441000 -1 200 140 1 0 0;
#X restore 1349 394 graph;
#X obj 1351 18 soundfiler;
#X floatatom 1351 50 15 0 0 0 - - -;
#X obj 1518 19 soundfiler;
#X floatatom 1518 51 15 0 0 0 - - -;
#X obj 1678 20 soundfiler;
#X floatatom 1678 52 15 0 0 0 - - -;
#X msg 1192 -7 read sample_1.wav array1;
#X msg 1352 -6 read sample_2.wav array2;
#X msg 1519 -5 read sample_3.wav array3;
#X msg 1679 -4 read sample_4.wav array4;
#X obj 8 -15 line~;
#X obj 8 -92 bng 15 250 50 0 empty empty empty 17 7 0 10 -262144 -1
-1;
#X obj 8 -68 metro 10000;
#X msg 8 -42 0 \, 441000 10000;
#X obj 12 -144 loadbang;
#X obj 129 -16 line~;
#X obj 129 -93 bng 15 250 50 0 empty empty empty 17 7 0 10 -262144
-1 -1;
#X obj 129 -69 metro 10000;
#X msg 129 -43 0 \, 441000 10000;
#X obj 133 -145 loadbang;
#X obj 242 -18 line~;
#X obj 242 -95 bng 15 250 50 0 empty empty empty 17 7 0 10 -262144
-1 -1;
#X obj 242 -71 metro 10000;
#X msg 242 -45 0 \, 441000 10000;
#X obj 246 -147 loadbang;
#X obj 243 17 tabread~ array4;
#X obj -126 14 tabread~ array1;
#X obj 9 20 tabread~ array2;
#X obj 130 19 tabread~ array3;
#X obj -103 59 hsl 128 15 0 1 0 0 empty empty empty -2 -8 0 10 -262144
-1 -1 0 1;
#X obj 38 57 hsl 128 15 0 1 0 0 empty empty empty -2 -8 0 10 -262144
-1 -1 0 1;
#X obj 181 58 hsl 128 15 0 1 0 0 empty empty empty -2 -8 0 10 -262144
-1 -1 0 1;
#X obj 322 58 hsl 128 15 0 1 0 0 empty empty empty -2 -8 0 10 -262144
-1 -1 0 1;
#N canvas 109 121 450 300 formant 0;
#X msg 96 79 30;
#X msg 170 116 80;
#X msg 243 139 100;
#X obj 107 177 pack f f f f f f f f f;
#X obj 132 1 inlet;
#X obj 98 219 outlet;
#X msg 263 150 0;
#X msg 69 80 430;
#X msg 119 98 5;
#X msg 143 98 2480;
#X msg 192 126 2;
#X msg 214 138 3070;
#X obj 131 42 sel 2;
#X connect 0 0 3 1;
#X connect 1 0 3 4;
#X connect 2 0 3 7;
#X connect 3 0 5 0;
#X connect 4 0 12 0;
#X connect 6 0 3 8;
#X connect 7 0 3 0;
#X connect 8 0 3 2;
#X connect 9 0 3 3;
#X connect 10 0 3 5;
#X connect 11 0 3 6;
#X connect 12 0 7 0;
#X connect 12 0 0 0;
#X connect 12 0 8 0;
#X connect 12 0 9 0;
#X connect 12 0 1 0;
#X connect 12 0 10 0;
#X connect 12 0 11 0;
#X connect 12 0 2 0;
#X connect 12 0 6 0;
#X restore 764 112 pd formant 2;
#N canvas 75 99 450 300 formant 0;
#X msg 96 79 30;
#X msg 170 116 80;
#X msg 243 139 100;
#X obj 107 177 pack f f f f f f f f f;
#X obj 132 1 inlet;
#X obj 98 219 outlet;
#X msg 69 80 590;
#X msg 119 98 7;
#X msg 143 98 920;
#X msg 192 126 3;
#X msg 214 138 2710;
#X msg 263 150 -4;
#X obj 131 42 sel 3;
#X connect 0 0 3 1;
#X connect 1 0 3 4;
#X connect 2 0 3 7;
#X connect 3 0 5 0;
#X connect 4 0 12 0;
#X connect 6 0 3 0;
#X connect 7 0 3 2;
#X connect 8 0 3 3;
#X connect 9 0 3 5;
#X connect 10 0 3 6;
#X connect 11 0 3 8;
#X connect 12 0 6 0;
#X connect 12 0 0 0;
#X connect 12 0 7 0;
#X connect 12 0 8 0;
#X connect 12 0 1 0;
#X connect 12 0 9 0;
#X connect 12 0 10 0;
#X connect 12 0 2 0;
#X connect 12 0 11 0;
#X restore 854 110 pd formant 3;
#N canvas 27 88 450 300 formant 0;
#X msg 96 79 30;
#X msg 170 116 80;
#X msg 243 139 100;
#X obj 107 177 pack f f f f f f f f f;
#X obj 132 1 inlet;
#X obj 98 219 outlet;
#X msg 119 98 4;
#X msg 192 126 4;
#X msg 263 150 -2;
#X msg 68 80 370;
#X msg 143 98 950;
#X msg 214 138 2670;
#X obj 131 42 sel 4;
#X connect 0 0 3 1;
#X connect 1 0 3 4;
#X connect 2 0 3 7;
#X connect 3 0 5 0;
#X connect 4 0 12 0;
#X connect 6 0 3 2;
#X connect 7 0 3 5;
#X connect 8 0 3 8;
#X connect 9 0 3 0;
#X connect 10 0 3 3;
#X connect 11 0 3 6;
#X connect 12 0 9 0;
#X connect 12 0 0 0;
#X connect 12 0 6 0;
#X connect 12 0 10 0;
#X connect 12 0 1 0;
#X connect 12 0 7 0;
#X connect 12 0 11 0;
#X connect 12 0 2 0;
#X connect 12 0 8 0;
#X restore 942 107 pd formant 4;
#X obj 678 -28 scale 0 1 0 5;
#X obj -104 35 loadmess 0;
#X obj -123 -126 delay 1000;
#X obj 12 -120 delay 1000;
#X obj 133 -121 delay 1000;
#X obj 246 -123 delay 1000;
#X obj -125 88 *~ 3;
#X obj 476 -129 inlet;
#X obj 475 -98 unpack 0 0 0 0 0 0 0 0;
#X obj 95 889 throw~ outL;
#X obj 204 886 throw~ outR;
#X obj -40 87 *~ 3;
#X obj 46 87 *~ 3;
#X obj 124 91 *~ 3;
#X obj 148 511 *~ 8;
#X connect 0 0 22 0;
#X connect 0 1 21 0;
#X connect 0 3 20 0;
#X connect 0 4 19 0;
#X connect 0 6 18 0;
#X connect 0 7 17 0;
#X connect 1 0 106 0;
#X connect 2 0 106 0;
#X connect 3 0 52 0;
#X connect 4 0 106 0;
#X connect 5 0 6 0;
#X connect 5 0 91 0;
#X connect 5 0 90 0;
#X connect 5 0 89 0;
#X connect 6 0 0 0;
#X connect 7 0 1 1;
#X connect 8 0 1 2;
#X connect 9 0 2 1;
#X connect 10 0 2 2;
#X connect 11 0 4 1;
#X connect 12 0 4 2;
#X connect 17 0 12 0;
#X connect 18 0 11 0;
#X connect 19 0 10 0;
#X connect 20 0 9 0;
#X connect 21 0 8 0;
#X connect 22 0 7 0;
#X connect 23 0 52 1;
#X connect 25 0 26 0;
#X connect 27 0 82 0;
#X connect 28 0 30 0;
#X connect 30 0 31 0;
#X connect 31 0 27 0;
#X connect 32 0 33 1;
#X connect 33 0 37 0;
#X connect 34 0 32 0;
#X connect 35 0 1 0;
#X connect 35 0 2 0;
#X connect 35 0 4 0;
#X connect 36 0 37 1;
#X connect 36 0 38 0;
#X connect 37 0 101 0;
#X connect 37 0 102 0;
#X connect 39 0 62 0;
#X connect 39 0 63 0;
#X connect 39 0 64 0;
#X connect 39 0 65 0;
#X connect 44 0 45 0;
#X connect 44 0 29 1;
#X connect 46 0 5 0;
#X connect 47 0 34 0;
#X connect 48 0 44 0;
#X connect 49 0 36 0;
#X connect 50 0 23 0;
#X connect 51 0 94 0;
#X connect 52 0 33 0;
#X connect 56 0 57 0;
#X connect 58 0 59 0;
#X connect 60 0 61 0;
#X connect 62 0 25 0;
#X connect 63 0 56 0;
#X connect 64 0 58 0;
#X connect 65 0 60 0;
#X connect 66 0 83 0;
#X connect 67 0 68 0;
#X connect 68 0 69 0;
#X connect 69 0 66 0;
#X connect 70 0 95 0;
#X connect 71 0 84 0;
#X connect 72 0 73 0;
#X connect 73 0 74 0;
#X connect 74 0 71 0;
#X connect 75 0 96 0;
#X connect 76 0 81 0;
#X connect 77 0 78 0;
#X connect 78 0 79 0;
#X connect 79 0 76 0;
#X connect 80 0 97 0;
#X connect 81 0 105 0;
#X connect 82 0 98 0;
#X connect 83 0 103 0;
#X connect 84 0 104 0;
#X connect 85 0 93 0;
#X connect 85 0 98 1;
#X connect 86 0 103 1;
#X connect 87 0 104 1;
#X connect 88 0 105 1;
#X connect 89 0 0 0;
#X connect 90 0 0 0;
#X connect 91 0 0 0;
#X connect 92 0 46 0;
#X connect 93 0 85 0;
#X connect 93 0 86 0;
#X connect 93 0 87 0;
#X connect 93 0 88 0;
#X connect 94 0 28 0;
#X connect 95 0 67 0;
#X connect 96 0 72 0;
#X connect 97 0 77 0;
#X connect 98 0 29 0;
#X connect 98 0 35 0;
#X connect 99 0 100 0;
#X connect 100 0 92 0;
#X connect 100 1 23 0;
#X connect 100 2 85 0;
#X connect 100 3 86 0;
#X connect 100 4 87 0;
#X connect 100 5 88 0;
#X connect 103 0 35 0;
#X connect 104 0 35 0;
#X connect 105 0 35 0;
#X connect 106 0 3 0;
