#N canvas 65 63 1094 677 10;
#X declare -path ../_common;
#X obj 905 587 dac~;
#X obj 298 -16 lop~ 20000;
#X obj 857 188 *~ 0;
#X text 389 -113 <= stores and plays all samples;
#N canvas 87 100 1038 623 sampleBank 0;
#N canvas 0 22 450 300 (subpatch) 0;
#X array array1 2.21376e+06 float 2;
#X coords 0 1 2.21376e+06 -1 200 140 1;
#X restore 63 152 graph;
#X obj 590 -9 loadbang;
#N canvas 0 22 450 300 (subpatch) 0;
#X array array2 2.21376e+06 float 2;
#X coords 0 1 2.21376e+06 -1 200 140 1;
#X restore 275 155 graph;
#X obj 713 559 outlet~;
#X obj 773 559 outlet~;
#X msg 768 63 read -resize sample_2.wav array2;
#X msg 549 63 read -resize sample_1.wav array1;
#X obj 768 92 soundfiler;
#X floatatom 768 115 15 0 0 0 - - -;
#X obj 768 207 phasor~;
#X msg 783 156 0;
#X obj 788 246 *~;
#X obj 765 136 expr 44100/$f1;
#X obj 788 275 tabread4~ array2;
#X obj 549 92 soundfiler;
#X floatatom 549 115 15 0 0 0 - - -;
#X obj 549 207 phasor~;
#X msg 564 156 0;
#X obj 573 246 *~;
#X obj 550 136 expr 44100/$f1;
#X obj 573 275 tabread4~ array1;
#X obj 1267 24 hsl 128 15 0 1 0 0 empty empty empty -2 -8 0 10 -262144
-1 -1 3175 1;
#X obj 596 178 scale 0 1 0.005 0.05;
#X obj 815 178 scale 0 1 0.005 0.05;
#X obj 1260 -32 inlet;
#X obj 1262 2 scale 0 1 0 0.5;
#X connect 1 0 6 0;
#X connect 1 0 5 0;
#X connect 5 0 7 0;
#X connect 6 0 14 0;
#X connect 7 0 8 0;
#X connect 8 0 12 0;
#X connect 8 0 11 1;
#X connect 9 0 11 0;
#X connect 10 0 9 0;
#X connect 11 0 13 0;
#X connect 12 0 9 0;
#X connect 13 0 4 0;
#X connect 14 0 15 0;
#X connect 15 0 19 0;
#X connect 15 0 18 1;
#X connect 16 0 18 0;
#X connect 17 0 16 0;
#X connect 18 0 20 0;
#X connect 19 0 16 0;
#X connect 20 0 3 0;
#X connect 21 0 22 0;
#X connect 21 0 23 0;
#X connect 22 0 16 0;
#X connect 23 0 9 0;
#X connect 24 0 25 0;
#X connect 25 0 21 0;
#X restore 296 -111 pd sampleBank;
#X obj 836 -330 inlet;
#X obj 836 -289 unpack 0 0 0 0 0 0 0 0;
#X obj 717 586 throw~ outL;
#X obj 793 586 throw~ outR;
#X obj 950 385 hsl 128 15 0 1 0 0 empty empty empty -2 -8 0 10 -203904
-1 -1 12700 1;
#X text 1100 388 <= low pass filter;
#X obj 807 456 vradio 15 1 0 3 empty empty empty 0 -8 0 10 -228856
-1 -1 2;
#X text 795 456 0;
#X text 795 471 1;
#X text 795 486 2;
#X text 828 456 <= route to correct output (0 closed \, 1 bela \, 2
laptop);
#X obj 298 -187 hsl 128 15 0 1 0 0 empty empty empty -2 -8 0 10 -203904
-1 -1 6350 1;
#X text 434 -188 <= playback speed;
#N canvas 4 23 1280 755 formants 0;
#X obj 104 37 inlet~;
#X obj 277 33 inlet;
#X obj 99 372 outlet~;
#X obj 261 232 line;
#X obj 325 232 line;
#X obj 380 232 line;
#X msg 380 206 \$1 500;
#X msg 325 204 \$1 500;
#X msg 260 206 \$1 500;
#X obj 328 32 inlet;
#X obj 378 32 inlet;
#X text 740 182 Formant 0: 590 920 2710;
#X text 740 202 Formant e: 430 2480 3000;
#X text 741 221 Formant u: 370 950 2670;
#X text 740 243 Formant i: 280 2400 3000;
#X text 741 163 Formant a: 850 1220 2810;
#X obj 264 137 scale 0 1 200 900;
#X obj 326 114 scale 0 1 800 2500;
#X obj 379 90 scale 0 1 2600 3100;
#X obj 99 281 bp~ 0 30;
#X obj 160 281 bp~ 0 80;
#X obj 223 281 bp~ 0 100;
#X obj 442 140 hsl 128 15 0 1 0 0 empty empty empty -2 -8 0 10 -262144
-1 -1 0 1;
#X floatatom 441 163 5 0 0 0 - - -;
#X obj 509 167 hsl 128 15 0 1 0 0 empty empty empty -2 -8 0 10 -262144
-1 -1 0 1;
#X floatatom 508 190 5 0 0 0 - - -;
#X obj 562 194 hsl 128 15 0 1 0 0 empty empty empty -2 -8 0 10 -262144
-1 -1 0 1;
#X floatatom 574 219 5 0 0 0 - - -;
#X floatatom 277 164 5 0 0 0 - - -;
#X floatatom 342 165 5 0 0 0 - - -;
#X floatatom 399 165 5 0 0 0 - - -;
#X text 372 398 Formant a: 850 1220 2810;
#X msg 532 396 0.93 0.25 0.42;
#X text 378 422 Formant 0: 590 920 2710;
#X msg 534 419 0.55 0.07 0.22;
#X text 372 443 Formant e: 430 2480 3000;
#X msg 534 441 0.33 0.99 0.8;
#X text 378 465 Formant u: 370 950 2670;
#X msg 535 464 0.24 0.086 0.14;
#X text 372 486 Formant i: 280 2400 3000;
#X msg 536 486 0.11 0.94 0.8;
#X connect 0 0 19 0;
#X connect 0 0 20 0;
#X connect 0 0 21 0;
#X connect 1 0 16 0;
#X connect 3 0 19 1;
#X connect 4 0 20 1;
#X connect 5 0 21 1;
#X connect 6 0 5 0;
#X connect 7 0 4 0;
#X connect 8 0 3 0;
#X connect 9 0 17 0;
#X connect 10 0 18 0;
#X connect 16 0 8 0;
#X connect 16 0 28 0;
#X connect 17 0 7 0;
#X connect 17 0 29 0;
#X connect 18 0 6 0;
#X connect 18 0 30 0;
#X connect 19 0 2 0;
#X connect 20 0 2 0;
#X connect 21 0 2 0;
#X connect 22 0 23 0;
#X connect 22 0 16 0;
#X connect 24 0 25 0;
#X connect 24 0 17 0;
#X connect 26 0 27 0;
#X connect 26 0 18 0;
#X restore 812 0 pd formants;
#X obj 812 138 *~ 4;
#X text 891 -330 <= inlet for gestiure values;
#N canvas 291 23 705 424 variableLowPass 0;
#X obj 231 250 hsl 128 15 10000 0 0 0 empty empty empty -2 -8 0 10
-262144 -1 -1 0 1;
#X obj 47 245 lop~;
#X floatatom 228 274 5 0 0 0 - - -;
#N canvas 248 126 626 481 expo 0;
#X obj 93 113 inlet;
#X obj 203 204 < 0;
#X obj 170 239 spigot;
#X obj 264 153 hsl 128 15 1 20 0 0 empty empty empty -2 -8 0 10 -262144
-1 -1 668 1;
#X obj 173 130 hsl 128 15 -1 1 0 0 empty empty empty -2 -8 0 10 -262144
-1 -1 6350 1;
#X text 396 152 Exponent;
#X text 303 129 Constant;
#X obj 170 285 pow;
#X obj 170 262 * -1;
#X obj 223 240 spigot;
#X obj 256 205 > 0;
#X obj 170 308 * -1;
#X obj 170 170 t f f;
#X obj 223 263 pow;
#X floatatom 170 331 5 0 0 0 - - -;
#X floatatom 432 168 5 0 0 0 - - -;
#X msg 170 108 0;
#X floatatom 135 145 5 0 0 0 - - -;
#X obj 261 180 s \$0-exp;
#X obj 272 246 r \$0-exp;
#X obj 170 86 loadbang;
#X msg 261 103 2;
#X obj 170 353 outlet;
#X connect 0 0 4 0;
#X connect 1 0 2 1;
#X connect 2 0 8 0;
#X connect 3 0 15 0;
#X connect 3 0 18 0;
#X connect 4 0 12 0;
#X connect 4 0 17 0;
#X connect 7 0 11 0;
#X connect 8 0 7 0;
#X connect 9 0 13 0;
#X connect 10 0 9 1;
#X connect 11 0 14 0;
#X connect 12 0 2 0;
#X connect 12 0 9 0;
#X connect 12 1 1 0;
#X connect 12 1 10 0;
#X connect 13 0 14 0;
#X connect 14 0 22 0;
#X connect 16 0 4 0;
#X connect 19 0 13 1;
#X connect 19 0 7 1;
#X connect 20 0 16 0;
#X connect 20 0 21 0;
#X connect 21 0 3 0;
#X restore 129 203 pd expo;
#X obj 213 109 bng 15 250 50 0 empty empty empty 17 7 0 10 -262144
-1 -1;
#X obj 245 178 hsl 128 15 0 1 0 0 empty empty empty -2 -8 0 10 -262144
-1 -1 0 1;
#X obj 227 141 - 1;
#X text 255 140 <= voder low pass minus velocty val;
#X obj 48 356 outlet~;
#X obj 46 9 inlet~;
#X obj 144 51 inlet;
#X obj 403 20 inlet;
#X text 446 22 <= incoming main lowPass slider;
#X text 190 52 <= incoming velocity value;
#X obj 228 224 scale 1 0 10000 200;
#X obj 509 131 loadbang;
#X msg 510 151 0.4;
#X connect 0 0 1 1;
#X connect 0 0 2 0;
#X connect 1 0 8 0;
#X connect 3 0 14 0;
#X connect 4 0 6 0;
#X connect 5 0 3 0;
#X connect 9 0 1 0;
#X connect 10 0 4 0;
#X connect 10 0 6 1;
#X connect 10 0 5 0;
#X connect 11 0 6 0;
#X connect 14 0 0 0;
#X connect 15 0 16 0;
#X restore 907 419 pd variableLowPass;
#N canvas 33 23 622 472 variableHiPass 0;
#X obj 46 478 outlet~;
#X obj 46 9 inlet~;
#X obj 189 64 inlet;
#X obj 476 60 inlet;
#X text 519 62 <= incoming main lowPass slider;
#X text 235 65 <= incoming velocity value;
#X floatatom 210 368 5 0 0 0 - - -;
#X obj 213 344 hsl 128 15 0 10000 0 0 empty empty empty -2 -8 0 10
-262144 -1 -1 0 1;
#N canvas 248 126 626 481 expo 0;
#X obj 93 113 inlet;
#X obj 203 204 < 0;
#X obj 170 239 spigot;
#X obj 264 153 hsl 128 15 1 20 0 0 empty empty empty -2 -8 0 10 -262144
-1 -1 668 1;
#X obj 173 130 hsl 128 15 -1 1 0 0 empty empty empty -2 -8 0 10 -262144
-1 -1 6350 1;
#X text 396 152 Exponent;
#X text 303 129 Constant;
#X obj 170 285 pow;
#X obj 170 262 * -1;
#X obj 223 240 spigot;
#X obj 256 205 > 0;
#X obj 170 308 * -1;
#X obj 170 170 t f f;
#X obj 223 263 pow;
#X floatatom 170 331 5 0 0 0 - - -;
#X floatatom 432 168 5 0 0 0 - - -;
#X msg 170 108 0;
#X floatatom 135 145 5 0 0 0 - - -;
#X obj 261 180 s \$0-exp;
#X obj 272 246 r \$0-exp;
#X obj 170 86 loadbang;
#X msg 261 103 2;
#X obj 170 353 outlet;
#X connect 0 0 4 0;
#X connect 1 0 2 1;
#X connect 2 0 8 0;
#X connect 3 0 15 0;
#X connect 3 0 18 0;
#X connect 4 0 12 0;
#X connect 4 0 17 0;
#X connect 7 0 11 0;
#X connect 8 0 7 0;
#X connect 9 0 13 0;
#X connect 10 0 9 1;
#X connect 11 0 14 0;
#X connect 12 0 2 0;
#X connect 12 0 9 0;
#X connect 12 1 1 0;
#X connect 12 1 10 0;
#X connect 13 0 14 0;
#X connect 14 0 22 0;
#X connect 16 0 4 0;
#X connect 19 0 13 1;
#X connect 19 0 7 1;
#X connect 20 0 16 0;
#X connect 20 0 21 0;
#X connect 21 0 3 0;
#X restore 210 304 pd expo;
#X obj 210 325 scale 0 1 0 10000;
#X obj 213 274 hsl 128 15 0 1 0 0 empty empty empty -2 -8 0 10 -262144
-1 -1 0 1;
#X text 237 238 <= voder high pass minus velocty val;
#X obj 209 239 - 1;
#X obj 178 223 bng 15 250 50 0 empty empty empty 17 7 0 10 -262144
-1 -1;
#X obj 46 402 hip~;
#X connect 1 0 14 0;
#X connect 2 0 13 0;
#X connect 2 0 8 0;
#X connect 3 0 12 0;
#X connect 7 0 6 0;
#X connect 7 0 14 1;
#X connect 8 0 9 0;
#X connect 9 0 7 0;
#X connect 10 0 8 0;
#X connect 13 0 12 0;
#X connect 14 0 0 0;
#X restore 907 289 pd variableHiPass;
#X obj 945 263 hsl 128 15 0 1 0 0 empty empty empty -2 -8 0 10 -203904
-1 -1 0 1;
#X text 1089 261 <= high pass filter;
#N canvas 555 23 693 755 presetList 0;
#X obj 14 40 inlet;
#X obj 14 487 outlet;
#X obj 14 116 sel 1;
#X obj 63 116 sel 2;
#X obj 113 117 sel 3;
#X obj 161 119 sel 4;
#X obj 211 118 sel 5;
#X obj 14 448 pack f f f f f f f f;
#X obj 257 119 sel 6;
#X msg 14 149 0.929134 0.244094 0.417323 0.700787 0.204724 0.779528
0.685039 1;
#X msg 33 190 0.559055 0.0708661 0.220472 0.0393701 0.897638 0.590551
0.330709 1;
#X msg 58 228 0.330709 0.944882 0.80315 0.23622 0.771654 0.76378 0.0551181
1;
#X msg 73 269 0.244094 0.0866142 0.141732 0.0393701 0 0.582677 0.330709
1;
#X msg 107 305 0.11811 0.944882 0.80315 0.716535 1 0 0.669291 1;
#X msg 146 346 0.929134 0.244094 0.417323 0.125984 0 0.952756 1 1;
#X connect 0 0 2 0;
#X connect 0 0 3 0;
#X connect 0 0 4 0;
#X connect 0 0 5 0;
#X connect 0 0 6 0;
#X connect 0 0 8 0;
#X connect 2 0 9 0;
#X connect 3 0 10 0;
#X connect 4 0 11 0;
#X connect 5 0 12 0;
#X connect 6 0 13 0;
#X connect 7 0 1 0;
#X connect 8 0 14 0;
#X connect 9 0 7 0;
#X connect 10 0 7 0;
#X connect 11 0 7 0;
#X connect 12 0 7 0;
#X connect 13 0 7 0;
#X connect 14 0 7 0;
#X restore 1568 -273 pd presetList;
#X obj 890 -312 r preset;
#X floatatom 1568 -302 7 0 7 0 - - -;
#X obj 1568 -332 inlet;
#X text 1617 -332 <= inlet for preset retrival;
#X obj 1652 -227 s preset;
#X obj 1570 898 outlet;
#X obj 371 -80 *~ 0;
#X obj 298 -45 *~ 4;
#X obj 832 -251 vsl 15 128 0 1 0 0 empty empty empty 0 -9 0 10 -203904
-1 -1 0 1;
#X obj 856 -251 vsl 15 128 0 1 0 0 empty empty empty 0 -9 0 10 -203904
-1 -1 0 1;
#X obj 878 -251 vsl 15 128 0 1 0 0 empty empty empty 0 -9 0 10 -203904
-1 -1 0 1;
#X obj 1273 -329 inlet;
#X text 1323 -330 <= inlet for raw sensor data;
#X obj 1268 -304 unpack 0 0 0 0 0 0 0 0;
#X obj 1270 -274 acc_line;
#X obj 1291 -255 acc_line;
#X obj 1312 -231 acc_line;
#X obj 1334 -208 acc_line;
#X obj 1357 -276 acc_line;
#X obj 1378 -257 acc_line;
#X obj 1399 -233 acc_line;
#X obj 1421 -210 acc_line;
#X obj 1431 -180 + 0;
#X obj 1413 -156 + 0;
#X obj 1396 -131 + 0;
#X obj 1378 -107 + 0;
#X obj 1318 -178 + 0;
#X obj 1300 -154 + 0;
#X obj 1283 -127 + 0;
#X obj 1323 -112 min 1;
#X obj 1324 -91 max 0;
#X obj 299 -299 declare -path ../_common;
#X obj 1666 -295 loadbang;
#X msg 1665 -276 0 0 0 0 0 0 0 0;
#X obj 807 528 gate~ 2 1;
#X obj 928 98 min 1;
#X obj 928 164 line;
#X obj 947 358 loadmess 1;
#X obj 944 236 loadmess 0;
#X obj 928 120 max 0;
#X obj 928 73 * 2;
#X obj 295 -213 line;
#X obj 928 50 - 0.05;
#X msg 928 142 \$1 500;
#X obj 296 -81 *~ 1;
#X obj 294 -259 scale 0 1 0.01 0.99;
#X msg 294 -236 \$1 100;
#X text 426 -250 <= speed scale changed from 0.5-0.75 to 0.01-0.99
;
#X text 341 -231 <= line time changed to 100 from 40ms;
#X connect 1 0 18 0;
#X connect 2 0 22 0;
#X connect 2 0 60 1;
#X connect 4 0 70 0;
#X connect 4 1 32 0;
#X connect 5 0 6 0;
#X connect 6 0 34 0;
#X connect 6 1 35 0;
#X connect 6 2 36 0;
#X connect 6 6 71 0;
#X connect 9 0 21 2;
#X connect 11 0 60 0;
#X connect 16 0 4 0;
#X connect 18 0 19 0;
#X connect 19 0 2 0;
#X connect 22 0 21 0;
#X connect 23 0 22 2;
#X connect 25 0 31 0;
#X connect 25 0 30 0;
#X connect 26 0 6 0;
#X connect 27 0 25 0;
#X connect 28 0 27 0;
#X connect 32 0 33 0;
#X connect 33 0 1 0;
#X connect 34 0 18 1;
#X connect 35 0 18 2;
#X connect 36 0 18 3;
#X connect 37 0 39 0;
#X connect 39 0 40 0;
#X connect 39 1 41 0;
#X connect 39 2 42 0;
#X connect 39 3 43 0;
#X connect 39 4 44 0;
#X connect 39 5 45 0;
#X connect 39 6 46 0;
#X connect 39 7 47 0;
#X connect 40 0 54 0;
#X connect 41 0 53 0;
#X connect 42 0 52 0;
#X connect 43 0 52 1;
#X connect 44 0 50 0;
#X connect 45 0 49 0;
#X connect 46 0 48 0;
#X connect 47 0 48 1;
#X connect 48 0 49 1;
#X connect 49 0 50 1;
#X connect 50 0 51 1;
#X connect 51 0 55 0;
#X connect 52 0 53 1;
#X connect 53 0 54 1;
#X connect 54 0 51 0;
#X connect 55 0 56 0;
#X connect 56 0 68 0;
#X connect 58 0 59 0;
#X connect 59 0 30 0;
#X connect 60 0 8 0;
#X connect 60 0 7 0;
#X connect 60 1 0 0;
#X connect 60 1 0 1;
#X connect 61 0 65 0;
#X connect 62 0 2 1;
#X connect 63 0 9 0;
#X connect 64 0 23 0;
#X connect 65 0 69 0;
#X connect 66 0 61 0;
#X connect 67 0 16 0;
#X connect 68 0 66 0;
#X connect 69 0 62 0;
#X connect 70 0 33 0;
#X connect 71 0 72 0;
#X connect 72 0 67 0;
