#N canvas 57 23 1347 855 10;
#X obj 491 908 dac~;
#X obj 656 394 hsl 128 15 0 1 0 0 empty empty empty -2 -8 0 10 -203904
-1 -1 0 1;
#X obj 72 484 *~ \$1;
#X obj 74 236 lop~ 20000;
#X text 245 428 wet/dry;
#X obj 102 425 hsl 128 15 0 1 0 0 empty empty empty -2 -8 0 10 -203904
-1 -1 0 1;
#X floatatom 115 445 5 0 0 0 - - -;
#X obj 99 394 loadmess 0;
#X obj 444 514 *~ 0;
#X text 117 -137 <= sample 1 volume;
#X text 134 -124 <= sample 2 volume;
#X text 309 146 <= stores and plays all samples;
#N canvas 176 37 1219 783 sampleBank 0;
#N canvas 0 22 450 300 (subpatch) 0;
#X array array1 2.646e+06 float 2;
#X coords 0 1 2.646e+06 -1 200 140 1;
#X restore 63 152 graph;
#X obj 261 -27 loadbang;
#N canvas 0 22 450 300 (subpatch) 0;
#X array array2 2.21376e+06 float 2;
#X coords 0 1 2.21376e+06 -1 200 140 1;
#X restore 275 155 graph;
#X obj 713 559 outlet~;
#X obj 773 559 outlet~;
#N canvas 0 22 450 300 (subpatch) 0;
#X array array5 443551 float 2;
#X coords 0 1 443551 -1 200 140 1 0 0;
#X restore 63 503 graph;
#X obj 1026 94 soundfiler;
#X floatatom 1026 117 15 0 0 0 - - -;
#X obj 943 561 outlet~;
#X obj 1026 209 phasor~;
#X msg 1041 158 0;
#X obj 1049 248 *~;
#X obj 1026 138 expr 44100/$f1;
#X obj 1049 277 tabread4~ array5;
#X obj 768 92 soundfiler;
#X floatatom 768 115 15 0 0 0 - - -;
#X obj 768 207 phasor~;
#X msg 783 156 0;
#X obj 788 246 *~;
#X obj 765 136 expr 44100/$f1;
#X obj 788 275 tabread4~ array2;
#X obj 549 92 soundfiler;
#X floatatom 549 115 15 0 0 0 - - -;
#X obj 549 207 phasor~;
#X msg 564 156 0;
#X obj 573 246 *~;
#X obj 550 136 expr 44100/$f1;
#X obj 573 275 tabread4~ array1;
#X obj 1267 24 hsl 128 15 0 1 0 0 empty empty empty -2 -8 0 10 -262144
-1 -1 0 1;
#X obj 596 178 scale 0 1 0.005 0.05;
#X obj 815 178 scale 0 1 0.005 0.05;
#X obj 1073 180 scale 0 1 0.005 0.05;
#X obj 1260 -32 inlet;
#X obj 1262 2 scale 0 1 0 0.5;
#X msg 549 63 read -resize sample_1_s.wav array1;
#X msg 768 63 read -resize sample_2_s.wav array2;
#X msg 1026 65 read -resize sample_3_s.wav array5;
#X connect 1 0 34 0;
#X connect 1 0 35 0;
#X connect 1 0 36 0;
#X connect 6 0 7 0;
#X connect 7 0 12 0;
#X connect 7 0 11 1;
#X connect 9 0 11 0;
#X connect 10 0 9 0;
#X connect 11 0 13 0;
#X connect 12 0 9 0;
#X connect 13 0 8 0;
#X connect 14 0 15 0;
#X connect 15 0 19 0;
#X connect 15 0 18 1;
#X connect 16 0 18 0;
#X connect 17 0 16 0;
#X connect 18 0 20 0;
#X connect 19 0 16 0;
#X connect 20 0 4 0;
#X connect 21 0 22 0;
#X connect 22 0 26 0;
#X connect 22 0 25 1;
#X connect 23 0 25 0;
#X connect 24 0 23 0;
#X connect 25 0 27 0;
#X connect 26 0 23 0;
#X connect 27 0 3 0;
#X connect 28 0 29 0;
#X connect 28 0 30 0;
#X connect 28 0 31 0;
#X connect 29 0 23 0;
#X connect 30 0 16 0;
#X connect 31 0 9 0;
#X connect 32 0 33 0;
#X connect 33 0 28 0;
#X connect 34 0 21 0;
#X connect 35 0 14 0;
#X connect 36 0 6 0;
#X restore 222 164 pd sampleBank;
#X obj 542 -227 inlet;
#X obj 540 -203 unpack 0 0 0 0 0 0 0 0;
#X obj 303 907 throw~ outL;
#X obj 379 907 throw~ outR;
#X obj 536 706 hsl 128 15 0 1 0 0 empty empty empty -2 -8 0 10 -203904
-1 -1 0 1;
#X text 686 709 <= low pass filter;
#X obj 393 777 vradio 15 1 0 3 empty empty empty 0 -8 0 10 -228856
-1 -1 1;
#X text 381 777 0;
#X text 381 792 1;
#X text 381 807 2;
#X text 414 777 <= route to correct output (0 closed \, 1 bela \, 2
laptop);
#X obj 536 647 loadmess 0.01;
#X obj 666 366 loadmess 0;
#X obj 255 85 hsl 128 15 0 1 0 0 empty empty empty -2 -8 0 10 -203904
-1 -1 0 1;
#X text 403 123 <= playback speed;
#N canvas 432 35 773 715 formants 0;
#X obj 13 30 inlet~;
#X obj 258 31 inlet;
#X obj 35 672 outlet~;
#X obj 181 379 unpack f f f f f f f f f;
#X obj 37 516 bp~ 0 0;
#X obj 98 516 bp~ 0 0;
#X obj 161 516 bp~ 0 0;
#X floatatom 280 262 5 0 0 0 - - -;
#N canvas 727 95 450 300 formant 0;
#X obj 131 42 sel 1;
#X msg 69 80 850;
#X msg 96 79 30;
#X msg 119 98 6;
#X msg 143 98 1220;
#X msg 170 116 80;
#X msg 191 126 6;
#X msg 214 138 2810;
#X msg 243 139 100;
#X msg 263 150 -4;
#X obj 107 177 pack f f f f f f f f f;
#X obj 132 1 inlet;
#X obj 98 219 outlet;
#X connect 0 0 1 0;
#X connect 0 0 2 0;
#X connect 0 0 3 0;
#X connect 0 0 4 0;
#X connect 0 0 5 0;
#X connect 0 0 6 0;
#X connect 0 0 7 0;
#X connect 0 0 8 0;
#X connect 0 0 9 0;
#X connect 1 0 10 0;
#X connect 2 0 10 1;
#X connect 3 0 10 2;
#X connect 4 0 10 3;
#X connect 5 0 10 4;
#X connect 6 0 10 5;
#X connect 7 0 10 6;
#X connect 8 0 10 7;
#X connect 9 0 10 8;
#X connect 10 0 12 0;
#X connect 11 0 0 0;
#X restore 180 325 pd formant 1;
#X obj 183 446 line;
#X obj 228 446 line;
#X obj 272 446 line;
#X obj 336 446 line;
#X obj 384 446 line;
#X obj 447 446 line;
#X text 219 303 a;
#X text 278 303 e;
#X text 356 303 o;
#X msg 426 418 \$1 500;
#X msg 377 418 \$1 500;
#X msg 328 418 \$1 500;
#X msg 279 418 \$1 500;
#X msg 234 418 \$1 500;
#X msg 183 418 \$1 500;
#X obj 279 237 int;
#N canvas 772 445 450 300 formant 0;
#X msg 96 79 30;
#X msg 170 116 80;
#X msg 243 139 100;
#X obj 107 177 pack f f f f f f f f f;
#X obj 132 1 inlet;
#X obj 98 219 outlet;
#X msg 263 150 0;
#X msg 69 80 430;
#X msg 119 98 5;
#X msg 143 98 2480;
#X msg 192 126 2;
#X msg 214 138 3070;
#X obj 131 42 sel 2;
#X connect 0 0 3 1;
#X connect 1 0 3 4;
#X connect 2 0 3 7;
#X connect 3 0 5 0;
#X connect 4 0 12 0;
#X connect 6 0 3 8;
#X connect 7 0 3 0;
#X connect 8 0 3 2;
#X connect 9 0 3 3;
#X connect 10 0 3 5;
#X connect 11 0 3 6;
#X connect 12 0 7 0;
#X connect 12 0 0 0;
#X connect 12 0 8 0;
#X connect 12 0 9 0;
#X connect 12 0 1 0;
#X connect 12 0 10 0;
#X connect 12 0 11 0;
#X connect 12 0 2 0;
#X connect 12 0 6 0;
#X restore 278 325 pd formant 2;
#N canvas 48 318 450 300 formant 0;
#X msg 96 79 30;
#X msg 170 116 80;
#X msg 243 139 100;
#X obj 107 177 pack f f f f f f f f f;
#X obj 132 1 inlet;
#X obj 98 219 outlet;
#X msg 69 80 590;
#X msg 119 98 7;
#X msg 143 98 920;
#X msg 192 126 3;
#X msg 214 138 2710;
#X msg 263 150 -4;
#X obj 131 42 sel 3;
#X connect 0 0 3 1;
#X connect 1 0 3 4;
#X connect 2 0 3 7;
#X connect 3 0 5 0;
#X connect 4 0 12 0;
#X connect 6 0 3 0;
#X connect 7 0 3 2;
#X connect 8 0 3 3;
#X connect 9 0 3 5;
#X connect 10 0 3 6;
#X connect 11 0 3 8;
#X connect 12 0 6 0;
#X connect 12 0 0 0;
#X connect 12 0 7 0;
#X connect 12 0 8 0;
#X connect 12 0 1 0;
#X connect 12 0 9 0;
#X connect 12 0 10 0;
#X connect 12 0 2 0;
#X connect 12 0 11 0;
#X restore 368 325 pd formant 3;
#N canvas 27 88 450 300 formant 0;
#X msg 96 79 30;
#X msg 170 116 80;
#X msg 243 139 100;
#X obj 107 177 pack f f f f f f f f f;
#X obj 132 1 inlet;
#X obj 98 219 outlet;
#X msg 119 98 4;
#X msg 192 126 4;
#X msg 263 150 -2;
#X msg 68 80 370;
#X msg 143 98 950;
#X msg 214 138 2670;
#X obj 131 42 sel 4;
#X connect 0 0 3 1;
#X connect 1 0 3 4;
#X connect 2 0 3 7;
#X connect 3 0 5 0;
#X connect 4 0 12 0;
#X connect 6 0 3 2;
#X connect 7 0 3 5;
#X connect 8 0 3 8;
#X connect 9 0 3 0;
#X connect 10 0 3 3;
#X connect 11 0 3 6;
#X connect 12 0 9 0;
#X connect 12 0 0 0;
#X connect 12 0 6 0;
#X connect 12 0 10 0;
#X connect 12 0 1 0;
#X connect 12 0 7 0;
#X connect 12 0 11 0;
#X connect 12 0 2 0;
#X connect 12 0 8 0;
#X restore 462 325 pd formant 4;
#N canvas 298 460 450 300 formant_5 0;
#X msg 106 89 30;
#X msg 180 126 80;
#X msg 253 149 100;
#X obj 117 187 pack f f f f f f f f f;
#X obj 142 11 inlet;
#X obj 108 229 outlet;
#X msg 129 108 4;
#X msg 202 136 4;
#X msg 273 160 -2;
#X msg 78 90 280;
#X msg 153 108 2400;
#X msg 224 148 3000;
#X obj 141 52 sel 5;
#X connect 0 0 3 1;
#X connect 1 0 3 4;
#X connect 2 0 3 7;
#X connect 3 0 5 0;
#X connect 4 0 12 0;
#X connect 6 0 3 2;
#X connect 7 0 3 5;
#X connect 8 0 3 8;
#X connect 9 0 3 0;
#X connect 10 0 3 3;
#X connect 11 0 3 6;
#X connect 12 0 9 0;
#X connect 12 0 0 0;
#X connect 12 0 6 0;
#X connect 12 0 10 0;
#X connect 12 0 1 0;
#X connect 12 0 7 0;
#X connect 12 0 11 0;
#X connect 12 0 2 0;
#X connect 12 0 8 0;
#X restore 555 325 pd formant_5;
#X obj 279 212 scale 0 1 0 6;
#X text 462 303 u;
#X text 555 303 i;
#X text 424 166 <= input;
#X text 320 258 <= scaled value;
#X obj 496 177 loadbang;
#X msg 493 230 1;
#X obj 495 204 delay 500;
#X obj 563 621 outlet;
#X connect 0 0 4 0;
#X connect 0 0 5 0;
#X connect 0 0 6 0;
#X connect 1 0 29 0;
#X connect 3 0 23 0;
#X connect 3 1 22 0;
#X connect 3 3 21 0;
#X connect 3 4 20 0;
#X connect 3 6 19 0;
#X connect 3 7 18 0;
#X connect 4 0 2 0;
#X connect 5 0 2 0;
#X connect 6 0 2 0;
#X connect 7 0 8 0;
#X connect 7 0 27 0;
#X connect 7 0 26 0;
#X connect 7 0 25 0;
#X connect 7 0 28 0;
#X connect 7 0 37 0;
#X connect 8 0 3 0;
#X connect 9 0 4 1;
#X connect 10 0 4 2;
#X connect 11 0 5 1;
#X connect 12 0 5 2;
#X connect 13 0 6 1;
#X connect 14 0 6 2;
#X connect 18 0 14 0;
#X connect 19 0 13 0;
#X connect 20 0 12 0;
#X connect 21 0 11 0;
#X connect 22 0 10 0;
#X connect 23 0 9 0;
#X connect 24 0 7 0;
#X connect 25 0 3 0;
#X connect 26 0 3 0;
#X connect 27 0 3 0;
#X connect 28 0 3 0;
#X connect 29 0 24 0;
#X connect 34 0 36 0;
#X connect 35 0 7 0;
#X connect 36 0 35 0;
#X restore 442 319 pd formants;
#X obj 457 287 hsl 128 15 0 1 0 0 empty empty empty -2 -8 0 10 -203904
-1 -1 0 1;
#X text 599 285 <= vowel formant selection input;
#X obj 89 -128 vsl 15 128 0 1 0 0 empty empty empty 0 -9 0 10 -203904
-1 -1 0 1;
#X obj 115 -119 vsl 15 128 0 1 0 0 empty empty empty 0 -9 0 10 -203904
-1 -1 0 1;
#X obj 138 -103 vsl 15 128 0 1 0 0 empty empty empty 0 -9 0 10 -203904
-1 -1 0 1;
#X floatatom 783 416 5 0 0 0 - - -;
#X floatatom 584 305 5 0 0 0 - - -;
#X floatatom 36 62 5 0 0 0 - - -;
#X floatatom 75 62 5 0 0 0 - - -;
#X floatatom 117 61 5 0 0 0 - - -;
#X floatatom 299 122 5 0 0 0 - - -;
#X obj 393 849 gate~ 2 1;
#X obj 323 738 loadmess 1;
#X obj 1164 148 bng 15 250 50 0 empty empty empty 17 7 0 10 -262144
-1 -1;
#X msg 1058 880 0.889764 1 0.385827 0.952756 0.527559 0.622047 0 0.244094
;
#X msg 1037 851 0.889764 0.787402 0 0.952756 0 0.015748 0 0.244094
;
#X msg 1016 818 0.889764 0.574803 0.456693 0.716535 0.409449 0.015748
0.929134 0.244094;
#X msg 968 743 0.889764 0 0 0.866142 0.015748 0.795276 0.653543 0.244094
;
#X msg 991 780 0.889764 0.401575 1 0 0.409449 0.740157 0.0551181 0.244094
;
#X obj 1004 -131 inlet;
#X text 602 -225 <= inlet for gestiure values;
#X obj 546 435 + 1;
#X obj 550 469 hsl 128 15 0 1 0 0 empty empty empty -2 -8 0 10 -262144
-1 -1 12700 1;
#X text 809 391 <= main voder volume;
#X text 574 434 <= voder volume plus added velocity val;
#X obj 545 409 bng 15 250 50 0 empty empty empty 17 7 0 10 -262144
-1 -1;
#N canvas 768 44 450 313 variableLowPass 0;
#X obj 231 250 hsl 128 15 10000 0 0 0 empty empty empty -2 -8 0 10
-262144 -1 -1 0 1;
#X obj 47 245 lop~;
#X floatatom 228 274 5 0 0 0 - - -;
#N canvas 248 126 626 481 expo 0;
#X obj 93 113 inlet;
#X obj 203 204 < 0;
#X obj 170 239 spigot;
#X obj 264 153 hsl 128 15 1 20 0 0 empty empty empty -2 -8 0 10 -262144
-1 -1 668 1;
#X obj 173 130 hsl 128 15 -1 1 0 0 empty empty empty -2 -8 0 10 -262144
-1 -1 63 1;
#X text 396 152 Exponent;
#X text 303 129 Constant;
#X obj 170 285 pow;
#X obj 170 262 * -1;
#X obj 223 240 spigot;
#X obj 256 205 > 0;
#X obj 170 308 * -1;
#X obj 170 170 t f f;
#X obj 223 263 pow;
#X floatatom 170 331 5 0 0 0 - - -;
#X floatatom 432 168 5 0 0 0 - - -;
#X msg 170 108 0;
#X floatatom 135 145 5 0 0 0 - - -;
#X obj 261 180 s \$0-exp;
#X obj 272 246 r \$0-exp;
#X obj 170 86 loadbang;
#X msg 261 103 2;
#X obj 170 353 outlet;
#X connect 0 0 4 0;
#X connect 1 0 2 1;
#X connect 2 0 8 0;
#X connect 3 0 15 0;
#X connect 3 0 18 0;
#X connect 4 0 12 0;
#X connect 4 0 17 0;
#X connect 7 0 11 0;
#X connect 8 0 7 0;
#X connect 9 0 13 0;
#X connect 10 0 9 1;
#X connect 11 0 14 0;
#X connect 12 0 2 0;
#X connect 12 0 9 0;
#X connect 12 1 1 0;
#X connect 12 1 10 0;
#X connect 13 0 14 0;
#X connect 14 0 22 0;
#X connect 16 0 4 0;
#X connect 19 0 13 1;
#X connect 19 0 7 1;
#X connect 20 0 16 0;
#X connect 20 0 21 0;
#X connect 21 0 3 0;
#X restore 228 202 pd expo;
#X obj 228 224 scale 0 1 10000 200;
#X obj 213 109 bng 15 250 50 0 empty empty empty 17 7 0 10 -262144
-1 -1;
#X obj 238 177 hsl 128 15 0 1 0 0 empty empty empty -2 -8 0 10 -262144
-1 -1 0 1;
#X obj 227 141 - 1;
#X text 255 140 <= voder low pass minus velocty val;
#X obj 48 356 outlet~;
#X obj 46 9 inlet~;
#X obj 144 51 inlet;
#X obj 403 20 inlet;
#X text 446 22 <= incoming main lowPass slider;
#X text 190 52 <= incoming velocity value;
#X connect 0 0 1 1;
#X connect 0 0 2 0;
#X connect 1 0 9 0;
#X connect 3 0 4 0;
#X connect 4 0 0 0;
#X connect 5 0 7 0;
#X connect 6 0 3 0;
#X connect 7 0 6 0;
#X connect 10 0 1 0;
#X connect 11 0 5 0;
#X connect 11 0 7 1;
#X connect 12 0 7 0;
#X restore 443 728 pd variableLowPass;
#N canvas 690 383 581 369 variableHiPass 0;
#X obj 46 478 outlet~;
#X obj 46 9 inlet~;
#X obj 189 64 inlet;
#X obj 476 60 inlet;
#X text 519 62 <= incoming main lowPass slider;
#X text 235 65 <= incoming velocity value;
#X floatatom 210 368 5 0 0 0 - - -;
#X obj 213 344 hsl 128 15 0 10000 0 0 empty empty empty -2 -8 0 10
-262144 -1 -1 0 1;
#N canvas 248 126 626 481 expo 0;
#X obj 93 113 inlet;
#X obj 203 204 < 0;
#X obj 170 239 spigot;
#X obj 264 153 hsl 128 15 1 20 0 0 empty empty empty -2 -8 0 10 -262144
-1 -1 668 1;
#X obj 173 130 hsl 128 15 -1 1 0 0 empty empty empty -2 -8 0 10 -262144
-1 -1 63 1;
#X text 396 152 Exponent;
#X text 303 129 Constant;
#X obj 170 285 pow;
#X obj 170 262 * -1;
#X obj 223 240 spigot;
#X obj 256 205 > 0;
#X obj 170 308 * -1;
#X obj 170 170 t f f;
#X obj 223 263 pow;
#X floatatom 170 331 5 0 0 0 - - -;
#X floatatom 432 168 5 0 0 0 - - -;
#X msg 170 108 0;
#X floatatom 135 145 5 0 0 0 - - -;
#X obj 261 180 s \$0-exp;
#X obj 272 246 r \$0-exp;
#X obj 170 86 loadbang;
#X msg 261 103 2;
#X obj 170 353 outlet;
#X connect 0 0 4 0;
#X connect 1 0 2 1;
#X connect 2 0 8 0;
#X connect 3 0 15 0;
#X connect 3 0 18 0;
#X connect 4 0 12 0;
#X connect 4 0 17 0;
#X connect 7 0 11 0;
#X connect 8 0 7 0;
#X connect 9 0 13 0;
#X connect 10 0 9 1;
#X connect 11 0 14 0;
#X connect 12 0 2 0;
#X connect 12 0 9 0;
#X connect 12 1 1 0;
#X connect 12 1 10 0;
#X connect 13 0 14 0;
#X connect 14 0 22 0;
#X connect 16 0 4 0;
#X connect 19 0 13 1;
#X connect 19 0 7 1;
#X connect 20 0 16 0;
#X connect 20 0 21 0;
#X connect 21 0 3 0;
#X restore 210 304 pd expo;
#X obj 210 325 scale 0 1 0 10000;
#X obj 213 276 hsl 128 15 0 1 0 0 empty empty empty -2 -8 0 10 -262144
-1 -1 0 1;
#X text 237 238 <= voder high pass minus velocty val;
#X obj 209 239 - 1;
#X obj 178 223 bng 15 250 50 0 empty empty empty 17 7 0 10 -262144
-1 -1;
#X obj 46 402 hip~;
#X connect 1 0 14 0;
#X connect 2 0 13 0;
#X connect 2 0 12 1;
#X connect 3 0 12 0;
#X connect 7 0 6 0;
#X connect 7 0 14 1;
#X connect 8 0 9 0;
#X connect 9 0 7 0;
#X connect 10 0 8 0;
#X connect 12 0 10 0;
#X connect 13 0 12 0;
#X connect 14 0 0 0;
#X restore 442 610 pd variableHiPass;
#X obj 574 564 hsl 128 15 0 1 0 0 empty empty empty -2 -8 0 10 -203904
-1 -1 0 1;
#X text 718 562 <= high pass filter;
#X obj 573 505 loadmess 0.01;
#X obj 465 584 r velocity;
#X obj 457 701 r velocity;
#X obj 555 383 r velocity;
#X text 159 -103 <= sample 3 volume;
#X obj 663 611 loadbang;
#X msg 572 532 0.01;
#X obj 696 650 t b b;
#X msg 548 675 0.01;
#X obj 352 -80 hsl 128 15 0 1 0 0 empty empty empty -2 -8 0 10 -203904
-1 -1 0 1;
#X obj 444 363 *~ 1;
#X text 1057 -131 <= direct sensor data (8 numbera in list);
#X obj 1003 -99 unpack 0 0 0 0 0 0 0 0;
#X text 356 -107 volume;
#X floatatom 528 350 5 0 0 0 - - -;
#X obj 1132 183 pack 0 0 0 0 0 0 0 0;
#X obj 473 233 loadbang;
#X obj 468 265 t b;
#X obj 44 205 *~ 0.8;
#X obj 235 136 scale 0 1 0.1 0.6;
#X obj 110 205 *~ 0.4;
#X obj 220 205 *~ 0.2;
#X obj 379 372 *~ 4;
#X connect 1 0 34 0;
#X connect 1 0 50 0;
#X connect 3 0 2 0;
#X connect 3 0 28 0;
#X connect 5 0 6 0;
#X connect 5 0 2 1;
#X connect 7 0 5 0;
#X connect 8 0 56 0;
#X connect 12 0 77 0;
#X connect 12 1 79 0;
#X connect 12 2 80 0;
#X connect 13 0 14 0;
#X connect 14 0 68 0;
#X connect 14 1 28 1;
#X connect 14 2 26 0;
#X connect 17 0 55 2;
#X connect 19 0 40 0;
#X connect 25 0 1 0;
#X connect 26 0 39 0;
#X connect 26 0 74 2;
#X connect 26 0 78 0;
#X connect 28 0 81 0;
#X connect 28 1 73 0;
#X connect 29 0 28 1;
#X connect 29 0 35 0;
#X connect 29 0 74 1;
#X connect 31 0 36 0;
#X connect 31 0 77 1;
#X connect 32 0 37 0;
#X connect 32 0 79 1;
#X connect 33 0 38 0;
#X connect 33 0 80 1;
#X connect 40 0 16 0;
#X connect 40 0 15 0;
#X connect 40 1 0 0;
#X connect 40 1 0 1;
#X connect 41 0 19 0;
#X connect 42 0 74 0;
#X connect 48 0 71 0;
#X connect 50 0 51 0;
#X connect 51 0 8 1;
#X connect 54 0 50 0;
#X connect 56 0 55 0;
#X connect 57 0 56 2;
#X connect 60 0 56 1;
#X connect 61 0 55 1;
#X connect 62 0 54 0;
#X connect 62 0 50 1;
#X connect 64 0 66 0;
#X connect 65 0 56 2;
#X connect 66 0 67 0;
#X connect 66 1 65 0;
#X connect 67 0 55 2;
#X connect 68 0 69 1;
#X connect 68 0 74 0;
#X connect 69 0 40 1;
#X connect 75 0 76 0;
#X connect 76 0 29 0;
#X connect 77 0 3 0;
#X connect 78 0 12 0;
#X connect 79 0 3 0;
#X connect 80 0 3 0;
#X connect 81 0 69 0;
