#N canvas 4 23 982 666 12;
#X floatatom 60 131 0 0 0 0 - - -;
#X obj 104 105 vu 15 120 empty empty -1 -8 0 10 -66577 -1 1 0;
#X obj 60 105 env~;
#X obj 52 156 - 100;
#X obj 79 39 inlet~;
#X connect 2 0 0 0;
#X connect 2 0 3 0;
#X connect 3 0 1 0;
#X connect 4 0 2 0;
#X coords 0 -1 1 1 45 130 2 100 100;
