#N canvas 312 203 750 493 12;
#X declare -path ../_common;
#X obj 62 54 declare -path ../_common;
#X obj 324 186 t a a;
#X obj 410 239 print encoded;
#X obj 324 351 print decoded;
#X obj 324 158 pd_slipenc;
#X obj 324 323 pd_slipdec;
#X obj 349 55 loadbang;
#X obj 324 239 listiter;
#X msg 354 284 clear;
#X msg 325 107 1 2 3 220 192 4 219;
#X connect 1 0 7 0;
#X connect 1 1 2 0;
#X connect 4 0 1 0;
#X connect 5 0 3 0;
#X connect 6 0 9 0;
#X connect 7 0 5 0;
#X connect 8 0 5 0;
#X connect 9 0 4 0;
