#N canvas 31 39 1241 785 12;
#X obj 136 414 catch~ outL;
#X obj 197 438 catch~ outR;
#X obj 150 516 dac~;
#X obj 557 73 main;
#X obj 136 477 *~ 1;
#X obj 185 479 *~ 1;
#X msg 308 447 1;
#X obj 92 26 vsl 15 128 0 1 0 0 empty empty empty 0 -9 0 10 -262144
-1 -1 0 1;
#X obj 124 26 vsl 15 128 0 1 0 0 empty empty empty 0 -9 0 10 -262144
-1 -1 0 1;
#X obj 157 26 vsl 15 128 0 1 0 0 empty empty empty 0 -9 0 10 -262144
-1 -1 0 1;
#X obj 186 26 vsl 15 128 0 1 0 0 empty empty empty 0 -9 0 10 -262144
-1 -1 0 1;
#X obj 268 395 r volume;
#N canvas 93 23 736 810 sensorRead 0;
#X obj 540 139 tgl 15 0 empty empty empty 17 7 0 10 -262144 -1 -1 1
1;
#X obj 176 306 snapshot~;
#X obj 203 328 snapshot~;
#X obj 230 353 snapshot~;
#X obj 261 378 snapshot~;
#X obj 54 32 adc~ 3 4 5 6 7 8 9 10;
#X obj 53 294 snapshot~;
#X obj 80 316 snapshot~;
#X obj 107 341 snapshot~;
#X obj 138 366 snapshot~;
#X obj 53 438 pack 0 0 0 0 0 0 0 0;
#X obj 540 179 t b b;
#X obj 53 488 s sensors;
#X obj 540 117 r sensor_on;
#X obj 540 157 metro 20;
#X obj 199 132 average~ 3000;
#X obj 234 155 average~ 3000;
#X obj 171 107 average~ 3000;
#X obj 137 83 average~ 3000;
#X obj 105 171 average~ 3000;
#X obj 140 194 average~ 3000;
#X obj 77 146 average~ 3000;
#X obj 43 122 average~ 3000;
#X obj 510 34 loadbang;
#X msg 510 60 1;
#X connect 0 0 14 0;
#X connect 1 0 10 4;
#X connect 2 0 10 5;
#X connect 3 0 10 6;
#X connect 4 0 10 7;
#X connect 5 0 22 0;
#X connect 5 1 21 0;
#X connect 5 2 19 0;
#X connect 5 3 20 0;
#X connect 5 4 18 0;
#X connect 5 5 17 0;
#X connect 5 6 15 0;
#X connect 5 7 16 0;
#X connect 6 0 10 0;
#X connect 7 0 10 1;
#X connect 8 0 10 2;
#X connect 9 0 10 3;
#X connect 10 0 12 0;
#X connect 11 0 6 0;
#X connect 11 1 4 0;
#X connect 11 1 3 0;
#X connect 11 1 2 0;
#X connect 11 1 1 0;
#X connect 11 1 9 0;
#X connect 11 1 8 0;
#X connect 11 1 7 0;
#X connect 13 0 0 0;
#X connect 14 0 11 0;
#X connect 15 0 3 0;
#X connect 16 0 4 0;
#X connect 17 0 2 0;
#X connect 18 0 1 0;
#X connect 19 0 8 0;
#X connect 20 0 9 0;
#X connect 21 0 7 0;
#X connect 22 0 6 0;
#X connect 23 0 24 0;
#X connect 24 0 0 0;
#X restore 820 84 pd sensorRead;
#N canvas 13 23 1422 843 sendSensorsOSC 0;
#X obj 77 231 spigot;
#X msg 147 142 1;
#X obj 78 62 r sensors;
#X obj 966 122 r ctrl1;
#X obj 1026 121 r ctrl2;
#X obj 1084 122 r ctrl3;
#X obj 1146 121 r ctrl4;
#X obj 1086 167 r ctrl5;
#X obj 1146 166 r ctrl6;
#X obj 1204 167 r ctrl7;
#X obj 1266 166 r ctrl8;
#X obj 1053 236 pack 0 0 0 0 0 0 0 0;
#X obj 1092 319 spigot;
#X obj 1184 294 r log_control_values;
#X obj 1091 360 print ctrl;
#X obj 1051 413 spigot;
#X obj 1143 388 r ctrl_send;
#X obj 126 109 r sensor_send;
#X obj 1052 497 list prepend send;
#X obj 1053 524 list trim;
#X obj 1052 459 oscformat ctrl;
#X obj 128 198 &&;
#X obj 147 166 t b a;
#X msg 262 506 disconnect;
#X obj 80 539 netsend -u -b;
#X obj 80 469 list prepend send;
#X obj 80 500 list trim;
#X obj 200 591 print netsend;
#X obj 198 565 print netsend1;
#X obj 80 628 delay 1000;
#X obj 80 568 sel 0 1;
#X obj 80 599 t b b;
#X obj 550 54 loadbang;
#X msg 357 548 connect 192.168.178.255 51555;
#X msg 259 472 connect 239.200.200.200 51555;
#X obj 551 105 metro 1000;
#X msg 550 78 1;
#X msg 685 63 0;
#X obj 562 301 ether;
#X msg 562 274 wlan0;
#X obj 562 385 t b;
#X msg 714 200 symbol C8:3A:35:C2:AE:42;
#X obj 562 332 list trim;
#X obj 80 431 oscformat sensor;
#X obj 698 384 t b;
#X obj 914 384 print unknown mac-address, f 14;
#X obj 179 346 list append sensor;
#X obj 179 373 list prepend set;
#X obj 179 400 list trim;
#X obj 585 515 print ID;
#X obj 561 441 t b a b;
#X msg 562 410 p1;
#X msg 698 409 p2;
#X obj 562 358 route C8:3A:35:C2:AE:42 1C:BF:CE:0D:61:80 1C:BF:CE:0D:61:62
;
#X msg 713 250 1C:BF:CE:0D:61:62;
#X text 899 199 ingo;
#X text 856 249 mika;
#X msg 713 225 1C:BF:CE:0D:61:80;
#X text 853 224 edge1;
#X obj 835 384 t b;
#X msg 835 409 p3;
#X obj 552 173 ipinfo;
#X msg 552 145 wlan0;
#X msg 611 143 en0;
#X obj 553 204 t b b;
#X obj 567 239 delay 500;
#X obj 730 572 s sensor_on;
#X msg 732 534 1;
#X obj 791 458 t b a b;
#X text 262 447 multicast address and port;
#X text 354 573 broadcast address and port: we do not use it;
#X text 169 201 making sure that wifi setup is ready;
#X msg 1202 417 1;
#X obj 1183 473 &&;
#X obj 1202 441 t b a;
#X obj 789 490 s wifi_ready;
#X obj 562 484 s wifi_ready;
#X obj 205 142 r wifi_ready;
#X obj 204 165 t b;
#X obj 1258 416 r wifi_ready;
#X obj 1257 439 t b;
#X text 1224 475 making sure that wifi setup is ready;
#X connect 0 0 43 0;
#X connect 1 0 22 0;
#X connect 2 0 0 0;
#X connect 3 0 11 0;
#X connect 4 0 11 1;
#X connect 5 0 11 2;
#X connect 6 0 11 3;
#X connect 7 0 11 4;
#X connect 8 0 11 5;
#X connect 9 0 11 6;
#X connect 10 0 11 7;
#X connect 11 0 12 0;
#X connect 11 0 15 0;
#X connect 12 0 14 0;
#X connect 13 0 12 1;
#X connect 15 0 20 0;
#X connect 16 0 73 0;
#X connect 17 0 21 0;
#X connect 18 0 19 0;
#X connect 19 0 24 0;
#X connect 20 0 18 0;
#X connect 21 0 0 1;
#X connect 22 0 21 0;
#X connect 22 1 21 1;
#X connect 23 0 24 0;
#X connect 24 0 27 0;
#X connect 24 0 30 0;
#X connect 24 1 28 0;
#X connect 25 0 26 0;
#X connect 26 0 24 0;
#X connect 29 0 34 0;
#X connect 30 0 31 0;
#X connect 31 0 29 0;
#X connect 31 1 23 0;
#X connect 32 0 36 0;
#X connect 33 0 24 0;
#X connect 34 0 24 0;
#X connect 35 0 62 0;
#X connect 36 0 35 0;
#X connect 37 0 35 0;
#X connect 38 0 42 0;
#X connect 39 0 38 0;
#X connect 40 0 51 0;
#X connect 41 0 42 0;
#X connect 42 0 53 0;
#X connect 43 0 25 0;
#X connect 44 0 52 0;
#X connect 46 0 47 0;
#X connect 47 0 48 0;
#X connect 48 0 43 0;
#X connect 50 0 76 0;
#X connect 50 1 49 0;
#X connect 50 1 46 0;
#X connect 50 2 34 0;
#X connect 51 0 50 0;
#X connect 52 0 50 0;
#X connect 53 0 40 0;
#X connect 53 1 44 0;
#X connect 53 2 59 0;
#X connect 53 3 45 0;
#X connect 54 0 42 0;
#X connect 57 0 42 0;
#X connect 59 0 60 0;
#X connect 60 0 68 0;
#X connect 61 0 64 0;
#X connect 62 0 61 0;
#X connect 63 0 61 0;
#X connect 64 0 65 0;
#X connect 64 1 37 0;
#X connect 65 0 39 0;
#X connect 67 0 66 0;
#X connect 68 0 67 0;
#X connect 68 0 75 0;
#X connect 68 1 46 0;
#X connect 68 2 34 0;
#X connect 72 0 74 0;
#X connect 73 0 15 1;
#X connect 74 0 73 0;
#X connect 74 1 73 1;
#X connect 77 0 78 0;
#X connect 78 0 1 0;
#X connect 79 0 80 0;
#X connect 80 0 72 0;
#X restore 821 111 pd sendSensorsOSC;
#X obj 50 173 s ctrl1;
#X obj 107 173 s ctrl2;
#X obj 168 173 s ctrl3;
#X obj 226 173 s ctrl4;
#X obj 218 26 vsl 15 128 0 1 0 0 empty empty empty 0 -9 0 10 -262144
-1 -1 0 1;
#X obj 250 26 vsl 15 128 0 1 0 0 empty empty empty 0 -9 0 10 -262144
-1 -1 0 1;
#X obj 283 26 vsl 15 128 0 1 0 0 empty empty empty 0 -9 0 10 -262144
-1 -1 0 1;
#X obj 312 26 vsl 15 128 0 1 0 0 empty empty empty 0 -9 0 10 -262144
-1 -1 0 1;
#X obj 286 175 s ctrl5;
#X obj 343 175 s ctrl6;
#X obj 404 175 s ctrl7;
#X obj 463 175 s ctrl8;
#X obj 818 143 osccontroller 50555 239.100.100.100;
#X obj 769 433 ml_ann, f 13;
#X obj 582 467 unpack 0 0 0 0 0 0 0 0;
#X obj 567 512 s ctrl1;
#X obj 593 536 s ctrl2;
#X obj 629 564 s ctrl3;
#X obj 654 592 s ctrl4;
#X obj 675 509 s ctrl5;
#X obj 703 535 s ctrl6;
#X obj 729 561 s ctrl7;
#X obj 757 592 s ctrl8;
#X obj 985 316 r sensors;
#X obj 718 368 gate 6 1, f 38;
#X obj 718 292 r mapping_mode;
#X obj 719 331 + 1;
#X connect 0 0 4 0;
#X connect 1 0 5 0;
#X connect 4 0 2 0;
#X connect 5 0 2 1;
#X connect 6 0 5 1;
#X connect 6 0 4 1;
#X connect 7 0 14 0;
#X connect 8 0 15 0;
#X connect 9 0 16 0;
#X connect 10 0 17 0;
#X connect 11 0 4 1;
#X connect 11 0 5 1;
#X connect 18 0 22 0;
#X connect 19 0 23 0;
#X connect 20 0 24 0;
#X connect 21 0 25 0;
#X connect 28 0 29 0;
#X connect 28 1 30 0;
#X connect 28 2 31 0;
#X connect 28 3 32 0;
#X connect 28 4 33 0;
#X connect 28 5 34 0;
#X connect 28 6 35 0;
#X connect 28 7 36 0;
#X connect 37 0 38 1;
#X connect 38 0 28 0;
#X connect 38 1 27 0;
#X connect 39 0 40 0;
#X connect 40 0 38 0;
