#N canvas 214 110 1241 785 12;
#X declare -path ../_common;
#X obj 136 414 catch~ outL;
#X obj 197 438 catch~ outR;
#X obj 150 592 dac~;
#X obj 602 83 main;
#X obj 136 477 *~ 1;
#X obj 191 475 *~ 1;
#X msg 308 447 1;
#X obj 101 87 vsl 15 128 0 1 0 0 empty empty empty 0 -9 0 10 -262144
-1 -1 0 1;
#X obj 133 87 vsl 15 128 0 1 0 0 empty empty empty 0 -9 0 10 -262144
-1 -1 0 1;
#X obj 166 87 vsl 15 128 0 1 0 0 empty empty empty 0 -9 0 10 -262144
-1 -1 0 1;
#X obj 195 87 vsl 15 128 0 1 0 0 empty empty empty 0 -9 0 10 -262144
-1 -1 0 1;
#X obj 268 395 r volume;
#X obj 59 234 s ctrl1;
#X obj 116 234 s ctrl2;
#X obj 177 234 s ctrl3;
#X obj 235 234 s ctrl4;
#X obj 227 87 vsl 15 128 0 1 0 0 empty empty empty 0 -9 0 10 -262144
-1 -1 0 1;
#X obj 259 87 vsl 15 128 0 1 0 0 empty empty empty 0 -9 0 10 -262144
-1 -1 0 1;
#X obj 292 87 vsl 15 128 0 1 0 0 empty empty empty 0 -9 0 10 -262144
-1 -1 0 1;
#X obj 321 87 vsl 15 128 0 1 0 0 empty empty empty 0 -9 0 10 -262144
-1 -1 0 1;
#X obj 295 236 s ctrl5;
#X obj 352 236 s ctrl6;
#X obj 413 236 s ctrl7;
#X obj 472 236 s ctrl8;
#X obj 821 122 osccontroller 50555 239.100.100.100;
#X obj 830 438 ml_ann, f 13;
#X obj 582 467 unpack 0 0 0 0 0 0 0 0;
#X obj 567 512 s ctrl1;
#X obj 593 536 s ctrl2;
#X obj 629 564 s ctrl3;
#X obj 654 592 s ctrl4;
#X obj 675 509 s ctrl5;
#X obj 703 535 s ctrl6;
#X obj 729 561 s ctrl7;
#X obj 757 592 s ctrl8;
#X obj 985 316 r sensors;
#X obj 718 368 gate 6 1, f 38;
#X obj 718 292 r mapping_mode;
#X obj 719 331 + 1;
#X obj 821 56 init;
#X obj 995 76 r wifi_ready;
#X msg 995 101 listen 50555;
#X obj 10 10 declare -path ../_common;
#X text 577 64 synthesizer;
#X obj 821 78 oscsender;
#X obj 821 100 sensorread;
#X msg 459 28 \; pd dsp 1;
#N canvas 253 23 1128 769 testSynth 0;
#X obj 452 584 throw~ outL;
#X obj 562 582 throw~ outR;
#X obj 96 446 *~ 0;
#X obj 231 442 *~ 0;
#X obj 354 426 *~ 0;
#X obj 495 434 *~ 0;
#X obj 410 367 * 0.25;
#X obj 538 353 * 0.25;
#X obj 516 17 inlet;
#X obj 515 60 unpack 0 0 0 0 0 0 0 0;
#X obj 69 355 osc~ 232;
#X obj 204 351 osc~ 356;
#X obj 339 347 osc~ 473;
#X obj 468 343 osc~ 621;
#X obj 274 361 * 0.25;
#X obj 140 375 * 0.25;
#X obj 638 438 *~ 0;
#X obj 773 434 *~ 0;
#X obj 896 418 *~ 0;
#X obj 1037 426 *~ 0;
#X obj 952 359 * 0.25;
#X obj 1080 345 * 0.25;
#X obj 816 353 * 0.25;
#X obj 682 367 * 0.25;
#X obj 611 347 osc~ 732;
#X obj 746 343 osc~ 556;
#X obj 881 339 osc~ 373;
#X obj 1010 335 osc~ 211;
#X connect 2 0 0 0;
#X connect 2 0 1 0;
#X connect 3 0 0 0;
#X connect 3 0 1 0;
#X connect 4 0 0 0;
#X connect 4 0 1 0;
#X connect 5 0 0 0;
#X connect 5 0 1 0;
#X connect 6 0 4 1;
#X connect 7 0 5 1;
#X connect 8 0 9 0;
#X connect 9 0 15 0;
#X connect 9 1 14 0;
#X connect 9 2 6 0;
#X connect 9 3 7 0;
#X connect 9 4 23 0;
#X connect 9 5 22 0;
#X connect 9 6 20 0;
#X connect 9 7 21 0;
#X connect 10 0 2 0;
#X connect 11 0 3 0;
#X connect 12 0 4 0;
#X connect 13 0 5 0;
#X connect 14 0 3 1;
#X connect 15 0 2 1;
#X connect 16 0 1 0;
#X connect 16 0 0 0;
#X connect 17 0 1 0;
#X connect 17 0 0 0;
#X connect 18 0 1 0;
#X connect 18 0 0 0;
#X connect 19 0 1 0;
#X connect 19 0 0 0;
#X connect 20 0 18 1;
#X connect 21 0 19 1;
#X connect 22 0 17 1;
#X connect 23 0 16 1;
#X connect 24 0 16 0;
#X connect 25 0 17 0;
#X connect 26 0 18 0;
#X connect 27 0 19 0;
#X restore 798 516 pd testSynth;
#X connect 0 0 4 0;
#X connect 1 0 5 0;
#X connect 4 0 2 0;
#X connect 5 0 2 1;
#X connect 6 0 5 1;
#X connect 6 0 4 1;
#X connect 7 0 12 0;
#X connect 8 0 13 0;
#X connect 9 0 14 0;
#X connect 10 0 15 0;
#X connect 11 0 4 1;
#X connect 11 0 5 1;
#X connect 16 0 20 0;
#X connect 17 0 21 0;
#X connect 18 0 22 0;
#X connect 19 0 23 0;
#X connect 26 0 27 0;
#X connect 26 1 28 0;
#X connect 26 2 29 0;
#X connect 26 3 30 0;
#X connect 26 4 31 0;
#X connect 26 5 32 0;
#X connect 26 6 33 0;
#X connect 26 7 34 0;
#X connect 35 0 36 1;
#X connect 36 0 26 0;
#X connect 36 1 47 0;
#X connect 36 2 25 0;
#X connect 37 0 38 0;
#X connect 38 0 36 0;
#X connect 40 0 41 0;
#X connect 41 0 24 0;
