#N canvas 180 157 1488 901 12;
#X obj 79 687 catch~ outL;
#X obj 140 711 catch~ outR;
#X obj 93 789 dac~;
#X obj 1196 56 main;
#N canvas 496 271 1244 763 ml 0;
#X msg 812 255 help;
#X msg 805 166 mode 1;
#X msg 811 278 train;
#X msg 810 302 clear;
#X msg 703 578 train;
#X msg 872 206 num_hidden 7;
#X msg 873 230 min_epochs 300;
#X msg 872 255 max_epochs 400;
#X obj 90 553 s mlp;
#X obj 666 295 r mlp;
#X obj 396 158 spigot;
#X obj 610 88 abs;
#X obj 31 93 - 1;
#X text 50 73 training mode;
#X obj 533 227 list split 1;
#X obj 573 271 list trim;
#X obj 341 284 list prepend add;
#X obj 212 263 list split 1;
#X obj 341 306 list trim;
#X obj 573 249 list prepend map;
#X obj 466 355 s mlp;
#X obj 790 76 loadbang;
#X obj 30 74 tgl 15 0 empty empty empty 17 7 0 10 -262144 -1 -1 0 1
;
#X obj 32 24 inlet;
#X obj 187 28 inlet;
#X floatatom 188 81 5 0 0 0 - - -;
#X obj 243 27 inlet;
#X floatatom 242 80 5 0 0 0 - - -;
#X obj 271 664 outlet;
#X obj 334 665 outlet;
#X obj 557 145 unpack 1 1 1 1;
#X obj 533 205 pack 1 1 1 1 1;
#X obj 359 183 unpack 1 1 1 1;
#X obj 646 26 inlet;
#X msg 874 166 num_outputs 5;
#X text 27 47 toggle for mode training (1) map (0);
#X obj 293 26 inlet;
#X floatatom 292 79 5 0 0 0 - - -;
#X obj 342 26 inlet;
#X floatatom 342 79 5 0 0 0 - - -;
#X obj 391 26 inlet;
#X floatatom 390 79 5 0 0 0 - - -;
#X obj 363 614 unpack 1 1 1 1 1;
#X obj 392 665 outlet;
#X obj 455 666 outlet;
#X obj 514 665 outlet;
#X msg 151 490 write /Users/mikst/test3.data;
#X obj 192 238 pack 1 60 0.5 0.5 0.5 0.5 516 516 516 516;
#X obj 666 334 ml.ann;
#X obj 703 603 s mlp;
#X obj 705 404 route read train;
#X obj 759 445 sel 0 1;
#X obj 790 100 t b b;
#X obj 705 429 sel 1;
#X obj 761 576 timer;
#X obj 761 602 print trained in;
#X obj 703 553 t b b;
#X obj 719 518 bng 15 250 50 0 empty empty empty 17 7 0 10 -262144
-1 -1;
#X msg 103 421 read /Users/inx/Documents/_bela/test3.data;
#X msg 117 450 read /Users/inx/Documents/_bela/test2.data;
#X obj 720 380 print ann;
#X obj 556 118 spigot 1;
#X obj 527 173 t b;
#X obj 193 209 t b;
#X msg 42 383 read /root/training.data;
#X obj 723 168 delay 1000;
#X obj 946 639 outlet;
#X connect 0 0 48 0;
#X connect 1 0 48 0;
#X connect 2 0 48 0;
#X connect 3 0 48 0;
#X connect 4 0 49 0;
#X connect 9 0 48 0;
#X connect 10 0 32 0;
#X connect 11 0 61 1;
#X connect 12 0 11 0;
#X connect 14 1 19 0;
#X connect 15 0 20 0;
#X connect 16 0 18 0;
#X connect 17 1 16 0;
#X connect 18 0 20 0;
#X connect 19 0 15 0;
#X connect 21 0 52 0;
#X connect 22 0 12 0;
#X connect 22 0 10 1;
#X connect 23 0 22 0;
#X connect 24 0 25 0;
#X connect 25 0 47 1;
#X connect 26 0 27 0;
#X connect 27 0 47 2;
#X connect 30 0 31 1;
#X connect 30 0 62 0;
#X connect 30 1 31 2;
#X connect 30 2 31 3;
#X connect 30 3 31 4;
#X connect 31 0 14 0;
#X connect 32 0 47 6;
#X connect 32 0 63 0;
#X connect 32 1 47 7;
#X connect 32 2 47 8;
#X connect 32 3 47 9;
#X connect 33 0 10 0;
#X connect 33 0 61 0;
#X connect 34 0 48 0;
#X connect 36 0 37 0;
#X connect 37 0 47 3;
#X connect 38 0 39 0;
#X connect 39 0 47 4;
#X connect 40 0 41 0;
#X connect 41 0 47 5;
#X connect 42 0 28 0;
#X connect 42 1 29 0;
#X connect 42 2 43 0;
#X connect 42 3 44 0;
#X connect 42 4 45 0;
#X connect 46 0 8 0;
#X connect 47 0 17 0;
#X connect 48 0 42 0;
#X connect 48 1 50 0;
#X connect 48 1 60 0;
#X connect 50 0 53 0;
#X connect 50 1 51 0;
#X connect 51 1 54 1;
#X connect 51 1 66 0;
#X connect 52 0 65 0;
#X connect 52 1 1 0;
#X connect 52 1 34 0;
#X connect 53 0 56 0;
#X connect 54 0 55 0;
#X connect 56 0 4 0;
#X connect 56 1 54 0;
#X connect 57 0 56 0;
#X connect 58 0 8 0;
#X connect 59 0 8 0;
#X connect 61 0 30 0;
#X connect 62 0 31 0;
#X connect 63 0 47 0;
#X connect 64 0 8 0;
#X connect 65 0 64 0;
#X restore 716 346 pd ml;
#X f 13;
#X obj 679 322 tgl 15 0 empty empty empty 17 7 0 10 -262144 -1 -1 0
1;
#X msg 603 229 train;
#X obj 603 256 s mlp;
#X obj 1009 670 spigot;
#X obj 1049 643 tgl 15 0 empty empty empty 17 7 0 10 -262144 -1 -1
0 1;
#X floatatom 481 461 5 0 0 0 - - -;
#X msg 604 204 clear;
#X obj 481 516 i;
#X obj 481 560 s res;
#X obj 713 131 r mnote;
#X floatatom 730 152 5 0 0 0 - - -;
#X floatatom 781 155 5 0 0 0 - - -;
#X floatatom 839 153 5 0 0 0 - - -;
#X floatatom 901 154 5 0 0 0 - - -;
#X floatatom 962 154 5 0 0 0 - - -;
#X obj 79 750 *~ 1;
#X obj 128 752 *~ 1;
#X msg 251 720 1;
#X msg 913 403 1;
#X obj 932 302 delay 1000;
#X obj 529 477 change;
#X obj 92 26 vsl 15 128 0 1 0 0 empty empty empty 0 -9 0 10 -262144
-1 -1 0 1;
#X obj 124 26 vsl 15 128 0 1 0 0 empty empty empty 0 -9 0 10 -262144
-1 -1 0 1;
#X obj 157 26 vsl 15 128 0 1 0 0 empty empty empty 0 -9 0 10 -262144
-1 -1 0 1;
#X obj 186 26 vsl 15 128 0 1 0 0 empty empty empty 0 -9 0 10 -262144
-1 -1 0 1;
#X obj 970 582 tgl 15 0 empty empty empty 17 7 0 10 -262144 -1 -1 0
1;
#X obj 211 668 r volume;
#X obj 1049 615 r ml_sensor;
#X obj 679 297 r ml_train;
#X obj 1203 504 osccontroller 50555;
#N canvas 0 23 1171 677 init 0;
#X obj 96 44 loadbang;
#X obj 210 126 delay 100;
#X obj 246 61 bng 15 250 50 0 empty empty empty 17 7 0 10 -262144 -1
-1;
#X obj 211 150 t b b b b;
#X msg 231 195 0.6;
#X msg 211 173 0.165;
#X msg 271 240 0.7;
#X msg 251 217 0.5;
#X obj 181 257 s ctrl1;
#X obj 207 281 s ctrl2;
#X obj 243 309 s ctrl3;
#X obj 283 335 s ctrl4;
#X obj 400 308 s ctrl5;
#X obj 426 332 s ctrl6;
#X obj 462 360 s ctrl7;
#X obj 502 386 s ctrl8;
#X connect 0 0 1 0;
#X connect 1 0 3 0;
#X connect 2 0 1 0;
#X connect 3 0 5 0;
#X connect 3 1 4 0;
#X connect 3 2 7 0;
#X connect 3 3 6 0;
#X connect 4 0 9 0;
#X connect 5 0 8 0;
#X connect 6 0 11 0;
#X connect 7 0 10 0;
#X restore 1197 103 pd init;
#N canvas 317 500 472 437 sensorRead 0;
#X obj 329 62 tgl 15 0 empty empty empty 17 7 0 10 -262144 -1 -1 1
1;
#X obj 155 181 snapshot~;
#X obj 182 203 snapshot~;
#X obj 209 228 snapshot~;
#X obj 240 253 snapshot~;
#X obj 329 80 metro 100;
#X obj 32 86 adc~ 3 4 5 6 7 8 9 10;
#X obj 32 169 snapshot~;
#X obj 59 191 snapshot~;
#X obj 86 216 snapshot~;
#X obj 117 241 snapshot~;
#X obj 32 313 pack 0 0 0 0 0 0 0 0;
#X obj 329 102 t b b;
#X obj 32 363 s sensors;
#X obj 329 40 r sensor_on;
#X obj 282 17 loadbang;
#X msg 282 43 1;
#X connect 0 0 5 0;
#X connect 1 0 11 4;
#X connect 2 0 11 5;
#X connect 3 0 11 6;
#X connect 4 0 11 7;
#X connect 5 0 12 0;
#X connect 6 0 7 0;
#X connect 6 1 8 0;
#X connect 6 2 9 0;
#X connect 6 3 10 0;
#X connect 6 4 1 0;
#X connect 6 5 2 0;
#X connect 6 6 3 0;
#X connect 6 7 4 0;
#X connect 7 0 11 0;
#X connect 8 0 11 1;
#X connect 9 0 11 2;
#X connect 10 0 11 3;
#X connect 11 0 13 0;
#X connect 12 0 7 0;
#X connect 12 1 4 0;
#X connect 12 1 3 0;
#X connect 12 1 2 0;
#X connect 12 1 1 0;
#X connect 12 1 10 0;
#X connect 12 1 9 0;
#X connect 12 1 8 0;
#X connect 14 0 0 0;
#X connect 15 0 16 0;
#X connect 16 0 0 0;
#X restore 1194 288 pd sensorRead;
#X obj 947 446 s ml_sensor;
#N canvas 240 108 1231 830 sendSensorsOSC 0;
#X msg 446 438 disconnect;
#X obj 269 531 netsend -u -b;
#X obj 269 393 list prepend send;
#X obj 269 424 list trim;
#X obj 423 57 loadbang;
#X text 989 546 IPv4 multicast;
#X msg 784 546 connect 239.200.200.200 5555;
#X obj 151 560 print netsend;
#X obj 415 730 print netsend1;
#X obj 251 563 tgl 15 0 empty empty empty 17 7 0 10 -262144 -1 -1 1
1;
#X msg 784 574 connect 192.168.0.181 50555;
#X msg 785 514 connect localhost 50555;
#X obj 509 175 ipinfo;
#X msg 509 147 wlan0;
#X msg 568 145 en0;
#X obj 509 203 unpack s s;
#X obj 576 255 list prepend set;
#X obj 608 307 list trim;
#X obj 576 230 list append sensor;
#X obj 269 355 oscformat sensor;
#X obj 640 354 print ip_setting;
#X obj 269 650 delay 1000;
#X obj 269 590 sel 0 1;
#X obj 183 238 spigot;
#X msg 253 149 1;
#X obj 269 621 t b b;
#X obj 576 280 t b l;
#X obj 187 69 r sensors;
#X obj 730 69 r ctrl1;
#X obj 790 68 r ctrl2;
#X obj 848 69 r ctrl3;
#X obj 910 68 r ctrl4;
#X obj 968 69 r ctrl5;
#X obj 1028 68 r ctrl6;
#X obj 1086 69 r ctrl7;
#X obj 1148 68 r ctrl8;
#X obj 839 129 pack 0 0 0 0 0 0 0 0;
#X obj 974 178 spigot;
#X obj 1066 153 r log_control_values;
#X obj 973 219 print ctrl;
#X obj 824 280 spigot;
#X obj 916 255 r ctrl_send;
#X obj 232 116 r sensor_send;
#X obj 718 256 list prepend set;
#X obj 718 231 list append ctrl;
#X obj 720 286 list trim;
#X obj 825 364 list prepend send;
#X obj 825 395 list trim;
#X obj 825 326 oscformat ctrl;
#X obj 234 205 &&;
#X obj 253 173 t b a;
#X msg 441 407 connect 192.168.10.255 51555;
#X msg 101 310 2 3 4;
#X obj 472 620 print to_netsend;
#X connect 0 0 1 0;
#X connect 1 0 7 0;
#X connect 1 0 9 0;
#X connect 1 0 22 0;
#X connect 1 1 8 0;
#X connect 2 0 3 0;
#X connect 3 0 1 0;
#X connect 4 0 51 0;
#X connect 6 0 1 0;
#X connect 10 0 1 0;
#X connect 11 0 1 0;
#X connect 12 0 15 0;
#X connect 13 0 12 0;
#X connect 14 0 12 0;
#X connect 15 1 18 0;
#X connect 15 1 44 0;
#X connect 16 0 26 0;
#X connect 17 0 19 0;
#X connect 17 0 20 0;
#X connect 18 0 16 0;
#X connect 19 0 2 0;
#X connect 21 0 51 0;
#X connect 22 0 25 0;
#X connect 22 1 13 0;
#X connect 23 0 19 0;
#X connect 24 0 50 0;
#X connect 25 0 21 0;
#X connect 25 1 0 0;
#X connect 26 0 24 0;
#X connect 26 1 17 0;
#X connect 27 0 23 0;
#X connect 28 0 36 0;
#X connect 29 0 36 1;
#X connect 30 0 36 2;
#X connect 31 0 36 3;
#X connect 32 0 36 4;
#X connect 33 0 36 5;
#X connect 34 0 36 6;
#X connect 35 0 36 7;
#X connect 36 0 37 0;
#X connect 36 0 40 0;
#X connect 37 0 39 0;
#X connect 38 0 37 1;
#X connect 40 0 48 0;
#X connect 41 0 40 1;
#X connect 42 0 49 0;
#X connect 43 0 45 0;
#X connect 44 0 43 0;
#X connect 45 0 48 0;
#X connect 46 0 47 0;
#X connect 47 0 1 0;
#X connect 48 0 46 0;
#X connect 49 0 23 1;
#X connect 50 0 49 0;
#X connect 50 1 49 1;
#X connect 51 0 1 0;
#X connect 51 0 53 0;
#X connect 52 0 19 0;
#X restore 1196 315 pd sendSensorsOSC;
#X obj 873 713 unpack 0 0 0 0 0 0 0 0;
#X obj 1117 558 r sensors;
#X obj 50 173 s ctrl1;
#X obj 107 173 s ctrl2;
#X obj 168 173 s ctrl3;
#X obj 226 173 s ctrl4;
#X obj 771 132 r ctrl1;
#X obj 831 131 r ctrl2;
#X obj 889 132 r ctrl3;
#X obj 951 131 r ctrl4;
#X obj 591 477 s ctrl1;
#X obj 654 477 s ctrl2;
#X obj 721 477 s ctrl3;
#X obj 784 477 s ctrl4;
#X obj 858 758 s ctrl1;
#X obj 884 782 s ctrl2;
#X obj 920 810 s ctrl3;
#X obj 945 838 s ctrl4;
#X obj 970 605 switch;
#X obj 960 410 tgl 15 0 empty empty empty 17 7 0 10 -262144 -1 -1 0
1;
#X obj 970 548 r sensor_or_ctrl;
#X obj 948 474 s sensor_on;
#N canvas 198 85 690 706 keys 0;
#X obj 134 323 pack;
#X msg 125 148 61;
#X msg 146 174 62;
#X msg 165 147 63;
#X msg 186 173 64;
#X msg 225 174 65;
#X msg 250 147 66;
#X msg 272 173 67;
#X msg 290 146 68;
#X msg 312 173 69;
#X msg 331 145 70;
#X msg 352 172 71;
#X msg 391 172 72;
#X msg 416 145 73;
#X msg 437 171 74;
#X msg 456 146 75;
#X msg 477 170 76;
#X msg 516 171 77;
#X msg 541 144 78;
#X msg 563 170 79;
#X msg 581 143 80;
#X msg 603 170 81;
#X msg 622 142 82;
#X msg 643 169 83;
#X obj 108 68 key;
#X floatatom 54 114 5 0 0 0 - - -;
#X obj 107 90 spigot;
#X obj 159 91 tgl 15 0 empty empty empty 17 7 0 10 -262144 -1 -1 0
1;
#X obj 97 114 sel 97 119 115 101 100;
#X obj 134 294 makenote 3 500;
#X msg 100 175 60;
#X obj 37 244 r res;
#X obj 141 216 pack 60 60;
#X obj 36 269 pack 60 60;
#X obj 159 451 outlet;
#X connect 0 0 34 0;
#X connect 1 0 32 0;
#X connect 2 0 32 0;
#X connect 3 0 32 0;
#X connect 4 0 32 0;
#X connect 5 0 32 0;
#X connect 6 0 32 0;
#X connect 7 0 32 0;
#X connect 8 0 32 0;
#X connect 9 0 32 0;
#X connect 10 0 32 0;
#X connect 11 0 32 0;
#X connect 12 0 32 0;
#X connect 13 0 32 0;
#X connect 14 0 32 0;
#X connect 15 0 32 0;
#X connect 16 0 32 0;
#X connect 17 0 32 0;
#X connect 18 0 32 0;
#X connect 19 0 32 0;
#X connect 20 0 32 0;
#X connect 21 0 32 0;
#X connect 22 0 32 0;
#X connect 23 0 32 0;
#X connect 24 0 25 0;
#X connect 24 0 26 0;
#X connect 26 0 28 0;
#X connect 27 0 26 1;
#X connect 28 0 30 0;
#X connect 28 1 1 0;
#X connect 28 2 2 0;
#X connect 28 3 3 0;
#X connect 28 4 4 0;
#X connect 29 0 0 0;
#X connect 29 1 0 1;
#X connect 30 0 32 0;
#X connect 31 0 33 0;
#X connect 32 0 29 0;
#X connect 33 0 29 0;
#X restore 1195 159 pd keys;
#X obj 1171 201 s notes;
#X obj 1251 192 unpack 1 1;
#X obj 1250 217 s mnote;
#X obj 218 26 vsl 15 128 0 1 0 0 empty empty empty 0 -9 0 10 -262144
-1 -1 0 1;
#X obj 250 26 vsl 15 128 0 1 0 0 empty empty empty 0 -9 0 10 -262144
-1 -1 0 1;
#X obj 283 26 vsl 15 128 0 1 0 0 empty empty empty 0 -9 0 10 -262144
-1 -1 0 1;
#X obj 312 26 vsl 15 128 0 1 0 0 empty empty empty 0 -9 0 10 -262144
-1 -1 0 1;
#X obj 168 219 s ctrl5;
#X obj 225 219 s ctrl6;
#X obj 286 219 s ctrl7;
#X obj 345 219 s ctrl8;
#X connect 0 0 20 0;
#X connect 1 0 21 0;
#X connect 4 0 25 0;
#X connect 4 1 49 0;
#X connect 4 2 50 0;
#X connect 4 3 51 0;
#X connect 4 4 52 0;
#X connect 4 5 23 0;
#X connect 5 0 4 0;
#X connect 6 0 7 0;
#X connect 8 0 4 6;
#X connect 9 0 8 1;
#X connect 10 0 12 0;
#X connect 11 0 7 0;
#X connect 12 0 13 0;
#X connect 14 0 4 1;
#X connect 14 0 15 0;
#X connect 20 0 2 0;
#X connect 21 0 2 1;
#X connect 22 0 21 1;
#X connect 22 0 20 1;
#X connect 23 0 37 0;
#X connect 24 0 23 0;
#X connect 25 0 12 0;
#X connect 26 0 41 0;
#X connect 27 0 42 0;
#X connect 28 0 43 0;
#X connect 29 0 44 0;
#X connect 30 0 57 0;
#X connect 31 0 20 1;
#X connect 31 0 21 1;
#X connect 32 0 9 0;
#X connect 33 0 5 0;
#X connect 39 0 53 0;
#X connect 39 1 54 0;
#X connect 39 2 55 0;
#X connect 39 3 56 0;
#X connect 40 0 57 1;
#X connect 45 0 4 2;
#X connect 45 0 16 0;
#X connect 46 0 4 3;
#X connect 46 0 17 0;
#X connect 47 0 4 4;
#X connect 47 0 18 0;
#X connect 48 0 4 5;
#X connect 48 0 19 0;
#X connect 57 0 39 0;
#X connect 57 1 8 0;
#X connect 58 0 37 0;
#X connect 59 0 30 0;
#X connect 61 0 62 0;
#X connect 61 0 63 0;
#X connect 63 0 64 0;
#X connect 65 0 69 0;
#X connect 66 0 70 0;
#X connect 67 0 71 0;
#X connect 68 0 72 0;
