#N canvas 686 343 1125 798 10;
#X obj 266 449 throw~ outL;
#X obj 376 447 throw~ outR;
#X obj 77 51 r notes;
#X obj 222 156 osc~ 1000;
#X obj 220 88 * 500;
#X obj 220 116 + 100;
#X obj 249 247 *~ 0;
#X obj 410 156 osc~ 1000;
#X obj 408 88 * 500;
#X obj 408 116 + 100;
#X obj 437 247 *~ 0;
#X obj 293 176 * 0.5;
#X obj 480 166 * 0.5;
#X obj 218 53 r ctrl1;
#X obj 306 53 r ctrl2;
#X obj 398 53 r ctrl3;
#X obj 497 53 r ctrl4;
#X obj 587 53 r ctrl5;
#X obj 675 53 r ctrl6;
#X obj 767 53 r ctrl7;
#X obj 866 53 r ctrl8;
#X connect 3 0 6 0;
#X connect 4 0 5 0;
#X connect 5 0 3 0;
#X connect 6 0 0 0;
#X connect 6 0 1 0;
#X connect 7 0 10 0;
#X connect 8 0 9 0;
#X connect 9 0 7 0;
#X connect 10 0 0 0;
#X connect 10 0 1 0;
#X connect 11 0 6 1;
#X connect 12 0 10 1;
#X connect 13 0 4 0;
#X connect 14 0 11 0;
#X connect 15 0 8 0;
#X connect 16 0 12 0;
