#N canvas 4 23 1348 816 12;
#X msg 812 255 help;
#X msg 805 166 mode 1;
#X msg 811 278 train;
#X msg 459 253 clear;
#X msg 791 594 train;
#X msg 993 112 num_hidden 7;
#X msg 994 136 min_epochs 300;
#X msg 993 161 max_epochs 400;
#X obj 51 461 s mlp;
#X obj 977 291 r mlp;
#X obj 572 205 list trim;
#X obj 125 234 list prepend add;
#X obj 125 256 list trim;
#X obj 572 183 list prepend map;
#X obj 790 76 loadbang;
#X obj 557 11 inlet;
#X msg 154 415 write /Users/mikst/test3.data;
#X obj 666 334 ml.ann;
#X obj 791 619 s mlp;
#X obj 793 420 route read train;
#X obj 847 461 sel 0 1;
#X obj 790 100 t b b;
#X obj 793 445 sel 1;
#X obj 849 618 print trained in;
#X obj 791 569 t b b;
#X obj 807 534 bng 15 250 50 0 empty empty empty 17 7 0 10 -262144
-1 -1;
#X msg 125 355 read /Users/inx/Documents/_bela/test3.data;
#X msg 139 384 read /Users/inx/Documents/_bela/test2.data;
#X obj 808 396 print ann;
#X msg 1031 376 write /root/training.data;
#X msg 976 349 read /root/training.data;
#X obj 976 322 route read write;
#X msg 874 166 num_outputs 8;
#X obj 383 29 r ml_mode;
#X obj 383 55 + 1;
#X obj 50 27 r t_ctrl1;
#X obj 73 49 r t_ctrl2;
#X obj 94 73 r t_ctrl3;
#X obj 114 97 r t_ctrl4;
#X obj 160 27 r t_ctrl5;
#X obj 177 49 r t_ctrl6;
#X obj 197 72 r t_ctrl7;
#X obj 210 96 r t_ctrl8;
#X obj 125 205 list prepend;
#X obj 28 100 loadbang;
#X obj 57 135 pak 0 0 0 0 0 0 0 0;
#X obj 849 592 realtime;
#X msg 848 504 1;
#X obj 500 100 gate 2 1;
#X obj 436 200 sel 1 0;
#X obj 351 138 tgl 15 0 empty empty empty 17 7 0 10 -262144 -1 -1 0
1;
#X obj 351 111 r ml_sensor;
#X obj 352 160 gate;
#X obj 571 159 gate;
#X obj 541 534 unpack 0 0 0 0 0 0 0 0;
#X obj 526 579 s ctrl1;
#X obj 552 603 s ctrl2;
#X obj 588 631 s ctrl3;
#X obj 613 659 s ctrl4;
#X obj 634 576 s ctrl5;
#X obj 662 602 s ctrl6;
#X obj 688 628 s ctrl7;
#X obj 716 659 s ctrl8;
#X connect 0 0 17 0;
#X connect 1 0 17 0;
#X connect 2 0 17 0;
#X connect 3 0 17 0;
#X connect 4 0 18 0;
#X connect 9 0 31 0;
#X connect 10 0 17 0;
#X connect 11 0 12 0;
#X connect 12 0 17 0;
#X connect 13 0 10 0;
#X connect 14 0 21 0;
#X connect 15 0 48 1;
#X connect 16 0 8 0;
#X connect 17 0 54 0;
#X connect 17 1 19 0;
#X connect 17 1 28 0;
#X connect 19 0 22 0;
#X connect 19 1 20 0;
#X connect 20 1 46 1;
#X connect 20 1 47 0;
#X connect 21 0 30 0;
#X connect 21 1 1 0;
#X connect 21 1 32 0;
#X connect 22 0 24 0;
#X connect 24 0 4 0;
#X connect 24 1 46 0;
#X connect 25 0 24 0;
#X connect 26 0 8 0;
#X connect 27 0 8 0;
#X connect 29 0 17 0;
#X connect 30 0 17 0;
#X connect 31 0 30 0;
#X connect 31 1 29 0;
#X connect 31 2 17 0;
#X connect 32 0 17 0;
#X connect 33 0 34 0;
#X connect 33 0 49 0;
#X connect 34 0 48 0;
#X connect 35 0 45 0;
#X connect 36 0 45 1;
#X connect 37 0 45 2;
#X connect 38 0 45 3;
#X connect 39 0 45 4;
#X connect 40 0 45 5;
#X connect 41 0 45 6;
#X connect 42 0 45 7;
#X connect 43 0 11 0;
#X connect 44 0 45 0;
#X connect 45 0 43 1;
#X connect 46 0 23 0;
#X connect 47 0 53 0;
#X connect 48 0 53 1;
#X connect 48 1 52 1;
#X connect 49 0 3 0;
#X connect 50 0 52 0;
#X connect 51 0 50 0;
#X connect 52 0 43 0;
#X connect 53 0 13 0;
#X connect 54 0 55 0;
#X connect 54 1 56 0;
#X connect 54 2 57 0;
#X connect 54 3 58 0;
#X connect 54 4 59 0;
#X connect 54 5 60 0;
#X connect 54 6 61 0;
#X connect 54 7 62 0;
