#N canvas 190 58 1232 758 12;
#X obj 27 77 oscparse;
#X obj 27 20 inlet;
#X obj 70 467 int;
#X obj 121 465 int;
#X obj 172 603 s mlp;
#X obj 110 199 route volume;
#X obj 274 467 t b;
#X msg 274 490 train;
#X obj 74 161 route ml audio sensor ctrl, f 63;
#X obj 110 227 f;
#X obj 110 255 s volume;
#X obj 436 480 f;
#X obj 486 480 f;
#X obj 536 480 f;
#X obj 586 480 f;
#X obj 120 637 s ml_sensor;
#X obj 436 514 s ctrl1;
#X obj 497 514 s ctrl2;
#X obj 557 514 s ctrl3;
#X obj 621 514 s ctrl4;
#X obj 684 479 f;
#X obj 734 479 f;
#X obj 784 479 f;
#X obj 834 479 f;
#X obj 684 513 s ctrl5;
#X obj 745 513 s ctrl6;
#X obj 805 513 s ctrl7;
#X obj 869 513 s ctrl8;
#X obj 988 22 loadbang;
#X obj 988 45 i \$1;
#X obj 988 116 print controller listen on port;
#X obj 27 107 list trim;
#X obj 970 564 s log_control_values;
#X obj 970 527 i;
#X obj 436 446 route ctrl1 ctrl2 ctrl3 ctrl4 ctrl5 ctrl6 ctrl7 ctrl8
;
#X obj 266 237 i;
#X obj 266 305 s sensor_on;
#X obj 941 447 route log send;
#X obj 1017 515 s ctrl_send;
#X obj 1017 487 i;
#X obj 307 265 s sensor_send;
#X obj 306 242 i;
#X obj 28 49 netreceive -u -b \$1 \$2;
#X obj 531 254 route osc_log;
#X obj 531 280 i;
#X obj 572 322 print osccontroller;
#X obj 479 302 spigot 1;
#X obj 562 283 tgl 15 0 empty empty empty 17 7 0 10 -262144 -1 -1 0
1;
#X msg 172 466 write;
#X msg 223 467 read;
#X text 67 691 0 map 1 train;
#X obj 68 665 s ml_mode;
#X obj 70 436 route mode sensor write read train, f 37;
#X obj 988 68 list append \$2;
#X obj 988 93 list trim;
#X obj 405 539 s t_ctrl1;
#X obj 467 562 s t_ctrl2;
#X obj 526 539 s t_ctrl3;
#X obj 590 570 s t_ctrl4;
#X obj 653 538 s t_ctrl5;
#X obj 714 570 s t_ctrl6;
#X obj 774 538 s t_ctrl7;
#X obj 838 566 s t_ctrl8;
#X obj 530 160 route system mode;
#X obj 588 187 i;
#X obj 587 211 s mapping_mode;
#X obj 266 208 route on send;
#X connect 0 0 31 0;
#X connect 1 0 42 0;
#X connect 2 0 51 0;
#X connect 3 0 15 0;
#X connect 5 0 9 0;
#X connect 6 0 7 0;
#X connect 7 0 4 0;
#X connect 8 0 52 0;
#X connect 8 1 5 0;
#X connect 8 2 66 0;
#X connect 8 3 34 0;
#X connect 8 4 63 0;
#X connect 9 0 10 0;
#X connect 11 0 16 0;
#X connect 11 0 55 0;
#X connect 12 0 17 0;
#X connect 12 0 56 0;
#X connect 13 0 18 0;
#X connect 13 0 57 0;
#X connect 14 0 19 0;
#X connect 14 0 58 0;
#X connect 20 0 24 0;
#X connect 20 0 59 0;
#X connect 21 0 25 0;
#X connect 21 0 60 0;
#X connect 22 0 26 0;
#X connect 22 0 61 0;
#X connect 23 0 27 0;
#X connect 23 0 62 0;
#X connect 28 0 29 0;
#X connect 29 0 53 0;
#X connect 31 0 8 0;
#X connect 31 0 46 0;
#X connect 33 0 32 0;
#X connect 34 0 11 0;
#X connect 34 1 12 0;
#X connect 34 2 13 0;
#X connect 34 3 14 0;
#X connect 34 4 20 0;
#X connect 34 5 21 0;
#X connect 34 6 22 0;
#X connect 34 7 23 0;
#X connect 34 8 37 0;
#X connect 35 0 36 0;
#X connect 37 0 33 0;
#X connect 37 1 39 0;
#X connect 39 0 38 0;
#X connect 41 0 40 0;
#X connect 42 0 0 0;
#X connect 43 0 44 0;
#X connect 44 0 46 1;
#X connect 46 0 45 0;
#X connect 47 0 46 1;
#X connect 48 0 4 0;
#X connect 49 0 4 0;
#X connect 52 0 2 0;
#X connect 52 1 3 0;
#X connect 52 2 48 0;
#X connect 52 3 49 0;
#X connect 52 4 6 0;
#X connect 53 0 54 0;
#X connect 54 0 30 0;
#X connect 63 0 43 0;
#X connect 63 1 64 0;
#X connect 64 0 65 0;
#X connect 66 0 35 0;
#X connect 66 1 41 0;
