#N canvas 410 289 1462 754 12;
#X declare -path ../_common;
#X msg 365 575 disconnect;
#X obj 183 608 netsend -u -b;
#X obj 50 638 print netsend;
#X obj 301 634 print netsend1;
#X obj 150 641 tgl 15 0 empty empty empty 17 7 0 10 -262144 -1 -1 0
1;
#X obj 183 697 delay 1000;
#X obj 183 637 sel 0 1;
#X obj 183 668 t b b;
#X msg 511 35 1, f 5;
#X obj 183 295 pack 0 0 0 0 0 0 0 0;
#X obj 43 115 t b b;
#X obj 255 107 metro 1000;
#X obj 43 180 rndwalk;
#X obj 112 182 rndwalk;
#X obj 182 182 rndwalk;
#X obj 251 184 rndwalk;
#X obj 319 181 rndwalk;
#X obj 388 183 rndwalk;
#X obj 458 183 rndwalk;
#X obj 527 185 rndwalk;
#X obj 43 89 metro 20;
#X msg 484 581 connect 192.168.178.255 51555;
#X msg 362 541 connect 239.200.200.200 51555;
#X obj 183 500 oscformat sensor;
#X obj 62 422 r sensors;
#X obj 728 295 s sensor_on;
#X msg 728 269 1;
#X obj 963 57 init;
#X obj 778 59 r my_id;
#X obj 876 59 r my_ip;
#X obj 1051 317 symbol;
#N canvas 317 500 705 643 sensorRead 0;
#X obj 544 139 tgl 15 0 empty empty empty 17 7 0 10 -262144 -1 -1 0
1;
#X obj 180 306 snapshot~;
#X obj 207 328 snapshot~;
#X obj 234 353 snapshot~;
#X obj 265 378 snapshot~;
#X obj 58 32 adc~ 3 4 5 6 7 8 9 10;
#X obj 57 294 snapshot~;
#X obj 84 316 snapshot~;
#X obj 111 341 snapshot~;
#X obj 142 366 snapshot~;
#X obj 57 438 pack 0 0 0 0 0 0 0 0;
#X obj 544 179 t b b;
#X obj 57 488 s sensors;
#X obj 544 117 r sensor_on;
#X obj 544 157 metro 20;
#X obj 203 132 average~ 3000;
#X obj 238 155 average~ 3000;
#X obj 175 107 average~ 3000;
#X obj 141 83 average~ 3000;
#X obj 109 171 average~ 3000;
#X obj 144 194 average~ 3000;
#X obj 81 146 average~ 3000;
#X obj 47 122 average~ 3000;
#X msg 392 128 rms;
#X connect 0 0 14 0;
#X connect 1 0 10 4;
#X connect 2 0 10 5;
#X connect 3 0 10 6;
#X connect 4 0 10 7;
#X connect 5 0 22 0;
#X connect 5 1 21 0;
#X connect 5 2 19 0;
#X connect 5 3 20 0;
#X connect 5 4 18 0;
#X connect 5 5 17 0;
#X connect 5 6 15 0;
#X connect 5 7 16 0;
#X connect 6 0 10 0;
#X connect 7 0 10 1;
#X connect 8 0 10 2;
#X connect 9 0 10 3;
#X connect 10 0 12 0;
#X connect 11 0 6 0;
#X connect 11 1 4 0;
#X connect 11 1 3 0;
#X connect 11 1 2 0;
#X connect 11 1 1 0;
#X connect 11 1 9 0;
#X connect 11 1 8 0;
#X connect 11 1 7 0;
#X connect 13 0 0 0;
#X connect 14 0 11 0;
#X connect 15 0 3 0;
#X connect 16 0 4 0;
#X connect 17 0 2 0;
#X connect 18 0 1 0;
#X connect 19 0 8 0;
#X connect 20 0 9 0;
#X connect 21 0 7 0;
#X connect 22 0 6 0;
#X connect 23 0 16 0;
#X connect 23 0 15 0;
#X connect 23 0 17 0;
#X connect 23 0 18 0;
#X restore 963 79 pd sensorRead;
#X obj 665 244 route p1 p2 p3;
#X obj 817 110 symbol;
#X obj 646 293 t b;
#X msg 282 463 set \$1 sensor;
#X obj 982 442 oscformat ip;
#X obj 947 301 bng 15 250 50 0 empty empty empty 17 7 0 10 -262144
-1 -1;
#X obj 945 356 del 100;
#X obj 183 556 list prepend send;
#X obj 183 581 list trim;
#X obj 882 339 r send_ip;
#X obj 1080 57 r wifi_ready;
#X obj 1080 107 osccontroller;
#X obj 981 414 pack s s;
#X obj 981 390 symbol;
#X msg 1080 82 listen 50555;
#X obj 882 371 t b;
#X obj 10 10 declare -path ../_common;
#X connect 0 0 1 0;
#X connect 1 0 2 0;
#X connect 1 0 4 0;
#X connect 1 0 6 0;
#X connect 1 1 3 0;
#X connect 5 0 22 0;
#X connect 6 0 7 0;
#X connect 6 1 38 0;
#X connect 7 0 5 0;
#X connect 7 1 0 0;
#X connect 8 0 11 0;
#X connect 8 0 20 0;
#X connect 9 0 23 0;
#X connect 10 0 12 0;
#X connect 10 1 13 0;
#X connect 10 1 14 0;
#X connect 10 1 15 0;
#X connect 10 1 16 0;
#X connect 10 1 17 0;
#X connect 10 1 18 0;
#X connect 10 1 19 0;
#X connect 11 0 12 1;
#X connect 11 0 19 1;
#X connect 11 0 18 1;
#X connect 11 0 17 1;
#X connect 11 0 16 1;
#X connect 11 0 15 1;
#X connect 11 0 14 1;
#X connect 11 0 13 1;
#X connect 12 0 9 0;
#X connect 13 0 9 1;
#X connect 14 0 9 2;
#X connect 15 0 9 3;
#X connect 16 0 9 4;
#X connect 17 0 9 5;
#X connect 18 0 9 6;
#X connect 19 0 9 7;
#X connect 20 0 10 0;
#X connect 21 0 1 0;
#X connect 22 0 1 0;
#X connect 23 0 39 0;
#X connect 24 0 23 0;
#X connect 26 0 25 0;
#X connect 28 0 32 0;
#X connect 28 0 33 0;
#X connect 29 0 30 0;
#X connect 30 0 44 1;
#X connect 32 0 8 0;
#X connect 32 0 34 0;
#X connect 32 1 8 0;
#X connect 32 1 34 0;
#X connect 32 2 26 0;
#X connect 32 2 34 0;
#X connect 33 0 35 0;
#X connect 33 0 45 1;
#X connect 34 0 22 0;
#X connect 35 0 23 0;
#X connect 36 0 39 0;
#X connect 37 0 45 0;
#X connect 38 0 45 0;
#X connect 39 0 40 0;
#X connect 40 0 1 0;
#X connect 41 0 47 0;
#X connect 42 0 46 0;
#X connect 44 0 36 0;
#X connect 45 0 44 0;
#X connect 46 0 43 0;
#X connect 47 0 45 0;
