#N canvas 315 229 1470 844 12;
#X msg 365 575 disconnect;
#X obj 183 608 netsend -u -b;
#X obj 183 538 list prepend send;
#X obj 183 569 list trim;
#X obj 50 638 print netsend;
#X obj 301 634 print netsend1;
#X obj 150 641 tgl 15 0 empty empty empty 17 7 0 10 -262144 -1 -1 0
1;
#X obj 183 697 delay 1000;
#X obj 183 637 sel 0 1;
#X obj 183 668 t b b;
#X obj 731 81 loadbang;
#X msg 511 35 1, f 5;
#X obj 183 295 pack 0 0 0 0 0 0 0 0;
#X obj 43 115 t b b;
#X obj 255 107 metro 1000;
#X obj 43 180 rndwalk;
#X obj 112 182 rndwalk;
#X obj 182 182 rndwalk;
#X obj 251 184 rndwalk;
#X obj 319 181 rndwalk;
#X obj 388 183 rndwalk;
#X obj 458 183 rndwalk;
#X obj 527 185 rndwalk;
#X obj 43 89 metro 20;
#X msg 484 581 connect 192.168.178.255 51555;
#X msg 362 541 connect 239.200.200.200 51555;
#X obj 732 132 metro 1000;
#X msg 731 105 1;
#X msg 839 103 0;
#X obj 760 350 ether;
#X msg 760 323 wlan0;
#X obj 760 434 t b;
#X msg 934 238 symbol C8:3A:35:C2:AE:42;
#X obj 760 381 list trim;
#X obj 183 500 oscformat sensor;
#X obj 896 433 t b;
#X obj 1130 490 print unknown mac-address, f 14;
#X obj 1130 460 t b;
#X obj 282 415 list append sensor;
#X obj 282 442 list prepend set;
#X obj 282 469 list trim;
#X obj 783 564 print ID;
#X obj 760 495 t b a b;
#X msg 760 459 p1;
#X msg 896 458 p2;
#X obj 760 407 route C8:3A:35:C2:AE:42 1C:BF:CE:0D:61:80 1C:BF:CE:0D:61:62
;
#X msg 919 310 1C:BF:CE:0D:61:62;
#X text 1114 239 ingo;
#X text 1054 310 mika;
#X msg 940 279 1C:BF:CE:0D:61:80;
#X text 1070 278 edge1;
#X obj 1033 433 t b;
#X msg 1033 458 p3;
#X obj 464 349 unpack s s;
#X obj 531 401 list prepend set;
#X obj 563 453 list trim;
#X obj 531 376 list append sensor;
#X obj 531 426 t b l;
#X obj 750 203 ipinfo;
#X msg 750 175 wlan0;
#X msg 809 173 en0;
#X obj 751 253 t b b;
#X obj 765 288 delay 500;
#N canvas 317 500 705 643 sensorRead 0;
#X obj 544 139 tgl 15 0 empty empty empty 17 7 0 10 -262144 -1 -1 0
1;
#X obj 180 306 snapshot~;
#X obj 207 328 snapshot~;
#X obj 234 353 snapshot~;
#X obj 265 378 snapshot~;
#X obj 58 32 adc~ 3 4 5 6 7 8 9 10;
#X obj 57 294 snapshot~;
#X obj 84 316 snapshot~;
#X obj 111 341 snapshot~;
#X obj 142 366 snapshot~;
#X obj 57 438 pack 0 0 0 0 0 0 0 0;
#X obj 544 179 t b b;
#X obj 57 488 s sensors;
#X obj 544 117 r sensor_on;
#X obj 544 157 metro 20;
#X obj 395 55 loadbang;
#X obj 203 132 average~ 3000;
#X obj 238 155 average~ 3000;
#X obj 175 107 average~ 3000;
#X obj 141 83 average~ 3000;
#X obj 109 171 average~ 3000;
#X obj 144 194 average~ 3000;
#X obj 81 146 average~ 3000;
#X obj 47 122 average~ 3000;
#X msg 392 128 rms;
#X obj 393 89 del 1000;
#X connect 0 0 14 0;
#X connect 1 0 10 4;
#X connect 2 0 10 5;
#X connect 3 0 10 6;
#X connect 4 0 10 7;
#X connect 5 0 23 0;
#X connect 5 1 22 0;
#X connect 5 2 20 0;
#X connect 5 3 21 0;
#X connect 5 4 19 0;
#X connect 5 5 18 0;
#X connect 5 6 16 0;
#X connect 5 7 17 0;
#X connect 6 0 10 0;
#X connect 7 0 10 1;
#X connect 8 0 10 2;
#X connect 9 0 10 3;
#X connect 10 0 12 0;
#X connect 11 0 6 0;
#X connect 11 1 4 0;
#X connect 11 1 3 0;
#X connect 11 1 2 0;
#X connect 11 1 1 0;
#X connect 11 1 9 0;
#X connect 11 1 8 0;
#X connect 11 1 7 0;
#X connect 13 0 0 0;
#X connect 14 0 11 0;
#X connect 15 0 25 0;
#X connect 16 0 3 0;
#X connect 17 0 4 0;
#X connect 18 0 2 0;
#X connect 19 0 1 0;
#X connect 20 0 8 0;
#X connect 21 0 9 0;
#X connect 22 0 7 0;
#X connect 23 0 6 0;
#X connect 24 0 17 0;
#X connect 24 0 16 0;
#X connect 24 0 18 0;
#X connect 24 0 19 0;
#X restore 1194 288 pd sensorRead;
#X obj 62 422 r sensors;
#X obj 928 621 s sensor_on;
#X msg 930 583 1;
#X obj 989 507 t b a b;
#X connect 0 0 1 0;
#X connect 1 0 4 0;
#X connect 1 0 6 0;
#X connect 1 0 8 0;
#X connect 1 1 5 0;
#X connect 2 0 3 0;
#X connect 3 0 1 0;
#X connect 7 0 25 0;
#X connect 8 0 9 0;
#X connect 9 0 7 0;
#X connect 9 1 0 0;
#X connect 10 0 27 0;
#X connect 11 0 14 0;
#X connect 11 0 23 0;
#X connect 12 0 34 0;
#X connect 13 0 15 0;
#X connect 13 1 16 0;
#X connect 13 1 17 0;
#X connect 13 1 18 0;
#X connect 13 1 19 0;
#X connect 13 1 20 0;
#X connect 13 1 21 0;
#X connect 13 1 22 0;
#X connect 14 0 15 1;
#X connect 14 0 22 1;
#X connect 14 0 21 1;
#X connect 14 0 20 1;
#X connect 14 0 19 1;
#X connect 14 0 18 1;
#X connect 14 0 17 1;
#X connect 14 0 16 1;
#X connect 15 0 12 0;
#X connect 16 0 12 1;
#X connect 17 0 12 2;
#X connect 18 0 12 3;
#X connect 19 0 12 4;
#X connect 20 0 12 5;
#X connect 21 0 12 6;
#X connect 22 0 12 7;
#X connect 23 0 13 0;
#X connect 24 0 1 0;
#X connect 25 0 1 0;
#X connect 26 0 59 0;
#X connect 27 0 26 0;
#X connect 28 0 26 0;
#X connect 29 0 33 0;
#X connect 30 0 29 0;
#X connect 31 0 43 0;
#X connect 32 0 33 0;
#X connect 33 0 45 0;
#X connect 34 0 2 0;
#X connect 35 0 44 0;
#X connect 37 0 36 0;
#X connect 38 0 39 0;
#X connect 39 0 40 0;
#X connect 40 0 34 0;
#X connect 42 0 11 0;
#X connect 42 1 41 0;
#X connect 42 1 38 0;
#X connect 42 2 25 0;
#X connect 43 0 42 0;
#X connect 44 0 42 0;
#X connect 45 0 31 0;
#X connect 45 1 35 0;
#X connect 45 2 51 0;
#X connect 45 3 37 0;
#X connect 46 0 33 0;
#X connect 49 0 33 0;
#X connect 51 0 52 0;
#X connect 52 0 67 0;
#X connect 53 1 56 0;
#X connect 54 0 57 0;
#X connect 56 0 54 0;
#X connect 57 1 55 0;
#X connect 58 0 61 0;
#X connect 59 0 58 0;
#X connect 60 0 58 0;
#X connect 61 0 62 0;
#X connect 61 1 28 0;
#X connect 62 0 30 0;
#X connect 64 0 34 0;
#X connect 66 0 65 0;
#X connect 67 0 66 0;
#X connect 67 1 38 0;
#X connect 67 2 25 0;
