#N canvas 544 90 1113 741 12;
#X msg 420 577 disconnect;
#X obj 207 609 netsend -u -b;
#X obj 207 539 list prepend send;
#X obj 207 570 list trim;
#X obj 74 639 print netsend;
#X obj 325 635 print netsend1;
#X obj 174 642 tgl 15 0 empty empty empty 17 7 0 10 -262144 -1 -1 1
1;
#X obj 207 698 delay 1000;
#X obj 207 638 sel 0 1;
#X obj 207 669 t b b;
#X obj 348 18 loadbang;
#X msg 314 58 1;
#X obj 207 296 pack 0 0 0 0 0 0 0 0;
#X obj 189 131 t b b;
#X obj 464 321 ipinfo;
#X msg 464 293 wlan0;
#X msg 523 291 en0;
#X obj 464 349 unpack s s;
#X obj 531 401 list prepend set;
#X obj 563 453 list trim;
#X obj 531 376 list append sensor;
#X obj 595 500 print ip_setting;
#X obj 531 426 t b l;
#X obj 207 501 oscformat 0.0.0.0 sensor;
#X msg 366 554 connect 192.168.0.255 51555;
#X obj 826 116 metro 1000;
#X obj 154 207 rndwalk;
#X obj 223 209 rndwalk;
#X obj 293 209 rndwalk;
#X obj 362 211 rndwalk;
#X obj 430 208 rndwalk;
#X obj 499 210 rndwalk;
#X obj 569 210 rndwalk;
#X obj 638 212 rndwalk;
#X obj 178 88 metro 20;
#X connect 0 0 1 0;
#X connect 1 0 4 0;
#X connect 1 0 6 0;
#X connect 1 0 8 0;
#X connect 1 1 5 0;
#X connect 2 0 3 0;
#X connect 3 0 1 0;
#X connect 7 0 24 0;
#X connect 8 0 9 0;
#X connect 8 1 15 0;
#X connect 9 0 7 0;
#X connect 9 1 0 0;
#X connect 10 0 24 0;
#X connect 11 0 25 0;
#X connect 11 0 34 0;
#X connect 12 0 23 0;
#X connect 13 0 26 0;
#X connect 13 1 27 0;
#X connect 13 1 28 0;
#X connect 13 1 29 0;
#X connect 13 1 30 0;
#X connect 13 1 31 0;
#X connect 13 1 32 0;
#X connect 13 1 33 0;
#X connect 14 0 17 0;
#X connect 15 0 14 0;
#X connect 16 0 14 0;
#X connect 17 1 20 0;
#X connect 18 0 22 0;
#X connect 19 0 21 0;
#X connect 19 0 23 0;
#X connect 20 0 18 0;
#X connect 22 0 11 0;
#X connect 22 1 19 0;
#X connect 23 0 2 0;
#X connect 24 0 1 0;
#X connect 25 0 26 1;
#X connect 25 0 33 1;
#X connect 25 0 32 1;
#X connect 25 0 31 1;
#X connect 25 0 30 1;
#X connect 25 0 29 1;
#X connect 25 0 28 1;
#X connect 25 0 27 1;
#X connect 26 0 12 0;
#X connect 27 0 12 1;
#X connect 28 0 12 2;
#X connect 29 0 12 3;
#X connect 30 0 12 4;
#X connect 31 0 12 5;
#X connect 32 0 12 6;
#X connect 33 0 12 7;
#X connect 34 0 13 0;
