#N canvas 198 141 1535 829 12;
#X declare -path ../_common;
#X obj 92 616 zmq;
#X text 57 34 sender;
#X msg 219 562 socket publish;
#X obj 180 513 t b b;
#X obj 183 482 bng 15 250 50 0 empty empty empty 17 7 0 10 -262144
-1 -1;
#X obj 953 583 zmq;
#X msg 1033 482 socket subscribe;
#X obj 953 632 print SUB;
#X obj 94 661 print PUB;
#X obj 962 448 t b b b;
#X obj 969 410 bng 15 250 50 0 empty empty empty 17 7 0 10 -262144
-1 -1;
#X msg 60 507 send test;
#X msg 527 75 1, f 5;
#X obj 199 335 pack 0 0 0 0 0 0 0 0;
#X obj 59 155 t b b;
#X obj 271 147 metro 1000;
#X obj 59 220 rndwalk;
#X obj 128 222 rndwalk;
#X obj 198 222 rndwalk;
#X obj 267 224 rndwalk;
#X obj 335 221 rndwalk;
#X obj 404 223 rndwalk;
#X obj 474 223 rndwalk;
#X obj 543 225 rndwalk;
#X obj 59 129 metro 20;
#X obj 10 10 declare -path ../_common;
#X msg 923 537 subscribe ctrl;
#X obj 160 398 list prepend send sensors id;
#X obj 161 430 list trim;
#X msg 636 491 connect tcp://192.168.178.20:5555;
#X msg 1011 600 close;
#X msg 384 491 connect tcp://192.168.178.20:5556;
#X msg 372 60 0;
#X msg 986 508 connect tcp://192.168.0.10:5555;
#X msg 157 591 connect tcp://192.168.0.10:5556;
#X obj 730 28 init;
#X obj 815 78 r my_id;
#X obj 815 107 symbol;
#X obj 809 147 t b a;
#X msg 529 393 send sensors \$1;
#X obj 586 282 t b b;
#X obj 292 660 del 100;
#X connect 0 0 8 0;
#X connect 2 0 0 0;
#X connect 3 0 34 0;
#X connect 3 0 41 0;
#X connect 3 1 2 0;
#X connect 4 0 3 0;
#X connect 5 0 7 0;
#X connect 6 0 5 0;
#X connect 9 0 26 0;
#X connect 9 1 33 0;
#X connect 9 2 6 0;
#X connect 10 0 9 0;
#X connect 11 0 0 0;
#X connect 12 0 15 0;
#X connect 12 0 24 0;
#X connect 13 0 27 0;
#X connect 14 0 16 0;
#X connect 14 1 17 0;
#X connect 14 1 18 0;
#X connect 14 1 19 0;
#X connect 14 1 20 0;
#X connect 14 1 21 0;
#X connect 14 1 22 0;
#X connect 14 1 23 0;
#X connect 15 0 16 1;
#X connect 15 0 23 1;
#X connect 15 0 22 1;
#X connect 15 0 21 1;
#X connect 15 0 20 1;
#X connect 15 0 19 1;
#X connect 15 0 18 1;
#X connect 15 0 17 1;
#X connect 16 0 13 0;
#X connect 17 0 13 1;
#X connect 18 0 13 2;
#X connect 19 0 13 3;
#X connect 20 0 13 4;
#X connect 21 0 13 5;
#X connect 22 0 13 6;
#X connect 23 0 13 7;
#X connect 24 0 14 0;
#X connect 26 0 5 0;
#X connect 27 0 28 0;
#X connect 28 0 0 0;
#X connect 29 0 5 0;
#X connect 30 0 5 0;
#X connect 31 0 0 0;
#X connect 32 0 24 0;
#X connect 33 0 5 0;
#X connect 34 0 0 0;
#X connect 36 0 37 0;
#X connect 37 0 38 0;
#X connect 38 0 40 0;
#X connect 38 1 39 0;
#X connect 39 0 27 1;
#X connect 40 1 3 0;
#X connect 41 0 12 0;
