#N canvas 360 202 1029 639 10;
#X obj 34 88 loadbang;
#X text 646 430 it will be sent to bela_i2c_in;
#X text 647 399 When the result of the read;
#X text 646 420 we requested is ready \,;
#X msg 650 109 debug 1;
#X msg 720 109 debug 0;
#X text 647 94 Enable/disable console logging;
#X msg 649 158 open 2 24;
#X msg 650 197 address 25;
#X msg 650 236 write 11 58 19;
#X text 648 259 Request to read 13 bytes;
#X msg 650 273 read 13;
#X text 646 183 ... the address can be changed any time with:;
#X text 646 143 The bus is unique for the whole patch ...;
#X text 648 222 Write some bytes;
#X text 648 316 (the last number is the number of bytes to read);
#X msg 650 330 writeread 1 2 3 13;
#X text 646 133 Open device on i2c bus 2 \, address 24;
#X text 647 409 (or writeread) operation;
#X text 648 295 Write some bytes and request to read back 13 bytes
;
#X text 648 306 all in the same I2C transaction("repeated start").
;
#X text 648 78 Reference for;
#X obj 743 77 send bela_i2c;
#X text 36 40 How to deal with I2C from Pd on Bela;
#X obj 38 495 send bela_i2c @hv_param;
#X obj 649 446 receive bela_i2c_in;
#X msg 137 426 debug 1;
#X obj 43 261 L3GD20;
#N canvas 362 186 1144 813 9DOF 0;
#X obj 429 221 delay 500;
#X msg 160 321 writeread 29 2;
#X msg 237 253 write 22 25;
#X msg 324 280 write 21 9;
#X text 396 281 Set the sample rate to 100 hz;
#X text 317 248 //Set the gyroscope scale for the outputs to +/-2000
degrees per second;
#X obj 307 177 delay 500;
#X obj 368 198 delay 500;
#X text 259 321 X;
#X msg 228 352 writeread 31 2;
#X msg 268 372 writeread 33 2;
#X obj 404 319 metro 2000;
#X msg 89 144 open 1 104;
#X msg 161 216 writeread 0 1;
#X obj 237 151 delay 500;
#X connect 0 0 11 0;
#X connect 6 0 2 0;
#X connect 6 0 7 0;
#X connect 7 0 3 0;
#X connect 7 0 0 0;
#X connect 11 0 9 0;
#X connect 14 0 13 0;
#X connect 14 0 6 0;
#X restore 438 35 pd 9DOF;
#X obj 648 483 print i2c;
#X obj 167 263 LSM303;
#X msg 78 185 open 1 107;
#X obj 34 109 t b b b;
#X obj 215 121 delay 200;
#X obj 404 177 t b;
#X obj 350 288 realtime;
#X obj 240 189 t b b;
#X obj 430 249 t b;
#X obj 355 320 print TIME;
#X obj 79 290 t b a;
#X obj 208 365 list append;
#X obj 204 398 print accel_gyro;
#X obj 221 156 metro 40;
#X connect 0 0 32 0;
#X connect 26 0 24 0;
#X connect 27 0 24 0;
#X connect 27 1 39 0;
#X connect 30 0 24 0;
#X connect 30 1 37 0;
#X connect 30 1 40 0;
#X connect 31 0 24 0;
#X connect 32 0 27 0;
#X connect 32 0 33 0;
#X connect 32 1 30 0;
#X connect 32 2 31 0;
#X connect 33 0 42 0;
#X connect 34 0 30 1;
#X connect 35 0 38 0;
#X connect 36 0 27 1;
#X connect 36 1 35 0;
#X connect 37 0 35 1;
#X connect 39 0 34 0;
#X connect 39 1 40 1;
#X connect 40 0 41 0;
#X connect 42 0 36 0;
