#N canvas 346 83 1240 659 12;
#X obj 85 38 inlet;
#X obj 61 617 outlet;
#X msg 389 202 writeread 15 1;
#X text 503 201 get id;
#X text 251 51 #define L3GD20_ID (0xD4) //!< L3GD20 ID;
#X text 252 69 #define L3GD20H_ID (0xD7) //!< L3GD20H ID;
#X msg 72 238 write 32 0;
#X text 154 242 reset;
#X msg 49 280 write 32 15;
#X text 131 278 enable all three channels;
#X text 678 425 read 6 bytes from sensor;
#X msg 565 424 writeread 168 6;
#X text 895 117 from i2c;
#X obj 816 95 receive bela_i2c_in;
#X obj 793 170 spigot;
#X obj 576 363 t b b;
#X msg 826 137 1;
#X obj 789 341 pack 0 0 0;
#X text 131 39 init;
#X obj 82 82 t b b b;
#X obj 623 49 inlet;
#X text 673 50 measure;
#X obj 790 224 t a b;
#X msg 871 148 0;
#X obj 785 611 outlet;
#X obj 789 267 unpack 0 0 0 0 0 0;
#X obj 810 290 << 8;
#X obj 789 312 +;
#X obj 861 290 << 8;
#X obj 840 312 +;
#X obj 913 291 << 8;
#X obj 892 313 +;
#X msg 134 170 address 107;
#X connect 0 0 19 0;
#X connect 2 0 1 0;
#X connect 6 0 1 0;
#X connect 8 0 1 0;
#X connect 11 0 1 0;
#X connect 13 0 14 0;
#X connect 14 0 22 0;
#X connect 15 0 11 0;
#X connect 15 1 16 0;
#X connect 15 1 32 0;
#X connect 16 0 14 1;
#X connect 17 0 24 0;
#X connect 19 0 8 0;
#X connect 19 1 6 0;
#X connect 19 2 32 0;
#X connect 20 0 15 0;
#X connect 22 0 25 0;
#X connect 22 1 23 0;
#X connect 23 0 14 1;
#X connect 25 0 27 0;
#X connect 25 1 26 0;
#X connect 25 2 29 0;
#X connect 25 3 28 0;
#X connect 25 4 31 0;
#X connect 25 5 30 0;
#X connect 26 0 27 1;
#X connect 27 0 17 0;
#X connect 28 0 29 1;
#X connect 29 0 17 1;
#X connect 30 0 31 1;
#X connect 31 0 17 2;
#X connect 32 0 1 0;
