#N canvas 277 79 1524 757 12;
#X text 904 79 from i2c;
#X obj 825 57 receive bela_i2c_in;
#X obj 1090 321 unpack 0 0 0 0 0 0;
#X obj 1090 351 << 8;
#X obj 1090 396 +;
#X obj 1132 351 << 8;
#X obj 1132 396 +;
#X obj 1174 351 << 8;
#X obj 1174 396 +;
#X obj 169 66 inlet;
#X obj 138 564 outlet;
#X obj 1090 476 pack 0 0 0, f 26;
#X text 207 68 init;
#X obj 865 649 outlet;
#X msg 157 170 write 2 0;
#X msg 238 483 writeread 9 1;
#X text 344 481 get SR_REG_M - check bit 0 to see if data is ready
;
#X msg 724 347 writeread 3 6;
#X text 829 348 read output data 6 bytes;
#X obj 725 203 spigot;
#X msg 755 162 1;
#X msg 795 163 0;
#X obj 239 455 t b b;
#X obj 724 229 & 1;
#X obj 723 294 sel 1;
#X obj 724 263 t a b;
#X obj 1090 222 spigot;
#X msg 1120 181 1;
#X msg 1160 182 0;
#X obj 724 321 t b b;
#X obj 607 76 inlet;
#X text 652 78 read MAG;
#X text 229 171 MR_REG - enable magnetometer;
#X msg 231 126 address 30;
#X text 310 127 LSM303 MAG;
#X obj 170 95 t b b;
#X text 765 650 MAG out;
#X text 1227 321 Note high before low (different than accel);
#X obj 1090 428 / 1100;
#X obj 1166 428 / 1100;
#X obj 1241 428 / 980;
#X obj 1090 450 * 100;
#X obj 1167 450 * 100;
#X obj 1241 450 * 100;
#X text 1294 448 Gauss to micro-tessla;
#X text 1291 428 Mag_Gauss_LSB_XY ... Mag_Gauss_LSB_Z - varies with
gain;
#X obj 893 574 list;
#X obj 818 523 t b;
#X text 721 409 data not ready just output the last one;
#X obj 1090 259 t a b;
#X obj 1091 501 t b a;
#X obj 819 108 t a a;
#X connect 1 0 51 0;
#X connect 2 0 3 0;
#X connect 2 1 4 1;
#X connect 2 2 5 0;
#X connect 2 3 6 1;
#X connect 2 4 7 0;
#X connect 2 5 8 1;
#X connect 3 0 4 0;
#X connect 4 0 38 0;
#X connect 5 0 6 0;
#X connect 6 0 39 0;
#X connect 7 0 8 0;
#X connect 8 0 40 0;
#X connect 9 0 35 0;
#X connect 11 0 50 0;
#X connect 14 0 10 0;
#X connect 15 0 10 0;
#X connect 17 0 10 0;
#X connect 19 0 23 0;
#X connect 20 0 19 1;
#X connect 21 0 19 1;
#X connect 22 0 15 0;
#X connect 22 1 20 0;
#X connect 22 1 33 0;
#X connect 23 0 25 0;
#X connect 24 0 29 0;
#X connect 24 1 47 0;
#X connect 25 0 24 0;
#X connect 25 1 21 0;
#X connect 26 0 49 0;
#X connect 27 0 26 1;
#X connect 28 0 26 1;
#X connect 29 0 17 0;
#X connect 29 1 27 0;
#X connect 30 0 22 0;
#X connect 33 0 10 0;
#X connect 35 0 14 0;
#X connect 35 1 33 0;
#X connect 38 0 41 0;
#X connect 39 0 42 0;
#X connect 40 0 43 0;
#X connect 41 0 11 0;
#X connect 42 0 11 1;
#X connect 43 0 11 2;
#X connect 46 0 13 0;
#X connect 47 0 46 0;
#X connect 49 0 2 0;
#X connect 49 1 28 0;
#X connect 50 0 46 0;
#X connect 50 1 46 1;
#X connect 51 0 19 0;
#X connect 51 1 26 0;
